<?xml version="1.0" encoding="utf-8"?>
<!-- Generator: Adobe Illustrator 16.0.0, SVG Export Plug-In . SVG Version: 6.00 Build 0)  -->
<!DOCTYPE svg PUBLIC "-//W3C//DTD SVG 1.1//EN" "http://www.w3.org/Graphics/SVG/1.1/DTD/svg11.dtd">
<svg version="1.1" id="Layer_1" xmlns="http://www.w3.org/2000/svg" xmlns:xlink="http://www.w3.org/1999/xlink" x="0px" y="0px"
	 width="1728px" height="864px" viewBox="0 0 1728 864" enable-background="new 0 0 1728 864" xml:space="preserve">
<path fill-rule="evenodd" clip-rule="evenodd" fill="#FFFFFF" d="M908.871,430.768c0-8.012,0-15.882,0-24.226
	c4.781,0,8.865,0,13.009,0c0-2.742,0-4.98,0-7.794c-4.443,0-8.522,0-12.844,0c-0.196-3.642-0.362-6.726-0.538-9.983
	c-2.557,0-4.799,0-7.297,0c-0.258,3.482-0.495,6.687-0.762,10.281c-3.318,0-6.079,0-8.926,0c0,2.809,0,5.158,0,7.864
	c3.25,0,6.035,0,9.357,0c0,8.096,0,15.842,0,23.857C903.676,430.768,905.922,430.768,908.871,430.768z"/>
<path fill-rule="evenodd" clip-rule="evenodd" d="M908.871,430.768c-2.949,0-5.195,0-8,0c0-8.016,0-15.762,0-23.857
	c-3.322,0-6.107,0-9.357,0c0-2.706,0-5.056,0-7.864c2.847,0,5.607,0,8.926,0c0.267-3.595,0.504-6.799,0.762-10.281
	c2.498,0,4.74,0,7.297,0c0.176,3.258,0.342,6.342,0.538,9.983c4.321,0,8.4,0,12.844,0c0,2.813,0,5.052,0,7.794
	c-4.144,0-8.228,0-13.009,0C908.871,414.886,908.871,422.756,908.871,430.768z"/>
<path fill-rule="evenodd" clip-rule="evenodd" fill="#FFFFFF" d="M958.625,434.33c6.633,2.969,10.99,7.888,12.798,14.975
	c1.808,7.085-0.435,13.397-4.192,19.412c9.111-7.936,9.678-21.639,1.126-29.549c-2.56-2.367-6.542-3.195-9.872-4.729
	c-2.739-4.626-1.377-9.224,0.463-13.595c3.322-7.89,6.968-15.643,10.955-24.514c-2.22,2.076-4.54,3.32-5.415,5.228
	c-3.586,7.818-6.803,15.81-10.011,23.796C952.752,429.647,954.014,432.821,958.625,434.33z"/>
<path fill-rule="evenodd" clip-rule="evenodd" fill="#FFFFFF" d="M1113.271,538.845c0.034-1.776,0.327-3.592,0.062-5.322
	c-1.943-12.72,6.144-23.648,18.902-25.384c0.823-0.112,1.661-0.106,2.488-0.193c0.636-0.065,1.266-0.189,1.897-0.288
	c-7.929-2.69-14.616-0.45-20.039,5.178c-5.649,5.863-7.112,12.975-4.748,20.82c0.519,1.72,0.965,3.461,1.444,5.192
	c1.287,3.592-1.286,4.941-3.724,6.297c-9.157,5.093-18.729,9.096-29.245,11.323c2.016,0.933,4.396,2.125,6.107,1.495
	c8.84-3.249,17.589-6.783,26.163-10.674c1.671-0.759,2.731-3.43,3.423-5.442C1116.212,541.234,1114.237,539.872,1113.271,538.845z"
	/>
<path fill-rule="evenodd" clip-rule="evenodd" fill="#FFFFFF" d="M1115.699,388.969c7.55-2.085,7.55-2.085,7.55-9.989
	c0.001-10.325,0-20.65,0-30.976c0-3.615,0-7.229,0-11.386c-2.646,0.606-4.578,0.973-6.468,1.494
	c-17.476,4.824-34.896,9.858-52.451,14.375c-3.787,0.975-8.259,0.936-12.053-0.043c-17.227-4.442-34.321-9.4-51.473-14.137
	c-2.15-0.593-4.361-0.969-7.227-1.596c0,2.523,0,4.316,0,6.109c0,11.99-0.001,23.981-0.001,35.972c0,7.947,0.002,7.942,7.433,9.803
	c0.223,0.056,0.347,0.506,0.625,0.943c-3.343,6.242-8.88,9.478-16.195,11.065c6.869,0.5,12.869-2.403,16.779-8.583
	c1.762-2.784,3.525-3.311,6.529-2.784c16.413,2.876,31.945,8.053,45.85,17.418c2.732,1.84,4.652,2.041,7.508,0.108
	c13.882-9.395,29.423-14.575,45.829-17.484c2.966-0.525,4.739-0.12,6.524,2.71c3.736,5.924,9.349,8.946,16.375,8.806
	C1124.484,398.771,1119.121,395.561,1115.699,388.969z"/>
<path fill-rule="evenodd" clip-rule="evenodd" fill="#FFFFFF" d="M591.031,409.434c0,4.491-0.009,8.983,0.002,13.475
	c0.019,7.564,0.479,8.037,7.813,8.055c3.66,0.009,7.336-0.222,10.977,0.04c15.959,1.147,25.323-5.22,23.839-24.542
	c-0.013-0.166-0.003-0.333-0.009-0.499c-0.375-10.326-7.024-17.149-17.314-17.465c-6.482-0.198-12.978,0.08-19.461-0.093
	c-4.374-0.117-5.963,1.938-5.869,6.058C591.123,399.451,591.036,404.443,591.031,409.434z"/>
<path fill-rule="evenodd" clip-rule="evenodd" fill="#FFFFFF" d="M793.98,423.393c-4.394,0-8.233,0.227-12.022-0.109
	c-1.558-0.138-4.225-1.387-4.299-2.3c-0.344-4.242-0.686-8.779,0.575-12.693c0.429-1.331,5.55-1.213,8.545-1.625
	c1.307-0.181,2.679,0.118,3.987-0.057c4.883-0.652,7.122,1.048,6.594,6.304c-0.397,3.955-0.079,7.982-0.079,11.977
	c0,12.263,0,12.263-12.443,12.535c-0.333,0.008-0.669,0.037-0.998,0.004c-2.91-0.305-3.662,1.168-3.67,3.857
	c-0.008,2.771,0.949,3.949,3.766,3.832c3.323-0.137,6.663,0.086,9.984-0.072c6.891-0.33,10.922-4.059,11.165-10.908
	c0.288-8.147,0.203-16.313,0.031-24.465c-0.089-4.23-1.667-8.332-6.003-9.502c-8.421-2.271-17.513-3.642-25.208,0.976
	c-7.117,4.27-4.237,12.559-4.465,19.359c-0.017,0.494,0.084,0.996,0.166,1.487c0.846,5.075,3.922,8.242,8.908,8.708
	c5.057,0.473,10.192,0.104,15.731,0.104c0-1.575,0.027-2.709-0.009-3.841C794.206,426,794.102,425.039,793.98,423.393z"/>
<path fill-rule="evenodd" clip-rule="evenodd" fill="#FFFFFF" d="M932.679,544.463c1.023-7.446,1.023-7.438-5.465-7.473
	c-2.328-0.013-4.783,0.361-6.938-0.268c-1.498-0.438-3.42-2.134-3.678-3.539c-0.561-3.055-0.566-6.354-0.002-9.407
	c0.251-1.361,2.318-3.195,3.743-3.376c3.767-0.476,7.64-0.021,11.456-0.211c3.471-0.173,4.849,1.377,4.828,4.69
	c-0.043,6.986-0.076,13.974,0.016,20.959c0.047,3.582-1.564,5.188-5.102,5.13c-3.771-0.063-7.543-0.015-11.16-0.015
	c-1.391,7.469-1.252,7.66,5.084,7.678c2.66,0.007,5.33,0.106,7.982-0.061c6.9-0.436,10.67-4.301,10.772-11.203
	c0.117-7.816,0.089-15.637,0.012-23.454c-0.067-6.861-3.702-10.995-10.51-11.463c-4.964-0.341-9.981-0.223-14.956,0.041
	c-4.52,0.239-8.605,2.419-9.198,6.996c-0.775,5.991-0.786,12.237,0.005,18.225c0.572,4.329,4.623,6.418,8.91,6.685
	C923.095,544.685,927.742,544.463,932.679,544.463z"/>
<path fill-rule="evenodd" clip-rule="evenodd" fill="#FFFFFF" d="M660.288,456.571c-5.532,0-10.689-0.449-15.731,0.119
	c-5.584,0.63-8.483,4.154-8.813,9.805c-0.242,4.143-0.281,8.336,0.075,12.465c0.464,5.375,4.16,9.1,9.35,9.367
	c5.478,0.281,11.004,0.356,16.467-0.049c4.917-0.364,9.021-3.109,9.206-8.253c0.438-12.225,0.141-24.476,0.141-37.003
	c-2.377,0-4.616,0-6.732,0c-0.266,0.581-0.515,0.874-0.517,1.167c-0.056,9.486-0.098,18.973-0.12,28.459
	c-0.019,8.217-0.04,8.288-8.392,8.258c-13.577-0.049-11.684,1.162-11.807-12.757c-0.026-3.011,1.451-4.11,4.35-4.025
	c4.099,0.119,8.203,0.03,12.522,0.03C660.288,461.38,660.288,459.269,660.288,456.571z"/>
<path fill-rule="evenodd" clip-rule="evenodd" fill="#FFFFFF" d="M629.507,480.915c-2.17,0-3.955,0.001-5.741,0
	c-6.493-0.004-12.987-0.08-19.479,0.017c-3.888,0.058-5.819-1.291-5.629-5.553c0.266-5.981,0.191-11.987,0.018-17.977
	c-0.088-3.054,1.032-4.102,4.048-4.036c6.989,0.149,13.984,0.052,20.977,0.041c6.702-0.011,7.043-0.484,5.152-7.544
	c-11.029,0-22.165-0.007-33.301,0.004c-3.077,0.003-4.667,1.711-4.675,4.658c-0.026,9.32-0.156,18.649,0.207,27.958
	c0.215,5.498,3.421,9.371,8.44,9.602c9.901,0.454,19.838,0.134,29.983,0.134C629.507,485.814,629.507,483.869,629.507,480.915z"/>
<path fill-rule="evenodd" clip-rule="evenodd" fill="#FFFFFF" d="M629.588,536.985c-8.761,0-16.907-0.092-25.05,0.038
	c-4.229,0.067-6.047-1.655-5.884-5.949c0.201-5.316,0.173-10.649,0.01-15.968c-0.126-4.104,1.722-5.779,5.688-5.579
	c1.991,0.101,3.992,0.009,5.988,0.009c6.406-0.002,12.812-0.001,19.211-0.001c0-2.975,0-5.058,0-7.509
	c-9.913,0-19.533-0.265-29.129,0.102c-5.522,0.211-9.049,4.482-9.25,10.544c-0.236,7.146-0.221,14.309-0.019,21.456
	c0.155,5.497,3.42,9.78,8.583,10.028c9.891,0.475,19.821,0.139,29.851,0.139C629.588,541.783,629.588,539.704,629.588,536.985z"/>
<path fill-rule="evenodd" clip-rule="evenodd" fill="#FFFFFF" d="M781.094,467.232c-5.278,0-9.943-0.199-14.584,0.05
	c-5.99,0.322-9.785,4.514-9.885,10.439c-0.1,5.891,3.637,10.23,9.667,10.596c5.144,0.311,10.33,0.273,15.481,0.038
	c5.821-0.267,9.562-3.983,9.962-9.836c0.272-3.977,0.24-7.995,0.03-11.979c-0.291-5.517-3.335-9.35-8.773-9.855
	c-6.043-0.562-12.179-0.128-18.495-0.128c0,2.383,0,4.438,0,7.054c5.134,0,9.932,0.035,14.729-0.012
	c3.68-0.036,5.354,1.537,5.5,5.39c0.461,12.194,0.563,12.19-11.661,12.188c-1.332,0-2.845,0.399-3.957-0.097
	c-1.83-0.817-3.401-2.217-5.081-3.37c1.748-1.092,3.405-2.893,5.261-3.128c3.848-0.489,7.802-0.147,11.806-0.147
	C781.094,471.635,781.094,469.702,781.094,467.232z"/>
<path fill-rule="evenodd" clip-rule="evenodd" fill="#FFFFFF" d="M822.462,419.525c1.118,0.202,1.756,0.411,2.396,0.417
	c3.833,0.036,7.669,0.14,11.497,0.004c6.163-0.218,10.138-4.013,10.546-9.845c0.382-5.453-2.995-10.163-8.894-10.792
	c-5.91-0.63-11.964-0.488-17.907-0.044c-4.649,0.348-7.752,3.592-8.217,8.138c-0.52,5.093-0.461,10.324,0.064,15.42
	c0.43,4.162,3.45,7.196,7.555,7.627c5.357,0.562,10.818,0.138,16.213,0.138c0-2.461,0-4.5,0-6.927
	c-4.254,0-8.125,0.391-11.854-0.169c-1.785-0.269-4.437-2.101-4.757-3.629c-2.423-11.599-0.511-13.768,11.21-13.752
	c1.666,0.002,3.507-0.384,4.949,0.199c1.552,0.627,2.728,2.183,4.068,3.333c-1.425,1.018-2.778,2.762-4.291,2.914
	c-4.072,0.41-8.213,0.14-12.579,0.14C822.462,415.264,822.462,417.195,822.462,419.525z"/>
<path fill-rule="evenodd" clip-rule="evenodd" fill="#FFFFFF" d="M653.043,544.521c2.162,0,4.326,0.052,6.486-0.01
	c7.546-0.214,11.227-3.967,11.306-11.513c0.033-3.159,0.067-6.321-0.009-9.479c-0.161-6.662-3.693-10.542-10.342-11.064
	c-3.638-0.285-7.312-0.154-10.97-0.141c-10.77,0.039-14.267,3.588-14.299,14.45C635.168,542.496,637.206,544.526,653.043,544.521z"
	/>
<path fill-rule="evenodd" clip-rule="evenodd" fill="#FFFFFF" d="M865.417,488.443c1.827,0,3.654,0.022,5.48-0.003
	c8.051-0.113,11.975-3.95,12.094-11.871c0.048-3.154,0.13-6.316-0.033-9.463c-0.328-6.385-3.887-10.169-10.238-10.697
	c-3.63-0.302-7.299-0.183-10.95-0.176c-10.979,0.02-14.239,3.296-14.251,14.252C847.499,486.813,849.126,488.446,865.417,488.443z"
	/>
<path fill-rule="evenodd" clip-rule="evenodd" fill="#FFFFFF" d="M707.269,419.901c5.232,0,10.189,0.209,15.121-0.059
	c5.058-0.273,8.568-3.939,9.167-8.951c0.64-5.354-1.904-10.49-6.968-11.121c-6.846-0.853-14.144-1.52-20.75-0.043
	c-9.504,2.123-7.362,10.909-7.471,17.85c-0.121,7.675,2.149,11.975,7.693,12.762c5.455,0.773,11.106,0.169,16.525,0.169
	c0-2.463,0-4.504,0-6.84c-4.115,0-7.773-0.093-11.426,0.025c-4.063,0.131-5.555-1.747-5.636-5.741
	c-0.242-11.853-0.347-11.852,11.554-11.843c1.5,0.001,3.171-0.399,4.456,0.131c1.717,0.709,3.133,2.146,4.679,3.271
	c-1.551,1.063-3.02,2.86-4.667,3.042c-4.037,0.446-8.155,0.146-12.274,0.146C707.269,415.463,707.269,417.395,707.269,419.901z"/>
<path fill-rule="evenodd" clip-rule="evenodd" fill="#FFFFFF" d="M747.186,512.398c-6.688,0-12.83-0.262-18.938,0.075
	c-5.911,0.326-9.515,4.433-9.21,9.683c0.295,5.086,3.932,8.188,9.904,8.333c3.491,0.085,7.021-0.255,10.461,0.175
	c1.388,0.174,2.582,1.896,3.864,2.912c-1.173,1.098-2.176,2.679-3.563,3.167c-1.64,0.577-3.611,0.239-5.439,0.246
	c-4.757,0.017-9.513,0.006-14.468,0.006c0,2.818,0,4.893,0,7.341c7.688,0,15.149,0.4,22.544-0.129
	c5.798-0.415,9.176-5.457,8.685-11.382c-0.471-5.679-4.348-9.493-10.053-9.702c-3.488-0.128-6.989,0.063-10.476-0.087
	c-1.199-0.051-2.372-0.701-3.556-1.078c0.09-0.553,0.181-1.105,0.271-1.658c6.618,0,13.236,0,19.975,0
	C747.186,517.326,747.186,515.22,747.186,512.398z"/>
<path fill-rule="evenodd" clip-rule="evenodd" fill="#FFFFFF" d="M902.591,544.334c0-6.257,0.201-12.049-0.049-17.822
	c-0.352-8.158-5.184-13.318-13.418-13.984c-5.78-0.468-11.646-0.458-17.425-0.012c-1.723,0.134-4.623,2.404-4.687,3.801
	c-0.422,9.234-0.219,18.498-0.219,27.863c2.785,0,5.012,0,7.87,0c0-8.042,0-15.755,0-23.948c4.41,0,8.197-0.043,11.983,0.01
	c5.964,0.084,7.994,2.142,8.041,8.159c0.041,5.258,0.009,10.516,0.009,15.934C897.585,544.334,899.714,544.334,902.591,544.334z"/>
<path fill-rule="evenodd" clip-rule="evenodd" fill="#FFFFFF" d="M887.535,430.715c0-6.912,0.346-13.396-0.1-19.826
	c-0.428-6.167-4.42-10.601-10.752-11.379c-6.725-0.827-13.592-0.691-20.39-0.555c-1.35,0.026-3.779,1.925-3.814,3.021
	c-0.303,9.57-0.175,19.153-0.175,28.7c2.764,0,4.875,0,7.542,0c0-8.016,0-15.76,0-24.041c4.333,0,8.119-0.032,11.905,0.008
	c6.141,0.065,8.02,1.922,8.087,8.076c0.059,5.258,0.012,10.517,0.012,15.996C882.744,430.715,884.85,430.715,887.535,430.715z"/>
<path fill-rule="evenodd" clip-rule="evenodd" fill="#FFFFFF" d="M685.354,520.716c1.293-0.263,1.769-0.439,2.246-0.444
	c3.332-0.033,6.666-0.084,9.997-0.027c5.707,0.097,7.813,2.181,7.886,7.872c0.068,5.279,0.015,10.561,0.015,16.117
	c2.882,0,5.124,0,7.532,0c0.158-1.019,0.39-1.817,0.39-2.617c-0.003-5.163,0.205-10.346-0.153-15.487
	c-0.563-8.078-5.239-12.947-13.321-13.599c-5.796-0.467-11.677-0.457-17.47-0.009c-1.698,0.132-4.551,2.433-4.614,3.841
	c-0.417,9.257-0.215,18.542-0.215,27.78c2.827,0,5.053,0,7.708,0C685.354,536.156,685.354,528.539,685.354,520.716z"/>
<path fill-rule="evenodd" clip-rule="evenodd" fill="#FFFFFF" d="M925.112,488.156c0-6.401,0.307-12.542-0.076-18.641
	c-0.484-7.694-4.91-12.324-12.598-13.002c-5.953-0.525-11.996-0.454-17.963-0.079c-1.644,0.103-4.471,2.188-4.523,3.456
	c-0.387,9.399-0.209,18.822-0.209,28.136c2.955,0,5.184,0,7.989,0c0-8.129,0-15.856,0-23.875c4.405,0,8.216-0.046,12.025,0.012
	c5.615,0.085,7.798,2.234,7.89,7.896c0.086,5.289,0.019,10.582,0.019,16.098C920.428,488.156,922.661,488.156,925.112,488.156z"/>
<path fill-rule="evenodd" clip-rule="evenodd" fill="#FFFFFF" d="M756.396,512.93c0,6.733-0.516,13.56,0.149,20.27
	c0.626,6.321,5.863,10.764,12.327,11.159c6.144,0.377,12.342,0.371,18.48-0.026c1.552-0.101,4.193-2.289,4.246-3.602
	c0.371-9.272,0.197-18.565,0.197-28.092c-2.71,0-4.923,0-7.697,0c0,8.082,0,15.854,0,24.082c-4.989,0-9.439,0.163-13.872-0.047
	c-4.232-0.2-6.185-2.815-6.217-6.942c-0.028-3.666-0.011-7.332-0.018-10.998C763.981,511.65,763.82,511.524,756.396,512.93z"/>
<path fill-rule="evenodd" clip-rule="evenodd" fill="#FFFFFF" d="M706.328,480.805c-4.968,0-9.108,0.237-13.21-0.06
	c-5.296-0.384-7.173-2.657-7.238-8.151c-0.062-5.283-0.013-10.566-0.013-15.98c-2.736,0-4.927,0-7.593,0
	c0,5.341-0.019,10.306,0.011,15.27c0.01,1.66,0.001,3.34,0.243,4.975c0.921,6.232,5.617,10.953,12.097,11.387
	c6.295,0.42,12.647,0.355,18.948,0.016c1.458-0.079,3.981-2.103,4.024-3.303c0.335-9.406,0.186-18.83,0.186-28.46
	c-2.753,0-4.839,0-7.455,0C706.328,464.507,706.328,472.269,706.328,480.805z"/>
<path fill-rule="evenodd" clip-rule="evenodd" fill="#FFFFFF" d="M751.947,456.38c-7.55,0-14.528-0.311-21.465,0.094
	c-6.132,0.357-9.435,4.297-9.85,10.534c-0.924,13.877,0.833,19.896,7.636,20.762c7.766,0.988,15.754,0.229,23.466,0.229
	c0-2.496,0-4.572,0-7.083c-4.201,0-8.003-0.003-11.806,0c-13.667,0.013-11.059,0.39-11.461-11.595
	c-0.129-3.839,1.103-5.415,5.12-5.239c6.074,0.267,12.168,0.069,18.36,0.069C751.947,461.24,751.947,459.107,751.947,456.38z"/>
<path fill-rule="evenodd" clip-rule="evenodd" fill="#FFFFFF" d="M656.079,399.353c0,9.338-0.165,18.786,0.208,28.213
	c0.047,1.185,2.884,3.151,4.511,3.239c14.139,0.769,32.223-17.153,32.348-31.751c-6.589-0.624-6.05-0.307-9.238,5.111
	c-3.317,5.637-7.533,10.836-11.946,15.689c-1.706,1.877-5.032,2.281-8.448,3.701c0-7.204,0.009-13.018-0.002-18.831
	C663.499,398.214,663.448,398.181,656.079,399.353z"/>
<path fill-rule="evenodd" clip-rule="evenodd" fill="#FFFFFF" d="M824.75,512.058c-3.609,0.203-6.517,0.366-9.41,0.529
	c0,2.788,0,5.023,0,7.42c3.272,0.169,6.198,0.32,9.703,0.501c0,8.052,0,15.794,0,23.663c2.844,0,5.071,0,7.922,0
	c0-8.065,0-15.801,0-24.159c4.841,0,9.058,0,13.083,0c0-2.904,0-5.129,0-7.922c-4.513,0-8.589,0-12.826,0
	c-0.258-3.628-0.476-6.7-0.69-9.715c-2.684,0-4.894,0-7.316,0C825.054,505.745,824.912,508.682,824.75,512.058z"/>
<path fill-rule="evenodd" clip-rule="evenodd" fill="#FFFFFF" d="M814.11,488.152c0-8.012,0-15.882,0-24.226
	c4.782,0,8.866,0,13.009,0c0-2.742,0-4.98,0-7.794c-4.443,0-8.523,0-12.844,0c-0.196-3.642-0.362-6.726-0.538-9.983
	c-2.556,0-4.798,0-7.296,0c-0.258,3.482-0.496,6.687-0.762,10.281c-3.319,0-6.08,0-8.926,0c0,2.809,0,5.158,0,7.864
	c3.25,0,6.035,0,9.357,0c0,8.096,0,15.842,0,23.857C808.915,488.152,811.161,488.152,814.11,488.152z"/>
<path fill-rule="evenodd" clip-rule="evenodd" fill="#FFFFFF" d="M744.352,430.702c0-6.374,0.143-12.338-0.048-18.29
	c-0.135-4.202,1.305-6.116,5.773-5.845c4.904,0.299,9.84,0.068,14.645,0.068c0.991-7.892,0.991-7.902-5.705-7.898
	c-3.823,0.002-7.663-0.175-11.464,0.123c-6.082,0.477-10.11,3.524-10.447,8.791c-0.484,7.571-0.124,15.197-0.124,23.051
	C739.434,430.702,741.553,430.702,744.352,430.702z"/>
<path fill-rule="evenodd" clip-rule="evenodd" fill="#FFFFFF" d="M812.998,537.593c-6.28-1.657-6.289-1.657-6.293-7.829
	c-0.007-10.11-0.002-20.222-0.002-30.439c-2.864,0-5.08,0-7.682,0c0,12.186-0.307,23.99,0.117,35.768
	c0.246,6.821,6.641,10.47,13.86,8.635C812.998,541.802,812.998,539.846,812.998,537.593z"/>
<path fill-rule="evenodd" clip-rule="evenodd" fill="#FFFFFF" d="M1153.566,471.647c-12.793-13.753-10.202-28.99,6.315-37.808
	c1.907-1.018,4.134-4.88,3.571-6.51c-3.14-9.08-6.926-17.955-10.916-26.705c-0.764-1.674-3.438-2.477-5.074-3.578
	c3.832,8.971,7.784,17.274,10.934,25.872c2.961,8.08,2.551,8.151-4.937,12.344c-7.508,4.204-11.358,10.786-11.027,19.318
	C1142.732,462.328,1146.276,468.381,1153.566,471.647z"/>
<path fill-rule="evenodd" clip-rule="evenodd" fill="#FFFFFF" d="M648.523,430.643c0-8.729,0.006-17.158-0.001-25.588
	c-0.006-6.961-0.277-7.163-7.686-5.635c0,10.324,0,20.697,0,31.223C643.409,430.643,645.653,430.643,648.523,430.643z"/>
<path fill-rule="evenodd" clip-rule="evenodd" fill="#FFFFFF" d="M840.366,456.503c-2.566,0-4.656,0-7.106,0
	c0,10.626,0,20.981,0,31.599c2.456,0,4.662,0,7.106,0C840.366,477.529,840.366,467.297,840.366,456.503z"/>
<path fill-rule="evenodd" clip-rule="evenodd" fill="#FFFFFF" d="M858.992,544.294c0-10.618,0-21.009,0-31.639
	c-2.473,0-4.673,0-6.97,0c0,10.746,0,21.145,0,31.639C854.441,544.294,856.557,544.294,858.992,544.294z"/>
<path fill-rule="evenodd" clip-rule="evenodd" fill="#FFFFFF" d="M625.845,463.69c-8.289,0-15.977,0-23.666,0
	c0,2.577,0,4.774,0,7.012c8.126,0,15.813,0,23.666,0C625.845,468.23,625.845,466.116,625.845,463.69z"/>
<path fill-rule="evenodd" clip-rule="evenodd" fill="#FFFFFF" d="M1159.848,474.459c-0.725,13.802-6.136,25.498-14.406,36.171
	c3.316,1.448,6.019,0.132,7.463-3.187c3.641-8.368,7.113-16.813,10.447-25.308C1164.922,478.135,1163.217,475.517,1159.848,474.459z
	"/>
<path fill-rule="evenodd" clip-rule="evenodd" fill="#FFFFFF" d="M956.959,475.454c-0.536-0.138-1.072-0.274-1.608-0.412
	c-0.45,2.173-1.845,4.698-1.189,6.46c3.352,9.004,7.056,17.891,11.017,26.646c1.529,3.381,4.615,3.748,8.216,1.92
	C966.238,507.179,956.232,485.666,956.959,475.454z"/>
<path fill-rule="evenodd" clip-rule="evenodd" fill="#FFFFFF" d="M1038.955,552.762c-7.532,5.437-13.535,0.261-19.485-1.876
	c-6.276-2.255-12.024-5.982-17.954-9.041c-0.758,2.639,1.157,4.62,3.916,5.799c8.065,3.446,16.189,6.757,24.326,10.032
	C1034.135,559.437,1037.148,557.979,1038.955,552.762z"/>
<path fill-rule="evenodd" clip-rule="evenodd" fill="#FFFFFF" d="M977.531,508.242c7.215-1.151,13.82,0.213,19.447,4.951
	c5.515,4.644,7.889,10.863,8.03,18.067c1.835-8.562-0.654-15.56-7.497-20.707C991.408,505.963,984.705,504.743,977.531,508.242z"/>
<path fill-rule="evenodd" clip-rule="evenodd" fill="#FFFFFF" d="M1040.223,549.202c11.657-11.296,20.689-12.101,35.504-2.098
	c-5.359-7.233-11.688-9.985-19.516-9.251C1048.729,538.555,1043.409,542.472,1040.223,549.202z"/>
<path fill-rule="evenodd" clip-rule="evenodd" fill="#FFFFFF" d="M841.182,439.896c-3.281,0-5.504,0-8.441,0
	c0.479,2.356,0.261,5.003,1.39,5.846c1.263,0.941,4.258,0.967,5.545,0.051C840.814,444.981,840.643,442.331,841.182,439.896z"/>
<path fill-rule="evenodd" clip-rule="evenodd" fill="#FFFFFF" d="M852.093,499.146c0,2.458,0,4.35,0,6.196
	c7.467,0.8,7.946,0.332,6.478-6.196C856.522,499.146,854.421,499.146,852.093,499.146z"/>
<path fill-rule="evenodd" clip-rule="evenodd" fill="#000040" stroke="#000000" stroke-miterlimit="10" d="M1060,292
	c14.025,4.043,28.033,8.146,42.08,12.115c16.979,4.798,33.99,9.477,50.981,14.228c1.538,0.431,3.032,1.011,5.183,2.191
	c-7.334,0.337-6.221,5.178-6.193,9.433c0.024,3.664-0.031,7.328,0.016,10.991c0.052,4.008-1.045,8.311,3.597,10.995
	c0.989,0.572,1.524,2.626,1.567,4.019c0.174,5.6,0.072,11.209,0.072,17.109c-5.393,0-10.315,0-15.733,0
	c0-6.295-0.013-12.511,0.025-18.726c0.003-0.461,0.229-1.116,0.575-1.352c6.882-4.667,4.199-11.768,4.576-18.051
	c0.195-3.265,0.033-6.552,0.033-10.517c-2.498,0.549-4.24,0.851-5.938,1.316c-25.989,7.139-51.953,14.373-77.986,21.346
	c-2.862,0.767-6.295,0.722-9.163-0.056c-29.227-7.915-58.392-16.059-87.571-24.146c-2.379-0.659-4.741-1.377-7.223-3.093
	c2.935-0.881,5.855-1.813,8.807-2.632c28.38-7.882,56.766-15.738,85.144-23.627c1.417-0.395,2.769-1.024,4.151-1.545
	C1058,292,1059,292,1060,292z"/>
<path fill-rule="evenodd" clip-rule="evenodd" fill="#000040" stroke="#000000" stroke-miterlimit="10" d="M1115.699,388.969
	c3.422,6.592,8.785,9.802,15.135,11.826c-7.026,0.141-12.639-2.882-16.375-8.806c-1.785-2.83-3.559-3.235-6.524-2.71
	c-16.406,2.909-31.947,8.09-45.829,17.484c-2.855,1.933-4.775,1.731-7.508-0.108c-13.904-9.365-29.437-14.542-45.85-17.418
	c-3.004-0.526-4.768,0-6.529,2.784c-3.91,6.18-9.91,9.083-16.779,8.583c7.315-1.588,12.853-4.823,16.195-11.065
	c-0.278-0.438-0.402-0.888-0.625-0.943c-7.431-1.86-7.433-1.855-7.433-9.803c0-11.99,0.001-23.981,0.001-35.972
	c0-1.793,0-3.586,0-6.109c2.865,0.627,5.076,1.003,7.227,1.596c17.151,4.736,34.246,9.694,51.473,14.137
	c3.794,0.979,8.266,1.018,12.053,0.043c17.555-4.517,34.976-9.551,52.451-14.375c1.89-0.521,3.822-0.888,6.468-1.494
	c0,4.156,0,7.771,0,11.386c0,10.325,0.001,20.65,0,30.976C1123.249,386.884,1123.249,386.884,1115.699,388.969z"/>
<path fill-rule="evenodd" clip-rule="evenodd" d="M591.033,409.434c0.002-4.991,0.09-9.983-0.025-14.972
	c-0.094-4.119,1.495-6.175,5.869-6.058c6.483,0.173,12.979-0.105,19.461,0.093c10.291,0.315,16.939,7.139,17.314,17.465
	c0.006,0.166-0.004,0.333,0.009,0.499c1.484,19.322-7.88,25.689-23.839,24.542c-3.641-0.262-7.317-0.031-10.977-0.04
	c-7.333-0.018-7.794-0.49-7.813-8.055C591.022,418.417,591.031,413.925,591.033,409.434z M599.199,423.069
	c6.387,0,12.188,0.215,17.964-0.063c5.247-0.252,7.968-3.526,8.798-8.6c1.353-8.261-0.518-14.814-4.986-17.092
	c-0.443-0.226-0.909-0.538-1.376-0.563c-6.723-0.357-13.448-0.673-20.4-1.009C599.199,405.4,599.199,414.016,599.199,423.069z"/>
<path fill-rule="evenodd" clip-rule="evenodd" d="M793.98,423.393c0.122,1.646,0.226,2.607,0.256,3.57
	c0.036,1.132,0.009,2.266,0.009,3.841c-5.54,0-10.675,0.368-15.731-0.104c-4.986-0.466-8.062-3.633-8.908-8.708
	c-0.082-0.491-0.182-0.993-0.166-1.487c0.228-6.801-2.651-15.09,4.465-19.359c7.695-4.617,16.787-3.246,25.208-0.976
	c4.335,1.17,5.914,5.271,6.003,9.502c0.172,8.152,0.257,16.318-0.031,24.465c-0.242,6.85-4.273,10.578-11.165,10.908
	c-3.322,0.158-6.661-0.064-9.984,0.072c-2.817,0.117-3.774-1.061-3.766-3.832c0.008-2.689,0.76-4.162,3.67-3.857
	c0.329,0.033,0.666,0.004,0.998-0.004c12.443-0.271,12.443-0.271,12.443-12.535c0-3.994-0.319-8.021,0.079-11.977
	c0.528-5.256-1.71-6.956-6.594-6.304c-1.308,0.175-2.68-0.124-3.987,0.057c-2.995,0.412-8.116,0.294-8.545,1.625
	c-1.261,3.914-0.919,8.451-0.575,12.693c0.074,0.913,2.742,2.162,4.299,2.3C785.747,423.62,789.586,423.393,793.98,423.393z"/>
<path fill-rule="evenodd" clip-rule="evenodd" d="M932.679,544.463c-4.937,0-9.584,0.222-14.199-0.065
	c-4.287-0.267-8.338-2.355-8.91-6.685c-0.791-5.987-0.78-12.233-0.005-18.225c0.593-4.577,4.679-6.757,9.198-6.996
	c4.975-0.264,9.992-0.382,14.956-0.041c6.808,0.468,10.442,4.602,10.51,11.463c0.077,7.817,0.105,15.638-0.012,23.454
	c-0.103,6.902-3.872,10.768-10.772,11.203c-2.652,0.167-5.322,0.067-7.982,0.061c-6.336-0.018-6.475-0.209-5.084-7.678
	c3.617,0,7.389-0.049,11.16,0.015c3.537,0.059,5.148-1.548,5.102-5.13c-0.092-6.985-0.059-13.973-0.016-20.959
	c0.021-3.313-1.357-4.863-4.828-4.69c-3.816,0.189-7.689-0.265-11.456,0.211c-1.425,0.181-3.492,2.015-3.743,3.376
	c-0.564,3.053-0.559,6.353,0.002,9.407c0.258,1.405,2.18,3.102,3.678,3.539c2.154,0.629,4.609,0.255,6.938,0.268
	C933.702,537.025,933.702,537.017,932.679,544.463z"/>
<path fill-rule="evenodd" clip-rule="evenodd" d="M660.288,456.571c0,2.697,0,4.809,0,7.583c-4.319,0-8.424,0.089-12.522-0.03
	c-2.899-0.085-4.376,1.015-4.35,4.025c0.123,13.919-1.771,12.708,11.807,12.757c8.352,0.03,8.374-0.041,8.392-8.258
	c0.021-9.486,0.064-18.973,0.12-28.459c0.001-0.293,0.251-0.586,0.517-1.167c2.116,0,4.355,0,6.732,0
	c0,12.527,0.296,24.778-0.141,37.003c-0.184,5.144-4.289,7.889-9.206,8.253c-5.463,0.405-10.989,0.33-16.467,0.049
	c-5.19-0.268-8.886-3.992-9.35-9.367c-0.356-4.129-0.317-8.322-0.075-12.465c0.33-5.65,3.229-9.175,8.813-9.805
	C649.599,456.122,654.756,456.571,660.288,456.571z"/>
<path fill-rule="evenodd" clip-rule="evenodd" d="M629.507,480.915c0,2.954,0,4.899,0,7.304c-10.145,0-20.082,0.32-29.983-0.134
	c-5.019-0.23-8.225-4.104-8.44-9.602c-0.363-9.309-0.233-18.638-0.207-27.958c0.008-2.947,1.599-4.655,4.675-4.658
	c11.136-0.011,22.272-0.004,33.301-0.004c1.892,7.06,1.55,7.533-5.152,7.544c-6.993,0.011-13.988,0.108-20.977-0.041
	c-3.016-0.065-4.137,0.982-4.048,4.036c0.173,5.989,0.248,11.995-0.018,17.977c-0.189,4.262,1.742,5.61,5.629,5.553
	c6.492-0.097,12.986-0.021,19.479-0.017C625.552,480.916,627.337,480.915,629.507,480.915z"/>
<path fill-rule="evenodd" clip-rule="evenodd" d="M629.588,536.985c0,2.719,0,4.798,0,7.31c-10.03,0-19.96,0.336-29.851-0.139
	c-5.163-0.248-8.428-4.531-8.583-10.028c-0.202-7.147-0.217-14.311,0.019-21.456c0.2-6.062,3.727-10.333,9.25-10.544
	c9.596-0.366,19.216-0.102,29.129-0.102c0,2.451,0,4.534,0,7.509c-6.399,0-12.805-0.001-19.211,0.001
	c-1.997,0-3.997,0.092-5.988-0.009c-3.967-0.2-5.814,1.476-5.688,5.579c0.164,5.318,0.191,10.651-0.01,15.968
	c-0.163,4.294,1.656,6.017,5.884,5.949C612.681,536.894,620.827,536.985,629.588,536.985z"/>
<path fill-rule="evenodd" clip-rule="evenodd" d="M781.094,467.232c0,2.47,0,4.402,0,7.202c-4.004,0-7.958-0.342-11.806,0.147
	c-1.856,0.235-3.514,2.036-5.261,3.128c1.68,1.153,3.251,2.553,5.081,3.37c1.112,0.496,2.625,0.097,3.957,0.097
	c12.224,0.003,12.122,0.007,11.661-12.188c-0.146-3.853-1.82-5.426-5.5-5.39c-4.797,0.047-9.595,0.012-14.729,0.012
	c0-2.616,0-4.671,0-7.054c6.316,0,12.452-0.434,18.495,0.128c5.438,0.506,8.482,4.339,8.773,9.855
	c0.21,3.983,0.242,8.002-0.03,11.979c-0.401,5.853-4.141,9.569-9.962,9.836c-5.151,0.235-10.337,0.272-15.481-0.038
	c-6.03-0.365-9.767-4.705-9.667-10.596c0.101-5.926,3.896-10.117,9.885-10.439C771.15,467.033,775.815,467.232,781.094,467.232z"/>
<path fill-rule="evenodd" clip-rule="evenodd" d="M822.462,419.525c0-2.33,0-4.261,0-6.828c4.366,0,8.507,0.271,12.579-0.14
	c1.513-0.152,2.866-1.896,4.291-2.914c-1.34-1.15-2.516-2.706-4.068-3.333c-1.441-0.583-3.283-0.197-4.949-0.199
	c-11.721-0.016-13.633,2.153-11.21,13.752c0.32,1.528,2.972,3.36,4.757,3.629c3.729,0.56,7.6,0.169,11.854,0.169
	c0,2.427,0,4.466,0,6.927c-5.395,0-10.856,0.424-16.213-0.138c-4.105-0.431-7.125-3.465-7.555-7.627
	c-0.526-5.096-0.584-10.327-0.064-15.42c0.465-4.546,3.568-7.79,8.217-8.138c5.943-0.444,11.997-0.586,17.907,0.044
	c5.898,0.629,9.275,5.339,8.894,10.792c-0.408,5.832-4.384,9.627-10.546,9.845c-3.828,0.136-7.664,0.032-11.497-0.004
	C824.218,419.936,823.58,419.727,822.462,419.525z"/>
<path fill-rule="evenodd" clip-rule="evenodd" d="M653.043,544.523c-15.837,0.003-17.875-2.027-17.828-17.76
	c0.032-10.862,3.529-14.411,14.299-14.45c3.658-0.014,7.332-0.145,10.97,0.141c6.649,0.522,10.181,4.402,10.342,11.064
	c0.076,3.158,0.042,6.32,0.009,9.479c-0.079,7.546-3.76,11.299-11.306,11.513C657.369,544.572,655.205,544.521,653.043,544.523z
	 M653.053,520.23c-1.497,0-3.008,0.136-4.487-0.025c-4.127-0.45-5.646,1.276-5.486,5.424c0.433,11.235-2.287,11.458,11.238,11.36
	c1.827-0.014,3.769,0.266,5.442-0.267c1.332-0.424,3.037-1.684,3.375-2.905C665.921,523.756,663.215,520.229,653.053,520.23z"/>
<path fill-rule="evenodd" clip-rule="evenodd" d="M865.417,488.445c-16.291,0.001-17.918-1.632-17.899-17.96
	c0.013-10.956,3.272-14.232,14.251-14.252c3.651-0.007,7.32-0.126,10.95,0.176c6.352,0.528,9.91,4.313,10.238,10.697
	c0.163,3.146,0.081,6.309,0.033,9.463c-0.119,7.921-4.043,11.758-12.094,11.871C869.071,488.466,867.244,488.443,865.417,488.445z
	 M865.193,480.915c10.083,0,10.083,0,10.025-10.036c-0.005-0.83-0.032-1.66-0.016-2.49c0.058-2.809-1.063-4.346-4.118-4.26
	c-3.982,0.111-7.992-0.214-11.942,0.158c-1.399,0.132-3.479,1.51-3.851,2.741C852.278,477,855.178,480.914,865.193,480.915z"/>
<path fill-rule="evenodd" clip-rule="evenodd" d="M707.269,419.901c0-2.506,0-4.438,0-7.202c4.119,0,8.237,0.301,12.274-0.146
	c1.647-0.182,3.117-1.979,4.667-3.042c-1.545-1.125-2.962-2.563-4.679-3.271c-1.284-0.53-2.956-0.13-4.456-0.131
	c-11.901-0.009-11.795-0.01-11.554,11.843c0.082,3.994,1.574,5.872,5.636,5.741c3.652-0.118,7.311-0.025,11.426-0.025
	c0,2.336,0,4.377,0,6.84c-5.419,0-11.07,0.604-16.525-0.169c-5.543-0.787-7.813-5.087-7.693-12.762
	c0.109-6.94-2.033-15.727,7.471-17.85c6.607-1.477,13.904-0.81,20.75,0.043c5.064,0.631,7.608,5.767,6.968,11.121
	c-0.599,5.012-4.108,8.678-9.167,8.951C717.458,420.11,712.501,419.901,707.269,419.901z"/>
<path fill-rule="evenodd" clip-rule="evenodd" d="M747.186,512.398c0,2.821,0,4.928,0,7.901c-6.739,0-13.357,0-19.975,0
	c-0.09,0.553-0.181,1.105-0.271,1.658c1.185,0.377,2.357,1.027,3.556,1.078c3.487,0.15,6.988-0.041,10.476,0.087
	c5.706,0.209,9.582,4.023,10.053,9.702c0.491,5.925-2.887,10.967-8.685,11.382c-7.395,0.529-14.856,0.129-22.544,0.129
	c0-2.448,0-4.522,0-7.341c4.955,0,9.711,0.011,14.468-0.006c1.828-0.007,3.799,0.331,5.439-0.246
	c1.387-0.488,2.39-2.069,3.563-3.167c-1.282-1.017-2.476-2.738-3.864-2.912c-3.44-0.43-6.97-0.09-10.461-0.175
	c-5.973-0.145-9.609-3.247-9.904-8.333c-0.305-5.25,3.3-9.356,9.21-9.683C734.356,512.137,740.498,512.398,747.186,512.398z"/>
<path fill-rule="evenodd" clip-rule="evenodd" d="M902.591,544.334c-2.877,0-5.006,0-7.894,0c0-5.418,0.032-10.676-0.009-15.934
	c-0.047-6.018-2.077-8.075-8.041-8.159c-3.786-0.053-7.573-0.01-11.983-0.01c0,8.193,0,15.906,0,23.948c-2.858,0-5.085,0-7.87,0
	c0-9.365-0.203-18.629,0.219-27.863c0.063-1.396,2.964-3.667,4.687-3.801c5.778-0.446,11.645-0.456,17.425,0.012
	c8.234,0.666,13.066,5.826,13.418,13.984C902.792,532.285,902.591,538.077,902.591,544.334z"/>
<path fill-rule="evenodd" clip-rule="evenodd" d="M887.535,430.715c-2.686,0-4.791,0-7.686,0c0-5.479,0.047-10.738-0.012-15.996
	c-0.067-6.154-1.946-8.011-8.087-8.076c-3.786-0.04-7.572-0.008-11.905-0.008c0,8.281,0,16.025,0,24.041c-2.667,0-4.778,0-7.542,0
	c0-9.547-0.128-19.13,0.175-28.7c0.035-1.096,2.465-2.994,3.814-3.021c6.798-0.137,13.665-0.272,20.39,0.555
	c6.332,0.778,10.324,5.212,10.752,11.379C887.881,417.319,887.535,423.803,887.535,430.715z"/>
<path fill-rule="evenodd" clip-rule="evenodd" d="M685.354,520.716c0,7.823,0,15.44,0,23.427c-2.655,0-4.881,0-7.708,0
	c0-9.238-0.202-18.523,0.215-27.78c0.063-1.408,2.916-3.709,4.614-3.841c5.793-0.448,11.674-0.458,17.47,0.009
	c8.082,0.651,12.759,5.521,13.321,13.599c0.358,5.142,0.15,10.324,0.153,15.487c0,0.8-0.231,1.599-0.39,2.617
	c-2.408,0-4.649,0-7.532,0c0-5.557,0.053-10.838-0.015-16.117c-0.073-5.691-2.179-7.775-7.886-7.872
	c-3.332-0.057-6.665-0.006-9.997,0.027C687.123,520.276,686.647,520.453,685.354,520.716z"/>
<path fill-rule="evenodd" clip-rule="evenodd" d="M925.112,488.156c-2.451,0-4.685,0-7.446,0c0-5.516,0.067-10.809-0.019-16.098
	c-0.092-5.661-2.274-7.811-7.89-7.896c-3.81-0.058-7.62-0.012-12.025-0.012c0,8.019,0,15.746,0,23.875c-2.806,0-5.034,0-7.989,0
	c0-9.313-0.178-18.736,0.209-28.136c0.053-1.268,2.88-3.354,4.523-3.456c5.967-0.375,12.01-0.446,17.963,0.079
	c7.688,0.678,12.113,5.308,12.598,13.002C925.419,475.614,925.112,481.755,925.112,488.156z"/>
<path fill-rule="evenodd" clip-rule="evenodd" d="M756.396,512.93c7.423-1.405,7.584-1.279,7.596,5.804
	c0.006,3.666-0.011,7.332,0.018,10.998c0.032,4.127,1.985,6.742,6.217,6.942c4.432,0.21,8.882,0.047,13.872,0.047
	c0-8.228,0-16,0-24.082c2.774,0,4.987,0,7.697,0c0,9.526,0.174,18.819-0.197,28.092c-0.052,1.313-2.693,3.501-4.246,3.602
	c-6.138,0.397-12.336,0.403-18.48,0.026c-6.464-0.396-11.701-4.838-12.327-11.159C755.881,526.489,756.396,519.663,756.396,512.93z"
	/>
<path fill-rule="evenodd" clip-rule="evenodd" d="M706.328,480.805c0-8.536,0-16.298,0-24.308c2.616,0,4.702,0,7.455,0
	c0,9.63,0.149,19.054-0.186,28.46c-0.042,1.2-2.565,3.224-4.024,3.303c-6.301,0.34-12.653,0.404-18.948-0.016
	c-6.479-0.434-11.176-5.154-12.097-11.387c-0.242-1.635-0.233-3.314-0.243-4.975c-0.029-4.964-0.011-9.929-0.011-15.27
	c2.667,0,4.857,0,7.593,0c0,5.414-0.049,10.697,0.013,15.98c0.065,5.494,1.942,7.768,7.238,8.151
	C697.22,481.042,701.36,480.805,706.328,480.805z"/>
<path fill-rule="evenodd" clip-rule="evenodd" d="M751.947,456.38c0,2.728,0,4.86,0,7.771c-6.192,0-12.286,0.197-18.36-0.069
	c-4.017-0.176-5.249,1.4-5.12,5.239c0.402,11.984-2.205,11.607,11.461,11.595c3.802-0.003,7.604,0,11.806,0c0,2.511,0,4.587,0,7.083
	c-7.711,0-15.7,0.76-23.466-0.229c-6.804-0.866-8.56-6.885-7.636-20.762c0.415-6.237,3.718-10.177,9.85-10.534
	C737.419,456.069,744.397,456.38,751.947,456.38z"/>
<path fill-rule="evenodd" clip-rule="evenodd" d="M656.079,399.353c7.369-1.172,7.419-1.139,7.433,5.372
	c0.012,5.813,0.002,11.627,0.002,18.831c3.416-1.42,6.742-1.824,8.448-3.701c4.413-4.854,8.629-10.053,11.946-15.689
	c3.188-5.418,2.649-5.735,9.238-5.111c-0.125,14.598-18.208,32.52-32.348,31.751c-1.627-0.088-4.464-2.055-4.511-3.239
	C655.914,418.139,656.079,408.691,656.079,399.353z"/>
<path fill-rule="evenodd" clip-rule="evenodd" d="M824.75,512.058c0.162-3.376,0.304-6.313,0.466-9.683c2.422,0,4.632,0,7.316,0
	c0.214,3.015,0.432,6.087,0.69,9.715c4.237,0,8.313,0,12.826,0c0,2.793,0,5.018,0,7.922c-4.024,0-8.242,0-13.083,0
	c0,8.358,0,16.094,0,24.159c-2.851,0-5.078,0-7.922,0c0-7.869,0-15.611,0-23.663c-3.505-0.181-6.431-0.332-9.703-0.501
	c0-2.396,0-4.632,0-7.42C818.233,512.424,821.141,512.261,824.75,512.058z"/>
<path fill-rule="evenodd" clip-rule="evenodd" d="M814.11,488.152c-2.949,0-5.195,0-8,0c0-8.016,0-15.762,0-23.857
	c-3.322,0-6.106,0-9.357,0c0-2.706,0-5.056,0-7.864c2.847,0,5.607,0,8.926,0c0.266-3.595,0.504-6.799,0.762-10.281
	c2.498,0,4.74,0,7.296,0c0.176,3.258,0.342,6.342,0.538,9.983c4.321,0,8.4,0,12.844,0c0,2.813,0,5.052,0,7.794
	c-4.144,0-8.227,0-13.009,0C814.11,472.271,814.11,480.141,814.11,488.152z"/>
<path fill-rule="evenodd" clip-rule="evenodd" d="M744.352,430.702c-2.799,0-4.918,0-7.37,0c0-7.854-0.361-15.479,0.124-23.051
	c0.337-5.267,4.366-8.314,10.447-8.791c3.801-0.298,7.641-0.121,11.464-0.123c6.696-0.004,6.696,0.007,5.705,7.898
	c-4.805,0-9.741,0.23-14.645-0.068c-4.468-0.271-5.908,1.643-5.773,5.845C744.495,418.364,744.352,424.328,744.352,430.702z"/>
<path fill-rule="evenodd" clip-rule="evenodd" d="M812.998,537.593c0,2.253,0,4.209,0,6.134c-7.219,1.835-13.614-1.813-13.86-8.635
	c-0.424-11.777-0.117-23.582-0.117-35.768c2.603,0,4.818,0,7.682,0c0,10.218-0.005,20.329,0.002,30.439
	C806.709,535.936,806.718,535.936,812.998,537.593z"/>
<path fill-rule="evenodd" clip-rule="evenodd" fill="#000040" d="M1153.566,471.647c-7.29-3.267-10.834-9.319-11.134-17.066
	c-0.331-8.532,3.52-15.114,11.027-19.318c7.487-4.192,7.897-4.264,4.937-12.344c-3.149-8.598-7.102-16.901-10.934-25.872
	c1.637,1.102,4.311,1.904,5.074,3.578c3.99,8.75,7.776,17.625,10.916,26.705c0.563,1.63-1.664,5.492-3.571,6.51
	C1143.364,442.657,1140.773,457.895,1153.566,471.647z"/>
<path fill-rule="evenodd" clip-rule="evenodd" d="M648.523,430.643c-2.871,0-5.115,0-7.688,0c0-10.525,0-20.898,0-31.223
	c7.409-1.528,7.68-1.326,7.686,5.635C648.529,413.485,648.523,421.914,648.523,430.643z"/>
<path fill-rule="evenodd" clip-rule="evenodd" d="M840.366,456.503c0,10.794,0,21.026,0,31.599c-2.445,0-4.65,0-7.106,0
	c0-10.617,0-20.973,0-31.599C835.71,456.503,837.8,456.503,840.366,456.503z"/>
<path fill-rule="evenodd" clip-rule="evenodd" d="M858.992,544.294c-2.435,0-4.551,0-6.97,0c0-10.494,0-20.893,0-31.639
	c2.297,0,4.497,0,6.97,0C858.992,523.285,858.992,533.676,858.992,544.294z"/>
<path fill-rule="evenodd" clip-rule="evenodd" d="M625.845,463.69c0,2.426,0,4.54,0,7.012c-7.854,0-15.54,0-23.666,0
	c0-2.237,0-4.435,0-7.012C609.868,463.69,617.556,463.69,625.845,463.69z"/>
<path fill-rule="evenodd" clip-rule="evenodd" fill="#000040" d="M1159.848,474.459c3.369,1.058,5.074,3.676,3.504,7.677
	c-3.334,8.495-6.807,16.939-10.447,25.308c-1.444,3.318-4.146,4.635-7.463,3.187
	C1153.712,499.957,1159.123,488.261,1159.848,474.459z"/>
<path fill-rule="evenodd" clip-rule="evenodd" fill="#000040" d="M1113.264,538.854c0.974,1.019,2.948,2.381,2.738,2.993
	c-0.691,2.013-1.752,4.684-3.423,5.442c-8.574,3.891-17.323,7.425-26.163,10.674c-1.711,0.63-4.092-0.563-6.107-1.495
	c10.517-2.228,20.088-6.23,29.245-11.323c2.438-1.355,5.011-2.705,3.724-6.297L1113.264,538.854z"/>
<path fill-rule="evenodd" clip-rule="evenodd" fill="#000040" d="M956.959,475.454c-0.727,10.212,9.279,31.725,16.435,34.614
	c-3.601,1.828-6.687,1.461-8.216-1.92c-3.961-8.756-7.665-17.643-11.017-26.646c-0.655-1.762,0.739-4.287,1.189-6.46
	C955.887,475.18,956.423,475.316,956.959,475.454z"/>
<path fill-rule="evenodd" clip-rule="evenodd" fill="#000040" d="M1038.955,552.762c-1.807,5.218-4.82,6.675-9.197,4.914
	c-8.137-3.275-16.261-6.586-24.326-10.032c-2.759-1.179-4.674-3.16-3.916-5.799c5.93,3.059,11.678,6.786,17.954,9.041
	C1025.42,553.022,1031.423,558.198,1038.955,552.762z"/>
<path fill-rule="evenodd" clip-rule="evenodd" fill="#000040" d="M958.588,434.361c-4.574-1.54-5.836-4.714-4.111-9.007
	c3.208-7.986,6.425-15.978,10.011-23.796c0.875-1.907,3.195-3.151,5.415-5.228c-3.987,8.871-7.633,16.624-10.955,24.514
	c-1.84,4.371-3.202,8.969-0.463,13.595L958.588,434.361z"/>
<path fill-rule="evenodd" clip-rule="evenodd" fill="#000040" d="M1113.277,538.848c-0.479-1.731-0.926-3.473-1.444-5.192
	c-2.364-7.846-0.901-14.957,4.748-20.82c5.423-5.628,12.11-7.868,20.039-5.178c-0.632,0.099-1.262,0.223-1.897,0.288
	c-0.827,0.087-1.665,0.081-2.488,0.193c-12.759,1.735-20.846,12.664-18.902,25.384c0.266,1.73-0.027,3.546-0.064,5.327
	C1113.264,538.854,1113.277,538.848,1113.277,538.848z"/>
<path fill-rule="evenodd" clip-rule="evenodd" fill="#000040" d="M977.531,508.242c7.174-3.499,13.877-2.279,19.98,2.312
	c6.843,5.147,9.332,12.146,7.497,20.707c-0.142-7.204-2.516-13.424-8.03-18.067C991.352,508.455,984.746,507.091,977.531,508.242z"
	/>
<path fill-rule="evenodd" clip-rule="evenodd" fill="#000040" d="M1040.223,549.202c3.187-6.73,8.506-10.647,15.988-11.349
	c7.828-0.734,14.156,2.018,19.516,9.251C1060.912,537.102,1051.88,537.906,1040.223,549.202z"/>
<path fill-rule="evenodd" clip-rule="evenodd" fill="#000040" d="M958.484,434.439c3.33,1.533,7.313,2.361,9.872,4.729
	c8.552,7.91,7.985,21.613-1.126,29.549c3.758-6.015,6-12.327,4.192-19.412c-1.808-7.087-6.165-12.006-12.816-14.959
	C958.588,434.361,958.484,434.439,958.484,434.439z"/>
<path fill-rule="evenodd" clip-rule="evenodd" d="M841.182,439.896c-0.539,2.435-0.368,5.085-1.506,5.896
	c-1.287,0.916-4.282,0.891-5.545-0.051c-1.129-0.843-0.911-3.489-1.39-5.846C835.678,439.896,837.901,439.896,841.182,439.896z"/>
<path fill-rule="evenodd" clip-rule="evenodd" d="M852.093,499.146c2.328,0,4.429,0,6.478,0c1.468,6.528,0.989,6.996-6.478,6.196
	C852.093,503.495,852.093,501.604,852.093,499.146z"/>
<path fill-rule="evenodd" clip-rule="evenodd" fill="#FFFFFF" d="M599.199,423.069c0-9.053,0-17.669,0-27.326
	c6.953,0.336,13.678,0.651,20.4,1.009c0.468,0.024,0.934,0.337,1.376,0.563c4.468,2.277,6.338,8.831,4.986,17.092
	c-0.831,5.073-3.551,8.348-8.798,8.6C611.386,423.284,605.586,423.069,599.199,423.069z"/>
<path fill-rule="evenodd" clip-rule="evenodd" fill="#FFFFFF" d="M653.053,520.23c10.162-0.001,12.869,3.525,10.082,13.587
	c-0.338,1.222-2.043,2.481-3.375,2.905c-1.674,0.532-3.616,0.253-5.442,0.267c-13.525,0.098-10.805-0.125-11.238-11.36
	c-0.16-4.147,1.359-5.874,5.486-5.424C650.045,520.366,651.556,520.23,653.053,520.23z"/>
<path fill-rule="evenodd" clip-rule="evenodd" fill="#FFFFFF" d="M865.193,480.915c-10.016-0.001-12.915-3.915-9.902-13.887
	c0.372-1.231,2.452-2.609,3.851-2.741c3.95-0.372,7.96-0.047,11.942-0.158c3.055-0.086,4.176,1.451,4.118,4.26
	c-0.017,0.83,0.011,1.66,0.016,2.49C875.276,480.915,875.276,480.915,865.193,480.915z"/>
<rect x="640.894" y="388.605" fill-rule="evenodd" clip-rule="evenodd" stroke="#000000" stroke-miterlimit="10" width="7.574" height="5.92"/>
<circle fill="none" stroke="#CDCDCD" stroke-width="3" stroke-miterlimit="10" cx="1057.975" cy="463.69" r="18"/>
<g>
	<path fill-rule="evenodd" clip-rule="evenodd" fill="#FFFFFF" stroke="#000040" stroke-miterlimit="10" d="M1092.883,379.511
		c-4.381,0-8.454-0.047-12.524,0.019c-2.115,0.034-3.023-0.827-2.942-2.975c0.101-2.658,0.087-5.325,0.005-7.984
		c-0.063-2.052,0.86-2.89,2.844-2.79c0.996,0.05,1.996,0.004,2.994,0.004c3.203-0.001,6.406,0,9.605,0c0-1.487,0-2.529,0-3.754
		c-4.956,0-9.767-0.132-14.564,0.051c-2.762,0.105-4.524,2.241-4.625,5.272c-0.117,3.573-0.11,7.154-0.009,10.728
		c0.077,2.749,1.71,4.891,4.291,5.015c4.945,0.237,9.911,0.069,14.926,0.069C1092.883,381.909,1092.883,380.87,1092.883,379.511z"/>
	<path fill-rule="evenodd" clip-rule="evenodd" fill="#EDAC17" stroke="#000040" stroke-miterlimit="10" d="M1092.883,379.511
		c0,1.359,0,2.398,0,3.654c-5.015,0-9.98,0.168-14.926-0.069c-2.581-0.124-4.214-2.266-4.291-5.015
		c-0.102-3.573-0.108-7.154,0.009-10.728c0.101-3.031,1.863-5.167,4.625-5.272c4.798-0.183,9.608-0.051,14.564-0.051
		c0,1.226,0,2.267,0,3.754c-3.199,0-6.402,0-9.605,0c-0.998,0-1.998,0.046-2.994-0.004c-1.983-0.1-2.907,0.738-2.844,2.79
		c0.082,2.659,0.096,5.326-0.005,7.984c-0.081,2.147,0.827,3.009,2.942,2.975C1084.429,379.464,1088.502,379.511,1092.883,379.511z"
		/>
	<path fill-rule="evenodd" clip-rule="evenodd" fill="#FFFFFF" stroke="#000040" stroke-miterlimit="10" d="M1069.507,379.049
		c-1.084,0-1.977,0.001-2.87,0c-3.247-0.002-6.493-0.04-9.739,0.009c-1.943,0.028-2.91-0.646-2.814-2.777
		c0.133-2.99,0.096-5.993,0.008-8.988c-0.043-1.527,0.518-2.051,2.025-2.018c3.494,0.075,6.992,0.026,10.488,0.021
		c3.351-0.005,3.521-0.242,2.576-3.772c-5.516,0-11.082-0.003-16.65,0.002c-1.539,0.001-2.334,0.855-2.338,2.329
		c-0.014,4.66-0.078,9.325,0.104,13.979c0.107,2.749,1.711,4.686,4.22,4.801c4.95,0.227,9.919,0.066,14.991,0.066
		C1069.507,381.499,1069.507,380.526,1069.507,379.049z"/>
	<path fill-rule="evenodd" clip-rule="evenodd" fill="#FFFFFF" stroke="#000040" stroke-miterlimit="10" d="M1067.676,370.437
		c-4.145,0-7.988,0-11.833,0c0,1.289,0,2.387,0,3.506c4.063,0,7.906,0,11.833,0C1067.676,372.706,1067.676,371.649,1067.676,370.437
		z"/>
	<path fill-rule="evenodd" clip-rule="evenodd" fill="#EDAC17" stroke="#000040" stroke-miterlimit="10" d="M1069.507,379.049
		c0,1.478,0,2.45,0,3.651c-5.072,0-10.041,0.16-14.991-0.066c-2.509-0.115-4.112-2.052-4.22-4.801
		c-0.182-4.654-0.117-9.319-0.104-13.979c0.004-1.474,0.799-2.328,2.338-2.329c5.568-0.005,11.135-0.002,16.65-0.002
		c0.945,3.53,0.774,3.767-2.576,3.772c-3.496,0.005-6.994,0.054-10.488-0.021c-1.508-0.033-2.068,0.491-2.025,2.018
		c0.088,2.995,0.125,5.998-0.008,8.988c-0.096,2.131,0.871,2.806,2.814,2.777c3.246-0.049,6.492-0.011,9.739-0.009
		C1067.53,379.05,1068.423,379.049,1069.507,379.049z"/>
	<path fill-rule="evenodd" clip-rule="evenodd" fill="#EDAC17" stroke="#000040" stroke-miterlimit="10" d="M1067.676,370.437
		c0,1.213,0,2.27,0,3.506c-3.927,0-7.771,0-11.833,0c0-1.119,0-2.217,0-3.506C1059.688,370.437,1063.531,370.437,1067.676,370.437z"
		/>
	<path fill-rule="evenodd" clip-rule="evenodd" fill="#FFFFFF" stroke="#000040" stroke-miterlimit="10" d="M1024.273,372.133
		c0,2.246-0.005,4.492,0.001,6.737c0.01,3.782,0.239,4.019,3.906,4.027c1.83,0.005,3.668-0.11,5.488,0.021
		c7.979,0.573,12.662-2.61,11.92-12.271c-0.006-0.083-0.002-0.166-0.004-0.249c-0.188-5.163-3.513-8.575-8.658-8.732
		c-3.24-0.1-6.488,0.04-9.73-0.047c-2.187-0.059-2.981,0.97-2.935,3.029C1024.319,367.142,1024.275,369.638,1024.273,372.133z"/>
	<path fill-rule="evenodd" clip-rule="evenodd" fill="#EDAC17" stroke="#000040" stroke-miterlimit="10" d="M1024.274,372.133
		c0.001-2.495,0.045-4.991-0.013-7.485c-0.047-2.06,0.748-3.088,2.935-3.029c3.242,0.087,6.49-0.053,9.73,0.047
		c5.146,0.157,8.471,3.569,8.658,8.732c0.002,0.083-0.002,0.166,0.004,0.249c0.742,9.661-3.94,12.845-11.92,12.271
		c-1.82-0.131-3.658-0.016-5.488-0.021c-3.667-0.009-3.896-0.245-3.906-4.027C1024.269,376.625,1024.273,374.379,1024.274,372.133z"
		/>
	<path fill-rule="evenodd" clip-rule="evenodd" fill="#000040" stroke="#000040" stroke-miterlimit="10" d="M1028.357,378.95
		c3.193,0,6.094,0.107,8.981-0.031c2.624-0.126,3.984-1.764,4.399-4.3c0.677-4.131-0.259-7.407-2.493-8.546
		c-0.221-0.113-0.454-0.27-0.688-0.281c-3.361-0.179-6.725-0.337-10.2-0.505C1028.357,370.116,1028.357,374.424,1028.357,378.95z"/>
</g>
</svg>
