solid OpenSCAD_Model
  facet normal 0.866028 0.499996 0
    outer loop
      vertex 6.25 10.8253 3.25
      vertex 6.31957 10.7048 2.3602
      vertex 6.25 10.8253 1.79225
    endloop
  endfacet
  facet normal 0.866023 0.500005 -1.58872e-06
    outer loop
      vertex 6.25 10.8253 3.25
      vertex 7.60352 8.48096 1.43795
      vertex 6.31957 10.7048 2.3602
    endloop
  endfacet
  facet normal 0.866025 0.500001 5.81723e-06
    outer loop
      vertex 11.07 2.47684 2.43482
      vertex 7.60352 8.48096 1.43795
      vertex 6.25 10.8253 3.25
    endloop
  endfacet
  facet normal 0.86602 0.500009 7.38891e-05
    outer loop
      vertex 11.0372 2.53369 2.16331
      vertex 7.60352 8.48096 1.43795
      vertex 11.07 2.47684 2.43482
    endloop
  endfacet
  facet normal 0.866009 0.500029 5.37711e-05
    outer loop
      vertex 9.49248 5.20917 -0.516091
      vertex 10.64 3.22162 0.781377
      vertex 10.4976 3.4683 0.270988
    endloop
  endfacet
  facet normal 0.865653 0.500645 0.000450672
    outer loop
      vertex 10.4976 3.4683 0.270988
      vertex 10.64 3.22162 0.781377
      vertex 10.5257 3.41966 0.329796
    endloop
  endfacet
  facet normal 0.866025 0.5 -4.47596e-06
    outer loop
      vertex 7.60352 8.48096 1.43795
      vertex 10.64 3.22162 0.781377
      vertex 9.49248 5.20917 -0.516091
    endloop
  endfacet
  facet normal 0.866025 0.500001 -1.39289e-05
    outer loop
      vertex 7.60352 8.48096 1.43795
      vertex 11.0372 2.53369 2.16331
      vertex 10.64 3.22162 0.781377
    endloop
  endfacet
  facet normal 0.866025 0.500001 6.96779e-06
    outer loop
      vertex 12.5 0 3.25
      vertex 11.07 2.47684 2.43482
      vertex 6.25 10.8253 3.25
    endloop
  endfacet
  facet normal 0.866026 0.499999 0
    outer loop
      vertex 11.07 2.47684 2.43482
      vertex 12.5 0 3.25
      vertex 12.5 0 0.949381
    endloop
  endfacet
  facet normal 0.866012 0.500024 0
    outer loop
      vertex 6.5324 10.3362 -0.212474
      vertex 6.25 10.8253 -3.25
      vertex 6.25 10.8253 -0.136253
    endloop
  endfacet
  facet normal 0.866025 0.500001 -4.9046e-06
    outer loop
      vertex 7.60352 8.48096 -1.32049
      vertex 6.25 10.8253 -3.25
      vertex 6.5324 10.3362 -0.212474
    endloop
  endfacet
  facet normal 0.866025 0.500001 -4.64083e-06
    outer loop
      vertex 8.44999 7.01483 -1.9285
      vertex 6.25 10.8253 -3.25
      vertex 7.60352 8.48096 -1.32049
    endloop
  endfacet
  facet normal 0.866024 0.500002 -2.14777e-06
    outer loop
      vertex 8.87727 6.27476 -2.62185
      vertex 6.25 10.8253 -3.25
      vertex 8.44999 7.01483 -1.9285
    endloop
  endfacet
  facet normal 0.866023 0.500005 8.76287e-06
    outer loop
      vertex 10.64 3.22162 0.123041
      vertex 9.23745 5.6509 -1.11227
      vertex 9.49248 5.20917 -0.516091
    endloop
  endfacet
  facet normal 0.866036 0.499983 -8.26585e-05
    outer loop
      vertex 10.64 3.22162 0.123041
      vertex 9.49248 5.20917 -0.516091
      vertex 10.4976 3.4683 0.270988
    endloop
  endfacet
  facet normal 0.866024 0.500003 5.01478e-06
    outer loop
      vertex 9.23745 5.6509 -1.11227
      vertex 10.64 3.22162 0.123041
      vertex 8.87727 6.27476 -2.62185
    endloop
  endfacet
  facet normal 0.866026 0.499999 -0
    outer loop
      vertex 12.5 0 -3.25
      vertex 10.64 3.22162 0.123041
      vertex 12.5 0 -0.949381
    endloop
  endfacet
  facet normal 0.866025 0.500001 -1.4128e-05
    outer loop
      vertex 8.87727 6.27476 -2.62185
      vertex 12.5 0 -3.25
      vertex 6.25 10.8253 -3.25
    endloop
  endfacet
  facet normal 0.866026 0.5 -2.63436e-07
    outer loop
      vertex 10.64 3.22162 0.123041
      vertex 12.5 0 -3.25
      vertex 8.87727 6.27476 -2.62185
    endloop
  endfacet
  facet normal -0.871576 0.490261 0
    outer loop
      vertex -6.25 10.8253 -3.25
      vertex -6.2509 10.8237 -2.31426
      vertex -6.25 10.8253 -2.30721
    endloop
  endfacet
  facet normal -0.866016 0.500015 2.20253e-05
    outer loop
      vertex -6.25 10.8253 -3.25
      vertex -7.6165 8.45847 -1.42675
      vertex -6.2509 10.8237 -2.31426
    endloop
  endfacet
  facet normal -0.866025 0.500001 -3.25706e-06
    outer loop
      vertex -11.07 2.47684 -2.43482
      vertex -7.6165 8.45847 -1.42675
      vertex -6.25 10.8253 -3.25
    endloop
  endfacet
  facet normal -0.86602 0.50001 -7.40738e-05
    outer loop
      vertex -11.0372 2.53369 -2.16331
      vertex -7.6165 8.45847 -1.42675
      vertex -11.07 2.47684 -2.43482
    endloop
  endfacet
  facet normal -0.866006 0.500034 -5.70137e-05
    outer loop
      vertex -9.55447 5.1018 0.589835
      vertex -10.64 3.22162 -0.781379
      vertex -10.4976 3.4683 -0.270988
    endloop
  endfacet
  facet normal -0.865653 0.500645 -0.000450678
    outer loop
      vertex -10.4976 3.4683 -0.270988
      vertex -10.64 3.22162 -0.781379
      vertex -10.5257 3.41966 -0.329797
    endloop
  endfacet
  facet normal -0.866025 0.500001 3.46136e-06
    outer loop
      vertex -7.6165 8.45847 -1.42675
      vertex -10.64 3.22162 -0.781379
      vertex -9.55447 5.1018 0.589835
    endloop
  endfacet
  facet normal -0.866024 0.500002 1.35824e-05
    outer loop
      vertex -7.6165 8.45847 -1.42675
      vertex -11.0372 2.53369 -2.16331
      vertex -10.64 3.22162 -0.781379
    endloop
  endfacet
  facet normal -0.866025 0.500001 -6.96779e-06
    outer loop
      vertex -12.5 0 -3.25
      vertex -11.07 2.47684 -2.43482
      vertex -6.25 10.8253 -3.25
    endloop
  endfacet
  facet normal -0.866026 0.499999 0
    outer loop
      vertex -11.07 2.47684 -2.43482
      vertex -12.5 0 -3.25
      vertex -12.5 0 -0.949381
    endloop
  endfacet
  facet normal -0.866036 0.499981 0
    outer loop
      vertex -6.61071 10.2005 0.2851
      vertex -6.25 10.8253 3.25
      vertex -6.25 10.8253 0.205556
    endloop
  endfacet
  facet normal -0.866021 0.500007 -7.43417e-06
    outer loop
      vertex -7.6165 8.45847 1.33169
      vertex -6.25 10.8253 3.25
      vertex -6.61071 10.2005 0.2851
    endloop
  endfacet
  facet normal -0.866024 0.500002 1.69285e-06
    outer loop
      vertex -8.40305 7.09613 1.84287
      vertex -6.25 10.8253 3.25
      vertex -7.6165 8.45847 1.33169
    endloop
  endfacet
  facet normal -0.866025 0.5 7.44118e-06
    outer loop
      vertex -8.90345 6.2294 2.65053
      vertex -6.25 10.8253 3.25
      vertex -8.40305 7.09613 1.84287
    endloop
  endfacet
  facet normal -0.866022 0.500005 -9.32647e-06
    outer loop
      vertex -10.64 3.22162 -0.123041
      vertex -9.23256 5.65937 1.30589
      vertex -9.55447 5.1018 0.589835
    endloop
  endfacet
  facet normal -0.866037 0.49998 7.80323e-05
    outer loop
      vertex -10.64 3.22162 -0.123041
      vertex -9.55447 5.1018 0.589835
      vertex -10.4976 3.4683 -0.270988
    endloop
  endfacet
  facet normal -0.866025 0.500001 1.47551e-06
    outer loop
      vertex -12.5 0 3.25
      vertex -9.23256 5.65937 1.30589
      vertex -10.64 3.22162 -0.123041
    endloop
  endfacet
  facet normal -0.866026 0.499999 0
    outer loop
      vertex -12.5 0 3.25
      vertex -10.64 3.22162 -0.123041
      vertex -12.5 0 0.949381
    endloop
  endfacet
  facet normal -0.866025 0.500001 2.30671e-06
    outer loop
      vertex -8.90345 6.2294 2.65053
      vertex -12.5 0 3.25
      vertex -6.25 10.8253 3.25
    endloop
  endfacet
  facet normal -0.866025 0.500001 1.63286e-06
    outer loop
      vertex -9.23256 5.65937 1.30589
      vertex -12.5 0 3.25
      vertex -8.90345 6.2294 2.65053
    endloop
  endfacet
  facet normal 0 1 0
    outer loop
      vertex 6.25 10.8253 3.25
      vertex -2.44292 10.8253 2.47555
      vertex -6.25 10.8253 3.25
    endloop
  endfacet
  facet normal 0 1 0
    outer loop
      vertex 3.13617 10.8253 -0.126023
      vertex 6.25 10.8253 3.25
      vertex 6.25 10.8253 1.79225
    endloop
  endfacet
  facet normal 0 1 0
    outer loop
      vertex 3.13617 10.8253 -0.126023
      vertex 6.25 10.8253 1.79225
      vertex 6.23011 10.8253 1.71767
    endloop
  endfacet
  facet normal 0 1 0
    outer loop
      vertex 3.13617 10.8253 -0.126023
      vertex 6.23011 10.8253 1.71767
      vertex 5.20325 10.8253 0.185858
    endloop
  endfacet
  facet normal 0 1 0
    outer loop
      vertex 6.25 10.8253 3.25
      vertex 3.13617 10.8253 -0.126023
      vertex -2.44292 10.8253 2.47555
    endloop
  endfacet
  facet normal 0 1 -0
    outer loop
      vertex 6.25 10.8253 -3.25
      vertex 5.20325 10.8253 0.185858
      vertex 6.25 10.8253 -0.136253
    endloop
  endfacet
  facet normal 0 1 0
    outer loop
      vertex 5.20325 10.8253 0.185858
      vertex 3.47217 10.8253 -0.200513
      vertex 3.13617 10.8253 -0.126023
    endloop
  endfacet
  facet normal 0 1 0
    outer loop
      vertex 5.20325 10.8253 0.185858
      vertex 6.25 10.8253 -3.25
      vertex 3.47217 10.8253 -0.200513
    endloop
  endfacet
  facet normal 0 1 0
    outer loop
      vertex 3.47217 10.8253 -0.200513
      vertex 6.25 10.8253 -3.25
      vertex 2.47157 10.8253 -2.34631
    endloop
  endfacet
  facet normal 0 1 0
    outer loop
      vertex 2.47157 10.8253 -2.34631
      vertex 6.25 10.8253 -3.25
      vertex 2.44292 10.8253 -2.47555
    endloop
  endfacet
  facet normal 0 1 -0
    outer loop
      vertex -2.47157 10.8253 2.34631
      vertex -6.25 10.8253 3.25
      vertex -2.44292 10.8253 2.47555
    endloop
  endfacet
  facet normal 0 1 -0
    outer loop
      vertex -3.47217 10.8253 0.200513
      vertex -6.25 10.8253 3.25
      vertex -2.47157 10.8253 2.34631
    endloop
  endfacet
  facet normal 0 1 0
    outer loop
      vertex -6.25 10.8253 3.25
      vertex -3.47217 10.8253 0.200513
      vertex -5.16314 10.8253 -0.125556
    endloop
  endfacet
  facet normal 0 1 0
    outer loop
      vertex -6.0707 10.8253 -1.59751
      vertex -3.47217 10.8253 0.200513
      vertex -3.13617 10.8253 0.126023
    endloop
  endfacet
  facet normal 0 1 0
    outer loop
      vertex -6.25 10.8253 3.25
      vertex -5.16314 10.8253 -0.125556
      vertex -6.25 10.8253 0.205556
    endloop
  endfacet
  facet normal 0 1 0
    outer loop
      vertex -3.47217 10.8253 0.200513
      vertex -6.0707 10.8253 -1.59751
      vertex -5.16314 10.8253 -0.125556
    endloop
  endfacet
  facet normal 0 1 0
    outer loop
      vertex -3.13617 10.8253 0.126023
      vertex -6.25 10.8253 -2.30721
      vertex -6.0707 10.8253 -1.59751
    endloop
  endfacet
  facet normal 0 1 0
    outer loop
      vertex -6.25 10.8253 -3.25
      vertex -3.13617 10.8253 0.126023
      vertex 2.44292 10.8253 -2.47555
    endloop
  endfacet
  facet normal 0 1 0
    outer loop
      vertex -6.25 10.8253 -3.25
      vertex 2.44292 10.8253 -2.47555
      vertex 6.25 10.8253 -3.25
    endloop
  endfacet
  facet normal 0 1 0
    outer loop
      vertex -3.13617 10.8253 0.126023
      vertex -6.25 10.8253 -3.25
      vertex -6.25 10.8253 -2.30721
    endloop
  endfacet
  facet normal -0.866026 -0.499999 0
    outer loop
      vertex -12.5 0 -3.25
      vertex -10.64 -3.22162 0.123041
      vertex -12.5 0 -0.949381
    endloop
  endfacet
  facet normal -0.866025 -0.5 -1.30348e-06
    outer loop
      vertex -9.63613 -4.96037 -0.66929
      vertex -10.64 -3.22162 0.123041
      vertex -12.5 0 -3.25
    endloop
  endfacet
  facet normal -0.866039 -0.499977 -7.01172e-05
    outer loop
      vertex -10.64 -3.22162 0.123041
      vertex -9.63613 -4.96037 -0.66929
      vertex -10.4976 -3.4683 0.270988
    endloop
  endfacet
  facet normal -0.866026 -0.499999 1.51045e-06
    outer loop
      vertex -12.5 0 -3.25
      vertex -9.23966 -5.64708 -1.49954
      vertex -9.63613 -4.96037 -0.66929
    endloop
  endfacet
  facet normal -0.866025 -0.5 -1.83975e-06
    outer loop
      vertex -12.5 0 -3.25
      vertex -8.94059 -6.16508 -2.68067
      vertex -9.23966 -5.64708 -1.49954
    endloop
  endfacet
  facet normal -0.866025 -0.500001 -3.19008e-06
    outer loop
      vertex -6.25 -10.8253 -3.25
      vertex -8.36674 -7.15902 -1.76649
      vertex -8.94059 -6.16508 -2.68067
    endloop
  endfacet
  facet normal -0.866025 -0.500001 -9.68536e-06
    outer loop
      vertex -6.25 -10.8253 -3.25
      vertex -8.94059 -6.16508 -2.68067
      vertex -12.5 0 -3.25
    endloop
  endfacet
  facet normal -0.866025 -0.5 -6.10762e-06
    outer loop
      vertex -8.36674 -7.15902 -1.76649
      vertex -6.25 -10.8253 -3.25
      vertex -7.62539 -8.44308 -1.33905
    endloop
  endfacet
  facet normal -0.866021 -0.500007 4.86815e-06
    outer loop
      vertex -6.25 -10.8253 -3.25
      vertex -6.67215 -10.0941 -0.348861
      vertex -7.62539 -8.44308 -1.33905
    endloop
  endfacet
  facet normal -0.86603 -0.499992 0
    outer loop
      vertex -6.67215 -10.0941 -0.348861
      vertex -6.25 -10.8253 -3.25
      vertex -6.25 -10.8253 -0.277325
    endloop
  endfacet
  facet normal -0.866026 -0.499999 0
    outer loop
      vertex -11.07 -2.47684 2.43482
      vertex -12.5 0 3.25
      vertex -12.5 0 0.949381
    endloop
  endfacet
  facet normal -0.866025 -0.500001 -1.39447e-05
    outer loop
      vertex -7.62539 -8.44308 1.4194
      vertex -11.0372 -2.53369 2.16331
      vertex -10.64 -3.22162 0.781377
    endloop
  endfacet
  facet normal -0.865653 -0.500645 0.000450672
    outer loop
      vertex -10.4976 -3.4683 0.270988
      vertex -10.64 -3.22162 0.781377
      vertex -10.5257 -3.41966 0.329796
    endloop
  endfacet
  facet normal -0.866003 -0.500038 5.99341e-05
    outer loop
      vertex -9.63613 -4.96037 -0.66929
      vertex -10.64 -3.22162 0.781377
      vertex -10.4976 -3.4683 0.270988
    endloop
  endfacet
  facet normal -0.866025 -0.5 -1.38747e-06
    outer loop
      vertex -10.64 -3.22162 0.781377
      vertex -9.63613 -4.96037 -0.66929
      vertex -7.62539 -8.44308 1.4194
    endloop
  endfacet
  facet normal -0.86602 -0.500009 7.39567e-05
    outer loop
      vertex -11.0372 -2.53369 2.16331
      vertex -7.62539 -8.44308 1.4194
      vertex -11.07 -2.47684 2.43482
    endloop
  endfacet
  facet normal -0.866025 -0.500001 5.71255e-06
    outer loop
      vertex -6.25 -10.8253 3.25
      vertex -11.07 -2.47684 2.43482
      vertex -7.62539 -8.44308 1.4194
    endloop
  endfacet
  facet normal -0.866023 -0.500004 -0
    outer loop
      vertex -6.25 -10.8253 3.25
      vertex -7.62539 -8.44308 1.4194
      vertex -6.25 -10.8253 2.21241
    endloop
  endfacet
  facet normal -0.866025 -0.500001 6.96779e-06
    outer loop
      vertex -11.07 -2.47684 2.43482
      vertex -6.25 -10.8253 3.25
      vertex -12.5 0 3.25
    endloop
  endfacet
  facet normal 0 0 1
    outer loop
      vertex 6.25 10.8253 3.25
      vertex 10.75 0 3.25
      vertex 12.5 0 3.25
    endloop
  endfacet
  facet normal 0 0 1
    outer loop
      vertex 6.25 10.8253 3.25
      vertex 5.375 9.30977 3.25
      vertex 10.75 0 3.25
    endloop
  endfacet
  facet normal 0 0 1
    outer loop
      vertex 6.25 10.8253 3.25
      vertex -5.375 9.30977 3.25
      vertex 5.375 9.30977 3.25
    endloop
  endfacet
  facet normal -0 0 1
    outer loop
      vertex -6.25 10.8253 3.25
      vertex -5.375 9.30977 3.25
      vertex 6.25 10.8253 3.25
    endloop
  endfacet
  facet normal 0 0 1
    outer loop
      vertex -6.25 10.8253 3.25
      vertex -10.75 0 3.25
      vertex -5.375 9.30977 3.25
    endloop
  endfacet
  facet normal 0 -0 1
    outer loop
      vertex -10.75 0 3.25
      vertex -6.25 10.8253 3.25
      vertex -12.5 0 3.25
    endloop
  endfacet
  facet normal -0 0 1
    outer loop
      vertex 10.75 0 3.25
      vertex 6.25 -10.8253 3.25
      vertex 12.5 0 3.25
    endloop
  endfacet
  facet normal -0 0 1
    outer loop
      vertex 5.375 -9.30977 3.25
      vertex 6.25 -10.8253 3.25
      vertex 10.75 0 3.25
    endloop
  endfacet
  facet normal -0 0 1
    outer loop
      vertex -5.375 -9.30977 3.25
      vertex 6.25 -10.8253 3.25
      vertex 5.375 -9.30977 3.25
    endloop
  endfacet
  facet normal 0 0 1
    outer loop
      vertex -5.375 -9.30977 3.25
      vertex -6.25 -10.8253 3.25
      vertex 6.25 -10.8253 3.25
    endloop
  endfacet
  facet normal 0 0 1
    outer loop
      vertex -10.75 0 3.25
      vertex -6.25 -10.8253 3.25
      vertex -5.375 -9.30977 3.25
    endloop
  endfacet
  facet normal 0 0 1
    outer loop
      vertex -6.25 -10.8253 3.25
      vertex -10.75 0 3.25
      vertex -12.5 0 3.25
    endloop
  endfacet
  facet normal 0 0 -1
    outer loop
      vertex 6.25 -10.8253 -3.25
      vertex 10.75 0 -3.25
      vertex 12.5 0 -3.25
    endloop
  endfacet
  facet normal 0 0 -1
    outer loop
      vertex 6.25 -10.8253 -3.25
      vertex 5.375 -9.30977 -3.25
      vertex 10.75 0 -3.25
    endloop
  endfacet
  facet normal 0 0 -1
    outer loop
      vertex 6.25 -10.8253 -3.25
      vertex -5.375 -9.30977 -3.25
      vertex 5.375 -9.30977 -3.25
    endloop
  endfacet
  facet normal 0 0 -1
    outer loop
      vertex -6.25 -10.8253 -3.25
      vertex -5.375 -9.30977 -3.25
      vertex 6.25 -10.8253 -3.25
    endloop
  endfacet
  facet normal 0 0 -1
    outer loop
      vertex -6.25 -10.8253 -3.25
      vertex -10.75 0 -3.25
      vertex -5.375 -9.30977 -3.25
    endloop
  endfacet
  facet normal -0 -0 -1
    outer loop
      vertex -10.75 0 -3.25
      vertex -6.25 -10.8253 -3.25
      vertex -12.5 0 -3.25
    endloop
  endfacet
  facet normal 0 0 -1
    outer loop
      vertex 10.75 0 -3.25
      vertex 6.25 10.8253 -3.25
      vertex 12.5 0 -3.25
    endloop
  endfacet
  facet normal 0 0 -1
    outer loop
      vertex 5.375 9.30977 -3.25
      vertex 6.25 10.8253 -3.25
      vertex 10.75 0 -3.25
    endloop
  endfacet
  facet normal 0 0 -1
    outer loop
      vertex -5.375 9.30977 -3.25
      vertex 6.25 10.8253 -3.25
      vertex 5.375 9.30977 -3.25
    endloop
  endfacet
  facet normal 0 0 -1
    outer loop
      vertex -5.375 9.30977 -3.25
      vertex -6.25 10.8253 -3.25
      vertex 6.25 10.8253 -3.25
    endloop
  endfacet
  facet normal 0 0 -1
    outer loop
      vertex -10.75 0 -3.25
      vertex -6.25 10.8253 -3.25
      vertex -5.375 9.30977 -3.25
    endloop
  endfacet
  facet normal 0 0 -1
    outer loop
      vertex -6.25 10.8253 -3.25
      vertex -10.75 0 -3.25
      vertex -12.5 0 -3.25
    endloop
  endfacet
  facet normal 0 -1 0
    outer loop
      vertex -6.25 -10.8253 3.25
      vertex 2.44292 -10.8253 2.47555
      vertex 6.25 -10.8253 3.25
    endloop
  endfacet
  facet normal 0 -1 0
    outer loop
      vertex -3.13617 -10.8253 -0.126023
      vertex -6.25 -10.8253 3.25
      vertex -6.10086 -10.8253 2.28986
    endloop
  endfacet
  facet normal -0 -1 0
    outer loop
      vertex -6.10086 -10.8253 2.28986
      vertex -6.25 -10.8253 3.25
      vertex -6.25 -10.8253 2.21241
    endloop
  endfacet
  facet normal 0 -1 0
    outer loop
      vertex 2.47157 -10.8253 2.34631
      vertex 6.25 -10.8253 3.25
      vertex 2.44292 -10.8253 2.47555
    endloop
  endfacet
  facet normal 0 -1 0
    outer loop
      vertex 3.47217 -10.8253 0.200513
      vertex 6.25 -10.8253 3.25
      vertex 2.47157 -10.8253 2.34631
    endloop
  endfacet
  facet normal 0 -1 0
    outer loop
      vertex 6.25 -10.8253 3.25
      vertex 3.47217 -10.8253 0.200513
      vertex 5.09707 -10.8253 -0.0677003
    endloop
  endfacet
  facet normal 0 -1 0
    outer loop
      vertex 5.90227 -10.8253 -1.46851
      vertex 3.47217 -10.8253 0.200513
      vertex 3.13617 -10.8253 0.126023
    endloop
  endfacet
  facet normal 0 -1 -0
    outer loop
      vertex 6.25 -10.8253 3.25
      vertex 5.09707 -10.8253 -0.0677003
      vertex 6.25 -10.8253 0.277325
    endloop
  endfacet
  facet normal 0 -1 0
    outer loop
      vertex 3.47217 -10.8253 0.200513
      vertex 5.90227 -10.8253 -1.46851
      vertex 5.09707 -10.8253 -0.0677003
    endloop
  endfacet
  facet normal 0 -1 0
    outer loop
      vertex 3.13617 -10.8253 0.126023
      vertex 6.10086 -10.8253 -2.28986
      vertex 5.90227 -10.8253 -1.46851
    endloop
  endfacet
  facet normal 0 -1 0
    outer loop
      vertex 6.25 -10.8253 -3.25
      vertex 3.13617 -10.8253 0.126023
      vertex -2.44292 -10.8253 -2.47555
    endloop
  endfacet
  facet normal 0 -1 0
    outer loop
      vertex -3.13617 -10.8253 -0.126023
      vertex -6.10086 -10.8253 2.28986
      vertex -5.90227 -10.8253 1.46851
    endloop
  endfacet
  facet normal 0 -1 0
    outer loop
      vertex -3.47217 -10.8253 -0.200513
      vertex -5.90227 -10.8253 1.46851
      vertex -5.09707 -10.8253 0.0677003
    endloop
  endfacet
  facet normal 0 -1 0
    outer loop
      vertex -6.25 -10.8253 3.25
      vertex -3.13617 -10.8253 -0.126023
      vertex 2.44292 -10.8253 2.47555
    endloop
  endfacet
  facet normal 0 -1 0
    outer loop
      vertex -5.90227 -10.8253 1.46851
      vertex -3.47217 -10.8253 -0.200513
      vertex -3.13617 -10.8253 -0.126023
    endloop
  endfacet
  facet normal 0 -1 0
    outer loop
      vertex -6.25 -10.8253 -3.25
      vertex -5.09707 -10.8253 0.0677003
      vertex -6.25 -10.8253 -0.277325
    endloop
  endfacet
  facet normal 0 -1 -0
    outer loop
      vertex -5.09707 -10.8253 0.0677003
      vertex -6.25 -10.8253 -3.25
      vertex -3.47217 -10.8253 -0.200513
    endloop
  endfacet
  facet normal 0 -1 -0
    outer loop
      vertex -3.47217 -10.8253 -0.200513
      vertex -6.25 -10.8253 -3.25
      vertex -2.47157 -10.8253 -2.34631
    endloop
  endfacet
  facet normal 0 -1 -0
    outer loop
      vertex -2.47157 -10.8253 -2.34631
      vertex -6.25 -10.8253 -3.25
      vertex -2.44292 -10.8253 -2.47555
    endloop
  endfacet
  facet normal 0 -1 0
    outer loop
      vertex 6.25 -10.8253 -3.25
      vertex -2.44292 -10.8253 -2.47555
      vertex -6.25 -10.8253 -3.25
    endloop
  endfacet
  facet normal 0 -1 0
    outer loop
      vertex 6.10086 -10.8253 -2.28986
      vertex 6.25 -10.8253 -3.25
      vertex 6.25 -10.8253 -2.21241
    endloop
  endfacet
  facet normal 0 -1 0
    outer loop
      vertex 3.13617 -10.8253 0.126023
      vertex 6.25 -10.8253 -3.25
      vertex 6.10086 -10.8253 -2.28986
    endloop
  endfacet
  facet normal 0.866026 -0.499999 0
    outer loop
      vertex 12.5 0 3.25
      vertex 10.64 -3.22162 -0.123041
      vertex 12.5 0 0.949381
    endloop
  endfacet
  facet normal 0.866025 -0.5 1.30348e-06
    outer loop
      vertex 9.63613 -4.96037 0.66929
      vertex 10.64 -3.22162 -0.123041
      vertex 12.5 0 3.25
    endloop
  endfacet
  facet normal 0.866039 -0.499977 7.01172e-05
    outer loop
      vertex 10.64 -3.22162 -0.123041
      vertex 9.63613 -4.96037 0.66929
      vertex 10.4976 -3.4683 -0.270988
    endloop
  endfacet
  facet normal 0.866026 -0.499999 -1.51045e-06
    outer loop
      vertex 12.5 0 3.25
      vertex 9.23966 -5.64708 1.49954
      vertex 9.63613 -4.96037 0.66929
    endloop
  endfacet
  facet normal 0.866025 -0.5 1.83975e-06
    outer loop
      vertex 12.5 0 3.25
      vertex 8.94059 -6.16508 2.68067
      vertex 9.23966 -5.64708 1.49954
    endloop
  endfacet
  facet normal 0.866025 -0.500001 3.19008e-06
    outer loop
      vertex 6.25 -10.8253 3.25
      vertex 8.36674 -7.15902 1.76649
      vertex 8.94059 -6.16508 2.68067
    endloop
  endfacet
  facet normal 0.866025 -0.500001 9.68536e-06
    outer loop
      vertex 6.25 -10.8253 3.25
      vertex 8.94059 -6.16508 2.68067
      vertex 12.5 0 3.25
    endloop
  endfacet
  facet normal 0.866025 -0.5 6.10762e-06
    outer loop
      vertex 8.36674 -7.15902 1.76649
      vertex 6.25 -10.8253 3.25
      vertex 7.62539 -8.44308 1.33905
    endloop
  endfacet
  facet normal 0.866021 -0.500007 -4.86815e-06
    outer loop
      vertex 6.25 -10.8253 3.25
      vertex 6.67215 -10.0941 0.348861
      vertex 7.62539 -8.44308 1.33905
    endloop
  endfacet
  facet normal 0.86603 -0.499992 0
    outer loop
      vertex 6.67215 -10.0941 0.348861
      vertex 6.25 -10.8253 3.25
      vertex 6.25 -10.8253 0.277325
    endloop
  endfacet
  facet normal 0.866026 -0.499999 0
    outer loop
      vertex 11.07 -2.47684 -2.43482
      vertex 12.5 0 -3.25
      vertex 12.5 0 -0.949381
    endloop
  endfacet
  facet normal 0.866025 -0.500001 1.39447e-05
    outer loop
      vertex 7.62539 -8.44308 -1.4194
      vertex 11.0372 -2.53369 -2.16331
      vertex 10.64 -3.22162 -0.781377
    endloop
  endfacet
  facet normal 0.865653 -0.500645 -0.000450672
    outer loop
      vertex 10.4976 -3.4683 -0.270988
      vertex 10.64 -3.22162 -0.781377
      vertex 10.5257 -3.41966 -0.329796
    endloop
  endfacet
  facet normal 0.866003 -0.500038 -5.99341e-05
    outer loop
      vertex 9.63613 -4.96037 0.66929
      vertex 10.64 -3.22162 -0.781377
      vertex 10.4976 -3.4683 -0.270988
    endloop
  endfacet
  facet normal 0.866025 -0.5 1.38747e-06
    outer loop
      vertex 10.64 -3.22162 -0.781377
      vertex 9.63613 -4.96037 0.66929
      vertex 7.62539 -8.44308 -1.4194
    endloop
  endfacet
  facet normal 0.86602 -0.500009 -7.39567e-05
    outer loop
      vertex 11.0372 -2.53369 -2.16331
      vertex 7.62539 -8.44308 -1.4194
      vertex 11.07 -2.47684 -2.43482
    endloop
  endfacet
  facet normal 0.866025 -0.500001 -5.71255e-06
    outer loop
      vertex 6.25 -10.8253 -3.25
      vertex 11.07 -2.47684 -2.43482
      vertex 7.62539 -8.44308 -1.4194
    endloop
  endfacet
  facet normal 0.866023 -0.500004 0
    outer loop
      vertex 6.25 -10.8253 -3.25
      vertex 7.62539 -8.44308 -1.4194
      vertex 6.25 -10.8253 -2.21241
    endloop
  endfacet
  facet normal 0.866025 -0.500001 -6.96779e-06
    outer loop
      vertex 11.07 -2.47684 -2.43482
      vertex 6.25 -10.8253 -3.25
      vertex 12.5 0 -3.25
    endloop
  endfacet
  facet normal -0.866025 -0.5 0
    outer loop
      vertex 10.75 0 -3.25
      vertex 5.375 9.30977 3.25
      vertex 5.375 9.30977 -3.25
    endloop
  endfacet
  facet normal -0.866025 -0.5 0
    outer loop
      vertex 5.375 9.30977 3.25
      vertex 10.75 0 -3.25
      vertex 10.75 0 3.25
    endloop
  endfacet
  facet normal 0.866025 -0.5 0
    outer loop
      vertex -10.75 0 3.25
      vertex -5.375 9.30977 -3.25
      vertex -5.375 9.30977 3.25
    endloop
  endfacet
  facet normal 0.866025 -0.5 0
    outer loop
      vertex -5.375 9.30977 -3.25
      vertex -10.75 0 3.25
      vertex -10.75 0 -3.25
    endloop
  endfacet
  facet normal 0 -1 0
    outer loop
      vertex -5.375 9.30977 -3.25
      vertex 5.375 9.30977 3.25
      vertex -5.375 9.30977 3.25
    endloop
  endfacet
  facet normal 0 -1 -0
    outer loop
      vertex 5.375 9.30977 3.25
      vertex -5.375 9.30977 -3.25
      vertex 5.375 9.30977 -3.25
    endloop
  endfacet
  facet normal -0.866025 0.5 0
    outer loop
      vertex 5.375 -9.30977 -3.25
      vertex 10.75 0 3.25
      vertex 10.75 0 -3.25
    endloop
  endfacet
  facet normal -0.866025 0.5 0
    outer loop
      vertex 10.75 0 3.25
      vertex 5.375 -9.30977 -3.25
      vertex 5.375 -9.30977 3.25
    endloop
  endfacet
  facet normal 0 1 -0
    outer loop
      vertex 5.375 -9.30977 -3.25
      vertex -5.375 -9.30977 3.25
      vertex 5.375 -9.30977 3.25
    endloop
  endfacet
  facet normal 0 1 0
    outer loop
      vertex -5.375 -9.30977 3.25
      vertex 5.375 -9.30977 -3.25
      vertex -5.375 -9.30977 -3.25
    endloop
  endfacet
  facet normal 0.866025 0.5 0
    outer loop
      vertex -5.375 -9.30977 3.25
      vertex -10.75 0 -3.25
      vertex -10.75 0 3.25
    endloop
  endfacet
  facet normal 0.866025 0.5 0
    outer loop
      vertex -10.75 0 -3.25
      vertex -5.375 -9.30977 3.25
      vertex -5.375 -9.30977 -3.25
    endloop
  endfacet
  facet normal 1 -0 0
    outer loop
      vertex 17.64 -3.25 1.25
      vertex 17.64 3.25 -1.25
      vertex 17.64 3.25 1.25
    endloop
  endfacet
  facet normal 1 0 0
    outer loop
      vertex 17.64 3.25 -1.25
      vertex 17.64 -3.25 1.25
      vertex 17.64 -3.25 -1.25
    endloop
  endfacet
  facet normal -1 0 -0
    outer loop
      vertex 3.64 1.1315 3.29313
      vertex 3.64 1.1829 3.25
      vertex 3.64 1.09532 3.25
    endloop
  endfacet
  facet normal -1 -0 0
    outer loop
      vertex 3.64 -1.09532 -3.25
      vertex 3.64 -1.1315 -3.29313
      vertex 3.64 -1.1829 -3.25
    endloop
  endfacet
  facet normal -0.0988253 0.995105 0
    outer loop
      vertex 17.64 3.25 1.25
      vertex 17.64 3.25 -1.25
      vertex 14.14 2.90241 1.9238
    endloop
  endfacet
  facet normal 0.0988242 0.971517 0.21538
    outer loop
      vertex 17.64 3.25 -1.25
      vertex 14.14 3.44351 -0.516941
      vertex 14.14 2.90241 1.9238
    endloop
  endfacet
  facet normal -0.204997 -0 -0.978763
    outer loop
      vertex 17.64 3.25 -1.25
      vertex 17.64 -3.25 -1.25
      vertex 14.14 3.44351 -0.516941
    endloop
  endfacet
  facet normal 0.204998 0.211843 -0.955562
    outer loop
      vertex 14.14 3.44351 -0.516941
      vertex 17.64 -3.25 -1.25
      vertex 14.14 -2.90241 -1.9238
    endloop
  endfacet
  facet normal -0.0988253 -0.995105 0
    outer loop
      vertex 17.64 -3.25 -1.25
      vertex 17.64 -3.25 1.25
      vertex 14.14 -2.90241 -1.9238
    endloop
  endfacet
  facet normal 0.0988242 -0.971517 -0.21538
    outer loop
      vertex 14.14 -2.90241 -1.9238
      vertex 17.64 -3.25 1.25
      vertex 14.14 -3.44351 0.516941
    endloop
  endfacet
  facet normal -0.204997 0 0.978763
    outer loop
      vertex 17.64 -3.25 1.25
      vertex 17.64 3.25 1.25
      vertex 14.14 -3.44351 0.516941
    endloop
  endfacet
  facet normal 0.204998 -0.211843 0.955562
    outer loop
      vertex 17.64 3.25 1.25
      vertex 14.14 2.90241 1.9238
      vertex 14.14 -3.44351 0.516941
    endloop
  endfacet
  facet normal -0.0988263 0.971521 0.21536
    outer loop
      vertex 14.14 2.90241 1.9238
      vertex 11.0372 2.53369 2.16331
      vertex 11.07 2.47684 2.43482
    endloop
  endfacet
  facet normal -0.0988243 0.971517 0.21538
    outer loop
      vertex 11.0372 2.53369 2.16331
      vertex 14.14 2.90241 1.9238
      vertex 14.14 3.44351 -0.516941
    endloop
  endfacet
  facet normal 0.0988258 0.901871 0.420549
    outer loop
      vertex 14.14 3.44351 -0.516941
      vertex 10.64 3.22162 0.781377
      vertex 11.0372 2.53369 2.16331
    endloop
  endfacet
  facet normal 0.098822 0.901876 0.42054
    outer loop
      vertex 10.64 3.22162 0.781377
      vertex 14.14 3.44351 -0.516941
      vertex 10.64 3.47377 0.240624
    endloop
  endfacet
  facet normal -0.204997 0.211843 -0.955562
    outer loop
      vertex 14.14 3.44351 -0.516941
      vertex 14.14 -2.90241 -1.9238
      vertex 10.64 3.47377 0.240624
    endloop
  endfacet
  facet normal 0.204997 0.413643 -0.88706
    outer loop
      vertex 14.14 -2.90241 -1.9238
      vertex 11.07 -2.47684 -2.43482
      vertex 12.5 0 -0.949381
    endloop
  endfacet
  facet normal 0.204976 0.413635 -0.887069
    outer loop
      vertex 12.5 0 -0.949381
      vertex 10.64 3.47377 0.240624
      vertex 14.14 -2.90241 -1.9238
    endloop
  endfacet
  facet normal 0.205018 0.413651 -0.887051
    outer loop
      vertex 10.64 3.47377 0.240624
      vertex 12.5 0 -0.949381
      vertex 10.64 3.22162 0.123041
    endloop
  endfacet
  facet normal -0.0988243 -0.971517 -0.21538
    outer loop
      vertex 11.0372 -2.53369 -2.16331
      vertex 14.14 -2.90241 -1.9238
      vertex 14.14 -3.44351 0.516941
    endloop
  endfacet
  facet normal -0.0988263 -0.971521 -0.21536
    outer loop
      vertex 14.14 -2.90241 -1.9238
      vertex 11.0372 -2.53369 -2.16331
      vertex 11.07 -2.47684 -2.43482
    endloop
  endfacet
  facet normal 0.098822 -0.901876 -0.42054
    outer loop
      vertex 10.64 -3.22162 -0.781377
      vertex 14.14 -3.44351 0.516941
      vertex 10.64 -3.47377 -0.240624
    endloop
  endfacet
  facet normal 0.0988258 -0.901871 -0.420549
    outer loop
      vertex 14.14 -3.44351 0.516941
      vertex 10.64 -3.22162 -0.781377
      vertex 11.0372 -2.53369 -2.16331
    endloop
  endfacet
  facet normal -0.204997 -0.211843 0.955562
    outer loop
      vertex 14.14 -3.44351 0.516941
      vertex 14.14 2.90241 1.9238
      vertex 10.64 -3.47377 -0.240624
    endloop
  endfacet
  facet normal 0.204997 -0.413643 0.88706
    outer loop
      vertex 14.14 2.90241 1.9238
      vertex 11.07 2.47684 2.43482
      vertex 12.5 0 0.949381
    endloop
  endfacet
  facet normal 0.204976 -0.413635 0.887069
    outer loop
      vertex 12.5 0 0.949381
      vertex 10.64 -3.47377 -0.240624
      vertex 14.14 2.90241 1.9238
    endloop
  endfacet
  facet normal 0.205018 -0.413651 0.887051
    outer loop
      vertex 10.64 -3.47377 -0.240624
      vertex 12.5 0 0.949381
      vertex 10.64 -3.22162 -0.123041
    endloop
  endfacet
  facet normal -0.0988636 0.901872 0.420538
    outer loop
      vertex 10.64 3.22162 0.781377
      vertex 10.64 3.47377 0.240624
      vertex 10.5257 3.41966 0.329796
    endloop
  endfacet
  facet normal 0.098839 0.789488 0.605756
    outer loop
      vertex 10.5257 3.41966 0.329796
      vertex 10.64 3.47377 0.240624
      vertex 10.4976 3.4683 0.270988
    endloop
  endfacet
  facet normal -0.205035 0.41365 -0.887048
    outer loop
      vertex 10.64 3.47377 0.240624
      vertex 10.64 3.22162 0.123041
      vertex 10.4976 3.4683 0.270988
    endloop
  endfacet
  facet normal -0.0988636 -0.901872 -0.420538
    outer loop
      vertex 10.64 -3.22162 -0.781377
      vertex 10.64 -3.47377 -0.240624
      vertex 10.5257 -3.41966 -0.329796
    endloop
  endfacet
  facet normal 0.098839 -0.789488 -0.605756
    outer loop
      vertex 10.5257 -3.41966 -0.329796
      vertex 10.64 -3.47377 -0.240624
      vertex 10.4976 -3.4683 -0.270988
    endloop
  endfacet
  facet normal -0.205035 -0.41365 0.887048
    outer loop
      vertex 10.64 -3.47377 -0.240624
      vertex 10.64 -3.22162 -0.123041
      vertex 10.4976 -3.4683 -0.270988
    endloop
  endfacet
  facet normal -0.0988132 0.789445 0.605816
    outer loop
      vertex 4.10739 1.2231 3.25
      vertex 3.70545 1.17279 3.25
      vertex 3.64 1.1315 3.29313
    endloop
  endfacet
  facet normal 0.0988053 0.639645 0.762294
    outer loop
      vertex 3.70545 1.17279 3.25
      vertex 3.64 1.1829 3.25
      vertex 3.64 1.1315 3.29313
    endloop
  endfacet
  facet normal 0.205005 0.749863 -0.62903
    outer loop
      vertex 3.64 -1.09532 -3.25
      vertex 4.10739 -1.2231 -3.25
      vertex 3.64 -1.1315 -3.29313
    endloop
  endfacet
  facet normal -0.0988132 -0.789445 -0.605816
    outer loop
      vertex 4.10739 -1.2231 -3.25
      vertex 3.70545 -1.17279 -3.25
      vertex 3.64 -1.1315 -3.29313
    endloop
  endfacet
  facet normal 0.0988053 -0.639645 -0.762294
    outer loop
      vertex 3.64 -1.1315 -3.29313
      vertex 3.70545 -1.17279 -3.25
      vertex 3.64 -1.1829 -3.25
    endloop
  endfacet
  facet normal 0.205005 -0.749863 0.62903
    outer loop
      vertex 4.10739 1.2231 3.25
      vertex 3.64 1.1315 3.29313
      vertex 3.64 1.09532 3.25
    endloop
  endfacet
  facet normal -1 0 0
    outer loop
      vertex -17.64 -3.25 -1.25
      vertex -17.64 3.25 1.25
      vertex -17.64 3.25 -1.25
    endloop
  endfacet
  facet normal -1 -0 0
    outer loop
      vertex -17.64 3.25 1.25
      vertex -17.64 -3.25 -1.25
      vertex -17.64 -3.25 1.25
    endloop
  endfacet
  facet normal 1 0 0
    outer loop
      vertex -3.64 -1.09532 3.25
      vertex -3.64 -1.1315 3.29313
      vertex -3.64 -1.1829 3.25
    endloop
  endfacet
  facet normal 1 0 -0
    outer loop
      vertex -3.64 1.1315 -3.29313
      vertex -3.64 1.1829 -3.25
      vertex -3.64 1.09532 -3.25
    endloop
  endfacet
  facet normal 0.0988253 -0.995105 0
    outer loop
      vertex -14.14 -2.90241 1.9238
      vertex -17.64 -3.25 1.25
      vertex -17.64 -3.25 -1.25
    endloop
  endfacet
  facet normal -0.0988242 -0.971517 0.21538
    outer loop
      vertex -14.14 -3.44351 -0.516941
      vertex -14.14 -2.90241 1.9238
      vertex -17.64 -3.25 -1.25
    endloop
  endfacet
  facet normal 0.204997 0 -0.978763
    outer loop
      vertex -17.64 3.25 -1.25
      vertex -14.14 -3.44351 -0.516941
      vertex -17.64 -3.25 -1.25
    endloop
  endfacet
  facet normal -0.204998 -0.211843 -0.955562
    outer loop
      vertex -14.14 2.90241 -1.9238
      vertex -14.14 -3.44351 -0.516941
      vertex -17.64 3.25 -1.25
    endloop
  endfacet
  facet normal 0.0988253 0.995105 0
    outer loop
      vertex -17.64 3.25 1.25
      vertex -14.14 2.90241 -1.9238
      vertex -17.64 3.25 -1.25
    endloop
  endfacet
  facet normal -0.0988242 0.971517 -0.21538
    outer loop
      vertex -14.14 3.44351 0.516941
      vertex -14.14 2.90241 -1.9238
      vertex -17.64 3.25 1.25
    endloop
  endfacet
  facet normal 0.204997 0 0.978763
    outer loop
      vertex -14.14 3.44351 0.516941
      vertex -17.64 3.25 1.25
      vertex -17.64 -3.25 1.25
    endloop
  endfacet
  facet normal -0.204998 0.211843 0.955562
    outer loop
      vertex -14.14 -2.90241 1.9238
      vertex -14.14 3.44351 0.516941
      vertex -17.64 -3.25 1.25
    endloop
  endfacet
  facet normal 0.0988263 -0.971521 0.21536
    outer loop
      vertex -14.14 -2.90241 1.9238
      vertex -11.0372 -2.53369 2.16331
      vertex -11.07 -2.47684 2.43482
    endloop
  endfacet
  facet normal 0.0988243 -0.971517 0.21538
    outer loop
      vertex -11.0372 -2.53369 2.16331
      vertex -14.14 -2.90241 1.9238
      vertex -14.14 -3.44351 -0.516941
    endloop
  endfacet
  facet normal -0.0988258 -0.901871 0.420549
    outer loop
      vertex -14.14 -3.44351 -0.516941
      vertex -10.64 -3.22162 0.781377
      vertex -11.0372 -2.53369 2.16331
    endloop
  endfacet
  facet normal -0.098822 -0.901876 0.42054
    outer loop
      vertex -10.64 -3.22162 0.781377
      vertex -14.14 -3.44351 -0.516941
      vertex -10.64 -3.47377 0.240624
    endloop
  endfacet
  facet normal 0.204997 -0.211843 -0.955562
    outer loop
      vertex -14.14 2.90241 -1.9238
      vertex -10.64 -3.47377 0.240624
      vertex -14.14 -3.44351 -0.516941
    endloop
  endfacet
  facet normal -0.205018 -0.413651 -0.887051
    outer loop
      vertex -10.64 -3.47377 0.240624
      vertex -12.5 0 -0.949381
      vertex -10.64 -3.22162 0.123041
    endloop
  endfacet
  facet normal -0.204976 -0.413635 -0.887069
    outer loop
      vertex -12.5 0 -0.949381
      vertex -10.64 -3.47377 0.240624
      vertex -14.14 2.90241 -1.9238
    endloop
  endfacet
  facet normal -0.204997 -0.413643 -0.88706
    outer loop
      vertex -11.07 2.47684 -2.43482
      vertex -12.5 0 -0.949381
      vertex -14.14 2.90241 -1.9238
    endloop
  endfacet
  facet normal 0.0988243 0.971517 -0.21538
    outer loop
      vertex -11.0372 2.53369 -2.16331
      vertex -14.14 2.90241 -1.9238
      vertex -14.14 3.44351 0.516941
    endloop
  endfacet
  facet normal 0.0988263 0.971521 -0.21536
    outer loop
      vertex -14.14 2.90241 -1.9238
      vertex -11.0372 2.53369 -2.16331
      vertex -11.07 2.47684 -2.43482
    endloop
  endfacet
  facet normal -0.0988217 0.901877 -0.420538
    outer loop
      vertex -10.64 3.22162 -0.781379
      vertex -14.14 3.44351 0.516941
      vertex -10.64 3.47377 -0.240624
    endloop
  endfacet
  facet normal -0.0988262 0.901871 -0.42055
    outer loop
      vertex -14.14 3.44351 0.516941
      vertex -10.64 3.22162 -0.781379
      vertex -11.0372 2.53369 -2.16331
    endloop
  endfacet
  facet normal 0.204997 0.211843 0.955562
    outer loop
      vertex -10.64 3.47377 -0.240624
      vertex -14.14 3.44351 0.516941
      vertex -14.14 -2.90241 1.9238
    endloop
  endfacet
  facet normal -0.205018 0.413651 0.887051
    outer loop
      vertex -10.64 3.47377 -0.240624
      vertex -12.5 0 0.949381
      vertex -10.64 3.22162 -0.123041
    endloop
  endfacet
  facet normal -0.204976 0.413635 0.887069
    outer loop
      vertex -12.5 0 0.949381
      vertex -10.64 3.47377 -0.240624
      vertex -14.14 -2.90241 1.9238
    endloop
  endfacet
  facet normal -0.204997 0.413643 0.88706
    outer loop
      vertex -11.07 -2.47684 2.43482
      vertex -12.5 0 0.949381
      vertex -14.14 -2.90241 1.9238
    endloop
  endfacet
  facet normal 0.0988636 -0.901872 0.420538
    outer loop
      vertex -10.5257 -3.41966 0.329796
      vertex -10.64 -3.22162 0.781377
      vertex -10.64 -3.47377 0.240624
    endloop
  endfacet
  facet normal -0.098839 -0.789488 0.605756
    outer loop
      vertex -10.4976 -3.4683 0.270988
      vertex -10.5257 -3.41966 0.329796
      vertex -10.64 -3.47377 0.240624
    endloop
  endfacet
  facet normal 0.205035 -0.41365 -0.887048
    outer loop
      vertex -10.64 -3.22162 0.123041
      vertex -10.4976 -3.4683 0.270988
      vertex -10.64 -3.47377 0.240624
    endloop
  endfacet
  facet normal 0.0988612 0.901873 -0.420537
    outer loop
      vertex -10.64 3.47377 -0.240624
      vertex -10.5257 3.41966 -0.329797
      vertex -10.64 3.22162 -0.781379
    endloop
  endfacet
  facet normal -0.0988376 0.789492 -0.60575
    outer loop
      vertex -10.4976 3.4683 -0.270988
      vertex -10.5257 3.41966 -0.329797
      vertex -10.64 3.47377 -0.240624
    endloop
  endfacet
  facet normal 0.205035 0.41365 0.887048
    outer loop
      vertex -10.4976 3.4683 -0.270988
      vertex -10.64 3.47377 -0.240624
      vertex -10.64 3.22162 -0.123041
    endloop
  endfacet
  facet normal 0.0988132 -0.789445 0.605816
    outer loop
      vertex -3.70545 -1.17279 3.25
      vertex -3.64 -1.1315 3.29313
      vertex -4.10739 -1.2231 3.25
    endloop
  endfacet
  facet normal -0.0988053 -0.639645 0.762294
    outer loop
      vertex -3.64 -1.1829 3.25
      vertex -3.64 -1.1315 3.29313
      vertex -3.70545 -1.17279 3.25
    endloop
  endfacet
  facet normal -0.205005 -0.749863 -0.62903
    outer loop
      vertex -3.64 1.1315 -3.29313
      vertex -3.64 1.09532 -3.25
      vertex -4.10739 1.2231 -3.25
    endloop
  endfacet
  facet normal 0.0988132 0.789445 -0.605816
    outer loop
      vertex -3.70545 1.17279 -3.25
      vertex -3.64 1.1315 -3.29313
      vertex -4.10739 1.2231 -3.25
    endloop
  endfacet
  facet normal -0.0988053 0.639645 -0.762294
    outer loop
      vertex -3.64 1.1829 -3.25
      vertex -3.64 1.1315 -3.29313
      vertex -3.70545 1.17279 -3.25
    endloop
  endfacet
  facet normal -0.205005 0.749863 0.62903
    outer loop
      vertex -3.64 -1.1315 3.29313
      vertex -3.64 -1.09532 3.25
      vertex -4.10739 -1.2231 3.25
    endloop
  endfacet
  facet normal 0 1 -0
    outer loop
      vertex 3.25 17.64 -1.25
      vertex -3.25 17.64 1.25
      vertex 3.25 17.64 1.25
    endloop
  endfacet
  facet normal 0 1 0
    outer loop
      vertex -3.25 17.64 1.25
      vertex 3.25 17.64 -1.25
      vertex -3.25 17.64 -1.25
    endloop
  endfacet
  facet normal 0 -1 0
    outer loop
      vertex -1.09532 3.64 3.25
      vertex -1.1315 3.64 3.29313
      vertex -1.1829 3.64 3.25
    endloop
  endfacet
  facet normal 0 -1 0
    outer loop
      vertex 1.1315 3.64 -3.29313
      vertex 1.1829 3.64 -3.25
      vertex 1.09532 3.64 -3.25
    endloop
  endfacet
  facet normal -0.995105 -0.0988253 0
    outer loop
      vertex -2.90241 14.14 1.9238
      vertex -3.25 17.64 1.25
      vertex -3.25 17.64 -1.25
    endloop
  endfacet
  facet normal -0.971517 0.0988242 0.21538
    outer loop
      vertex -2.90241 14.14 1.9238
      vertex -3.25 17.64 -1.25
      vertex -3.44351 14.14 -0.516941
    endloop
  endfacet
  facet normal 0 -0.204997 -0.978763
    outer loop
      vertex -3.25 17.64 -1.25
      vertex 3.25 17.64 -1.25
      vertex -3.44351 14.14 -0.516941
    endloop
  endfacet
  facet normal -0.211843 0.204998 -0.955562
    outer loop
      vertex 3.25 17.64 -1.25
      vertex 2.90241 14.14 -1.9238
      vertex -3.44351 14.14 -0.516941
    endloop
  endfacet
  facet normal 0.995105 -0.0988253 0
    outer loop
      vertex 3.25 17.64 -1.25
      vertex 3.25 17.64 1.25
      vertex 2.90241 14.14 -1.9238
    endloop
  endfacet
  facet normal 0.971517 0.0988242 -0.21538
    outer loop
      vertex 3.25 17.64 1.25
      vertex 3.44351 14.14 0.516941
      vertex 2.90241 14.14 -1.9238
    endloop
  endfacet
  facet normal 0 -0.204997 0.978763
    outer loop
      vertex 3.44351 14.14 0.516941
      vertex 3.25 17.64 1.25
      vertex -3.25 17.64 1.25
    endloop
  endfacet
  facet normal 0.211843 0.204998 0.955562
    outer loop
      vertex -2.90241 14.14 1.9238
      vertex 3.44351 14.14 0.516941
      vertex -3.25 17.64 1.25
    endloop
  endfacet
  facet normal -0.971517 -0.0988228 0.21538
    outer loop
      vertex -2.47157 10.8253 2.34631
      vertex -2.90241 14.14 1.9238
      vertex -3.44351 14.14 -0.516941
    endloop
  endfacet
  facet normal -0.97152 -0.0988249 0.215367
    outer loop
      vertex -2.90241 14.14 1.9238
      vertex -2.47157 10.8253 2.34631
      vertex -2.44292 10.8253 2.47555
    endloop
  endfacet
  facet normal -0.901872 0.0988241 0.420549
    outer loop
      vertex -2.47157 10.8253 2.34631
      vertex -3.44351 14.14 -0.516941
      vertex -3.47217 10.8253 0.200513
    endloop
  endfacet
  facet normal -0.211843 -0.204996 -0.955562
    outer loop
      vertex -3.13617 10.8253 0.126023
      vertex -3.44351 14.14 -0.516941
      vertex 2.90241 14.14 -1.9238
    endloop
  endfacet
  facet normal -0.211845 -0.204996 -0.955562
    outer loop
      vertex -3.44351 14.14 -0.516941
      vertex -3.13617 10.8253 0.126023
      vertex -3.47217 10.8253 0.200513
    endloop
  endfacet
  facet normal -0.413643 0.204996 -0.88706
    outer loop
      vertex 2.90241 14.14 -1.9238
      vertex 2.44292 10.8253 -2.47555
      vertex -3.13617 10.8253 0.126023
    endloop
  endfacet
  facet normal 0.971517 -0.0988228 -0.21538
    outer loop
      vertex 2.47157 10.8253 -2.34631
      vertex 2.90241 14.14 -1.9238
      vertex 3.44351 14.14 0.516941
    endloop
  endfacet
  facet normal 0.97152 -0.0988249 -0.215367
    outer loop
      vertex 2.90241 14.14 -1.9238
      vertex 2.47157 10.8253 -2.34631
      vertex 2.44292 10.8253 -2.47555
    endloop
  endfacet
  facet normal 0.901872 0.0988241 -0.420549
    outer loop
      vertex 3.44351 14.14 0.516941
      vertex 3.47217 10.8253 -0.200513
      vertex 2.47157 10.8253 -2.34631
    endloop
  endfacet
  facet normal 0.211845 -0.204996 0.955562
    outer loop
      vertex 3.44351 14.14 0.516941
      vertex 3.13617 10.8253 -0.126023
      vertex 3.47217 10.8253 -0.200513
    endloop
  endfacet
  facet normal 0.211843 -0.204996 0.955562
    outer loop
      vertex 3.13617 10.8253 -0.126023
      vertex 3.44351 14.14 0.516941
      vertex -2.90241 14.14 1.9238
    endloop
  endfacet
  facet normal 0.413643 0.204996 0.88706
    outer loop
      vertex -2.44292 10.8253 2.47555
      vertex 3.13617 10.8253 -0.126023
      vertex -2.90241 14.14 1.9238
    endloop
  endfacet
  facet normal -0.789445 -0.0988132 0.605816
    outer loop
      vertex -1.17279 3.70545 3.25
      vertex -1.1315 3.64 3.29313
      vertex -1.2231 4.10739 3.25
    endloop
  endfacet
  facet normal -0.639645 0.0988053 0.762294
    outer loop
      vertex -1.1315 3.64 3.29313
      vertex -1.17279 3.70545 3.25
      vertex -1.1829 3.64 3.25
    endloop
  endfacet
  facet normal -0.749863 0.205005 -0.62903
    outer loop
      vertex 1.2231 4.10739 -3.25
      vertex 1.1315 3.64 -3.29313
      vertex 1.09532 3.64 -3.25
    endloop
  endfacet
  facet normal 0.789445 -0.0988132 -0.605816
    outer loop
      vertex 1.2231 4.10739 -3.25
      vertex 1.17279 3.70545 -3.25
      vertex 1.1315 3.64 -3.29313
    endloop
  endfacet
  facet normal 0.639645 0.0988053 -0.762294
    outer loop
      vertex 1.17279 3.70545 -3.25
      vertex 1.1829 3.64 -3.25
      vertex 1.1315 3.64 -3.29313
    endloop
  endfacet
  facet normal 0.749863 0.205005 0.62903
    outer loop
      vertex -1.1315 3.64 3.29313
      vertex -1.09532 3.64 3.25
      vertex -1.2231 4.10739 3.25
    endloop
  endfacet
  facet normal 0 -1 0
    outer loop
      vertex -3.25 -17.64 -1.25
      vertex 3.25 -17.64 1.25
      vertex -3.25 -17.64 1.25
    endloop
  endfacet
  facet normal 0 -1 -0
    outer loop
      vertex 3.25 -17.64 1.25
      vertex -3.25 -17.64 -1.25
      vertex 3.25 -17.64 -1.25
    endloop
  endfacet
  facet normal 0 1 0
    outer loop
      vertex 1.1315 -3.64 3.29313
      vertex 1.1829 -3.64 3.25
      vertex 1.09532 -3.64 3.25
    endloop
  endfacet
  facet normal 0 1 0
    outer loop
      vertex -1.09532 -3.64 -3.25
      vertex -1.1315 -3.64 -3.29313
      vertex -1.1829 -3.64 -3.25
    endloop
  endfacet
  facet normal 0.995105 0.0988253 0
    outer loop
      vertex 3.25 -17.64 1.25
      vertex 3.25 -17.64 -1.25
      vertex 2.90241 -14.14 1.9238
    endloop
  endfacet
  facet normal 0.971517 -0.0988242 0.21538
    outer loop
      vertex 3.25 -17.64 -1.25
      vertex 3.44351 -14.14 -0.516941
      vertex 2.90241 -14.14 1.9238
    endloop
  endfacet
  facet normal 0 0.204997 -0.978763
    outer loop
      vertex 3.44351 -14.14 -0.516941
      vertex 3.25 -17.64 -1.25
      vertex -3.25 -17.64 -1.25
    endloop
  endfacet
  facet normal 0.211843 -0.204998 -0.955562
    outer loop
      vertex -2.90241 -14.14 -1.9238
      vertex 3.44351 -14.14 -0.516941
      vertex -3.25 -17.64 -1.25
    endloop
  endfacet
  facet normal -0.995105 0.0988253 0
    outer loop
      vertex -3.25 -17.64 1.25
      vertex -2.90241 -14.14 -1.9238
      vertex -3.25 -17.64 -1.25
    endloop
  endfacet
  facet normal -0.971517 -0.0988242 -0.21538
    outer loop
      vertex -2.90241 -14.14 -1.9238
      vertex -3.25 -17.64 1.25
      vertex -3.44351 -14.14 0.516941
    endloop
  endfacet
  facet normal -0 0.204997 0.978763
    outer loop
      vertex -3.25 -17.64 1.25
      vertex 3.25 -17.64 1.25
      vertex -3.44351 -14.14 0.516941
    endloop
  endfacet
  facet normal -0.211843 -0.204998 0.955562
    outer loop
      vertex 3.25 -17.64 1.25
      vertex 2.90241 -14.14 1.9238
      vertex -3.44351 -14.14 0.516941
    endloop
  endfacet
  facet normal 0.97152 0.0988249 0.215367
    outer loop
      vertex 2.90241 -14.14 1.9238
      vertex 2.47157 -10.8253 2.34631
      vertex 2.44292 -10.8253 2.47555
    endloop
  endfacet
  facet normal 0.971517 0.0988228 0.21538
    outer loop
      vertex 2.47157 -10.8253 2.34631
      vertex 2.90241 -14.14 1.9238
      vertex 3.44351 -14.14 -0.516941
    endloop
  endfacet
  facet normal 0.901872 -0.0988241 0.420549
    outer loop
      vertex 3.44351 -14.14 -0.516941
      vertex 3.47217 -10.8253 0.200513
      vertex 2.47157 -10.8253 2.34631
    endloop
  endfacet
  facet normal 0.211845 0.204996 -0.955562
    outer loop
      vertex 3.44351 -14.14 -0.516941
      vertex 3.13617 -10.8253 0.126023
      vertex 3.47217 -10.8253 0.200513
    endloop
  endfacet
  facet normal 0.211843 0.204996 -0.955562
    outer loop
      vertex 3.13617 -10.8253 0.126023
      vertex 3.44351 -14.14 -0.516941
      vertex -2.90241 -14.14 -1.9238
    endloop
  endfacet
  facet normal 0.413643 -0.204996 -0.88706
    outer loop
      vertex -2.44292 -10.8253 -2.47555
      vertex 3.13617 -10.8253 0.126023
      vertex -2.90241 -14.14 -1.9238
    endloop
  endfacet
  facet normal -0.97152 0.0988249 -0.215367
    outer loop
      vertex -2.90241 -14.14 -1.9238
      vertex -2.47157 -10.8253 -2.34631
      vertex -2.44292 -10.8253 -2.47555
    endloop
  endfacet
  facet normal -0.971517 0.0988228 -0.21538
    outer loop
      vertex -2.47157 -10.8253 -2.34631
      vertex -2.90241 -14.14 -1.9238
      vertex -3.44351 -14.14 0.516941
    endloop
  endfacet
  facet normal -0.901872 -0.0988241 -0.420549
    outer loop
      vertex -2.47157 -10.8253 -2.34631
      vertex -3.44351 -14.14 0.516941
      vertex -3.47217 -10.8253 -0.200513
    endloop
  endfacet
  facet normal -0.211843 0.204996 0.955562
    outer loop
      vertex -3.13617 -10.8253 -0.126023
      vertex -3.44351 -14.14 0.516941
      vertex 2.90241 -14.14 1.9238
    endloop
  endfacet
  facet normal -0.211845 0.204996 0.955562
    outer loop
      vertex -3.44351 -14.14 0.516941
      vertex -3.13617 -10.8253 -0.126023
      vertex -3.47217 -10.8253 -0.200513
    endloop
  endfacet
  facet normal -0.413643 -0.204996 0.88706
    outer loop
      vertex 2.90241 -14.14 1.9238
      vertex 2.44292 -10.8253 2.47555
      vertex -3.13617 -10.8253 -0.126023
    endloop
  endfacet
  facet normal 0.789445 0.0988132 0.605816
    outer loop
      vertex 1.2231 -4.10739 3.25
      vertex 1.17279 -3.70545 3.25
      vertex 1.1315 -3.64 3.29313
    endloop
  endfacet
  facet normal 0.639645 -0.0988053 0.762294
    outer loop
      vertex 1.17279 -3.70545 3.25
      vertex 1.1829 -3.64 3.25
      vertex 1.1315 -3.64 3.29313
    endloop
  endfacet
  facet normal 0.749863 -0.205005 -0.62903
    outer loop
      vertex -1.1315 -3.64 -3.29313
      vertex -1.09532 -3.64 -3.25
      vertex -1.2231 -4.10739 -3.25
    endloop
  endfacet
  facet normal -0.789445 0.0988132 -0.605816
    outer loop
      vertex -1.17279 -3.70545 -3.25
      vertex -1.1315 -3.64 -3.29313
      vertex -1.2231 -4.10739 -3.25
    endloop
  endfacet
  facet normal -0.639645 -0.0988053 -0.762294
    outer loop
      vertex -1.1315 -3.64 -3.29313
      vertex -1.17279 -3.70545 -3.25
      vertex -1.1829 -3.64 -3.25
    endloop
  endfacet
  facet normal -0.749863 -0.205005 0.62903
    outer loop
      vertex 1.2231 -4.10739 3.25
      vertex 1.1315 -3.64 3.29313
      vertex 1.09532 -3.64 3.25
    endloop
  endfacet
  facet normal 0.642783 0.766049 -0
    outer loop
      vertex 14.6892 11.6733 -1.25
      vertex 9.70987 15.8514 1.25
      vertex 14.6892 11.6733 1.25
    endloop
  endfacet
  facet normal 0.642783 0.766049 0
    outer loop
      vertex 9.70987 15.8514 1.25
      vertex 14.6892 11.6733 -1.25
      vertex 9.70987 15.8514 -1.25
    endloop
  endfacet
  facet normal -0.642721 -0.7661 -8.64845e-06
    outer loop
      vertex 2.34506 3.75548 3.25
      vertex 2.3337 3.76501 3.29313
      vertex 2.29433 3.79804 3.25
    endloop
  endfacet
  facet normal -0.642621 -0.766184 0.000185133
    outer loop
      vertex 4.06727 2.31037 -3.29313
      vertex 4.05592 2.3199 -3.25
      vertex 4.03955 2.33363 -3.25
    endloop
  endfacet
  facet normal -0.642896 -0.765954 -8.71144e-05
    outer loop
      vertex 2.34506 3.75548 3.25
      vertex 2.36143 3.74174 3.25
      vertex 2.3337 3.76501 3.29313
    endloop
  endfacet
  facet normal -0.642884 -0.765964 6.72631e-05
    outer loop
      vertex 4.06727 2.31037 -3.29313
      vertex 4.10664 2.27733 -3.25
      vertex 4.05592 2.3199 -3.25
    endloop
  endfacet
  facet normal -0.825819 0.563935 0
    outer loop
      vertex 9.70987 15.8514 1.25
      vertex 9.70987 15.8514 -1.25
      vertex 7.72638 12.9468 1.9238
    endloop
  endfacet
  facet normal -0.680706 0.700179 0.215378
    outer loop
      vertex 7.72638 12.9468 1.9238
      vertex 9.70987 15.8514 -1.25
      vertex 7.31187 13.2946 -0.516941
    endloop
  endfacet
  facet normal -0.131768 -0.157037 -0.978763
    outer loop
      vertex 9.70987 15.8514 -1.25
      vertex 14.6892 11.6733 -1.25
      vertex 7.31187 13.2946 -0.516941
    endloop
  endfacet
  facet normal -0.0305138 0.293205 -0.955562
    outer loop
      vertex 14.6892 11.6733 -1.25
      vertex 12.1731 9.21552 -1.9238
      vertex 7.31187 13.2946 -0.516941
    endloop
  endfacet
  facet normal 0.698768 -0.715349 0
    outer loop
      vertex 14.6892 11.6733 -1.25
      vertex 14.6892 11.6733 1.25
      vertex 12.1731 9.21552 -1.9238
    endloop
  endfacet
  facet normal 0.807742 -0.548785 -0.215378
    outer loop
      vertex 14.6892 11.6733 1.25
      vertex 12.5876 8.86771 0.516941
      vertex 12.1731 9.21552 -1.9238
    endloop
  endfacet
  facet normal -0.131765 -0.157034 0.978764
    outer loop
      vertex 12.5876 8.86771 0.516941
      vertex 14.6892 11.6733 1.25
      vertex 9.70987 15.8514 1.25
    endloop
  endfacet
  facet normal 0.294053 0.0208659 0.955561
    outer loop
      vertex 12.5876 8.86771 0.516941
      vertex 9.70987 15.8514 1.25
      vertex 7.72638 12.9468 1.9238
    endloop
  endfacet
  facet normal -0.807751 0.548771 0.215379
    outer loop
      vertex 6.23011 10.8253 1.71767
      vertex 7.72638 12.9468 1.9238
      vertex 7.31187 13.2946 -0.516941
    endloop
  endfacet
  facet normal -0.807746 0.548763 0.215421
    outer loop
      vertex 6.25 10.8253 1.79225
      vertex 7.72638 12.9468 1.9238
      vertex 6.23011 10.8253 1.71767
    endloop
  endfacet
  facet normal -0.807753 0.548771 0.215375
    outer loop
      vertex 7.72638 12.9468 1.9238
      vertex 6.25 10.8253 1.79225
      vertex 6.31957 10.7048 2.3602
    endloop
  endfacet
  facet normal -0.627353 0.655413 0.42055
    outer loop
      vertex 6.23011 10.8253 1.71767
      vertex 7.31187 13.2946 -0.516941
      vertex 5.20325 10.8253 0.185858
    endloop
  endfacet
  facet normal -0.294053 -0.0208666 -0.955561
    outer loop
      vertex 6.5324 10.3362 -0.212474
      vertex 7.31187 13.2946 -0.516941
      vertex 12.1731 9.21552 -1.9238
    endloop
  endfacet
  facet normal -0.294051 -0.0208671 -0.955562
    outer loop
      vertex 6.25 10.8253 -0.136253
      vertex 7.31187 13.2946 -0.516941
      vertex 6.5324 10.3362 -0.212474
    endloop
  endfacet
  facet normal -0.29405 -0.0208674 -0.955562
    outer loop
      vertex 7.31187 13.2946 -0.516941
      vertex 6.25 10.8253 -0.136253
      vertex 5.20325 10.8253 0.185858
    endloop
  endfacet
  facet normal -0.185101 0.42292 -0.887061
    outer loop
      vertex 7.60352 8.48096 -1.32049
      vertex 12.1731 9.21552 -1.9238
      vertex 9.5517 6.84624 -2.50639
    endloop
  endfacet
  facet normal -0.185101 0.422918 -0.887062
    outer loop
      vertex 12.1731 9.21552 -1.9238
      vertex 7.60352 8.48096 -1.32049
      vertex 6.5324 10.3362 -0.212474
    endloop
  endfacet
  facet normal 0.680705 -0.70018 -0.215378
    outer loop
      vertex 12.1731 9.21552 -1.9238
      vertex 12.5876 8.86771 0.516941
      vertex 9.5517 6.84624 -2.50639
    endloop
  endfacet
  facet normal 0.754403 -0.503988 -0.420561
    outer loop
      vertex 12.5876 8.86771 0.516941
      vertex 10.3611 6.1671 -0.240624
      vertex 9.5517 6.84624 -2.50639
    endloop
  endfacet
  facet normal 0.0305122 -0.293206 0.955562
    outer loop
      vertex 10.3611 6.1671 -0.240624
      vertex 12.5876 8.86771 0.516941
      vertex 7.72638 12.9468 1.9238
    endloop
  endfacet
  facet normal 0.448633 -0.108848 0.887063
    outer loop
      vertex 7.72638 12.9468 1.9238
      vertex 7.60352 8.48096 1.43795
      vertex 10.3611 6.1671 -0.240624
    endloop
  endfacet
  facet normal 0.448639 -0.108848 0.88706
    outer loop
      vertex 7.60352 8.48096 1.43795
      vertex 7.72638 12.9468 1.9238
      vertex 6.31957 10.7048 2.3602
    endloop
  endfacet
  facet normal -0.448641 0.108844 -0.887059
    outer loop
      vertex 9.5517 6.84624 -2.50639
      vertex 8.44999 7.01483 -1.9285
      vertex 7.60352 8.48096 -1.32049
    endloop
  endfacet
  facet normal -0.324666 0.540035 -0.776501
    outer loop
      vertex 9.5517 6.84624 -2.50639
      vertex 8.87727 6.27476 -2.62185
      vertex 8.44999 7.01483 -1.9285
    endloop
  endfacet
  facet normal 0.627337 -0.655421 -0.42056
    outer loop
      vertex 9.23745 5.6509 -1.11227
      vertex 9.5517 6.84624 -2.50639
      vertex 10.3611 6.1671 -0.240624
    endloop
  endfacet
  facet normal 0.627359 -0.65541 -0.420545
    outer loop
      vertex 9.5517 6.84624 -2.50639
      vertex 9.23745 5.6509 -1.11227
      vertex 8.87727 6.27476 -2.62185
    endloop
  endfacet
  facet normal 0.668279 -0.431771 -0.605787
    outer loop
      vertex 10.3611 6.1671 -0.240624
      vertex 9.49248 5.20917 -0.516091
      vertex 9.23745 5.6509 -1.11227
    endloop
  endfacet
  facet normal 0.185093 -0.422924 0.88706
    outer loop
      vertex 9.49248 5.20917 -0.516091
      vertex 10.3611 6.1671 -0.240624
      vertex 7.60352 8.48096 1.43795
    endloop
  endfacet
  facet normal -0.66838 0.431803 0.605652
    outer loop
      vertex 2.56396 4.18192 3.25
      vertex 2.34415 3.84168 3.25
      vertex 2.3337 3.76501 3.29313
    endloop
  endfacet
  facet normal -0.426518 0.486919 0.762229
    outer loop
      vertex 2.3337 3.76501 3.29313
      vertex 2.34415 3.84168 3.25
      vertex 2.29433 3.79804 3.25
    endloop
  endfacet
  facet normal -0.442617 0.639011 -0.629091
    outer loop
      vertex 4.43787 2.60953 -3.25
      vertex 4.06727 2.31037 -3.29313
      vertex 4.03955 2.33363 -3.25
    endloop
  endfacet
  facet normal 0.541287 -0.583225 -0.605688
    outer loop
      vertex 4.43787 2.60953 -3.25
      vertex 4.14096 2.33397 -3.25
      vertex 4.06727 2.31037 -3.29313
    endloop
  endfacet
  facet normal 0.55357 -0.335426 -0.762266
    outer loop
      vertex 4.14096 2.33397 -3.25
      vertex 4.10664 2.27733 -3.25
      vertex 4.06727 2.31037 -3.29313
    endloop
  endfacet
  facet normal 0.706065 -0.324866 0.629233
    outer loop
      vertex 2.36143 3.74174 3.25
      vertex 2.56396 4.18192 3.25
      vertex 2.3337 3.76501 3.29313
    endloop
  endfacet
  facet normal -0.57358 0.819149 0
    outer loop
      vertex -9.05279 15.9982 -1.25
      vertex -14.3773 12.2699 1.25
      vertex -9.05279 15.9982 1.25
    endloop
  endfacet
  facet normal -0.57358 0.819149 0
    outer loop
      vertex -14.3773 12.2699 1.25
      vertex -9.05279 15.9982 -1.25
      vertex -14.3773 12.2699 -1.25
    endloop
  endfacet
  facet normal 0.573584 -0.819147 1.30258e-05
    outer loop
      vertex -4.5997 2.02543 3.25
      vertex -4.61184 2.01693 3.29313
      vertex -4.65394 1.98745 3.25
    endloop
  endfacet
  facet normal 0.573776 -0.819012 9.37533e-05
    outer loop
      vertex -2.75809 3.31494 -3.29313
      vertex -2.77023 3.30644 -3.25
      vertex -2.78773 3.29418 -3.25
    endloop
  endfacet
  facet normal 0.573557 -0.819166 1.51857e-06
    outer loop
      vertex -4.5997 2.02543 3.25
      vertex -4.58219 2.03769 3.25
      vertex -4.61184 2.01693 3.29313
    endloop
  endfacet
  facet normal 0.573584 -0.819147 1.30258e-05
    outer loop
      vertex -2.75809 3.31494 -3.29313
      vertex -2.71599 3.34442 -3.25
      vertex -2.77023 3.30644 -3.25
    endloop
  endfacet
  facet normal -0.758446 -0.651736 0
    outer loop
      vertex -12.085 9.60228 1.9238
      vertex -14.3773 12.2699 1.25
      vertex -14.3773 12.2699 -1.25
    endloop
  endfacet
  facet normal -0.8525 -0.476284 0.215401
    outer loop
      vertex -12.5283 9.29191 -0.516941
      vertex -12.085 9.60228 1.9238
      vertex -14.3773 12.2699 -1.25
    endloop
  endfacet
  facet normal 0.117583 -0.167925 -0.978762
    outer loop
      vertex -9.05279 15.9982 -1.25
      vertex -12.5283 9.29191 -0.516941
      vertex -14.3773 12.2699 -1.25
    endloop
  endfacet
  facet normal -0.291113 0.0464165 -0.955562
    outer loop
      vertex -9.05279 15.9982 -1.25
      vertex -7.33 12.9318 -1.9238
      vertex -12.5283 9.29191 -0.516941
    endloop
  endfacet
  facet normal 0.871826 0.489816 0
    outer loop
      vertex -9.05279 15.9982 1.25
      vertex -7.33 12.9318 -1.9238
      vertex -9.05279 15.9982 -1.25
    endloop
  endfacet
  facet normal 0.739149 0.638182 -0.215364
    outer loop
      vertex -6.88676 13.2421 0.516941
      vertex -7.33 12.9318 -1.9238
      vertex -9.05279 15.9982 1.25
    endloop
  endfacet
  facet normal 0.117581 -0.167921 0.978763
    outer loop
      vertex -6.88676 13.2421 0.516941
      vertex -9.05279 15.9982 1.25
      vertex -14.3773 12.2699 1.25
    endloop
  endfacet
  facet normal 0.0559494 0.289438 0.95556
    outer loop
      vertex -12.085 9.60228 1.9238
      vertex -6.88676 13.2421 0.516941
      vertex -14.3773 12.2699 1.25
    endloop
  endfacet
  facet normal -0.739142 -0.638179 0.215399
    outer loop
      vertex -9.68008 7.01353 2.50639
      vertex -12.085 9.60228 1.9238
      vertex -12.5283 9.29191 -0.516941
    endloop
  endfacet
  facet normal -0.795449 -0.436362 0.420534
    outer loop
      vertex -10.5455 6.40753 0.240624
      vertex -9.68008 7.01353 2.50639
      vertex -12.5283 9.29191 -0.516941
    endloop
  endfacet
  facet normal -0.0559484 -0.289433 -0.955562
    outer loop
      vertex -7.33 12.9318 -1.9238
      vertex -10.5455 6.40753 0.240624
      vertex -12.5283 9.29191 -0.516941
    endloop
  endfacet
  facet normal -0.456419 -0.0693329 -0.887059
    outer loop
      vertex -7.6165 8.45847 -1.42675
      vertex -7.33 12.9318 -1.9238
      vertex -6.2509 10.8237 -2.31426
    endloop
  endfacet
  facet normal -0.456422 -0.0693325 -0.887058
    outer loop
      vertex -7.33 12.9318 -1.9238
      vertex -7.6165 8.45847 -1.42675
      vertex -10.5455 6.40753 0.240624
    endloop
  endfacet
  facet normal 0.852508 0.476284 -0.215368
    outer loop
      vertex -6.0707 10.8253 -1.59751
      vertex -7.33 12.9318 -1.9238
      vertex -6.88676 13.2421 0.516941
    endloop
  endfacet
  facet normal 0.852507 0.476281 -0.215379
    outer loop
      vertex -6.25 10.8253 -2.30721
      vertex -7.33 12.9318 -1.9238
      vertex -6.0707 10.8253 -1.59751
    endloop
  endfacet
  facet normal 0.852091 0.476342 -0.216884
    outer loop
      vertex -7.33 12.9318 -1.9238
      vertex -6.25 10.8253 -2.30721
      vertex -6.2509 10.8237 -2.31426
    endloop
  endfacet
  facet normal 0.682081 0.59825 -0.42055
    outer loop
      vertex -5.16314 10.8253 -0.125556
      vertex -6.0707 10.8253 -1.59751
      vertex -6.88676 13.2421 0.516941
    endloop
  endfacet
  facet normal 0.291112 -0.0464164 0.955562
    outer loop
      vertex -6.88676 13.2421 0.516941
      vertex -6.25 10.8253 0.205556
      vertex -5.16314 10.8253 -0.125556
    endloop
  endfacet
  facet normal 0.291118 -0.0464148 0.955561
    outer loop
      vertex -6.88676 13.2421 0.516941
      vertex -6.61071 10.2005 0.2851
      vertex -6.25 10.8253 0.205556
    endloop
  endfacet
  facet normal 0.291115 -0.0464151 0.955562
    outer loop
      vertex -6.61071 10.2005 0.2851
      vertex -6.88676 13.2421 0.516941
      vertex -12.085 9.60228 1.9238
    endloop
  endfacet
  facet normal 0.221258 0.405186 0.887057
    outer loop
      vertex -12.085 9.60228 1.9238
      vertex -7.6165 8.45847 1.33169
      vertex -6.61071 10.2005 0.2851
    endloop
  endfacet
  facet normal 0.221256 0.405175 0.887062
    outer loop
      vertex -7.6165 8.45847 1.33169
      vertex -12.085 9.60228 1.9238
      vertex -9.68008 7.01353 2.50639
    endloop
  endfacet
  facet normal -0.682102 -0.598236 0.420536
    outer loop
      vertex -9.23256 5.65937 1.30589
      vertex -9.68008 7.01353 2.50639
      vertex -10.5455 6.40753 0.240624
    endloop
  endfacet
  facet normal -0.682079 -0.598247 0.420557
    outer loop
      vertex -9.68008 7.01353 2.50639
      vertex -9.23256 5.65937 1.30589
      vertex -8.90345 6.2294 2.65053
    endloop
  endfacet
  facet normal -0.703395 -0.371856 0.605771
    outer loop
      vertex -9.55447 5.1018 0.589835
      vertex -9.23256 5.65937 1.30589
      vertex -10.5455 6.40753 0.240624
    endloop
  endfacet
  facet normal -0.221261 -0.405174 -0.887061
    outer loop
      vertex -7.6165 8.45847 -1.42675
      vertex -9.55447 5.1018 0.589835
      vertex -10.5455 6.40753 0.240624
    endloop
  endfacet
  facet normal 0.456415 0.0693326 0.887061
    outer loop
      vertex -8.40305 7.09613 1.84287
      vertex -7.6165 8.45847 1.33169
      vertex -9.68008 7.01353 2.50639
    endloop
  endfacet
  facet normal 0.37049 0.509684 0.776505
    outer loop
      vertex -8.90345 6.2294 2.65053
      vertex -8.40305 7.09613 1.84287
      vertex -9.68008 7.01353 2.50639
    endloop
  endfacet
  facet normal -0.590013 -0.533759 0.605794
    outer loop
      vertex -4.6832 2.04686 3.25
      vertex -4.61184 2.01693 3.29313
      vertex -4.95495 2.34725 3.25
    endloop
  endfacet
  facet normal -0.58066 -0.285981 0.762265
    outer loop
      vertex -4.65394 1.98745 3.25
      vertex -4.61184 2.01693 3.29313
      vertex -4.6832 2.04686 3.25
    endloop
  endfacet
  facet normal -0.731795 -0.26215 -0.62909
    outer loop
      vertex -2.75809 3.31494 -3.29313
      vertex -2.78773 3.29418 -3.25
      vertex -2.95114 3.75034 -3.25
    endloop
  endfacet
  facet normal 0.703398 0.371881 -0.605752
    outer loop
      vertex -2.76181 3.39223 -3.25
      vertex -2.75809 3.31494 -3.29313
      vertex -2.95114 3.75034 -3.25
    endloop
  endfacet
  facet normal 0.467308 0.447857 -0.762265
    outer loop
      vertex -2.71599 3.34442 -3.25
      vertex -2.75809 3.31494 -3.29313
      vertex -2.76181 3.39223 -3.25
    endloop
  endfacet
  facet normal 0.49657 0.59795 0.629185
    outer loop
      vertex -4.61184 2.01693 3.29313
      vertex -4.58219 2.03769 3.25
      vertex -4.95495 2.34725 3.25
    endloop
  endfacet
  facet normal 0.499999 -0.866026 0
    outer loop
      vertex 8.38542 -16.0872 -1.25
      vertex 14.0146 -12.8372 1.25
      vertex 8.38542 -16.0872 1.25
    endloop
  endfacet
  facet normal 0.499999 -0.866026 0
    outer loop
      vertex 14.0146 -12.8372 1.25
      vertex 8.38542 -16.0872 -1.25
      vertex 14.0146 -12.8372 -1.25
    endloop
  endfacet
  facet normal -0.499983 0.866035 6.6738e-05
    outer loop
      vertex 5.17991 -1.77207 3.29313
      vertex 5.22442 -1.74637 3.25
      vertex 5.14857 -1.79016 3.25
    endloop
  endfacet
  facet normal -0.499983 0.866035 6.6738e-05
    outer loop
      vertex 3.25143 -2.88548 -3.25
      vertex 3.22009 -2.90357 -3.29313
      vertex 3.17558 -2.92927 -3.25
    endloop
  endfacet
  facet normal 0.812379 0.58313 0
    outer loop
      vertex 14.0146 -12.8372 1.25
      vertex 14.0146 -12.8372 -1.25
      vertex 11.9636 -9.97988 1.9238
    endloop
  endfacet
  facet normal 0.890774 0.400169 0.215378
    outer loop
      vertex 14.0146 -12.8372 -1.25
      vertex 12.4322 -9.70933 -0.516941
      vertex 11.9636 -9.97988 1.9238
    endloop
  endfacet
  facet normal -0.102498 0.177532 -0.978763
    outer loop
      vertex 12.4322 -9.70933 -0.516941
      vertex 14.0146 -12.8372 -1.25
      vertex 8.38542 -16.0872 -1.25
    endloop
  endfacet
  facet normal 0.285959 -0.0716118 -0.955562
    outer loop
      vertex 12.4322 -9.70933 -0.516941
      vertex 8.38542 -16.0872 -1.25
      vertex 6.93644 -12.8823 -1.9238
    endloop
  endfacet
  facet normal -0.911199 -0.411966 0
    outer loop
      vertex 8.38542 -16.0872 -1.25
      vertex 8.38542 -16.0872 1.25
      vertex 6.93644 -12.8823 -1.9238
    endloop
  endfacet
  facet normal -0.791955 -0.571334 -0.215371
    outer loop
      vertex 6.93644 -12.8823 -1.9238
      vertex 8.38542 -16.0872 1.25
      vertex 6.46783 -13.1528 0.516941
    endloop
  endfacet
  facet normal -0.102497 0.17753 0.978763
    outer loop
      vertex 8.38542 -16.0872 1.25
      vertex 14.0146 -12.8372 1.25
      vertex 6.46783 -13.1528 0.516941
    endloop
  endfacet
  facet normal -0.0809652 -0.283453 0.955562
    outer loop
      vertex 14.0146 -12.8372 1.25
      vertex 11.9636 -9.97988 1.9238
      vertex 6.46783 -13.1528 0.516941
    endloop
  endfacet
  facet normal 0.79194 0.571351 0.215378
    outer loop
      vertex 11.9636 -9.97988 1.9238
      vertex 12.4322 -9.70933 -0.516941
      vertex 9.79338 -7.19139 2.50639
    endloop
  endfacet
  facet normal 0.830452 0.365349 0.420558
    outer loop
      vertex 12.4322 -9.70933 -0.516941
      vertex 10.7084 -6.66311 0.240624
      vertex 9.79338 -7.19139 2.50639
    endloop
  endfacet
  facet normal 0.0809624 0.283454 -0.955562
    outer loop
      vertex 10.7084 -6.66311 0.240624
      vertex 12.4322 -9.70933 -0.516941
      vertex 6.93644 -12.8823 -1.9238
    endloop
  endfacet
  facet normal 0.460722 0.0292888 -0.887061
    outer loop
      vertex 6.93644 -12.8823 -1.9238
      vertex 7.62539 -8.44308 -1.4194
      vertex 10.7084 -6.66311 0.240624
    endloop
  endfacet
  facet normal 0.460725 0.0292881 -0.88706
    outer loop
      vertex 6.93644 -12.8823 -1.9238
      vertex 6.25 -10.8253 -2.21241
      vertex 7.62539 -8.44308 -1.4194
    endloop
  endfacet
  facet normal 0.460674 0.0292672 -0.887087
    outer loop
      vertex 6.25 -10.8253 -2.21241
      vertex 6.93644 -12.8823 -1.9238
      vertex 6.10086 -10.8253 -2.28986
    endloop
  endfacet
  facet normal -0.890773 -0.400171 -0.215375
    outer loop
      vertex 6.93644 -12.8823 -1.9238
      vertex 5.90227 -10.8253 -1.46851
      vertex 6.10086 -10.8253 -2.28986
    endloop
  endfacet
  facet normal -0.890773 -0.400172 -0.215374
    outer loop
      vertex 5.90227 -10.8253 -1.46851
      vertex 6.93644 -12.8823 -1.9238
      vertex 6.46783 -13.1528 0.516941
    endloop
  endfacet
  facet normal -0.73163 -0.536523 -0.420548
    outer loop
      vertex 5.90227 -10.8253 -1.46851
      vertex 6.46783 -13.1528 0.516941
      vertex 5.09707 -10.8253 -0.0677003
    endloop
  endfacet
  facet normal -0.285958 0.0716114 0.955563
    outer loop
      vertex 6.67215 -10.0941 0.348861
      vertex 6.46783 -13.1528 0.516941
      vertex 11.9636 -9.97988 1.9238
    endloop
  endfacet
  facet normal -0.285963 0.0716117 0.955561
    outer loop
      vertex 6.25 -10.8253 0.277325
      vertex 6.46783 -13.1528 0.516941
      vertex 6.67215 -10.0941 0.348861
    endloop
  endfacet
  facet normal -0.285961 0.071612 0.955562
    outer loop
      vertex 6.46783 -13.1528 0.516941
      vertex 6.25 -10.8253 0.277325
      vertex 5.09707 -10.8253 -0.0677003
    endloop
  endfacet
  facet normal -0.255724 -0.384355 0.88706
    outer loop
      vertex 7.62539 -8.44308 1.33905
      vertex 11.9636 -9.97988 1.9238
      vertex 9.79338 -7.19139 2.50639
    endloop
  endfacet
  facet normal -0.255726 -0.38436 0.887058
    outer loop
      vertex 11.9636 -9.97988 1.9238
      vertex 7.62539 -8.44308 1.33905
      vertex 6.67215 -10.0941 0.348861
    endloop
  endfacet
  facet normal 0.731631 0.536519 0.420551
    outer loop
      vertex 9.79338 -7.19139 2.50639
      vertex 9.23966 -5.64708 1.49954
      vertex 8.94059 -6.16508 2.68067
    endloop
  endfacet
  facet normal 0.731626 0.536521 0.420558
    outer loop
      vertex 9.23966 -5.64708 1.49954
      vertex 9.79338 -7.19139 2.50639
      vertex 10.7084 -6.66311 0.240624
    endloop
  endfacet
  facet normal 0.733107 0.309154 0.605787
    outer loop
      vertex 10.7084 -6.66311 0.240624
      vertex 9.63613 -4.96037 0.66929
      vertex 9.23966 -5.64708 1.49954
    endloop
  endfacet
  facet normal 0.255724 0.384356 -0.88706
    outer loop
      vertex 9.63613 -4.96037 0.66929
      vertex 10.7084 -6.66311 0.240624
      vertex 7.62539 -8.44308 -1.4194
    endloop
  endfacet
  facet normal -0.460722 -0.0292892 0.887061
    outer loop
      vertex 9.79338 -7.19139 2.50639
      vertex 8.36674 -7.15902 1.76649
      vertex 7.62539 -8.44308 1.33905
    endloop
  endfacet
  facet normal -0.413506 -0.475454 0.776503
    outer loop
      vertex 9.79338 -7.19139 2.50639
      vertex 8.94059 -6.16508 2.68067
      vertex 8.36674 -7.15902 1.76649
    endloop
  endfacet
  facet normal 0.634306 0.480331 0.605754
    outer loop
      vertex 5.49293 -2.13104 3.25
      vertex 5.24839 -1.80811 3.25
      vertex 5.17991 -1.77207 3.29313
    endloop
  endfacet
  facet normal 0.603379 0.234256 0.762272
    outer loop
      vertex 5.24839 -1.80811 3.25
      vertex 5.22442 -1.74637 3.25
      vertex 5.17991 -1.77207 3.29313
    endloop
  endfacet
  facet normal 0.751852 0.197356 -0.629103
    outer loop
      vertex 3.25143 -2.88548 -3.25
      vertex 3.37445 -3.35414 -3.25
      vertex 3.22009 -2.90357 -3.29313
    endloop
  endfacet
  facet normal -0.733114 -0.309144 -0.605783
    outer loop
      vertex 3.22009 -2.90357 -3.29313
      vertex 3.37445 -3.35414 -3.25
      vertex 3.21706 -2.9809 -3.25
    endloop
  endfacet
  facet normal -0.504577 -0.405382 -0.762278
    outer loop
      vertex 3.22009 -2.90357 -3.29313
      vertex 3.21706 -2.9809 -3.25
      vertex 3.17558 -2.92927 -3.25
    endloop
  endfacet
  facet normal -0.546862 -0.552445 0.629084
    outer loop
      vertex 5.49293 -2.13104 3.25
      vertex 5.17991 -1.77207 3.29313
      vertex 5.14857 -1.79016 3.25
    endloop
  endfacet
  facet normal -0.499999 -0.866026 0
    outer loop
      vertex -14.0146 -12.8372 -1.25
      vertex -8.38542 -16.0872 1.25
      vertex -14.0146 -12.8372 1.25
    endloop
  endfacet
  facet normal -0.499999 -0.866026 -0
    outer loop
      vertex -8.38542 -16.0872 1.25
      vertex -14.0146 -12.8372 -1.25
      vertex -8.38542 -16.0872 -1.25
    endloop
  endfacet
  facet normal 0.499983 0.866035 -6.6738e-05
    outer loop
      vertex -3.22009 -2.90357 3.29313
      vertex -3.17558 -2.92927 3.25
      vertex -3.25143 -2.88548 3.25
    endloop
  endfacet
  facet normal 0.499983 0.866035 -6.6738e-05
    outer loop
      vertex -5.14857 -1.79016 -3.25
      vertex -5.17991 -1.77207 -3.29313
      vertex -5.22442 -1.74637 -3.25
    endloop
  endfacet
  facet normal 0.911199 -0.411966 0
    outer loop
      vertex -6.93644 -12.8823 1.9238
      vertex -8.38542 -16.0872 1.25
      vertex -8.38542 -16.0872 -1.25
    endloop
  endfacet
  facet normal 0.791955 -0.571334 0.215371
    outer loop
      vertex -6.46783 -13.1528 -0.516941
      vertex -6.93644 -12.8823 1.9238
      vertex -8.38542 -16.0872 -1.25
    endloop
  endfacet
  facet normal 0.102497 0.17753 -0.978763
    outer loop
      vertex -6.46783 -13.1528 -0.516941
      vertex -8.38542 -16.0872 -1.25
      vertex -14.0146 -12.8372 -1.25
    endloop
  endfacet
  facet normal 0.0809652 -0.283453 -0.955562
    outer loop
      vertex -11.9636 -9.97988 -1.9238
      vertex -6.46783 -13.1528 -0.516941
      vertex -14.0146 -12.8372 -1.25
    endloop
  endfacet
  facet normal -0.812379 0.58313 0
    outer loop
      vertex -14.0146 -12.8372 1.25
      vertex -11.9636 -9.97988 -1.9238
      vertex -14.0146 -12.8372 -1.25
    endloop
  endfacet
  facet normal -0.890774 0.400169 -0.215378
    outer loop
      vertex -12.4322 -9.70933 0.516941
      vertex -11.9636 -9.97988 -1.9238
      vertex -14.0146 -12.8372 1.25
    endloop
  endfacet
  facet normal 0.102498 0.177532 0.978763
    outer loop
      vertex -8.38542 -16.0872 1.25
      vertex -12.4322 -9.70933 0.516941
      vertex -14.0146 -12.8372 1.25
    endloop
  endfacet
  facet normal -0.285959 -0.0716118 0.955562
    outer loop
      vertex -8.38542 -16.0872 1.25
      vertex -6.93644 -12.8823 1.9238
      vertex -12.4322 -9.70933 0.516941
    endloop
  endfacet
  facet normal 0.890773 -0.400171 0.215375
    outer loop
      vertex -6.93644 -12.8823 1.9238
      vertex -5.90227 -10.8253 1.46851
      vertex -6.10086 -10.8253 2.28986
    endloop
  endfacet
  facet normal 0.890773 -0.400172 0.215374
    outer loop
      vertex -5.90227 -10.8253 1.46851
      vertex -6.93644 -12.8823 1.9238
      vertex -6.46783 -13.1528 -0.516941
    endloop
  endfacet
  facet normal 0.73163 -0.536523 0.420548
    outer loop
      vertex -5.09707 -10.8253 0.0677003
      vertex -5.90227 -10.8253 1.46851
      vertex -6.46783 -13.1528 -0.516941
    endloop
  endfacet
  facet normal 0.285961 0.071612 -0.955562
    outer loop
      vertex -6.46783 -13.1528 -0.516941
      vertex -6.25 -10.8253 -0.277325
      vertex -5.09707 -10.8253 0.0677003
    endloop
  endfacet
  facet normal 0.285963 0.0716117 -0.955561
    outer loop
      vertex -6.46783 -13.1528 -0.516941
      vertex -6.67215 -10.0941 -0.348861
      vertex -6.25 -10.8253 -0.277325
    endloop
  endfacet
  facet normal 0.285958 0.0716114 -0.955563
    outer loop
      vertex -6.67215 -10.0941 -0.348861
      vertex -6.46783 -13.1528 -0.516941
      vertex -11.9636 -9.97988 -1.9238
    endloop
  endfacet
  facet normal 0.255726 -0.38436 -0.887058
    outer loop
      vertex -11.9636 -9.97988 -1.9238
      vertex -7.62539 -8.44308 -1.33905
      vertex -6.67215 -10.0941 -0.348861
    endloop
  endfacet
  facet normal 0.255724 -0.384355 -0.88706
    outer loop
      vertex -7.62539 -8.44308 -1.33905
      vertex -11.9636 -9.97988 -1.9238
      vertex -9.79338 -7.19139 -2.50639
    endloop
  endfacet
  facet normal -0.79194 0.571351 -0.215378
    outer loop
      vertex -9.79338 -7.19139 -2.50639
      vertex -11.9636 -9.97988 -1.9238
      vertex -12.4322 -9.70933 0.516941
    endloop
  endfacet
  facet normal -0.830452 0.365349 -0.420558
    outer loop
      vertex -10.7084 -6.66311 -0.240624
      vertex -9.79338 -7.19139 -2.50639
      vertex -12.4322 -9.70933 0.516941
    endloop
  endfacet
  facet normal -0.0809624 0.283454 0.955562
    outer loop
      vertex -6.93644 -12.8823 1.9238
      vertex -10.7084 -6.66311 -0.240624
      vertex -12.4322 -9.70933 0.516941
    endloop
  endfacet
  facet normal -0.460674 0.0292672 0.887087
    outer loop
      vertex -6.25 -10.8253 2.21241
      vertex -6.93644 -12.8823 1.9238
      vertex -6.10086 -10.8253 2.28986
    endloop
  endfacet
  facet normal -0.460725 0.0292881 0.88706
    outer loop
      vertex -7.62539 -8.44308 1.4194
      vertex -6.93644 -12.8823 1.9238
      vertex -6.25 -10.8253 2.21241
    endloop
  endfacet
  facet normal -0.460722 0.0292888 0.887061
    outer loop
      vertex -6.93644 -12.8823 1.9238
      vertex -7.62539 -8.44308 1.4194
      vertex -10.7084 -6.66311 -0.240624
    endloop
  endfacet
  facet normal 0.460722 -0.0292892 -0.887061
    outer loop
      vertex -8.36674 -7.15902 -1.76649
      vertex -7.62539 -8.44308 -1.33905
      vertex -9.79338 -7.19139 -2.50639
    endloop
  endfacet
  facet normal 0.413506 -0.475454 -0.776503
    outer loop
      vertex -8.94059 -6.16508 -2.68067
      vertex -8.36674 -7.15902 -1.76649
      vertex -9.79338 -7.19139 -2.50639
    endloop
  endfacet
  facet normal -0.731631 0.536519 -0.420551
    outer loop
      vertex -9.79338 -7.19139 -2.50639
      vertex -9.23966 -5.64708 -1.49954
      vertex -8.94059 -6.16508 -2.68067
    endloop
  endfacet
  facet normal -0.731626 0.536521 -0.420558
    outer loop
      vertex -9.23966 -5.64708 -1.49954
      vertex -9.79338 -7.19139 -2.50639
      vertex -10.7084 -6.66311 -0.240624
    endloop
  endfacet
  facet normal -0.733107 0.309154 -0.605787
    outer loop
      vertex -9.63613 -4.96037 -0.66929
      vertex -9.23966 -5.64708 -1.49954
      vertex -10.7084 -6.66311 -0.240624
    endloop
  endfacet
  facet normal -0.255724 0.384356 0.88706
    outer loop
      vertex -7.62539 -8.44308 1.4194
      vertex -9.63613 -4.96037 -0.66929
      vertex -10.7084 -6.66311 -0.240624
    endloop
  endfacet
  facet normal 0.733114 -0.309144 0.605783
    outer loop
      vertex -3.21706 -2.9809 3.25
      vertex -3.22009 -2.90357 3.29313
      vertex -3.37445 -3.35414 3.25
    endloop
  endfacet
  facet normal 0.504577 -0.405382 0.762278
    outer loop
      vertex -3.21706 -2.9809 3.25
      vertex -3.17558 -2.92927 3.25
      vertex -3.22009 -2.90357 3.29313
    endloop
  endfacet
  facet normal 0.546862 -0.552445 -0.629084
    outer loop
      vertex -5.17991 -1.77207 -3.29313
      vertex -5.14857 -1.79016 -3.25
      vertex -5.49293 -2.13104 -3.25
    endloop
  endfacet
  facet normal -0.634306 0.480331 -0.605754
    outer loop
      vertex -5.24839 -1.80811 -3.25
      vertex -5.17991 -1.77207 -3.29313
      vertex -5.49293 -2.13104 -3.25
    endloop
  endfacet
  facet normal -0.603379 0.234256 -0.762272
    outer loop
      vertex -5.22442 -1.74637 -3.25
      vertex -5.17991 -1.77207 -3.29313
      vertex -5.24839 -1.80811 -3.25
    endloop
  endfacet
  facet normal -0.751852 0.197356 0.629103
    outer loop
      vertex -3.22009 -2.90357 3.29313
      vertex -3.25143 -2.88548 3.25
      vertex -3.37445 -3.35414 3.25
    endloop
  endfacet
  facet normal 0 0 -1
    outer loop
      vertex -4.6832 2.04686 3.25
      vertex -4.5997 2.02543 3.25
      vertex -4.65394 1.98745 3.25
    endloop
  endfacet
  facet normal 0 0 -1
    outer loop
      vertex -4.5997 2.02543 3.25
      vertex -4.6832 2.04686 3.25
      vertex -4.58219 2.03769 3.25
    endloop
  endfacet
  facet normal 0 0 -1
    outer loop
      vertex -4.58219 2.03769 3.25
      vertex -4.6832 2.04686 3.25
      vertex -4.95495 2.34725 3.25
    endloop
  endfacet
  facet normal 0 0 -1
    outer loop
      vertex -3.70545 -1.17279 3.25
      vertex -3.64 -1.09532 3.25
      vertex -3.64 -1.1829 3.25
    endloop
  endfacet
  facet normal 0 0 -1
    outer loop
      vertex -3.64 -1.09532 3.25
      vertex -3.70545 -1.17279 3.25
      vertex -4.10739 -1.2231 3.25
    endloop
  endfacet
  facet normal 0 0 -1
    outer loop
      vertex -3.21706 -2.9809 3.25
      vertex -3.25143 -2.88548 3.25
      vertex -3.17558 -2.92927 3.25
    endloop
  endfacet
  facet normal 0 -0 -1
    outer loop
      vertex -3.25143 -2.88548 3.25
      vertex -3.21706 -2.9809 3.25
      vertex -3.37445 -3.35414 3.25
    endloop
  endfacet
  facet normal 0 0 -1
    outer loop
      vertex -1.09532 3.64 3.25
      vertex -1.1829 3.64 3.25
      vertex -1.17279 3.70545 3.25
    endloop
  endfacet
  facet normal 0 0 -1
    outer loop
      vertex -1.09532 3.64 3.25
      vertex -1.17279 3.70545 3.25
      vertex -1.2231 4.10739 3.25
    endloop
  endfacet
  facet normal 0 0 -1
    outer loop
      vertex 1.2231 -4.10739 3.25
      vertex 1.09532 -3.64 3.25
      vertex 1.17279 -3.70545 3.25
    endloop
  endfacet
  facet normal -0 0 -1
    outer loop
      vertex 1.1829 -3.64 3.25
      vertex 1.17279 -3.70545 3.25
      vertex 1.09532 -3.64 3.25
    endloop
  endfacet
  facet normal 0 0 -1
    outer loop
      vertex 2.34415 3.84168 3.25
      vertex 2.36143 3.74174 3.25
      vertex 2.34506 3.75548 3.25
    endloop
  endfacet
  facet normal 0 0 -1
    outer loop
      vertex 2.36143 3.74174 3.25
      vertex 2.34415 3.84168 3.25
      vertex 2.56396 4.18192 3.25
    endloop
  endfacet
  facet normal 0 -0 -1
    outer loop
      vertex 2.34415 3.84168 3.25
      vertex 2.34506 3.75548 3.25
      vertex 2.29433 3.79804 3.25
    endloop
  endfacet
  facet normal 0 0 -1
    outer loop
      vertex 5.24839 -1.80811 3.25
      vertex 5.14857 -1.79016 3.25
      vertex 5.22442 -1.74637 3.25
    endloop
  endfacet
  facet normal 0 0 -1
    outer loop
      vertex 5.14857 -1.79016 3.25
      vertex 5.24839 -1.80811 3.25
      vertex 5.49293 -2.13104 3.25
    endloop
  endfacet
  facet normal 0 0 -1
    outer loop
      vertex 3.64 1.09532 3.25
      vertex 3.70545 1.17279 3.25
      vertex 4.10739 1.2231 3.25
    endloop
  endfacet
  facet normal -0 0 -1
    outer loop
      vertex 3.70545 1.17279 3.25
      vertex 3.64 1.09532 3.25
      vertex 3.64 1.1829 3.25
    endloop
  endfacet
  facet normal 0 0 1
    outer loop
      vertex -5.24839 -1.80811 -3.25
      vertex -5.14857 -1.79016 -3.25
      vertex -5.22442 -1.74637 -3.25
    endloop
  endfacet
  facet normal 0 0 1
    outer loop
      vertex -5.14857 -1.79016 -3.25
      vertex -5.24839 -1.80811 -3.25
      vertex -5.49293 -2.13104 -3.25
    endloop
  endfacet
  facet normal -0 0 1
    outer loop
      vertex -3.70545 1.17279 -3.25
      vertex -3.64 1.09532 -3.25
      vertex -3.64 1.1829 -3.25
    endloop
  endfacet
  facet normal 0 0 1
    outer loop
      vertex -3.64 1.09532 -3.25
      vertex -3.70545 1.17279 -3.25
      vertex -4.10739 1.2231 -3.25
    endloop
  endfacet
  facet normal 0 0 1
    outer loop
      vertex -2.76181 3.39223 -3.25
      vertex -2.77023 3.30644 -3.25
      vertex -2.71599 3.34442 -3.25
    endloop
  endfacet
  facet normal 0 0 1
    outer loop
      vertex -2.76181 3.39223 -3.25
      vertex -2.78773 3.29418 -3.25
      vertex -2.77023 3.30644 -3.25
    endloop
  endfacet
  facet normal 0 -0 1
    outer loop
      vertex -2.78773 3.29418 -3.25
      vertex -2.76181 3.39223 -3.25
      vertex -2.95114 3.75034 -3.25
    endloop
  endfacet
  facet normal 0 0 1
    outer loop
      vertex -1.09532 -3.64 -3.25
      vertex -1.1829 -3.64 -3.25
      vertex -1.17279 -3.70545 -3.25
    endloop
  endfacet
  facet normal 0 0 1
    outer loop
      vertex -1.09532 -3.64 -3.25
      vertex -1.17279 -3.70545 -3.25
      vertex -1.2231 -4.10739 -3.25
    endloop
  endfacet
  facet normal 0 0 1
    outer loop
      vertex 1.2231 4.10739 -3.25
      vertex 1.09532 3.64 -3.25
      vertex 1.17279 3.70545 -3.25
    endloop
  endfacet
  facet normal 0 0 1
    outer loop
      vertex 1.1829 3.64 -3.25
      vertex 1.17279 3.70545 -3.25
      vertex 1.09532 3.64 -3.25
    endloop
  endfacet
  facet normal 0 0 1
    outer loop
      vertex 4.14096 2.33397 -3.25
      vertex 4.05592 2.3199 -3.25
      vertex 4.10664 2.27733 -3.25
    endloop
  endfacet
  facet normal 0 0 1
    outer loop
      vertex 4.03955 2.33363 -3.25
      vertex 4.14096 2.33397 -3.25
      vertex 4.43787 2.60953 -3.25
    endloop
  endfacet
  facet normal 0 0 1
    outer loop
      vertex 4.14096 2.33397 -3.25
      vertex 4.03955 2.33363 -3.25
      vertex 4.05592 2.3199 -3.25
    endloop
  endfacet
  facet normal 0 0 1
    outer loop
      vertex 3.25143 -2.88548 -3.25
      vertex 3.21706 -2.9809 -3.25
      vertex 3.37445 -3.35414 -3.25
    endloop
  endfacet
  facet normal 0 -0 1
    outer loop
      vertex 3.21706 -2.9809 -3.25
      vertex 3.25143 -2.88548 -3.25
      vertex 3.17558 -2.92927 -3.25
    endloop
  endfacet
  facet normal 0 0 1
    outer loop
      vertex 3.64 -1.09532 -3.25
      vertex 3.70545 -1.17279 -3.25
      vertex 4.10739 -1.2231 -3.25
    endloop
  endfacet
  facet normal 0 0 1
    outer loop
      vertex 3.70545 -1.17279 -3.25
      vertex 3.64 -1.09532 -3.25
      vertex 3.64 -1.1829 -3.25
    endloop
  endfacet
endsolid OpenSCAD_Model
