solid OpenSCAD_Model
  facet normal 0.866075 0.499915 0
    outer loop
      vertex 5.92897 10.0823 2.48137
      vertex 5.875 10.1758 2.20019
      vertex 5.875 10.1758 3.25
    endloop
  endfacet
  facet normal 0.865984 0.500071 6.91599e-05
    outer loop
      vertex 5.875 10.1758 2.20019
      vertex 5.92897 10.0823 2.48137
      vertex 5.91512 10.1063 2.36835
    endloop
  endfacet
  facet normal 0.866011 0.500025 -1.79223e-05
    outer loop
      vertex 5.875 10.1758 3.25
      vertex 6.14875 9.70165 2.3235
      vertex 5.92897 10.0823 2.48137
    endloop
  endfacet
  facet normal 0.866027 0.499998 1.02987e-06
    outer loop
      vertex 10.3801 2.37269 2.54083
      vertex 6.14875 9.70165 2.3235
      vertex 5.875 10.1758 3.25
    endloop
  endfacet
  facet normal 0.866027 0.499998 6.20582e-06
    outer loop
      vertex 6.14875 9.70165 2.3235
      vertex 9.76384 3.44012 0.42741
      vertex 9.03426 4.70381 -0.661416
    endloop
  endfacet
  facet normal 0.866024 0.500002 -1.06069e-05
    outer loop
      vertex 6.14875 9.70165 2.3235
      vertex 9.9366 3.1409 0.789183
      vertex 9.76384 3.44012 0.42741
    endloop
  endfacet
  facet normal 0.866027 0.499998 1.17302e-05
    outer loop
      vertex 6.14875 9.70165 2.3235
      vertex 10.3801 2.37269 2.54083
      vertex 9.9366 3.1409 0.789183
    endloop
  endfacet
  facet normal 0.866007 0.500032 2.11135e-05
    outer loop
      vertex 10.3801 2.37269 2.54083
      vertex 10.64 1.92258 2.27573
      vertex 10.4935 2.1763 2.36019
    endloop
  endfacet
  facet normal 0.866025 0.5 -3.29627e-05
    outer loop
      vertex 11.75 0 3.25
      vertex 10.3801 2.37269 2.54083
      vertex 5.875 10.1758 3.25
    endloop
  endfacet
  facet normal 0.866014 0.500019 5.15496e-05
    outer loop
      vertex 11.75 0 3.25
      vertex 10.64 1.92258 2.27573
      vertex 10.3801 2.37269 2.54083
    endloop
  endfacet
  facet normal 0.866026 0.499999 0
    outer loop
      vertex 10.64 1.92258 2.27573
      vertex 11.75 0 3.25
      vertex 11.75 0 1.1227
    endloop
  endfacet
  facet normal 0.866026 0.499999 0
    outer loop
      vertex 6.14875 9.70165 -0.434942
      vertex 5.875 10.1758 -3.25
      vertex 5.875 10.1758 -0.151764
    endloop
  endfacet
  facet normal 0.866026 0.499999 -1.179e-08
    outer loop
      vertex 7.6273 7.14072 -1.49697
      vertex 5.875 10.1758 -3.25
      vertex 6.14875 9.70165 -0.434942
    endloop
  endfacet
  facet normal 0.866026 0.499999 4.95139e-07
    outer loop
      vertex 8.37364 5.84802 -2.70806
      vertex 5.875 10.1758 -3.25
      vertex 7.6273 7.14072 -1.49697
    endloop
  endfacet
  facet normal 0.866026 0.499999 -8.06371e-06
    outer loop
      vertex 10.64 1.92258 -0.48271
      vertex 8.64468 5.37857 -1.57211
      vertex 9.03426 4.70381 -0.661416
    endloop
  endfacet
  facet normal 0.866026 0.5 8.59003e-06
    outer loop
      vertex 10.64 1.92258 -0.48271
      vertex 9.03426 4.70381 -0.661416
      vertex 9.76384 3.44012 0.42741
    endloop
  endfacet
  facet normal 0.866025 0.5 -2.17003e-06
    outer loop
      vertex 8.64468 5.37857 -1.57211
      vertex 10.64 1.92258 -0.48271
      vertex 8.37364 5.84802 -2.70806
    endloop
  endfacet
  facet normal 0.866026 0.499999 -0
    outer loop
      vertex 11.75 0 -3.25
      vertex 10.64 1.92258 -0.48271
      vertex 11.75 0 -1.1227
    endloop
  endfacet
  facet normal 0.866025 0.5 7.31619e-06
    outer loop
      vertex 8.37364 5.84802 -2.70806
      vertex 11.75 0 -3.25
      vertex 5.875 10.1758 -3.25
    endloop
  endfacet
  facet normal 0.866025 0.500001 -1.14443e-06
    outer loop
      vertex 10.64 1.92258 -0.48271
      vertex 11.75 0 -3.25
      vertex 8.37364 5.84802 -2.70806
    endloop
  endfacet
  facet normal -0.866029 0.499993 0
    outer loop
      vertex -5.875 10.1758 -3.25
      vertex -5.89844 10.1352 -2.4418
      vertex -5.875 10.1758 -2.25924
    endloop
  endfacet
  facet normal -0.866028 0.499996 1.97219e-07
    outer loop
      vertex -5.875 10.1758 -3.25
      vertex -6.35755 9.33999 -2.14342
      vertex -5.89844 10.1352 -2.4418
    endloop
  endfacet
  facet normal -0.866027 0.499998 1.81997e-06
    outer loop
      vertex -10.3801 2.37269 -2.54083
      vertex -6.35755 9.33999 -2.14342
      vertex -5.875 10.1758 -3.25
    endloop
  endfacet
  facet normal -0.866026 0.499999 -3.70583e-06
    outer loop
      vertex -6.35755 9.33999 -2.14342
      vertex -9.76384 3.44012 -0.42741
      vertex -9.12849 4.54059 0.739931
    endloop
  endfacet
  facet normal -0.866024 0.500002 1.02853e-05
    outer loop
      vertex -6.35755 9.33999 -2.14342
      vertex -9.9366 3.1409 -0.789183
      vertex -9.76384 3.44012 -0.42741
    endloop
  endfacet
  facet normal -0.866026 0.499998 -1.20516e-05
    outer loop
      vertex -6.35755 9.33999 -2.14342
      vertex -10.3801 2.37269 -2.54083
      vertex -9.9366 3.1409 -0.789183
    endloop
  endfacet
  facet normal -0.866007 0.500032 -2.11135e-05
    outer loop
      vertex -10.3801 2.37269 -2.54083
      vertex -10.64 1.92258 -2.27573
      vertex -10.4935 2.1763 -2.36019
    endloop
  endfacet
  facet normal -0.866025 0.5 3.29627e-05
    outer loop
      vertex -11.75 0 -3.25
      vertex -10.3801 2.37269 -2.54083
      vertex -5.875 10.1758 -3.25
    endloop
  endfacet
  facet normal -0.866014 0.500019 -5.15496e-05
    outer loop
      vertex -11.75 0 -3.25
      vertex -10.64 1.92258 -2.27573
      vertex -10.3801 2.37269 -2.54083
    endloop
  endfacet
  facet normal -0.866026 0.499999 0
    outer loop
      vertex -10.64 1.92258 -2.27573
      vertex -11.75 0 -3.25
      vertex -11.75 0 -1.1227
    endloop
  endfacet
  facet normal -0.866028 0.499996 0
    outer loop
      vertex -6.35755 9.33999 0.615026
      vertex -5.875 10.1758 3.25
      vertex -5.875 10.1758 0.112896
    endloop
  endfacet
  facet normal -0.866025 0.500001 -1.9239e-06
    outer loop
      vertex -7.62396 7.14651 1.43807
      vertex -5.875 10.1758 3.25
      vertex -6.35755 9.33999 0.615026
    endloop
  endfacet
  facet normal -0.866026 0.499999 6.72151e-07
    outer loop
      vertex -8.42965 5.75101 2.73847
      vertex -5.875 10.1758 3.25
      vertex -7.62396 7.14651 1.43807
    endloop
  endfacet
  facet normal -0.866025 0.5 4.07265e-06
    outer loop
      vertex -10.64 1.92258 0.48271
      vertex -8.66821 5.33781 1.76375
      vertex -9.12849 4.54059 0.739931
    endloop
  endfacet
  facet normal -0.866025 0.500001 -5.85758e-06
    outer loop
      vertex -10.64 1.92258 0.48271
      vertex -9.12849 4.54059 0.739931
      vertex -9.76384 3.44012 -0.42741
    endloop
  endfacet
  facet normal -0.866025 0.500001 1.36064e-06
    outer loop
      vertex -11.75 0 3.25
      vertex -8.66821 5.33781 1.76375
      vertex -10.64 1.92258 0.48271
    endloop
  endfacet
  facet normal -0.866026 0.499999 0
    outer loop
      vertex -11.75 0 3.25
      vertex -10.64 1.92258 0.48271
      vertex -11.75 0 1.1227
    endloop
  endfacet
  facet normal -0.866025 0.5 -5.62019e-06
    outer loop
      vertex -8.42965 5.75101 2.73847
      vertex -11.75 0 3.25
      vertex -5.875 10.1758 3.25
    endloop
  endfacet
  facet normal -0.866025 0.5 -1.14255e-06
    outer loop
      vertex -8.66821 5.33781 1.76375
      vertex -11.75 0 3.25
      vertex -8.42965 5.75101 2.73847
    endloop
  endfacet
  facet normal 0 1 0
    outer loop
      vertex 5.875 10.1758 3.25
      vertex -2.33768 10.1758 2.5679
      vertex -5.875 10.1758 3.25
    endloop
  endfacet
  facet normal 0 1 0
    outer loop
      vertex 5.58368 10.1758 1.76563
      vertex 5.875 10.1758 3.25
      vertex 5.875 10.1758 2.20019
    endloop
  endfacet
  facet normal 0 1 0
    outer loop
      vertex 5.875 10.1758 3.25
      vertex -1.65374 10.1758 2.0431
      vertex -2.33768 10.1758 2.5679
    endloop
  endfacet
  facet normal 0 1 0
    outer loop
      vertex 5.875 10.1758 3.25
      vertex 5.58368 10.1758 1.76563
      vertex -1.65374 10.1758 2.0431
    endloop
  endfacet
  facet normal 0 1 0
    outer loop
      vertex 4.68437 10.1758 0.363862
      vertex 5.58368 10.1758 1.76563
      vertex 4.91923 10.1758 0.573708
    endloop
  endfacet
  facet normal 0 1 0
    outer loop
      vertex 3.45594 10.1758 -0.339586
      vertex 5.58368 10.1758 1.76563
      vertex 4.68437 10.1758 0.363862
    endloop
  endfacet
  facet normal 0 1 0
    outer loop
      vertex 3.45594 10.1758 -0.339586
      vertex 4.68437 10.1758 0.363862
      vertex 5.58368 10.1758 -0.0909761
    endloop
  endfacet
  facet normal 0 1 0
    outer loop
      vertex 5.58368 10.1758 1.76563
      vertex 3.45594 10.1758 -0.339586
      vertex -1.65374 10.1758 2.0431
    endloop
  endfacet
  facet normal 0 1 -0
    outer loop
      vertex 5.875 10.1758 -3.25
      vertex 5.58368 10.1758 -0.0909761
      vertex 5.875 10.1758 -0.151764
    endloop
  endfacet
  facet normal 0 1 0
    outer loop
      vertex 5.58368 10.1758 -0.0909761
      vertex 3.2541 10.1758 -0.60264
      vertex 3.45594 10.1758 -0.339586
    endloop
  endfacet
  facet normal 0 1 0
    outer loop
      vertex 5.58368 10.1758 -0.0909761
      vertex 5.875 10.1758 -3.25
      vertex 3.2541 10.1758 -0.60264
    endloop
  endfacet
  facet normal 0 1 0
    outer loop
      vertex 3.2541 10.1758 -0.60264
      vertex 5.875 10.1758 -3.25
      vertex 2.33768 10.1758 -2.5679
    endloop
  endfacet
  facet normal 0 1 -0
    outer loop
      vertex -3.2541 10.1758 0.60264
      vertex -5.875 10.1758 3.25
      vertex -2.33768 10.1758 2.5679
    endloop
  endfacet
  facet normal 0 1 0
    outer loop
      vertex -5.1639 10.1758 -0.0644709
      vertex -3.2541 10.1758 0.60264
      vertex -3.45594 10.1758 0.339586
    endloop
  endfacet
  facet normal 0 1 0
    outer loop
      vertex -3.2541 10.1758 0.60264
      vertex -5.1639 10.1758 -0.0644709
      vertex -5.875 10.1758 3.25
    endloop
  endfacet
  facet normal 0 1 0
    outer loop
      vertex -5.875 10.1758 3.25
      vertex -5.1639 10.1758 -0.0644709
      vertex -5.875 10.1758 0.112896
    endloop
  endfacet
  facet normal 0 1 0
    outer loop
      vertex -3.45594 10.1758 0.339586
      vertex -4.71481 10.1758 -0.295538
      vertex -5.1639 10.1758 -0.0644709
    endloop
  endfacet
  facet normal 0 1 0
    outer loop
      vertex -5.1639 10.1758 -1.05074
      vertex -4.71481 10.1758 -0.295538
      vertex -3.45594 10.1758 0.339586
    endloop
  endfacet
  facet normal 0 1 0
    outer loop
      vertex -4.71481 10.1758 -0.295538
      vertex -5.1639 10.1758 -1.05074
      vertex -4.81751 10.1758 -0.395567
    endloop
  endfacet
  facet normal 0 1 0
    outer loop
      vertex 1.65374 10.1758 -2.0431
      vertex -5.1639 10.1758 -1.05074
      vertex -3.45594 10.1758 0.339586
    endloop
  endfacet
  facet normal 0 1 0
    outer loop
      vertex -5.875 10.1758 -3.25
      vertex -5.1639 10.1758 -1.05074
      vertex 1.65374 10.1758 -2.0431
    endloop
  endfacet
  facet normal 0 1 0
    outer loop
      vertex -5.1639 10.1758 -1.05074
      vertex -5.875 10.1758 -3.25
      vertex -5.85138 10.1758 -2.16577
    endloop
  endfacet
  facet normal 0 1 0
    outer loop
      vertex -5.875 10.1758 -3.25
      vertex 1.65374 10.1758 -2.0431
      vertex 2.33768 10.1758 -2.5679
    endloop
  endfacet
  facet normal 0 1 0
    outer loop
      vertex -5.875 10.1758 -3.25
      vertex 2.33768 10.1758 -2.5679
      vertex 5.875 10.1758 -3.25
    endloop
  endfacet
  facet normal 0 1 0
    outer loop
      vertex -5.85138 10.1758 -2.16577
      vertex -5.875 10.1758 -3.25
      vertex -5.875 10.1758 -2.25924
    endloop
  endfacet
  facet normal -0.866026 -0.499999 0
    outer loop
      vertex -11.75 0 -3.25
      vertex -10.64 -1.92258 -0.48271
      vertex -11.75 0 -1.1227
    endloop
  endfacet
  facet normal -0.866025 -0.500001 -1.50269e-06
    outer loop
      vertex -8.70371 -5.27632 -1.95893
      vertex -10.64 -1.92258 -0.48271
      vertex -11.75 0 -3.25
    endloop
  endfacet
  facet normal -0.866026 -0.5 7.90883e-06
    outer loop
      vertex -10.64 -1.92258 -0.48271
      vertex -9.24486 -4.33904 -0.825712
      vertex -9.76384 -3.44012 0.42741
    endloop
  endfacet
  facet normal -0.866027 -0.499998 -1.09324e-05
    outer loop
      vertex -10.64 -1.92258 -0.48271
      vertex -8.70371 -5.27632 -1.95893
      vertex -9.24486 -4.33904 -0.825712
    endloop
  endfacet
  facet normal -0.866026 -0.499999 6.49552e-06
    outer loop
      vertex -11.75 0 -3.25
      vertex -8.49807 -5.63251 -2.7711
      vertex -8.70371 -5.27632 -1.95893
    endloop
  endfacet
  facet normal -0.866025 -0.5 1.48473e-06
    outer loop
      vertex -5.875 -10.1758 -3.25
      vertex -7.62643 -7.14223 -1.38254
      vertex -8.49807 -5.63251 -2.7711
    endloop
  endfacet
  facet normal -0.866025 -0.5 -1.23617e-06
    outer loop
      vertex -5.875 -10.1758 -3.25
      vertex -8.49807 -5.63251 -2.7711
      vertex -11.75 0 -3.25
    endloop
  endfacet
  facet normal -0.866026 -0.499998 -2.37138e-06
    outer loop
      vertex -7.62643 -7.14223 -1.38254
      vertex -5.875 -10.1758 -3.25
      vertex -6.50039 -9.0926 -0.733296
    endloop
  endfacet
  facet normal -0.866024 -0.500003 -0
    outer loop
      vertex -5.875 -10.1758 -0.116427
      vertex -6.50039 -9.0926 -0.733296
      vertex -5.875 -10.1758 -3.25
    endloop
  endfacet
  facet normal -0.866102 -0.499868 0.000315635
    outer loop
      vertex -6.50039 -9.0926 -0.733296
      vertex -5.875 -10.1758 -0.116427
      vertex -5.91269 -10.1105 -0.122813
    endloop
  endfacet
  facet normal -0.866026 -0.499999 0
    outer loop
      vertex -10.64 -1.92258 2.27573
      vertex -11.75 0 3.25
      vertex -11.75 0 1.1227
    endloop
  endfacet
  facet normal -0.866007 -0.500032 2.11135e-05
    outer loop
      vertex -10.3801 -2.37269 2.54083
      vertex -10.64 -1.92258 2.27573
      vertex -10.4935 -2.1763 2.36019
    endloop
  endfacet
  facet normal -0.866014 -0.500019 5.15496e-05
    outer loop
      vertex -10.64 -1.92258 2.27573
      vertex -10.3801 -2.37269 2.54083
      vertex -11.75 0 3.25
    endloop
  endfacet
  facet normal -0.866025 -0.500001 -1.13053e-05
    outer loop
      vertex -6.50039 -9.0926 2.02515
      vertex -9.9366 -3.1409 0.789183
      vertex -9.76384 -3.44012 0.42741
    endloop
  endfacet
  facet normal -0.866027 -0.499998 5.73356e-06
    outer loop
      vertex -6.50039 -9.0926 2.02515
      vertex -9.76384 -3.44012 0.42741
      vertex -9.24486 -4.33904 -0.825712
    endloop
  endfacet
  facet normal -0.866027 -0.499998 1.15676e-05
    outer loop
      vertex -9.9366 -3.1409 0.789183
      vertex -6.50039 -9.0926 2.02515
      vertex -10.3801 -2.37269 2.54083
    endloop
  endfacet
  facet normal -0.866027 -0.499997 6.17221e-06
    outer loop
      vertex -5.875 -10.1758 3.25
      vertex -10.3801 -2.37269 2.54083
      vertex -6.50039 -9.0926 2.02515
    endloop
  endfacet
  facet normal -0.866024 -0.500003 -0
    outer loop
      vertex -5.875 -10.1758 3.25
      vertex -6.50039 -9.0926 2.02515
      vertex -5.875 -10.1758 2.38573
    endloop
  endfacet
  facet normal -0.866025 -0.5 -3.29627e-05
    outer loop
      vertex -10.3801 -2.37269 2.54083
      vertex -5.875 -10.1758 3.25
      vertex -11.75 0 3.25
    endloop
  endfacet
  facet normal 0 0 1
    outer loop
      vertex 5.875 10.1758 3.25
      vertex 10.105 0 3.25
      vertex 11.75 0 3.25
    endloop
  endfacet
  facet normal 0 0 1
    outer loop
      vertex 5.875 10.1758 3.25
      vertex 5.0525 8.75119 3.25
      vertex 10.105 0 3.25
    endloop
  endfacet
  facet normal 0 0 1
    outer loop
      vertex 5.875 10.1758 3.25
      vertex -5.0525 8.75119 3.25
      vertex 5.0525 8.75119 3.25
    endloop
  endfacet
  facet normal -0 0 1
    outer loop
      vertex -5.875 10.1758 3.25
      vertex -5.0525 8.75119 3.25
      vertex 5.875 10.1758 3.25
    endloop
  endfacet
  facet normal 0 0 1
    outer loop
      vertex -5.875 10.1758 3.25
      vertex -10.105 0 3.25
      vertex -5.0525 8.75119 3.25
    endloop
  endfacet
  facet normal 0 -0 1
    outer loop
      vertex -10.105 0 3.25
      vertex -5.875 10.1758 3.25
      vertex -11.75 0 3.25
    endloop
  endfacet
  facet normal -0 0 1
    outer loop
      vertex 10.105 0 3.25
      vertex 5.875 -10.1758 3.25
      vertex 11.75 0 3.25
    endloop
  endfacet
  facet normal -0 0 1
    outer loop
      vertex 5.0525 -8.75119 3.25
      vertex 5.875 -10.1758 3.25
      vertex 10.105 0 3.25
    endloop
  endfacet
  facet normal -0 0 1
    outer loop
      vertex -5.0525 -8.75119 3.25
      vertex 5.875 -10.1758 3.25
      vertex 5.0525 -8.75119 3.25
    endloop
  endfacet
  facet normal 0 0 1
    outer loop
      vertex -5.0525 -8.75119 3.25
      vertex -5.875 -10.1758 3.25
      vertex 5.875 -10.1758 3.25
    endloop
  endfacet
  facet normal 0 0 1
    outer loop
      vertex -10.105 0 3.25
      vertex -5.875 -10.1758 3.25
      vertex -5.0525 -8.75119 3.25
    endloop
  endfacet
  facet normal 0 0 1
    outer loop
      vertex -5.875 -10.1758 3.25
      vertex -10.105 0 3.25
      vertex -11.75 0 3.25
    endloop
  endfacet
  facet normal 0 0 -1
    outer loop
      vertex 5.875 -10.1758 -3.25
      vertex 10.105 0 -3.25
      vertex 11.75 0 -3.25
    endloop
  endfacet
  facet normal 0 0 -1
    outer loop
      vertex 5.875 -10.1758 -3.25
      vertex 5.0525 -8.75119 -3.25
      vertex 10.105 0 -3.25
    endloop
  endfacet
  facet normal 0 0 -1
    outer loop
      vertex 5.875 -10.1758 -3.25
      vertex -5.0525 -8.75119 -3.25
      vertex 5.0525 -8.75119 -3.25
    endloop
  endfacet
  facet normal 0 0 -1
    outer loop
      vertex -5.875 -10.1758 -3.25
      vertex -5.0525 -8.75119 -3.25
      vertex 5.875 -10.1758 -3.25
    endloop
  endfacet
  facet normal 0 0 -1
    outer loop
      vertex -5.875 -10.1758 -3.25
      vertex -10.105 0 -3.25
      vertex -5.0525 -8.75119 -3.25
    endloop
  endfacet
  facet normal -0 -0 -1
    outer loop
      vertex -10.105 0 -3.25
      vertex -5.875 -10.1758 -3.25
      vertex -11.75 0 -3.25
    endloop
  endfacet
  facet normal 0 0 -1
    outer loop
      vertex 10.105 0 -3.25
      vertex 5.875 10.1758 -3.25
      vertex 11.75 0 -3.25
    endloop
  endfacet
  facet normal 0 0 -1
    outer loop
      vertex 5.0525 8.75119 -3.25
      vertex 5.875 10.1758 -3.25
      vertex 10.105 0 -3.25
    endloop
  endfacet
  facet normal 0 0 -1
    outer loop
      vertex -5.0525 8.75119 -3.25
      vertex 5.875 10.1758 -3.25
      vertex 5.0525 8.75119 -3.25
    endloop
  endfacet
  facet normal 0 0 -1
    outer loop
      vertex -5.0525 8.75119 -3.25
      vertex -5.875 10.1758 -3.25
      vertex 5.875 10.1758 -3.25
    endloop
  endfacet
  facet normal 0 0 -1
    outer loop
      vertex -10.105 0 -3.25
      vertex -5.875 10.1758 -3.25
      vertex -5.0525 8.75119 -3.25
    endloop
  endfacet
  facet normal 0 0 -1
    outer loop
      vertex -5.875 10.1758 -3.25
      vertex -10.105 0 -3.25
      vertex -11.75 0 -3.25
    endloop
  endfacet
  facet normal 0 -1 0
    outer loop
      vertex -5.875 -10.1758 3.25
      vertex 2.33768 -10.1758 2.5679
      vertex 5.875 -10.1758 3.25
    endloop
  endfacet
  facet normal 0 -1 0
    outer loop
      vertex -5.74444 -10.1758 2.02257
      vertex -5.875 -10.1758 3.25
      vertex -5.83702 -10.1758 2.40546
    endloop
  endfacet
  facet normal -0 -1 0
    outer loop
      vertex -5.83702 -10.1758 2.40546
      vertex -5.875 -10.1758 3.25
      vertex -5.875 -10.1758 2.38573
    endloop
  endfacet
  facet normal 0 -1 0
    outer loop
      vertex 3.2541 -10.1758 0.60264
      vertex 5.875 -10.1758 3.25
      vertex 2.33768 -10.1758 2.5679
    endloop
  endfacet
  facet normal 0 -1 0
    outer loop
      vertex 4.71454 -10.1758 -0.23085
      vertex 3.2541 -10.1758 0.60264
      vertex 3.45594 -10.1758 0.339586
    endloop
  endfacet
  facet normal 0 -1 0
    outer loop
      vertex 3.2541 -10.1758 0.60264
      vertex 5.875 -10.1758 0.116427
      vertex 5.875 -10.1758 3.25
    endloop
  endfacet
  facet normal 0 -1 0
    outer loop
      vertex 3.2541 -10.1758 0.60264
      vertex 4.71454 -10.1758 -0.23085
      vertex 5.875 -10.1758 0.116427
    endloop
  endfacet
  facet normal 0 -1 0
    outer loop
      vertex 3.45594 -10.1758 0.339586
      vertex 5.74444 -10.1758 -2.02257
      vertex 4.71454 -10.1758 -0.23085
    endloop
  endfacet
  facet normal 0 -1 0
    outer loop
      vertex 5.875 -10.1758 -3.25
      vertex 3.45594 -10.1758 0.339586
      vertex -1.65374 -10.1758 -2.0431
    endloop
  endfacet
  facet normal 0 -1 0
    outer loop
      vertex 3.45594 -10.1758 0.339586
      vertex 5.875 -10.1758 -3.25
      vertex 5.74444 -10.1758 -2.02257
    endloop
  endfacet
  facet normal 0 -1 0
    outer loop
      vertex 5.875 -10.1758 -3.25
      vertex -1.65374 -10.1758 -2.0431
      vertex -2.33768 -10.1758 -2.5679
    endloop
  endfacet
  facet normal 0 -1 0
    outer loop
      vertex -5.875 -10.1758 3.25
      vertex 1.65374 -10.1758 2.0431
      vertex 2.33768 -10.1758 2.5679
    endloop
  endfacet
  facet normal 0 -1 0
    outer loop
      vertex -5.875 -10.1758 3.25
      vertex -5.74444 -10.1758 2.02257
      vertex -3.45594 -10.1758 -0.339586
    endloop
  endfacet
  facet normal 0 -1 0
    outer loop
      vertex -3.45594 -10.1758 -0.339586
      vertex -5.74444 -10.1758 2.02257
      vertex -4.71454 -10.1758 0.23085
    endloop
  endfacet
  facet normal 0 -1 0
    outer loop
      vertex -3.2541 -10.1758 -0.60264
      vertex -4.71454 -10.1758 0.23085
      vertex -5.875 -10.1758 -0.116427
    endloop
  endfacet
  facet normal 0 -1 0
    outer loop
      vertex -5.875 -10.1758 3.25
      vertex -3.45594 -10.1758 -0.339586
      vertex 1.65374 -10.1758 2.0431
    endloop
  endfacet
  facet normal 0 -1 0
    outer loop
      vertex -4.71454 -10.1758 0.23085
      vertex -3.2541 -10.1758 -0.60264
      vertex -3.45594 -10.1758 -0.339586
    endloop
  endfacet
  facet normal 0 -1 0
    outer loop
      vertex -5.875 -10.1758 -3.25
      vertex -3.2541 -10.1758 -0.60264
      vertex -5.875 -10.1758 -0.116427
    endloop
  endfacet
  facet normal 0 -1 -0
    outer loop
      vertex -3.2541 -10.1758 -0.60264
      vertex -5.875 -10.1758 -3.25
      vertex -2.33768 -10.1758 -2.5679
    endloop
  endfacet
  facet normal 0 -1 0
    outer loop
      vertex 5.875 -10.1758 -3.25
      vertex -2.33768 -10.1758 -2.5679
      vertex -5.875 -10.1758 -3.25
    endloop
  endfacet
  facet normal 0 -1 0
    outer loop
      vertex 5.83702 -10.1758 -2.40546
      vertex 5.875 -10.1758 -3.25
      vertex 5.875 -10.1758 -2.38573
    endloop
  endfacet
  facet normal 0 -1 0
    outer loop
      vertex 5.74444 -10.1758 -2.02257
      vertex 5.875 -10.1758 -3.25
      vertex 5.83702 -10.1758 -2.40546
    endloop
  endfacet
  facet normal 0.866026 -0.499999 0
    outer loop
      vertex 11.75 0 3.25
      vertex 10.64 -1.92258 0.48271
      vertex 11.75 0 1.1227
    endloop
  endfacet
  facet normal 0.866025 -0.500001 1.50269e-06
    outer loop
      vertex 8.70371 -5.27632 1.95893
      vertex 10.64 -1.92258 0.48271
      vertex 11.75 0 3.25
    endloop
  endfacet
  facet normal 0.866026 -0.5 -7.90883e-06
    outer loop
      vertex 10.64 -1.92258 0.48271
      vertex 9.24486 -4.33904 0.825712
      vertex 9.76384 -3.44012 -0.42741
    endloop
  endfacet
  facet normal 0.866027 -0.499998 1.09324e-05
    outer loop
      vertex 10.64 -1.92258 0.48271
      vertex 8.70371 -5.27632 1.95893
      vertex 9.24486 -4.33904 0.825712
    endloop
  endfacet
  facet normal 0.866026 -0.499999 -6.49552e-06
    outer loop
      vertex 11.75 0 3.25
      vertex 8.49807 -5.63251 2.7711
      vertex 8.70371 -5.27632 1.95893
    endloop
  endfacet
  facet normal 0.866025 -0.5 -1.48473e-06
    outer loop
      vertex 5.875 -10.1758 3.25
      vertex 7.62643 -7.14223 1.38254
      vertex 8.49807 -5.63251 2.7711
    endloop
  endfacet
  facet normal 0.866025 -0.5 1.23617e-06
    outer loop
      vertex 5.875 -10.1758 3.25
      vertex 8.49807 -5.63251 2.7711
      vertex 11.75 0 3.25
    endloop
  endfacet
  facet normal 0.866026 -0.499998 2.37138e-06
    outer loop
      vertex 7.62643 -7.14223 1.38254
      vertex 5.875 -10.1758 3.25
      vertex 6.50039 -9.0926 0.733296
    endloop
  endfacet
  facet normal 0.866024 -0.500003 0
    outer loop
      vertex 5.875 -10.1758 0.116427
      vertex 6.50039 -9.0926 0.733296
      vertex 5.875 -10.1758 3.25
    endloop
  endfacet
  facet normal 0.866102 -0.499868 -0.000315635
    outer loop
      vertex 6.50039 -9.0926 0.733296
      vertex 5.875 -10.1758 0.116427
      vertex 5.91269 -10.1105 0.122813
    endloop
  endfacet
  facet normal 0.866026 -0.499999 0
    outer loop
      vertex 10.64 -1.92258 -2.27573
      vertex 11.75 0 -3.25
      vertex 11.75 0 -1.1227
    endloop
  endfacet
  facet normal 0.866007 -0.500032 -2.11135e-05
    outer loop
      vertex 10.3801 -2.37269 -2.54083
      vertex 10.64 -1.92258 -2.27573
      vertex 10.4935 -2.1763 -2.36019
    endloop
  endfacet
  facet normal 0.866014 -0.500019 -5.15496e-05
    outer loop
      vertex 10.64 -1.92258 -2.27573
      vertex 10.3801 -2.37269 -2.54083
      vertex 11.75 0 -3.25
    endloop
  endfacet
  facet normal 0.866025 -0.500001 1.13053e-05
    outer loop
      vertex 6.50039 -9.0926 -2.02515
      vertex 9.9366 -3.1409 -0.789183
      vertex 9.76384 -3.44012 -0.42741
    endloop
  endfacet
  facet normal 0.866027 -0.499998 -5.73356e-06
    outer loop
      vertex 6.50039 -9.0926 -2.02515
      vertex 9.76384 -3.44012 -0.42741
      vertex 9.24486 -4.33904 0.825712
    endloop
  endfacet
  facet normal 0.866027 -0.499998 -1.15676e-05
    outer loop
      vertex 9.9366 -3.1409 -0.789183
      vertex 6.50039 -9.0926 -2.02515
      vertex 10.3801 -2.37269 -2.54083
    endloop
  endfacet
  facet normal 0.866027 -0.499997 -6.17221e-06
    outer loop
      vertex 5.875 -10.1758 -3.25
      vertex 10.3801 -2.37269 -2.54083
      vertex 6.50039 -9.0926 -2.02515
    endloop
  endfacet
  facet normal 0.866024 -0.500003 0
    outer loop
      vertex 5.875 -10.1758 -3.25
      vertex 6.50039 -9.0926 -2.02515
      vertex 5.875 -10.1758 -2.38573
    endloop
  endfacet
  facet normal 0.866025 -0.5 3.29627e-05
    outer loop
      vertex 10.3801 -2.37269 -2.54083
      vertex 5.875 -10.1758 -3.25
      vertex 11.75 0 -3.25
    endloop
  endfacet
  facet normal -0.866025 -0.5 0
    outer loop
      vertex 10.105 0 -3.25
      vertex 5.0525 8.75119 3.25
      vertex 5.0525 8.75119 -3.25
    endloop
  endfacet
  facet normal -0.866025 -0.5 0
    outer loop
      vertex 5.0525 8.75119 3.25
      vertex 10.105 0 -3.25
      vertex 10.105 0 3.25
    endloop
  endfacet
  facet normal 0.866025 -0.5 0
    outer loop
      vertex -10.105 0 3.25
      vertex -5.0525 8.75119 -3.25
      vertex -5.0525 8.75119 3.25
    endloop
  endfacet
  facet normal 0.866025 -0.5 0
    outer loop
      vertex -5.0525 8.75119 -3.25
      vertex -10.105 0 3.25
      vertex -10.105 0 -3.25
    endloop
  endfacet
  facet normal 0 -1 0
    outer loop
      vertex -5.0525 8.75119 -3.25
      vertex 5.0525 8.75119 3.25
      vertex -5.0525 8.75119 3.25
    endloop
  endfacet
  facet normal 0 -1 -0
    outer loop
      vertex 5.0525 8.75119 3.25
      vertex -5.0525 8.75119 -3.25
      vertex 5.0525 8.75119 -3.25
    endloop
  endfacet
  facet normal -0.866025 0.5 0
    outer loop
      vertex 5.0525 -8.75119 -3.25
      vertex 10.105 0 3.25
      vertex 10.105 0 -3.25
    endloop
  endfacet
  facet normal -0.866025 0.5 0
    outer loop
      vertex 10.105 0 3.25
      vertex 5.0525 -8.75119 -3.25
      vertex 5.0525 -8.75119 3.25
    endloop
  endfacet
  facet normal 0 1 -0
    outer loop
      vertex 5.0525 -8.75119 -3.25
      vertex -5.0525 -8.75119 3.25
      vertex 5.0525 -8.75119 3.25
    endloop
  endfacet
  facet normal 0 1 0
    outer loop
      vertex -5.0525 -8.75119 3.25
      vertex 5.0525 -8.75119 -3.25
      vertex -5.0525 -8.75119 -3.25
    endloop
  endfacet
  facet normal 0.866025 0.5 0
    outer loop
      vertex -5.0525 -8.75119 3.25
      vertex -10.105 0 -3.25
      vertex -10.105 0 3.25
    endloop
  endfacet
  facet normal 0.866025 0.5 0
    outer loop
      vertex -10.105 0 -3.25
      vertex -5.0525 -8.75119 3.25
      vertex -5.0525 -8.75119 -3.25
    endloop
  endfacet
  facet normal 1 -0 0
    outer loop
      vertex 17.64 -3.25 1.25
      vertex 17.64 3.25 -1.25
      vertex 17.64 3.25 1.25
    endloop
  endfacet
  facet normal 1 0 0
    outer loop
      vertex 17.64 3.25 -1.25
      vertex 17.64 -3.25 1.25
      vertex 17.64 -3.25 -1.25
    endloop
  endfacet
  facet normal -1 0 -0
    outer loop
      vertex 3.64 1.1315 3.29313
      vertex 3.64 1.1829 3.25
      vertex 3.64 1.09532 3.25
    endloop
  endfacet
  facet normal -1 -0 0
    outer loop
      vertex 3.64 -1.09532 -3.25
      vertex 3.64 -1.1315 -3.29313
      vertex 3.64 -1.1829 -3.25
    endloop
  endfacet
  facet normal -0.0988253 0.995105 0
    outer loop
      vertex 17.64 3.25 1.25
      vertex 17.64 3.25 -1.25
      vertex 14.14 2.90241 1.9238
    endloop
  endfacet
  facet normal 0.0988242 0.971517 0.21538
    outer loop
      vertex 17.64 3.25 -1.25
      vertex 14.14 3.44351 -0.516941
      vertex 14.14 2.90241 1.9238
    endloop
  endfacet
  facet normal -0.204997 -0 -0.978763
    outer loop
      vertex 17.64 3.25 -1.25
      vertex 17.64 -3.25 -1.25
      vertex 14.14 3.44351 -0.516941
    endloop
  endfacet
  facet normal 0.204998 0.211843 -0.955562
    outer loop
      vertex 14.14 3.44351 -0.516941
      vertex 17.64 -3.25 -1.25
      vertex 14.14 -2.90241 -1.9238
    endloop
  endfacet
  facet normal -0.0988253 -0.995105 0
    outer loop
      vertex 17.64 -3.25 -1.25
      vertex 17.64 -3.25 1.25
      vertex 14.14 -2.90241 -1.9238
    endloop
  endfacet
  facet normal 0.0988242 -0.971517 -0.21538
    outer loop
      vertex 14.14 -2.90241 -1.9238
      vertex 17.64 -3.25 1.25
      vertex 14.14 -3.44351 0.516941
    endloop
  endfacet
  facet normal -0.204997 0 0.978763
    outer loop
      vertex 17.64 -3.25 1.25
      vertex 17.64 3.25 1.25
      vertex 14.14 -3.44351 0.516941
    endloop
  endfacet
  facet normal 0.204998 -0.211843 0.955562
    outer loop
      vertex 17.64 3.25 1.25
      vertex 14.14 2.90241 1.9238
      vertex 14.14 -3.44351 0.516941
    endloop
  endfacet
  facet normal -0.0988235 0.971517 0.21538
    outer loop
      vertex 14.14 2.90241 1.9238
      vertex 14.14 3.44351 -0.516941
      vertex 10.64 2.41723 2.50639
    endloop
  endfacet
  facet normal 0.0988238 0.901872 0.420548
    outer loop
      vertex 14.14 3.44351 -0.516941
      vertex 10.64 3.47377 0.240624
      vertex 10.64 2.41723 2.50639
    endloop
  endfacet
  facet normal -0.204997 0.211843 -0.955562
    outer loop
      vertex 14.14 3.44351 -0.516941
      vertex 14.14 -2.90241 -1.9238
      vertex 10.64 3.47377 0.240624
    endloop
  endfacet
  facet normal 0.204995 0.413644 -0.88706
    outer loop
      vertex 10.64 -1.92258 -2.27573
      vertex 14.14 -2.90241 -1.9238
      vertex 10.64 -2.41723 -2.50639
    endloop
  endfacet
  facet normal 0.204995 0.413643 -0.88706
    outer loop
      vertex 14.14 -2.90241 -1.9238
      vertex 10.64 -1.92258 -2.27573
      vertex 11.75 0 -1.1227
    endloop
  endfacet
  facet normal 0.205004 0.413643 -0.887058
    outer loop
      vertex 10.64 3.47377 0.240624
      vertex 11.75 0 -1.1227
      vertex 10.64 1.92258 -0.48271
    endloop
  endfacet
  facet normal 0.204992 0.413641 -0.887062
    outer loop
      vertex 11.75 0 -1.1227
      vertex 10.64 3.47377 0.240624
      vertex 14.14 -2.90241 -1.9238
    endloop
  endfacet
  facet normal -0.0988235 -0.971517 -0.21538
    outer loop
      vertex 14.14 -2.90241 -1.9238
      vertex 14.14 -3.44351 0.516941
      vertex 10.64 -2.41723 -2.50639
    endloop
  endfacet
  facet normal 0.0988238 -0.901872 -0.420548
    outer loop
      vertex 10.64 -2.41723 -2.50639
      vertex 14.14 -3.44351 0.516941
      vertex 10.64 -3.47377 -0.240624
    endloop
  endfacet
  facet normal -0.204997 -0.211843 0.955562
    outer loop
      vertex 14.14 -3.44351 0.516941
      vertex 14.14 2.90241 1.9238
      vertex 10.64 -3.47377 -0.240624
    endloop
  endfacet
  facet normal 0.204995 -0.413644 0.88706
    outer loop
      vertex 10.64 1.92258 2.27573
      vertex 14.14 2.90241 1.9238
      vertex 10.64 2.41723 2.50639
    endloop
  endfacet
  facet normal 0.204995 -0.413643 0.88706
    outer loop
      vertex 14.14 2.90241 1.9238
      vertex 10.64 1.92258 2.27573
      vertex 11.75 0 1.1227
    endloop
  endfacet
  facet normal 0.205004 -0.413643 0.887058
    outer loop
      vertex 10.64 -3.47377 -0.240624
      vertex 11.75 0 1.1227
      vertex 10.64 -1.92258 0.48271
    endloop
  endfacet
  facet normal 0.204992 -0.413641 0.887062
    outer loop
      vertex 11.75 0 1.1227
      vertex 10.64 -3.47377 -0.240624
      vertex 14.14 2.90241 1.9238
    endloop
  endfacet
  facet normal -0.0988286 0.90187 0.420551
    outer loop
      vertex 10.64 2.41723 2.50639
      vertex 9.9366 3.1409 0.789183
      vertex 10.3801 2.37269 2.54083
    endloop
  endfacet
  facet normal -0.0988209 0.901872 0.420548
    outer loop
      vertex 9.9366 3.1409 0.789183
      vertex 10.64 2.41723 2.50639
      vertex 10.64 3.47377 0.240624
    endloop
  endfacet
  facet normal 0.0988231 0.789474 0.605777
    outer loop
      vertex 9.9366 3.1409 0.789183
      vertex 10.64 3.47377 0.240624
      vertex 9.76384 3.44012 0.42741
    endloop
  endfacet
  facet normal -0.204996 0.413644 -0.88706
    outer loop
      vertex 10.64 3.47377 0.240624
      vertex 10.64 1.92258 -0.48271
      vertex 9.76384 3.44012 0.42741
    endloop
  endfacet
  facet normal -0.204976 0.413646 -0.887064
    outer loop
      vertex 10.64 -1.92258 -2.27573
      vertex 10.64 -2.41723 -2.50639
      vertex 10.4935 -2.1763 -2.36019
    endloop
  endfacet
  facet normal 0.205007 0.595845 -0.776493
    outer loop
      vertex 10.4935 -2.1763 -2.36019
      vertex 10.64 -2.41723 -2.50639
      vertex 10.3801 -2.37269 -2.54083
    endloop
  endfacet
  facet normal -0.0988209 -0.901872 -0.420548
    outer loop
      vertex 9.9366 -3.1409 -0.789183
      vertex 10.64 -2.41723 -2.50639
      vertex 10.64 -3.47377 -0.240624
    endloop
  endfacet
  facet normal -0.0988286 -0.90187 -0.420551
    outer loop
      vertex 10.64 -2.41723 -2.50639
      vertex 9.9366 -3.1409 -0.789183
      vertex 10.3801 -2.37269 -2.54083
    endloop
  endfacet
  facet normal 0.0988231 -0.789474 -0.605777
    outer loop
      vertex 9.9366 -3.1409 -0.789183
      vertex 10.64 -3.47377 -0.240624
      vertex 9.76384 -3.44012 -0.42741
    endloop
  endfacet
  facet normal -0.204976 -0.413646 0.887064
    outer loop
      vertex 10.64 1.92258 2.27573
      vertex 10.64 2.41723 2.50639
      vertex 10.4935 2.1763 2.36019
    endloop
  endfacet
  facet normal -0.204996 -0.413644 0.88706
    outer loop
      vertex 10.64 -3.47377 -0.240624
      vertex 10.64 -1.92258 0.48271
      vertex 9.76384 -3.44012 -0.42741
    endloop
  endfacet
  facet normal 0.205007 -0.595845 0.776493
    outer loop
      vertex 10.4935 2.1763 2.36019
      vertex 10.64 2.41723 2.50639
      vertex 10.3801 2.37269 2.54083
    endloop
  endfacet
  facet normal -0.0988132 0.789445 0.605816
    outer loop
      vertex 4.10739 1.2231 3.25
      vertex 3.70545 1.17279 3.25
      vertex 3.64 1.1315 3.29313
    endloop
  endfacet
  facet normal 0.0988053 0.639645 0.762294
    outer loop
      vertex 3.70545 1.17279 3.25
      vertex 3.64 1.1829 3.25
      vertex 3.64 1.1315 3.29313
    endloop
  endfacet
  facet normal 0.205005 0.749863 -0.62903
    outer loop
      vertex 3.64 -1.09532 -3.25
      vertex 4.10739 -1.2231 -3.25
      vertex 3.64 -1.1315 -3.29313
    endloop
  endfacet
  facet normal -0.0988132 -0.789445 -0.605816
    outer loop
      vertex 4.10739 -1.2231 -3.25
      vertex 3.70545 -1.17279 -3.25
      vertex 3.64 -1.1315 -3.29313
    endloop
  endfacet
  facet normal 0.0988053 -0.639645 -0.762294
    outer loop
      vertex 3.64 -1.1315 -3.29313
      vertex 3.70545 -1.17279 -3.25
      vertex 3.64 -1.1829 -3.25
    endloop
  endfacet
  facet normal 0.205005 -0.749863 0.62903
    outer loop
      vertex 4.10739 1.2231 3.25
      vertex 3.64 1.1315 3.29313
      vertex 3.64 1.09532 3.25
    endloop
  endfacet
  facet normal -1 0 0
    outer loop
      vertex -17.64 -3.25 -1.25
      vertex -17.64 3.25 1.25
      vertex -17.64 3.25 -1.25
    endloop
  endfacet
  facet normal -1 -0 0
    outer loop
      vertex -17.64 3.25 1.25
      vertex -17.64 -3.25 -1.25
      vertex -17.64 -3.25 1.25
    endloop
  endfacet
  facet normal 1 0 0
    outer loop
      vertex -3.64 -1.09532 3.25
      vertex -3.64 -1.1315 3.29313
      vertex -3.64 -1.1829 3.25
    endloop
  endfacet
  facet normal 1 0 -0
    outer loop
      vertex -3.64 1.1315 -3.29313
      vertex -3.64 1.1829 -3.25
      vertex -3.64 1.09532 -3.25
    endloop
  endfacet
  facet normal 0.0988253 -0.995105 0
    outer loop
      vertex -14.14 -2.90241 1.9238
      vertex -17.64 -3.25 1.25
      vertex -17.64 -3.25 -1.25
    endloop
  endfacet
  facet normal -0.0988242 -0.971517 0.21538
    outer loop
      vertex -14.14 -3.44351 -0.516941
      vertex -14.14 -2.90241 1.9238
      vertex -17.64 -3.25 -1.25
    endloop
  endfacet
  facet normal 0.204997 0 -0.978763
    outer loop
      vertex -17.64 3.25 -1.25
      vertex -14.14 -3.44351 -0.516941
      vertex -17.64 -3.25 -1.25
    endloop
  endfacet
  facet normal -0.204998 -0.211843 -0.955562
    outer loop
      vertex -14.14 2.90241 -1.9238
      vertex -14.14 -3.44351 -0.516941
      vertex -17.64 3.25 -1.25
    endloop
  endfacet
  facet normal 0.0988253 0.995105 0
    outer loop
      vertex -17.64 3.25 1.25
      vertex -14.14 2.90241 -1.9238
      vertex -17.64 3.25 -1.25
    endloop
  endfacet
  facet normal -0.0988242 0.971517 -0.21538
    outer loop
      vertex -14.14 3.44351 0.516941
      vertex -14.14 2.90241 -1.9238
      vertex -17.64 3.25 1.25
    endloop
  endfacet
  facet normal 0.204997 0 0.978763
    outer loop
      vertex -14.14 3.44351 0.516941
      vertex -17.64 3.25 1.25
      vertex -17.64 -3.25 1.25
    endloop
  endfacet
  facet normal -0.204998 0.211843 0.955562
    outer loop
      vertex -14.14 -2.90241 1.9238
      vertex -14.14 3.44351 0.516941
      vertex -17.64 -3.25 1.25
    endloop
  endfacet
  facet normal 0.0988235 -0.971517 0.21538
    outer loop
      vertex -10.64 -2.41723 2.50639
      vertex -14.14 -2.90241 1.9238
      vertex -14.14 -3.44351 -0.516941
    endloop
  endfacet
  facet normal -0.0988238 -0.901872 0.420548
    outer loop
      vertex -10.64 -3.47377 0.240624
      vertex -10.64 -2.41723 2.50639
      vertex -14.14 -3.44351 -0.516941
    endloop
  endfacet
  facet normal 0.204997 -0.211843 -0.955562
    outer loop
      vertex -14.14 2.90241 -1.9238
      vertex -10.64 -3.47377 0.240624
      vertex -14.14 -3.44351 -0.516941
    endloop
  endfacet
  facet normal -0.205004 -0.413643 -0.887058
    outer loop
      vertex -10.64 -3.47377 0.240624
      vertex -11.75 0 -1.1227
      vertex -10.64 -1.92258 -0.48271
    endloop
  endfacet
  facet normal -0.204992 -0.413641 -0.887062
    outer loop
      vertex -11.75 0 -1.1227
      vertex -10.64 -3.47377 0.240624
      vertex -14.14 2.90241 -1.9238
    endloop
  endfacet
  facet normal -0.204995 -0.413643 -0.88706
    outer loop
      vertex -14.14 2.90241 -1.9238
      vertex -10.64 1.92258 -2.27573
      vertex -11.75 0 -1.1227
    endloop
  endfacet
  facet normal -0.204995 -0.413644 -0.88706
    outer loop
      vertex -10.64 1.92258 -2.27573
      vertex -14.14 2.90241 -1.9238
      vertex -10.64 2.41723 -2.50639
    endloop
  endfacet
  facet normal 0.0988235 0.971517 -0.21538
    outer loop
      vertex -14.14 3.44351 0.516941
      vertex -10.64 2.41723 -2.50639
      vertex -14.14 2.90241 -1.9238
    endloop
  endfacet
  facet normal -0.0988238 0.901872 -0.420548
    outer loop
      vertex -10.64 3.47377 -0.240624
      vertex -10.64 2.41723 -2.50639
      vertex -14.14 3.44351 0.516941
    endloop
  endfacet
  facet normal 0.204997 0.211843 0.955562
    outer loop
      vertex -10.64 3.47377 -0.240624
      vertex -14.14 3.44351 0.516941
      vertex -14.14 -2.90241 1.9238
    endloop
  endfacet
  facet normal -0.205004 0.413643 0.887058
    outer loop
      vertex -10.64 3.47377 -0.240624
      vertex -11.75 0 1.1227
      vertex -10.64 1.92258 0.48271
    endloop
  endfacet
  facet normal -0.204992 0.413641 0.887062
    outer loop
      vertex -11.75 0 1.1227
      vertex -10.64 3.47377 -0.240624
      vertex -14.14 -2.90241 1.9238
    endloop
  endfacet
  facet normal -0.204995 0.413643 0.88706
    outer loop
      vertex -14.14 -2.90241 1.9238
      vertex -10.64 -1.92258 2.27573
      vertex -11.75 0 1.1227
    endloop
  endfacet
  facet normal -0.204995 0.413644 0.88706
    outer loop
      vertex -10.64 -1.92258 2.27573
      vertex -14.14 -2.90241 1.9238
      vertex -10.64 -2.41723 2.50639
    endloop
  endfacet
  facet normal 0.0988286 -0.90187 0.420551
    outer loop
      vertex -10.64 -2.41723 2.50639
      vertex -9.9366 -3.1409 0.789183
      vertex -10.3801 -2.37269 2.54083
    endloop
  endfacet
  facet normal 0.0988209 -0.901872 0.420548
    outer loop
      vertex -9.9366 -3.1409 0.789183
      vertex -10.64 -2.41723 2.50639
      vertex -10.64 -3.47377 0.240624
    endloop
  endfacet
  facet normal -0.0988231 -0.789474 0.605777
    outer loop
      vertex -9.76384 -3.44012 0.42741
      vertex -9.9366 -3.1409 0.789183
      vertex -10.64 -3.47377 0.240624
    endloop
  endfacet
  facet normal 0.204996 -0.413644 -0.88706
    outer loop
      vertex -10.64 -1.92258 -0.48271
      vertex -9.76384 -3.44012 0.42741
      vertex -10.64 -3.47377 0.240624
    endloop
  endfacet
  facet normal 0.204976 -0.413646 -0.887064
    outer loop
      vertex -10.64 2.41723 -2.50639
      vertex -10.4935 2.1763 -2.36019
      vertex -10.64 1.92258 -2.27573
    endloop
  endfacet
  facet normal -0.205007 -0.595845 -0.776493
    outer loop
      vertex -10.3801 2.37269 -2.54083
      vertex -10.4935 2.1763 -2.36019
      vertex -10.64 2.41723 -2.50639
    endloop
  endfacet
  facet normal 0.0988209 0.901872 -0.420548
    outer loop
      vertex -9.9366 3.1409 -0.789183
      vertex -10.64 2.41723 -2.50639
      vertex -10.64 3.47377 -0.240624
    endloop
  endfacet
  facet normal 0.0988286 0.90187 -0.420551
    outer loop
      vertex -10.64 2.41723 -2.50639
      vertex -9.9366 3.1409 -0.789183
      vertex -10.3801 2.37269 -2.54083
    endloop
  endfacet
  facet normal -0.0988231 0.789474 -0.605777
    outer loop
      vertex -9.76384 3.44012 -0.42741
      vertex -9.9366 3.1409 -0.789183
      vertex -10.64 3.47377 -0.240624
    endloop
  endfacet
  facet normal 0.204976 0.413646 0.887064
    outer loop
      vertex -10.4935 -2.1763 2.36019
      vertex -10.64 -1.92258 2.27573
      vertex -10.64 -2.41723 2.50639
    endloop
  endfacet
  facet normal 0.204996 0.413644 0.88706
    outer loop
      vertex -9.76384 3.44012 -0.42741
      vertex -10.64 3.47377 -0.240624
      vertex -10.64 1.92258 0.48271
    endloop
  endfacet
  facet normal -0.205007 0.595845 0.776493
    outer loop
      vertex -10.3801 -2.37269 2.54083
      vertex -10.4935 -2.1763 2.36019
      vertex -10.64 -2.41723 2.50639
    endloop
  endfacet
  facet normal 0.0988132 -0.789445 0.605816
    outer loop
      vertex -3.70545 -1.17279 3.25
      vertex -3.64 -1.1315 3.29313
      vertex -4.10739 -1.2231 3.25
    endloop
  endfacet
  facet normal -0.0988053 -0.639645 0.762294
    outer loop
      vertex -3.64 -1.1829 3.25
      vertex -3.64 -1.1315 3.29313
      vertex -3.70545 -1.17279 3.25
    endloop
  endfacet
  facet normal -0.205005 -0.749863 -0.62903
    outer loop
      vertex -3.64 1.1315 -3.29313
      vertex -3.64 1.09532 -3.25
      vertex -4.10739 1.2231 -3.25
    endloop
  endfacet
  facet normal 0.0988132 0.789445 -0.605816
    outer loop
      vertex -3.70545 1.17279 -3.25
      vertex -3.64 1.1315 -3.29313
      vertex -4.10739 1.2231 -3.25
    endloop
  endfacet
  facet normal -0.0988053 0.639645 -0.762294
    outer loop
      vertex -3.64 1.1829 -3.25
      vertex -3.64 1.1315 -3.29313
      vertex -3.70545 1.17279 -3.25
    endloop
  endfacet
  facet normal -0.205005 0.749863 0.62903
    outer loop
      vertex -3.64 -1.1315 3.29313
      vertex -3.64 -1.09532 3.25
      vertex -4.10739 -1.2231 3.25
    endloop
  endfacet
  facet normal 0 1 -0
    outer loop
      vertex 3.25 17.64 -1.25
      vertex -3.25 17.64 1.25
      vertex 3.25 17.64 1.25
    endloop
  endfacet
  facet normal 0 1 0
    outer loop
      vertex -3.25 17.64 1.25
      vertex 3.25 17.64 -1.25
      vertex -3.25 17.64 -1.25
    endloop
  endfacet
  facet normal 0 -1 0
    outer loop
      vertex -1.09532 3.64 3.25
      vertex -1.1315 3.64 3.29313
      vertex -1.1829 3.64 3.25
    endloop
  endfacet
  facet normal 0 -1 0
    outer loop
      vertex 1.1315 3.64 -3.29313
      vertex 1.1829 3.64 -3.25
      vertex 1.09532 3.64 -3.25
    endloop
  endfacet
  facet normal -0.995105 -0.0988253 0
    outer loop
      vertex -2.90241 14.14 1.9238
      vertex -3.25 17.64 1.25
      vertex -3.25 17.64 -1.25
    endloop
  endfacet
  facet normal -0.971517 0.0988242 0.21538
    outer loop
      vertex -2.90241 14.14 1.9238
      vertex -3.25 17.64 -1.25
      vertex -3.44351 14.14 -0.516941
    endloop
  endfacet
  facet normal 0 -0.204997 -0.978763
    outer loop
      vertex -3.25 17.64 -1.25
      vertex 3.25 17.64 -1.25
      vertex -3.44351 14.14 -0.516941
    endloop
  endfacet
  facet normal -0.211843 0.204998 -0.955562
    outer loop
      vertex 3.25 17.64 -1.25
      vertex 2.90241 14.14 -1.9238
      vertex -3.44351 14.14 -0.516941
    endloop
  endfacet
  facet normal 0.995105 -0.0988253 0
    outer loop
      vertex 3.25 17.64 -1.25
      vertex 3.25 17.64 1.25
      vertex 2.90241 14.14 -1.9238
    endloop
  endfacet
  facet normal 0.971517 0.0988242 -0.21538
    outer loop
      vertex 3.25 17.64 1.25
      vertex 3.44351 14.14 0.516941
      vertex 2.90241 14.14 -1.9238
    endloop
  endfacet
  facet normal 0 -0.204997 0.978763
    outer loop
      vertex 3.44351 14.14 0.516941
      vertex 3.25 17.64 1.25
      vertex -3.25 17.64 1.25
    endloop
  endfacet
  facet normal 0.211843 0.204998 0.955562
    outer loop
      vertex -2.90241 14.14 1.9238
      vertex 3.44351 14.14 0.516941
      vertex -3.25 17.64 1.25
    endloop
  endfacet
  facet normal -0.971517 -0.0988235 0.21538
    outer loop
      vertex -2.41723 10.64 2.50639
      vertex -2.90241 14.14 1.9238
      vertex -3.44351 14.14 -0.516941
    endloop
  endfacet
  facet normal -0.901872 0.0988238 0.420548
    outer loop
      vertex -2.41723 10.64 2.50639
      vertex -3.44351 14.14 -0.516941
      vertex -3.47377 10.64 0.240624
    endloop
  endfacet
  facet normal -0.211843 -0.204997 -0.955562
    outer loop
      vertex -3.44351 14.14 -0.516941
      vertex 2.90241 14.14 -1.9238
      vertex -3.47377 10.64 0.240624
    endloop
  endfacet
  facet normal -0.413643 0.204995 -0.887061
    outer loop
      vertex 2.90241 14.14 -1.9238
      vertex 2.41723 10.64 -2.50639
      vertex -3.47377 10.64 0.240624
    endloop
  endfacet
  facet normal 0.971517 -0.0988235 -0.21538
    outer loop
      vertex 2.90241 14.14 -1.9238
      vertex 3.44351 14.14 0.516941
      vertex 2.41723 10.64 -2.50639
    endloop
  endfacet
  facet normal 0.901872 0.0988238 -0.420548
    outer loop
      vertex 3.44351 14.14 0.516941
      vertex 3.47377 10.64 -0.240624
      vertex 2.41723 10.64 -2.50639
    endloop
  endfacet
  facet normal 0.211843 -0.204997 0.955562
    outer loop
      vertex 3.47377 10.64 -0.240624
      vertex 3.44351 14.14 0.516941
      vertex -2.90241 14.14 1.9238
    endloop
  endfacet
  facet normal 0.413643 0.204995 0.887061
    outer loop
      vertex -2.41723 10.64 2.50639
      vertex 3.47377 10.64 -0.240624
      vertex -2.90241 14.14 1.9238
    endloop
  endfacet
  facet normal -0.901873 -0.0988132 0.420549
    outer loop
      vertex -3.2541 10.1758 0.60264
      vertex -2.41723 10.64 2.50639
      vertex -3.47377 10.64 0.240624
    endloop
  endfacet
  facet normal -0.90187 -0.0988274 0.420551
    outer loop
      vertex -2.41723 10.64 2.50639
      vertex -3.2541 10.1758 0.60264
      vertex -2.33768 10.1758 2.5679
    endloop
  endfacet
  facet normal -0.789483 0.098818 0.605766
    outer loop
      vertex -3.45594 10.1758 0.339586
      vertex -3.2541 10.1758 0.60264
      vertex -3.47377 10.64 0.240624
    endloop
  endfacet
  facet normal -0.413643 -0.204999 -0.88706
    outer loop
      vertex -3.47377 10.64 0.240624
      vertex 1.65374 10.1758 -2.0431
      vertex -3.45594 10.1758 0.339586
    endloop
  endfacet
  facet normal -0.413643 -0.204986 -0.887062
    outer loop
      vertex 1.65374 10.1758 -2.0431
      vertex -3.47377 10.64 0.240624
      vertex 2.41723 10.64 -2.50639
    endloop
  endfacet
  facet normal -0.595828 0.205 -0.776507
    outer loop
      vertex 2.41723 10.64 -2.50639
      vertex 2.33768 10.1758 -2.5679
      vertex 1.65374 10.1758 -2.0431
    endloop
  endfacet
  facet normal 0.901873 -0.0988132 -0.420549
    outer loop
      vertex 3.2541 10.1758 -0.60264
      vertex 2.41723 10.64 -2.50639
      vertex 3.47377 10.64 -0.240624
    endloop
  endfacet
  facet normal 0.90187 -0.0988274 -0.420551
    outer loop
      vertex 2.41723 10.64 -2.50639
      vertex 3.2541 10.1758 -0.60264
      vertex 2.33768 10.1758 -2.5679
    endloop
  endfacet
  facet normal 0.789483 0.098818 -0.605766
    outer loop
      vertex 3.47377 10.64 -0.240624
      vertex 3.45594 10.1758 -0.339586
      vertex 3.2541 10.1758 -0.60264
    endloop
  endfacet
  facet normal 0.413643 -0.204999 0.88706
    outer loop
      vertex 3.47377 10.64 -0.240624
      vertex -1.65374 10.1758 2.0431
      vertex 3.45594 10.1758 -0.339586
    endloop
  endfacet
  facet normal 0.413643 -0.204986 0.887062
    outer loop
      vertex -1.65374 10.1758 2.0431
      vertex 3.47377 10.64 -0.240624
      vertex -2.41723 10.64 2.50639
    endloop
  endfacet
  facet normal 0.595828 0.205 0.776507
    outer loop
      vertex -2.33768 10.1758 2.5679
      vertex -1.65374 10.1758 2.0431
      vertex -2.41723 10.64 2.50639
    endloop
  endfacet
  facet normal -0.789445 -0.0988132 0.605816
    outer loop
      vertex -1.17279 3.70545 3.25
      vertex -1.1315 3.64 3.29313
      vertex -1.2231 4.10739 3.25
    endloop
  endfacet
  facet normal -0.639645 0.0988053 0.762294
    outer loop
      vertex -1.1315 3.64 3.29313
      vertex -1.17279 3.70545 3.25
      vertex -1.1829 3.64 3.25
    endloop
  endfacet
  facet normal -0.749863 0.205005 -0.62903
    outer loop
      vertex 1.2231 4.10739 -3.25
      vertex 1.1315 3.64 -3.29313
      vertex 1.09532 3.64 -3.25
    endloop
  endfacet
  facet normal 0.789445 -0.0988132 -0.605816
    outer loop
      vertex 1.2231 4.10739 -3.25
      vertex 1.17279 3.70545 -3.25
      vertex 1.1315 3.64 -3.29313
    endloop
  endfacet
  facet normal 0.639645 0.0988053 -0.762294
    outer loop
      vertex 1.17279 3.70545 -3.25
      vertex 1.1829 3.64 -3.25
      vertex 1.1315 3.64 -3.29313
    endloop
  endfacet
  facet normal 0.749863 0.205005 0.62903
    outer loop
      vertex -1.1315 3.64 3.29313
      vertex -1.09532 3.64 3.25
      vertex -1.2231 4.10739 3.25
    endloop
  endfacet
  facet normal 0 -1 0
    outer loop
      vertex -3.25 -17.64 -1.25
      vertex 3.25 -17.64 1.25
      vertex -3.25 -17.64 1.25
    endloop
  endfacet
  facet normal 0 -1 -0
    outer loop
      vertex 3.25 -17.64 1.25
      vertex -3.25 -17.64 -1.25
      vertex 3.25 -17.64 -1.25
    endloop
  endfacet
  facet normal 0 1 0
    outer loop
      vertex 1.1315 -3.64 3.29313
      vertex 1.1829 -3.64 3.25
      vertex 1.09532 -3.64 3.25
    endloop
  endfacet
  facet normal 0 1 0
    outer loop
      vertex -1.09532 -3.64 -3.25
      vertex -1.1315 -3.64 -3.29313
      vertex -1.1829 -3.64 -3.25
    endloop
  endfacet
  facet normal 0.995105 0.0988253 0
    outer loop
      vertex 3.25 -17.64 1.25
      vertex 3.25 -17.64 -1.25
      vertex 2.90241 -14.14 1.9238
    endloop
  endfacet
  facet normal 0.971517 -0.0988242 0.21538
    outer loop
      vertex 3.25 -17.64 -1.25
      vertex 3.44351 -14.14 -0.516941
      vertex 2.90241 -14.14 1.9238
    endloop
  endfacet
  facet normal 0 0.204997 -0.978763
    outer loop
      vertex 3.44351 -14.14 -0.516941
      vertex 3.25 -17.64 -1.25
      vertex -3.25 -17.64 -1.25
    endloop
  endfacet
  facet normal 0.211843 -0.204998 -0.955562
    outer loop
      vertex -2.90241 -14.14 -1.9238
      vertex 3.44351 -14.14 -0.516941
      vertex -3.25 -17.64 -1.25
    endloop
  endfacet
  facet normal -0.995105 0.0988253 0
    outer loop
      vertex -3.25 -17.64 1.25
      vertex -2.90241 -14.14 -1.9238
      vertex -3.25 -17.64 -1.25
    endloop
  endfacet
  facet normal -0.971517 -0.0988242 -0.21538
    outer loop
      vertex -2.90241 -14.14 -1.9238
      vertex -3.25 -17.64 1.25
      vertex -3.44351 -14.14 0.516941
    endloop
  endfacet
  facet normal -0 0.204997 0.978763
    outer loop
      vertex -3.25 -17.64 1.25
      vertex 3.25 -17.64 1.25
      vertex -3.44351 -14.14 0.516941
    endloop
  endfacet
  facet normal -0.211843 -0.204998 0.955562
    outer loop
      vertex 3.25 -17.64 1.25
      vertex 2.90241 -14.14 1.9238
      vertex -3.44351 -14.14 0.516941
    endloop
  endfacet
  facet normal 0.971517 0.0988235 0.21538
    outer loop
      vertex 2.90241 -14.14 1.9238
      vertex 3.44351 -14.14 -0.516941
      vertex 2.41723 -10.64 2.50639
    endloop
  endfacet
  facet normal 0.901872 -0.0988238 0.420548
    outer loop
      vertex 3.44351 -14.14 -0.516941
      vertex 3.47377 -10.64 0.240624
      vertex 2.41723 -10.64 2.50639
    endloop
  endfacet
  facet normal 0.211843 0.204997 -0.955562
    outer loop
      vertex 3.47377 -10.64 0.240624
      vertex 3.44351 -14.14 -0.516941
      vertex -2.90241 -14.14 -1.9238
    endloop
  endfacet
  facet normal 0.413643 -0.204995 -0.887061
    outer loop
      vertex -2.41723 -10.64 -2.50639
      vertex 3.47377 -10.64 0.240624
      vertex -2.90241 -14.14 -1.9238
    endloop
  endfacet
  facet normal -0.971517 0.0988235 -0.21538
    outer loop
      vertex -2.41723 -10.64 -2.50639
      vertex -2.90241 -14.14 -1.9238
      vertex -3.44351 -14.14 0.516941
    endloop
  endfacet
  facet normal -0.901872 -0.0988238 -0.420548
    outer loop
      vertex -2.41723 -10.64 -2.50639
      vertex -3.44351 -14.14 0.516941
      vertex -3.47377 -10.64 -0.240624
    endloop
  endfacet
  facet normal -0.211843 0.204997 0.955562
    outer loop
      vertex -3.44351 -14.14 0.516941
      vertex 2.90241 -14.14 1.9238
      vertex -3.47377 -10.64 -0.240624
    endloop
  endfacet
  facet normal -0.413643 -0.204995 0.887061
    outer loop
      vertex 2.90241 -14.14 1.9238
      vertex 2.41723 -10.64 2.50639
      vertex -3.47377 -10.64 -0.240624
    endloop
  endfacet
  facet normal 0.90187 0.0988274 0.420551
    outer loop
      vertex 2.41723 -10.64 2.50639
      vertex 3.2541 -10.1758 0.60264
      vertex 2.33768 -10.1758 2.5679
    endloop
  endfacet
  facet normal 0.901873 0.0988132 0.420549
    outer loop
      vertex 3.2541 -10.1758 0.60264
      vertex 2.41723 -10.64 2.50639
      vertex 3.47377 -10.64 0.240624
    endloop
  endfacet
  facet normal 0.789483 -0.098818 0.605766
    outer loop
      vertex 3.47377 -10.64 0.240624
      vertex 3.45594 -10.1758 0.339586
      vertex 3.2541 -10.1758 0.60264
    endloop
  endfacet
  facet normal 0.413643 0.204999 -0.88706
    outer loop
      vertex 3.47377 -10.64 0.240624
      vertex -1.65374 -10.1758 -2.0431
      vertex 3.45594 -10.1758 0.339586
    endloop
  endfacet
  facet normal 0.413643 0.204986 -0.887062
    outer loop
      vertex -1.65374 -10.1758 -2.0431
      vertex 3.47377 -10.64 0.240624
      vertex -2.41723 -10.64 -2.50639
    endloop
  endfacet
  facet normal 0.595828 -0.205 -0.776507
    outer loop
      vertex -2.33768 -10.1758 -2.5679
      vertex -1.65374 -10.1758 -2.0431
      vertex -2.41723 -10.64 -2.50639
    endloop
  endfacet
  facet normal -0.90187 0.0988274 -0.420551
    outer loop
      vertex -2.41723 -10.64 -2.50639
      vertex -3.2541 -10.1758 -0.60264
      vertex -2.33768 -10.1758 -2.5679
    endloop
  endfacet
  facet normal -0.901873 0.0988132 -0.420549
    outer loop
      vertex -3.2541 -10.1758 -0.60264
      vertex -2.41723 -10.64 -2.50639
      vertex -3.47377 -10.64 -0.240624
    endloop
  endfacet
  facet normal -0.789483 -0.098818 -0.605766
    outer loop
      vertex -3.45594 -10.1758 -0.339586
      vertex -3.2541 -10.1758 -0.60264
      vertex -3.47377 -10.64 -0.240624
    endloop
  endfacet
  facet normal -0.413643 0.204999 0.88706
    outer loop
      vertex -3.47377 -10.64 -0.240624
      vertex 1.65374 -10.1758 2.0431
      vertex -3.45594 -10.1758 -0.339586
    endloop
  endfacet
  facet normal -0.413643 0.204986 0.887062
    outer loop
      vertex 1.65374 -10.1758 2.0431
      vertex -3.47377 -10.64 -0.240624
      vertex 2.41723 -10.64 2.50639
    endloop
  endfacet
  facet normal -0.595828 -0.205 0.776507
    outer loop
      vertex 2.41723 -10.64 2.50639
      vertex 2.33768 -10.1758 2.5679
      vertex 1.65374 -10.1758 2.0431
    endloop
  endfacet
  facet normal 0.789445 0.0988132 0.605816
    outer loop
      vertex 1.2231 -4.10739 3.25
      vertex 1.17279 -3.70545 3.25
      vertex 1.1315 -3.64 3.29313
    endloop
  endfacet
  facet normal 0.639645 -0.0988053 0.762294
    outer loop
      vertex 1.17279 -3.70545 3.25
      vertex 1.1829 -3.64 3.25
      vertex 1.1315 -3.64 3.29313
    endloop
  endfacet
  facet normal 0.749863 -0.205005 -0.62903
    outer loop
      vertex -1.1315 -3.64 -3.29313
      vertex -1.09532 -3.64 -3.25
      vertex -1.2231 -4.10739 -3.25
    endloop
  endfacet
  facet normal -0.789445 0.0988132 -0.605816
    outer loop
      vertex -1.17279 -3.70545 -3.25
      vertex -1.1315 -3.64 -3.29313
      vertex -1.2231 -4.10739 -3.25
    endloop
  endfacet
  facet normal -0.639645 -0.0988053 -0.762294
    outer loop
      vertex -1.1315 -3.64 -3.29313
      vertex -1.17279 -3.70545 -3.25
      vertex -1.1829 -3.64 -3.25
    endloop
  endfacet
  facet normal -0.749863 -0.205005 0.62903
    outer loop
      vertex 1.2231 -4.10739 3.25
      vertex 1.1315 -3.64 3.29313
      vertex 1.09532 -3.64 3.25
    endloop
  endfacet
  facet normal 0.642783 0.766049 -0
    outer loop
      vertex 14.6892 11.6733 -1.25
      vertex 9.70987 15.8514 1.25
      vertex 14.6892 11.6733 1.25
    endloop
  endfacet
  facet normal 0.642783 0.766049 0
    outer loop
      vertex 9.70987 15.8514 1.25
      vertex 14.6892 11.6733 -1.25
      vertex 9.70987 15.8514 -1.25
    endloop
  endfacet
  facet normal -0.642721 -0.7661 -8.64845e-06
    outer loop
      vertex 2.34506 3.75548 3.25
      vertex 2.3337 3.76501 3.29313
      vertex 2.29433 3.79804 3.25
    endloop
  endfacet
  facet normal -0.642621 -0.766184 0.000185133
    outer loop
      vertex 4.06727 2.31037 -3.29313
      vertex 4.05592 2.3199 -3.25
      vertex 4.03955 2.33363 -3.25
    endloop
  endfacet
  facet normal -0.642896 -0.765954 -8.71144e-05
    outer loop
      vertex 2.34506 3.75548 3.25
      vertex 2.36143 3.74174 3.25
      vertex 2.3337 3.76501 3.29313
    endloop
  endfacet
  facet normal -0.642884 -0.765964 6.72631e-05
    outer loop
      vertex 4.06727 2.31037 -3.29313
      vertex 4.10664 2.27733 -3.25
      vertex 4.05592 2.3199 -3.25
    endloop
  endfacet
  facet normal -0.825819 0.563935 0
    outer loop
      vertex 9.70987 15.8514 1.25
      vertex 9.70987 15.8514 -1.25
      vertex 7.72638 12.9468 1.9238
    endloop
  endfacet
  facet normal -0.680706 0.700179 0.215378
    outer loop
      vertex 7.72638 12.9468 1.9238
      vertex 9.70987 15.8514 -1.25
      vertex 7.31187 13.2946 -0.516941
    endloop
  endfacet
  facet normal -0.131768 -0.157037 -0.978763
    outer loop
      vertex 9.70987 15.8514 -1.25
      vertex 14.6892 11.6733 -1.25
      vertex 7.31187 13.2946 -0.516941
    endloop
  endfacet
  facet normal -0.0305138 0.293205 -0.955562
    outer loop
      vertex 14.6892 11.6733 -1.25
      vertex 12.1731 9.21552 -1.9238
      vertex 7.31187 13.2946 -0.516941
    endloop
  endfacet
  facet normal 0.698768 -0.715349 0
    outer loop
      vertex 14.6892 11.6733 -1.25
      vertex 14.6892 11.6733 1.25
      vertex 12.1731 9.21552 -1.9238
    endloop
  endfacet
  facet normal 0.807742 -0.548785 -0.215378
    outer loop
      vertex 14.6892 11.6733 1.25
      vertex 12.5876 8.86771 0.516941
      vertex 12.1731 9.21552 -1.9238
    endloop
  endfacet
  facet normal -0.131765 -0.157034 0.978764
    outer loop
      vertex 12.5876 8.86771 0.516941
      vertex 14.6892 11.6733 1.25
      vertex 9.70987 15.8514 1.25
    endloop
  endfacet
  facet normal 0.294053 0.0208659 0.955561
    outer loop
      vertex 12.5876 8.86771 0.516941
      vertex 9.70987 15.8514 1.25
      vertex 7.72638 12.9468 1.9238
    endloop
  endfacet
  facet normal -0.80775 0.548774 0.215379
    outer loop
      vertex 5.91512 10.1063 2.36835
      vertex 7.72638 12.9468 1.9238
      vertex 7.31187 13.2946 -0.516941
    endloop
  endfacet
  facet normal -0.807715 0.548772 0.215514
    outer loop
      vertex 7.72638 12.9468 1.9238
      vertex 5.91512 10.1063 2.36835
      vertex 5.92897 10.0823 2.48137
    endloop
  endfacet
  facet normal -0.627342 0.655418 0.420557
    outer loop
      vertex 7.31187 13.2946 -0.516941
      vertex 5.58368 10.1758 1.76563
      vertex 5.875 10.1758 2.20019
    endloop
  endfacet
  facet normal -0.62735 0.655416 0.420549
    outer loop
      vertex 5.58368 10.1758 1.76563
      vertex 7.31187 13.2946 -0.516941
      vertex 5.03893 10.6329 0.240624
    endloop
  endfacet
  facet normal -0.627344 0.655418 0.420555
    outer loop
      vertex 7.31187 13.2946 -0.516941
      vertex 5.875 10.1758 2.20019
      vertex 5.91512 10.1063 2.36835
    endloop
  endfacet
  facet normal -0.294052 -0.0208656 -0.955562
    outer loop
      vertex 7.31187 13.2946 -0.516941
      vertex 12.1731 9.21552 -1.9238
      vertex 5.03893 10.6329 0.240624
    endloop
  endfacet
  facet normal -0.185101 0.42292 -0.88706
    outer loop
      vertex 6.14875 9.70165 -0.434942
      vertex 12.1731 9.21552 -1.9238
      vertex 9.5517 6.84624 -2.50639
    endloop
  endfacet
  facet normal -0.185102 0.422915 -0.887063
    outer loop
      vertex 5.875 10.1758 -0.151764
      vertex 12.1731 9.21552 -1.9238
      vertex 6.14875 9.70165 -0.434942
    endloop
  endfacet
  facet normal -0.185102 0.422915 -0.887062
    outer loop
      vertex 5.875 10.1758 -0.151764
      vertex 5.03893 10.6329 0.240624
      vertex 12.1731 9.21552 -1.9238
    endloop
  endfacet
  facet normal -0.185097 0.422922 -0.88706
    outer loop
      vertex 5.03893 10.6329 0.240624
      vertex 5.875 10.1758 -0.151764
      vertex 5.58368 10.1758 -0.0909761
    endloop
  endfacet
  facet normal 0.680705 -0.70018 -0.215378
    outer loop
      vertex 12.1731 9.21552 -1.9238
      vertex 12.5876 8.86771 0.516941
      vertex 9.5517 6.84624 -2.50639
    endloop
  endfacet
  facet normal 0.754403 -0.503988 -0.420561
    outer loop
      vertex 12.5876 8.86771 0.516941
      vertex 10.3611 6.1671 -0.240624
      vertex 9.5517 6.84624 -2.50639
    endloop
  endfacet
  facet normal 0.0305122 -0.293206 0.955562
    outer loop
      vertex 10.3611 6.1671 -0.240624
      vertex 12.5876 8.86771 0.516941
      vertex 7.72638 12.9468 1.9238
    endloop
  endfacet
  facet normal 0.448636 -0.108847 0.887061
    outer loop
      vertex 7.72638 12.9468 1.9238
      vertex 6.14875 9.70165 2.3235
      vertex 10.3611 6.1671 -0.240624
    endloop
  endfacet
  facet normal 0.448649 -0.108854 0.887054
    outer loop
      vertex 6.14875 9.70165 2.3235
      vertex 7.72638 12.9468 1.9238
      vertex 5.92897 10.0823 2.48137
    endloop
  endfacet
  facet normal -0.7544 0.504003 0.420549
    outer loop
      vertex 5.58368 10.1758 1.76563
      vertex 5.03893 10.6329 0.240624
      vertex 4.91923 10.1758 0.573708
    endloop
  endfacet
  facet normal -0.541257 0.583161 0.605776
    outer loop
      vertex 4.91923 10.1758 0.573708
      vertex 5.03893 10.6329 0.240624
      vertex 4.68437 10.1758 0.363862
    endloop
  endfacet
  facet normal -0.448642 0.108841 -0.887059
    outer loop
      vertex 5.03893 10.6329 0.240624
      vertex 5.58368 10.1758 -0.0909761
      vertex 4.68437 10.1758 0.363862
    endloop
  endfacet
  facet normal -0.44864 0.108845 -0.88706
    outer loop
      vertex 9.5517 6.84624 -2.50639
      vertex 7.6273 7.14072 -1.49697
      vertex 6.14875 9.70165 -0.434942
    endloop
  endfacet
  facet normal -0.324666 0.540034 -0.776502
    outer loop
      vertex 9.5517 6.84624 -2.50639
      vertex 8.37364 5.84802 -2.70806
      vertex 7.6273 7.14072 -1.49697
    endloop
  endfacet
  facet normal 0.627343 -0.655416 -0.42056
    outer loop
      vertex 8.64468 5.37857 -1.57211
      vertex 9.5517 6.84624 -2.50639
      vertex 10.3611 6.1671 -0.240624
    endloop
  endfacet
  facet normal 0.627353 -0.655414 -0.420548
    outer loop
      vertex 9.5517 6.84624 -2.50639
      vertex 8.64468 5.37857 -1.57211
      vertex 8.37364 5.84802 -2.70806
    endloop
  endfacet
  facet normal 0.668283 -0.431763 -0.605787
    outer loop
      vertex 10.3611 6.1671 -0.240624
      vertex 9.03426 4.70381 -0.661416
      vertex 8.64468 5.37857 -1.57211
    endloop
  endfacet
  facet normal 0.185096 -0.422924 0.88706
    outer loop
      vertex 9.03426 4.70381 -0.661416
      vertex 10.3611 6.1671 -0.240624
      vertex 6.14875 9.70165 2.3235
    endloop
  endfacet
  facet normal -0.66838 0.431803 0.605652
    outer loop
      vertex 2.56396 4.18192 3.25
      vertex 2.34415 3.84168 3.25
      vertex 2.3337 3.76501 3.29313
    endloop
  endfacet
  facet normal -0.426518 0.486919 0.762229
    outer loop
      vertex 2.3337 3.76501 3.29313
      vertex 2.34415 3.84168 3.25
      vertex 2.29433 3.79804 3.25
    endloop
  endfacet
  facet normal -0.442617 0.639011 -0.629091
    outer loop
      vertex 4.43787 2.60953 -3.25
      vertex 4.06727 2.31037 -3.29313
      vertex 4.03955 2.33363 -3.25
    endloop
  endfacet
  facet normal 0.541287 -0.583225 -0.605688
    outer loop
      vertex 4.43787 2.60953 -3.25
      vertex 4.14096 2.33397 -3.25
      vertex 4.06727 2.31037 -3.29313
    endloop
  endfacet
  facet normal 0.55357 -0.335426 -0.762266
    outer loop
      vertex 4.14096 2.33397 -3.25
      vertex 4.10664 2.27733 -3.25
      vertex 4.06727 2.31037 -3.29313
    endloop
  endfacet
  facet normal 0.706065 -0.324866 0.629233
    outer loop
      vertex 2.36143 3.74174 3.25
      vertex 2.56396 4.18192 3.25
      vertex 2.3337 3.76501 3.29313
    endloop
  endfacet
  facet normal -0.57358 0.819149 0
    outer loop
      vertex -9.05279 15.9982 -1.25
      vertex -14.3773 12.2699 1.25
      vertex -9.05279 15.9982 1.25
    endloop
  endfacet
  facet normal -0.57358 0.819149 0
    outer loop
      vertex -14.3773 12.2699 1.25
      vertex -9.05279 15.9982 -1.25
      vertex -14.3773 12.2699 -1.25
    endloop
  endfacet
  facet normal 0.573584 -0.819147 1.30258e-05
    outer loop
      vertex -4.5997 2.02543 3.25
      vertex -4.61184 2.01693 3.29313
      vertex -4.65394 1.98745 3.25
    endloop
  endfacet
  facet normal 0.573776 -0.819012 9.37533e-05
    outer loop
      vertex -2.75809 3.31494 -3.29313
      vertex -2.77023 3.30644 -3.25
      vertex -2.78773 3.29418 -3.25
    endloop
  endfacet
  facet normal 0.573557 -0.819166 1.51857e-06
    outer loop
      vertex -4.5997 2.02543 3.25
      vertex -4.58219 2.03769 3.25
      vertex -4.61184 2.01693 3.29313
    endloop
  endfacet
  facet normal 0.573584 -0.819147 1.30258e-05
    outer loop
      vertex -2.75809 3.31494 -3.29313
      vertex -2.71599 3.34442 -3.25
      vertex -2.77023 3.30644 -3.25
    endloop
  endfacet
  facet normal -0.758446 -0.651736 0
    outer loop
      vertex -12.085 9.60228 1.9238
      vertex -14.3773 12.2699 1.25
      vertex -14.3773 12.2699 -1.25
    endloop
  endfacet
  facet normal -0.8525 -0.476284 0.215401
    outer loop
      vertex -12.5283 9.29191 -0.516941
      vertex -12.085 9.60228 1.9238
      vertex -14.3773 12.2699 -1.25
    endloop
  endfacet
  facet normal 0.117583 -0.167925 -0.978762
    outer loop
      vertex -9.05279 15.9982 -1.25
      vertex -12.5283 9.29191 -0.516941
      vertex -14.3773 12.2699 -1.25
    endloop
  endfacet
  facet normal -0.291113 0.0464165 -0.955562
    outer loop
      vertex -9.05279 15.9982 -1.25
      vertex -7.33 12.9318 -1.9238
      vertex -12.5283 9.29191 -0.516941
    endloop
  endfacet
  facet normal 0.871826 0.489816 0
    outer loop
      vertex -9.05279 15.9982 1.25
      vertex -7.33 12.9318 -1.9238
      vertex -9.05279 15.9982 -1.25
    endloop
  endfacet
  facet normal 0.739149 0.638182 -0.215364
    outer loop
      vertex -6.88676 13.2421 0.516941
      vertex -7.33 12.9318 -1.9238
      vertex -9.05279 15.9982 1.25
    endloop
  endfacet
  facet normal 0.117581 -0.167921 0.978763
    outer loop
      vertex -6.88676 13.2421 0.516941
      vertex -9.05279 15.9982 1.25
      vertex -14.3773 12.2699 1.25
    endloop
  endfacet
  facet normal 0.0559494 0.289438 0.95556
    outer loop
      vertex -12.085 9.60228 1.9238
      vertex -6.88676 13.2421 0.516941
      vertex -14.3773 12.2699 1.25
    endloop
  endfacet
  facet normal -0.739142 -0.638179 0.215399
    outer loop
      vertex -9.68008 7.01353 2.50639
      vertex -12.085 9.60228 1.9238
      vertex -12.5283 9.29191 -0.516941
    endloop
  endfacet
  facet normal -0.795449 -0.436362 0.420534
    outer loop
      vertex -10.5455 6.40753 0.240624
      vertex -9.68008 7.01353 2.50639
      vertex -12.5283 9.29191 -0.516941
    endloop
  endfacet
  facet normal -0.0559484 -0.289433 -0.955562
    outer loop
      vertex -7.33 12.9318 -1.9238
      vertex -10.5455 6.40753 0.240624
      vertex -12.5283 9.29191 -0.516941
    endloop
  endfacet
  facet normal -0.45642 -0.0693325 -0.887059
    outer loop
      vertex -6.35755 9.33999 -2.14342
      vertex -7.33 12.9318 -1.9238
      vertex -5.89844 10.1352 -2.4418
    endloop
  endfacet
  facet normal -0.456421 -0.0693331 -0.887058
    outer loop
      vertex -7.33 12.9318 -1.9238
      vertex -6.35755 9.33999 -2.14342
      vertex -10.5455 6.40753 0.240624
    endloop
  endfacet
  facet normal 0.852507 0.476287 -0.215368
    outer loop
      vertex -5.85138 10.1758 -2.16577
      vertex -7.33 12.9318 -1.9238
      vertex -6.88676 13.2421 0.516941
    endloop
  endfacet
  facet normal 0.852493 0.476285 -0.215426
    outer loop
      vertex -5.875 10.1758 -2.25924
      vertex -7.33 12.9318 -1.9238
      vertex -5.85138 10.1758 -2.16577
    endloop
  endfacet
  facet normal 0.852504 0.476285 -0.215381
    outer loop
      vertex -7.33 12.9318 -1.9238
      vertex -5.875 10.1758 -2.25924
      vertex -5.89844 10.1352 -2.4418
    endloop
  endfacet
  facet normal 0.682069 0.598253 -0.420566
    outer loop
      vertex -5.1639 10.1758 -1.05074
      vertex -6.88676 13.2421 0.516941
      vertex -4.85445 10.3925 -0.240624
    endloop
  endfacet
  facet normal 0.682084 0.59825 -0.420544
    outer loop
      vertex -6.88676 13.2421 0.516941
      vertex -5.1639 10.1758 -1.05074
      vertex -5.85138 10.1758 -2.16577
    endloop
  endfacet
  facet normal 0.291115 -0.0464152 0.955562
    outer loop
      vertex -4.85445 10.3925 -0.240624
      vertex -6.88676 13.2421 0.516941
      vertex -12.085 9.60228 1.9238
    endloop
  endfacet
  facet normal 0.221261 0.405134 0.887079
    outer loop
      vertex -4.85445 10.3925 -0.240624
      vertex -5.875 10.1758 0.112896
      vertex -5.1639 10.1758 -0.0644709
    endloop
  endfacet
  facet normal 0.221257 0.405178 0.88706
    outer loop
      vertex -12.085 9.60228 1.9238
      vertex -6.35755 9.33999 0.615026
      vertex -5.875 10.1758 0.112896
    endloop
  endfacet
  facet normal 0.221257 0.405175 0.887062
    outer loop
      vertex -6.35755 9.33999 0.615026
      vertex -12.085 9.60228 1.9238
      vertex -9.68008 7.01353 2.50639
    endloop
  endfacet
  facet normal 0.221274 0.405096 0.887094
    outer loop
      vertex -12.085 9.60228 1.9238
      vertex -5.875 10.1758 0.112896
      vertex -4.85445 10.3925 -0.240624
    endloop
  endfacet
  facet normal -0.682092 -0.598247 0.420535
    outer loop
      vertex -8.66821 5.33781 1.76375
      vertex -9.68008 7.01353 2.50639
      vertex -10.5455 6.40753 0.240624
    endloop
  endfacet
  facet normal -0.682086 -0.598248 0.420546
    outer loop
      vertex -9.68008 7.01353 2.50639
      vertex -8.66821 5.33781 1.76375
      vertex -8.42965 5.75101 2.73847
    endloop
  endfacet
  facet normal -0.703387 -0.371858 0.605779
    outer loop
      vertex -9.12849 4.54059 0.739931
      vertex -8.66821 5.33781 1.76375
      vertex -10.5455 6.40753 0.240624
    endloop
  endfacet
  facet normal -0.221259 -0.405177 -0.88706
    outer loop
      vertex -6.35755 9.33999 -2.14342
      vertex -9.12849 4.54059 0.739931
      vertex -10.5455 6.40753 0.240624
    endloop
  endfacet
  facet normal 0.795465 0.436307 -0.420562
    outer loop
      vertex -4.85445 10.3925 -0.240624
      vertex -4.81751 10.1758 -0.395567
      vertex -5.1639 10.1758 -1.05074
    endloop
  endfacet
  facet normal 0.590038 0.533731 -0.605794
    outer loop
      vertex -4.71481 10.1758 -0.295538
      vertex -4.81751 10.1758 -0.395567
      vertex -4.85445 10.3925 -0.240624
    endloop
  endfacet
  facet normal 0.456416 0.0693333 0.887061
    outer loop
      vertex -7.62396 7.14651 1.43807
      vertex -6.35755 9.33999 0.615026
      vertex -9.68008 7.01353 2.50639
    endloop
  endfacet
  facet normal 0.456414 0.0693194 0.887063
    outer loop
      vertex -4.71481 10.1758 -0.295538
      vertex -4.85445 10.3925 -0.240624
      vertex -5.1639 10.1758 -0.0644709
    endloop
  endfacet
  facet normal 0.370492 0.509684 0.776504
    outer loop
      vertex -8.42965 5.75101 2.73847
      vertex -7.62396 7.14651 1.43807
      vertex -9.68008 7.01353 2.50639
    endloop
  endfacet
  facet normal -0.590013 -0.533759 0.605794
    outer loop
      vertex -4.6832 2.04686 3.25
      vertex -4.61184 2.01693 3.29313
      vertex -4.95495 2.34725 3.25
    endloop
  endfacet
  facet normal -0.58066 -0.285981 0.762265
    outer loop
      vertex -4.65394 1.98745 3.25
      vertex -4.61184 2.01693 3.29313
      vertex -4.6832 2.04686 3.25
    endloop
  endfacet
  facet normal -0.731795 -0.26215 -0.62909
    outer loop
      vertex -2.75809 3.31494 -3.29313
      vertex -2.78773 3.29418 -3.25
      vertex -2.95114 3.75034 -3.25
    endloop
  endfacet
  facet normal 0.703398 0.371881 -0.605752
    outer loop
      vertex -2.76181 3.39223 -3.25
      vertex -2.75809 3.31494 -3.29313
      vertex -2.95114 3.75034 -3.25
    endloop
  endfacet
  facet normal 0.467308 0.447857 -0.762265
    outer loop
      vertex -2.71599 3.34442 -3.25
      vertex -2.75809 3.31494 -3.29313
      vertex -2.76181 3.39223 -3.25
    endloop
  endfacet
  facet normal 0.49657 0.59795 0.629185
    outer loop
      vertex -4.61184 2.01693 3.29313
      vertex -4.58219 2.03769 3.25
      vertex -4.95495 2.34725 3.25
    endloop
  endfacet
  facet normal 0.499999 -0.866026 0
    outer loop
      vertex 8.38542 -16.0872 -1.25
      vertex 14.0146 -12.8372 1.25
      vertex 8.38542 -16.0872 1.25
    endloop
  endfacet
  facet normal 0.499999 -0.866026 0
    outer loop
      vertex 14.0146 -12.8372 1.25
      vertex 8.38542 -16.0872 -1.25
      vertex 14.0146 -12.8372 -1.25
    endloop
  endfacet
  facet normal -0.499983 0.866035 6.6738e-05
    outer loop
      vertex 5.17991 -1.77207 3.29313
      vertex 5.22442 -1.74637 3.25
      vertex 5.14857 -1.79016 3.25
    endloop
  endfacet
  facet normal -0.499983 0.866035 6.6738e-05
    outer loop
      vertex 3.25143 -2.88548 -3.25
      vertex 3.22009 -2.90357 -3.29313
      vertex 3.17558 -2.92927 -3.25
    endloop
  endfacet
  facet normal 0.812379 0.58313 0
    outer loop
      vertex 14.0146 -12.8372 1.25
      vertex 14.0146 -12.8372 -1.25
      vertex 11.9636 -9.97988 1.9238
    endloop
  endfacet
  facet normal 0.890774 0.400169 0.215378
    outer loop
      vertex 14.0146 -12.8372 -1.25
      vertex 12.4322 -9.70933 -0.516941
      vertex 11.9636 -9.97988 1.9238
    endloop
  endfacet
  facet normal -0.102498 0.177532 -0.978763
    outer loop
      vertex 12.4322 -9.70933 -0.516941
      vertex 14.0146 -12.8372 -1.25
      vertex 8.38542 -16.0872 -1.25
    endloop
  endfacet
  facet normal 0.285959 -0.0716118 -0.955562
    outer loop
      vertex 12.4322 -9.70933 -0.516941
      vertex 8.38542 -16.0872 -1.25
      vertex 6.93644 -12.8823 -1.9238
    endloop
  endfacet
  facet normal -0.911199 -0.411966 0
    outer loop
      vertex 8.38542 -16.0872 -1.25
      vertex 8.38542 -16.0872 1.25
      vertex 6.93644 -12.8823 -1.9238
    endloop
  endfacet
  facet normal -0.791955 -0.571334 -0.215371
    outer loop
      vertex 6.93644 -12.8823 -1.9238
      vertex 8.38542 -16.0872 1.25
      vertex 6.46783 -13.1528 0.516941
    endloop
  endfacet
  facet normal -0.102497 0.17753 0.978763
    outer loop
      vertex 8.38542 -16.0872 1.25
      vertex 14.0146 -12.8372 1.25
      vertex 6.46783 -13.1528 0.516941
    endloop
  endfacet
  facet normal -0.0809652 -0.283453 0.955562
    outer loop
      vertex 14.0146 -12.8372 1.25
      vertex 11.9636 -9.97988 1.9238
      vertex 6.46783 -13.1528 0.516941
    endloop
  endfacet
  facet normal 0.79194 0.571351 0.215378
    outer loop
      vertex 11.9636 -9.97988 1.9238
      vertex 12.4322 -9.70933 -0.516941
      vertex 9.79338 -7.19139 2.50639
    endloop
  endfacet
  facet normal 0.830452 0.365349 0.420558
    outer loop
      vertex 12.4322 -9.70933 -0.516941
      vertex 10.7084 -6.66311 0.240624
      vertex 9.79338 -7.19139 2.50639
    endloop
  endfacet
  facet normal 0.0809624 0.283454 -0.955562
    outer loop
      vertex 10.7084 -6.66311 0.240624
      vertex 12.4322 -9.70933 -0.516941
      vertex 6.93644 -12.8823 -1.9238
    endloop
  endfacet
  facet normal 0.460722 0.0292884 -0.887061
    outer loop
      vertex 6.93644 -12.8823 -1.9238
      vertex 6.50039 -9.0926 -2.02515
      vertex 10.7084 -6.66311 0.240624
    endloop
  endfacet
  facet normal 0.460722 0.0292884 -0.887061
    outer loop
      vertex 6.93644 -12.8823 -1.9238
      vertex 5.875 -10.1758 -2.38573
      vertex 6.50039 -9.0926 -2.02515
    endloop
  endfacet
  facet normal 0.460794 0.029323 -0.887023
    outer loop
      vertex 5.875 -10.1758 -2.38573
      vertex 6.93644 -12.8823 -1.9238
      vertex 5.83702 -10.1758 -2.40546
    endloop
  endfacet
  facet normal -0.89077 -0.400174 -0.215382
    outer loop
      vertex 6.93644 -12.8823 -1.9238
      vertex 5.74444 -10.1758 -2.02257
      vertex 5.83702 -10.1758 -2.40546
    endloop
  endfacet
  facet normal -0.890772 -0.400175 -0.215374
    outer loop
      vertex 5.74444 -10.1758 -2.02257
      vertex 6.93644 -12.8823 -1.9238
      vertex 6.46783 -13.1528 0.516941
    endloop
  endfacet
  facet normal -0.731628 -0.536526 -0.420548
    outer loop
      vertex 5.74444 -10.1758 -2.02257
      vertex 6.46783 -13.1528 0.516941
      vertex 4.71454 -10.1758 -0.23085
    endloop
  endfacet
  facet normal -0.285959 0.0716125 0.955562
    outer loop
      vertex 5.91269 -10.1105 0.122813
      vertex 6.46783 -13.1528 0.516941
      vertex 11.9636 -9.97988 1.9238
    endloop
  endfacet
  facet normal -0.285972 0.0716095 0.955558
    outer loop
      vertex 5.875 -10.1758 0.116427
      vertex 6.46783 -13.1528 0.516941
      vertex 5.91269 -10.1105 0.122813
    endloop
  endfacet
  facet normal -0.28596 0.0716125 0.955562
    outer loop
      vertex 6.46783 -13.1528 0.516941
      vertex 5.875 -10.1758 0.116427
      vertex 4.71454 -10.1758 -0.23085
    endloop
  endfacet
  facet normal -0.255725 -0.384356 0.88706
    outer loop
      vertex 6.50039 -9.0926 0.733296
      vertex 11.9636 -9.97988 1.9238
      vertex 9.79338 -7.19139 2.50639
    endloop
  endfacet
  facet normal -0.255726 -0.384363 0.887057
    outer loop
      vertex 11.9636 -9.97988 1.9238
      vertex 6.50039 -9.0926 0.733296
      vertex 5.91269 -10.1105 0.122813
    endloop
  endfacet
  facet normal 0.731633 0.536519 0.420547
    outer loop
      vertex 9.79338 -7.19139 2.50639
      vertex 8.70371 -5.27632 1.95893
      vertex 8.49807 -5.63251 2.7711
    endloop
  endfacet
  facet normal 0.731627 0.536519 0.420558
    outer loop
      vertex 8.70371 -5.27632 1.95893
      vertex 9.79338 -7.19139 2.50639
      vertex 10.7084 -6.66311 0.240624
    endloop
  endfacet
  facet normal 0.733109 0.309154 0.605785
    outer loop
      vertex 10.7084 -6.66311 0.240624
      vertex 9.24486 -4.33904 0.825712
      vertex 8.70371 -5.27632 1.95893
    endloop
  endfacet
  facet normal 0.255724 0.384356 -0.88706
    outer loop
      vertex 9.24486 -4.33904 0.825712
      vertex 10.7084 -6.66311 0.240624
      vertex 6.50039 -9.0926 -2.02515
    endloop
  endfacet
  facet normal -0.460723 -0.0292902 0.887061
    outer loop
      vertex 9.79338 -7.19139 2.50639
      vertex 7.62643 -7.14223 1.38254
      vertex 6.50039 -9.0926 0.733296
    endloop
  endfacet
  facet normal -0.413507 -0.475449 0.776505
    outer loop
      vertex 9.79338 -7.19139 2.50639
      vertex 8.49807 -5.63251 2.7711
      vertex 7.62643 -7.14223 1.38254
    endloop
  endfacet
  facet normal 0.634306 0.480331 0.605754
    outer loop
      vertex 5.49293 -2.13104 3.25
      vertex 5.24839 -1.80811 3.25
      vertex 5.17991 -1.77207 3.29313
    endloop
  endfacet
  facet normal 0.603379 0.234256 0.762272
    outer loop
      vertex 5.24839 -1.80811 3.25
      vertex 5.22442 -1.74637 3.25
      vertex 5.17991 -1.77207 3.29313
    endloop
  endfacet
  facet normal 0.751852 0.197356 -0.629103
    outer loop
      vertex 3.25143 -2.88548 -3.25
      vertex 3.37445 -3.35414 -3.25
      vertex 3.22009 -2.90357 -3.29313
    endloop
  endfacet
  facet normal -0.733114 -0.309144 -0.605783
    outer loop
      vertex 3.22009 -2.90357 -3.29313
      vertex 3.37445 -3.35414 -3.25
      vertex 3.21706 -2.9809 -3.25
    endloop
  endfacet
  facet normal -0.504577 -0.405382 -0.762278
    outer loop
      vertex 3.22009 -2.90357 -3.29313
      vertex 3.21706 -2.9809 -3.25
      vertex 3.17558 -2.92927 -3.25
    endloop
  endfacet
  facet normal -0.546862 -0.552445 0.629084
    outer loop
      vertex 5.49293 -2.13104 3.25
      vertex 5.17991 -1.77207 3.29313
      vertex 5.14857 -1.79016 3.25
    endloop
  endfacet
  facet normal -0.499999 -0.866026 0
    outer loop
      vertex -14.0146 -12.8372 -1.25
      vertex -8.38542 -16.0872 1.25
      vertex -14.0146 -12.8372 1.25
    endloop
  endfacet
  facet normal -0.499999 -0.866026 -0
    outer loop
      vertex -8.38542 -16.0872 1.25
      vertex -14.0146 -12.8372 -1.25
      vertex -8.38542 -16.0872 -1.25
    endloop
  endfacet
  facet normal 0.499983 0.866035 -6.6738e-05
    outer loop
      vertex -3.22009 -2.90357 3.29313
      vertex -3.17558 -2.92927 3.25
      vertex -3.25143 -2.88548 3.25
    endloop
  endfacet
  facet normal 0.499983 0.866035 -6.6738e-05
    outer loop
      vertex -5.14857 -1.79016 -3.25
      vertex -5.17991 -1.77207 -3.29313
      vertex -5.22442 -1.74637 -3.25
    endloop
  endfacet
  facet normal 0.911199 -0.411966 0
    outer loop
      vertex -6.93644 -12.8823 1.9238
      vertex -8.38542 -16.0872 1.25
      vertex -8.38542 -16.0872 -1.25
    endloop
  endfacet
  facet normal 0.791955 -0.571334 0.215371
    outer loop
      vertex -6.46783 -13.1528 -0.516941
      vertex -6.93644 -12.8823 1.9238
      vertex -8.38542 -16.0872 -1.25
    endloop
  endfacet
  facet normal 0.102497 0.17753 -0.978763
    outer loop
      vertex -6.46783 -13.1528 -0.516941
      vertex -8.38542 -16.0872 -1.25
      vertex -14.0146 -12.8372 -1.25
    endloop
  endfacet
  facet normal 0.0809652 -0.283453 -0.955562
    outer loop
      vertex -11.9636 -9.97988 -1.9238
      vertex -6.46783 -13.1528 -0.516941
      vertex -14.0146 -12.8372 -1.25
    endloop
  endfacet
  facet normal -0.812379 0.58313 0
    outer loop
      vertex -14.0146 -12.8372 1.25
      vertex -11.9636 -9.97988 -1.9238
      vertex -14.0146 -12.8372 -1.25
    endloop
  endfacet
  facet normal -0.890774 0.400169 -0.215378
    outer loop
      vertex -12.4322 -9.70933 0.516941
      vertex -11.9636 -9.97988 -1.9238
      vertex -14.0146 -12.8372 1.25
    endloop
  endfacet
  facet normal 0.102498 0.177532 0.978763
    outer loop
      vertex -8.38542 -16.0872 1.25
      vertex -12.4322 -9.70933 0.516941
      vertex -14.0146 -12.8372 1.25
    endloop
  endfacet
  facet normal -0.285959 -0.0716118 0.955562
    outer loop
      vertex -8.38542 -16.0872 1.25
      vertex -6.93644 -12.8823 1.9238
      vertex -12.4322 -9.70933 0.516941
    endloop
  endfacet
  facet normal 0.89077 -0.400174 0.215382
    outer loop
      vertex -6.93644 -12.8823 1.9238
      vertex -5.74444 -10.1758 2.02257
      vertex -5.83702 -10.1758 2.40546
    endloop
  endfacet
  facet normal 0.890772 -0.400175 0.215374
    outer loop
      vertex -5.74444 -10.1758 2.02257
      vertex -6.93644 -12.8823 1.9238
      vertex -6.46783 -13.1528 -0.516941
    endloop
  endfacet
  facet normal 0.731628 -0.536526 0.420548
    outer loop
      vertex -4.71454 -10.1758 0.23085
      vertex -5.74444 -10.1758 2.02257
      vertex -6.46783 -13.1528 -0.516941
    endloop
  endfacet
  facet normal 0.28596 0.0716125 -0.955562
    outer loop
      vertex -6.46783 -13.1528 -0.516941
      vertex -5.875 -10.1758 -0.116427
      vertex -4.71454 -10.1758 0.23085
    endloop
  endfacet
  facet normal 0.285972 0.0716095 -0.955558
    outer loop
      vertex -6.46783 -13.1528 -0.516941
      vertex -5.91269 -10.1105 -0.122813
      vertex -5.875 -10.1758 -0.116427
    endloop
  endfacet
  facet normal 0.285959 0.0716125 -0.955562
    outer loop
      vertex -5.91269 -10.1105 -0.122813
      vertex -6.46783 -13.1528 -0.516941
      vertex -11.9636 -9.97988 -1.9238
    endloop
  endfacet
  facet normal 0.255726 -0.384363 -0.887057
    outer loop
      vertex -11.9636 -9.97988 -1.9238
      vertex -6.50039 -9.0926 -0.733296
      vertex -5.91269 -10.1105 -0.122813
    endloop
  endfacet
  facet normal 0.255725 -0.384356 -0.88706
    outer loop
      vertex -6.50039 -9.0926 -0.733296
      vertex -11.9636 -9.97988 -1.9238
      vertex -9.79338 -7.19139 -2.50639
    endloop
  endfacet
  facet normal -0.79194 0.571351 -0.215378
    outer loop
      vertex -9.79338 -7.19139 -2.50639
      vertex -11.9636 -9.97988 -1.9238
      vertex -12.4322 -9.70933 0.516941
    endloop
  endfacet
  facet normal -0.830452 0.365349 -0.420558
    outer loop
      vertex -10.7084 -6.66311 -0.240624
      vertex -9.79338 -7.19139 -2.50639
      vertex -12.4322 -9.70933 0.516941
    endloop
  endfacet
  facet normal -0.0809624 0.283454 0.955562
    outer loop
      vertex -6.93644 -12.8823 1.9238
      vertex -10.7084 -6.66311 -0.240624
      vertex -12.4322 -9.70933 0.516941
    endloop
  endfacet
  facet normal -0.460794 0.029323 0.887023
    outer loop
      vertex -5.875 -10.1758 2.38573
      vertex -6.93644 -12.8823 1.9238
      vertex -5.83702 -10.1758 2.40546
    endloop
  endfacet
  facet normal -0.460722 0.0292884 0.887061
    outer loop
      vertex -6.50039 -9.0926 2.02515
      vertex -6.93644 -12.8823 1.9238
      vertex -5.875 -10.1758 2.38573
    endloop
  endfacet
  facet normal -0.460722 0.0292884 0.887061
    outer loop
      vertex -6.93644 -12.8823 1.9238
      vertex -6.50039 -9.0926 2.02515
      vertex -10.7084 -6.66311 -0.240624
    endloop
  endfacet
  facet normal 0.460723 -0.0292902 -0.887061
    outer loop
      vertex -7.62643 -7.14223 -1.38254
      vertex -6.50039 -9.0926 -0.733296
      vertex -9.79338 -7.19139 -2.50639
    endloop
  endfacet
  facet normal 0.413507 -0.475449 -0.776505
    outer loop
      vertex -8.49807 -5.63251 -2.7711
      vertex -7.62643 -7.14223 -1.38254
      vertex -9.79338 -7.19139 -2.50639
    endloop
  endfacet
  facet normal -0.731633 0.536519 -0.420547
    outer loop
      vertex -9.79338 -7.19139 -2.50639
      vertex -8.70371 -5.27632 -1.95893
      vertex -8.49807 -5.63251 -2.7711
    endloop
  endfacet
  facet normal -0.731627 0.536519 -0.420558
    outer loop
      vertex -8.70371 -5.27632 -1.95893
      vertex -9.79338 -7.19139 -2.50639
      vertex -10.7084 -6.66311 -0.240624
    endloop
  endfacet
  facet normal -0.733109 0.309154 -0.605785
    outer loop
      vertex -9.24486 -4.33904 -0.825712
      vertex -8.70371 -5.27632 -1.95893
      vertex -10.7084 -6.66311 -0.240624
    endloop
  endfacet
  facet normal -0.255724 0.384356 0.88706
    outer loop
      vertex -6.50039 -9.0926 2.02515
      vertex -9.24486 -4.33904 -0.825712
      vertex -10.7084 -6.66311 -0.240624
    endloop
  endfacet
  facet normal 0.733114 -0.309144 0.605783
    outer loop
      vertex -3.21706 -2.9809 3.25
      vertex -3.22009 -2.90357 3.29313
      vertex -3.37445 -3.35414 3.25
    endloop
  endfacet
  facet normal 0.504577 -0.405382 0.762278
    outer loop
      vertex -3.21706 -2.9809 3.25
      vertex -3.17558 -2.92927 3.25
      vertex -3.22009 -2.90357 3.29313
    endloop
  endfacet
  facet normal 0.546862 -0.552445 -0.629084
    outer loop
      vertex -5.17991 -1.77207 -3.29313
      vertex -5.14857 -1.79016 -3.25
      vertex -5.49293 -2.13104 -3.25
    endloop
  endfacet
  facet normal -0.634306 0.480331 -0.605754
    outer loop
      vertex -5.24839 -1.80811 -3.25
      vertex -5.17991 -1.77207 -3.29313
      vertex -5.49293 -2.13104 -3.25
    endloop
  endfacet
  facet normal -0.603379 0.234256 -0.762272
    outer loop
      vertex -5.22442 -1.74637 -3.25
      vertex -5.17991 -1.77207 -3.29313
      vertex -5.24839 -1.80811 -3.25
    endloop
  endfacet
  facet normal -0.751852 0.197356 0.629103
    outer loop
      vertex -3.22009 -2.90357 3.29313
      vertex -3.25143 -2.88548 3.25
      vertex -3.37445 -3.35414 3.25
    endloop
  endfacet
  facet normal 0 0 -1
    outer loop
      vertex -4.6832 2.04686 3.25
      vertex -4.5997 2.02543 3.25
      vertex -4.65394 1.98745 3.25
    endloop
  endfacet
  facet normal 0 0 -1
    outer loop
      vertex -4.5997 2.02543 3.25
      vertex -4.6832 2.04686 3.25
      vertex -4.58219 2.03769 3.25
    endloop
  endfacet
  facet normal 0 0 -1
    outer loop
      vertex -4.58219 2.03769 3.25
      vertex -4.6832 2.04686 3.25
      vertex -4.95495 2.34725 3.25
    endloop
  endfacet
  facet normal 0 0 -1
    outer loop
      vertex -3.70545 -1.17279 3.25
      vertex -3.64 -1.09532 3.25
      vertex -3.64 -1.1829 3.25
    endloop
  endfacet
  facet normal 0 0 -1
    outer loop
      vertex -3.64 -1.09532 3.25
      vertex -3.70545 -1.17279 3.25
      vertex -4.10739 -1.2231 3.25
    endloop
  endfacet
  facet normal 0 0 -1
    outer loop
      vertex -3.21706 -2.9809 3.25
      vertex -3.25143 -2.88548 3.25
      vertex -3.17558 -2.92927 3.25
    endloop
  endfacet
  facet normal 0 -0 -1
    outer loop
      vertex -3.25143 -2.88548 3.25
      vertex -3.21706 -2.9809 3.25
      vertex -3.37445 -3.35414 3.25
    endloop
  endfacet
  facet normal 0 0 -1
    outer loop
      vertex -1.09532 3.64 3.25
      vertex -1.1829 3.64 3.25
      vertex -1.17279 3.70545 3.25
    endloop
  endfacet
  facet normal 0 0 -1
    outer loop
      vertex -1.09532 3.64 3.25
      vertex -1.17279 3.70545 3.25
      vertex -1.2231 4.10739 3.25
    endloop
  endfacet
  facet normal 0 0 -1
    outer loop
      vertex 1.2231 -4.10739 3.25
      vertex 1.09532 -3.64 3.25
      vertex 1.17279 -3.70545 3.25
    endloop
  endfacet
  facet normal -0 0 -1
    outer loop
      vertex 1.1829 -3.64 3.25
      vertex 1.17279 -3.70545 3.25
      vertex 1.09532 -3.64 3.25
    endloop
  endfacet
  facet normal 0 0 -1
    outer loop
      vertex 2.34415 3.84168 3.25
      vertex 2.36143 3.74174 3.25
      vertex 2.34506 3.75548 3.25
    endloop
  endfacet
  facet normal 0 0 -1
    outer loop
      vertex 2.36143 3.74174 3.25
      vertex 2.34415 3.84168 3.25
      vertex 2.56396 4.18192 3.25
    endloop
  endfacet
  facet normal 0 -0 -1
    outer loop
      vertex 2.34415 3.84168 3.25
      vertex 2.34506 3.75548 3.25
      vertex 2.29433 3.79804 3.25
    endloop
  endfacet
  facet normal 0 0 -1
    outer loop
      vertex 5.24839 -1.80811 3.25
      vertex 5.14857 -1.79016 3.25
      vertex 5.22442 -1.74637 3.25
    endloop
  endfacet
  facet normal 0 0 -1
    outer loop
      vertex 5.14857 -1.79016 3.25
      vertex 5.24839 -1.80811 3.25
      vertex 5.49293 -2.13104 3.25
    endloop
  endfacet
  facet normal 0 0 -1
    outer loop
      vertex 3.64 1.09532 3.25
      vertex 3.70545 1.17279 3.25
      vertex 4.10739 1.2231 3.25
    endloop
  endfacet
  facet normal -0 0 -1
    outer loop
      vertex 3.70545 1.17279 3.25
      vertex 3.64 1.09532 3.25
      vertex 3.64 1.1829 3.25
    endloop
  endfacet
  facet normal 0 0 1
    outer loop
      vertex -5.24839 -1.80811 -3.25
      vertex -5.14857 -1.79016 -3.25
      vertex -5.22442 -1.74637 -3.25
    endloop
  endfacet
  facet normal 0 0 1
    outer loop
      vertex -5.14857 -1.79016 -3.25
      vertex -5.24839 -1.80811 -3.25
      vertex -5.49293 -2.13104 -3.25
    endloop
  endfacet
  facet normal -0 0 1
    outer loop
      vertex -3.70545 1.17279 -3.25
      vertex -3.64 1.09532 -3.25
      vertex -3.64 1.1829 -3.25
    endloop
  endfacet
  facet normal 0 0 1
    outer loop
      vertex -3.64 1.09532 -3.25
      vertex -3.70545 1.17279 -3.25
      vertex -4.10739 1.2231 -3.25
    endloop
  endfacet
  facet normal 0 0 1
    outer loop
      vertex -2.76181 3.39223 -3.25
      vertex -2.77023 3.30644 -3.25
      vertex -2.71599 3.34442 -3.25
    endloop
  endfacet
  facet normal 0 0 1
    outer loop
      vertex -2.76181 3.39223 -3.25
      vertex -2.78773 3.29418 -3.25
      vertex -2.77023 3.30644 -3.25
    endloop
  endfacet
  facet normal 0 -0 1
    outer loop
      vertex -2.78773 3.29418 -3.25
      vertex -2.76181 3.39223 -3.25
      vertex -2.95114 3.75034 -3.25
    endloop
  endfacet
  facet normal 0 0 1
    outer loop
      vertex -1.09532 -3.64 -3.25
      vertex -1.1829 -3.64 -3.25
      vertex -1.17279 -3.70545 -3.25
    endloop
  endfacet
  facet normal 0 0 1
    outer loop
      vertex -1.09532 -3.64 -3.25
      vertex -1.17279 -3.70545 -3.25
      vertex -1.2231 -4.10739 -3.25
    endloop
  endfacet
  facet normal 0 0 1
    outer loop
      vertex 1.2231 4.10739 -3.25
      vertex 1.09532 3.64 -3.25
      vertex 1.17279 3.70545 -3.25
    endloop
  endfacet
  facet normal 0 0 1
    outer loop
      vertex 1.1829 3.64 -3.25
      vertex 1.17279 3.70545 -3.25
      vertex 1.09532 3.64 -3.25
    endloop
  endfacet
  facet normal 0 0 1
    outer loop
      vertex 4.14096 2.33397 -3.25
      vertex 4.05592 2.3199 -3.25
      vertex 4.10664 2.27733 -3.25
    endloop
  endfacet
  facet normal 0 0 1
    outer loop
      vertex 4.03955 2.33363 -3.25
      vertex 4.14096 2.33397 -3.25
      vertex 4.43787 2.60953 -3.25
    endloop
  endfacet
  facet normal 0 0 1
    outer loop
      vertex 4.14096 2.33397 -3.25
      vertex 4.03955 2.33363 -3.25
      vertex 4.05592 2.3199 -3.25
    endloop
  endfacet
  facet normal 0 0 1
    outer loop
      vertex 3.25143 -2.88548 -3.25
      vertex 3.21706 -2.9809 -3.25
      vertex 3.37445 -3.35414 -3.25
    endloop
  endfacet
  facet normal 0 -0 1
    outer loop
      vertex 3.21706 -2.9809 -3.25
      vertex 3.25143 -2.88548 -3.25
      vertex 3.17558 -2.92927 -3.25
    endloop
  endfacet
  facet normal 0 0 1
    outer loop
      vertex 3.64 -1.09532 -3.25
      vertex 3.70545 -1.17279 -3.25
      vertex 4.10739 -1.2231 -3.25
    endloop
  endfacet
  facet normal 0 0 1
    outer loop
      vertex 3.70545 -1.17279 -3.25
      vertex 3.64 -1.09532 -3.25
      vertex 3.64 -1.1829 -3.25
    endloop
  endfacet
endsolid OpenSCAD_Model
