solid OpenSCAD_Model
  facet normal 0.866056 0.499947 0
    outer loop
      vertex 6.05917 10.2898 2.44098
      vertex 6 10.3923 2.04924
      vertex 6 10.3923 3.25
    endloop
  endfacet
  facet normal 0.865935 0.500157 7.32781e-05
    outer loop
      vertex 6 10.3923 2.04924
      vertex 6.05917 10.2898 2.44098
      vertex 6.02298 10.3525 2.14555
    endloop
  endfacet
  facet normal 0.866018 0.500012 -1.10516e-05
    outer loop
      vertex 6 10.3923 3.25
      vertex 6.63367 9.29476 2.02832
      vertex 6.05917 10.2898 2.44098
    endloop
  endfacet
  facet normal 0.866026 0.499999 5.24861e-06
    outer loop
      vertex 10.6076 2.41168 2.51068
      vertex 6.63367 9.29476 2.02832
      vertex 6 10.3923 3.25
    endloop
  endfacet
  facet normal 0.866005 0.500036 -0.000178477
    outer loop
      vertex 10.0084 3.44952 0.375269
      vertex 6.63367 9.29476 2.02832
      vertex 10.133 3.23382 0.636054
    endloop
  endfacet
  facet normal 0.866028 0.499996 8.86702e-06
    outer loop
      vertex 6.63367 9.29476 2.02832
      vertex 10.0084 3.44952 0.375269
      vertex 9.187 4.87226 -0.612974
    endloop
  endfacet
  facet normal 0.866026 0.5 2.88782e-05
    outer loop
      vertex 6.63367 9.29476 2.02832
      vertex 10.6076 2.41168 2.51068
      vertex 10.133 3.23382 0.636054
    endloop
  endfacet
  facet normal 0.864956 0.501835 -0.00373407
    outer loop
      vertex 10.6076 2.41168 2.51068
      vertex 10.64 2.35559 2.47765
      vertex 10.6217 2.38721 2.48818
    endloop
  endfacet
  facet normal 0.866025 0.5 -1.78678e-05
    outer loop
      vertex 12 0 3.25
      vertex 10.6076 2.41168 2.51068
      vertex 6 10.3923 3.25
    endloop
  endfacet
  facet normal 0.865986 0.500068 0.000276798
    outer loop
      vertex 12 0 3.25
      vertex 10.64 2.35559 2.47765
      vertex 10.6076 2.41168 2.51068
    endloop
  endfacet
  facet normal 0.866025 0.5 0
    outer loop
      vertex 10.64 2.35559 2.47765
      vertex 12 0 3.25
      vertex 12 0 1.06493
    endloop
  endfacet
  facet normal 0.866024 0.500003 0
    outer loop
      vertex 6.63367 9.29476 -0.730125
      vertex 6 10.3923 -3.25
      vertex 6 10.3923 -0.074624
    endloop
  endfacet
  facet normal 0.866025 0.5 -1.62458e-06
    outer loop
      vertex 7.90153 7.09876 -1.64082
      vertex 6 10.3923 -3.25
      vertex 6.63367 9.29476 -0.730125
    endloop
  endfacet
  facet normal 0.866025 0.500001 9.44371e-07
    outer loop
      vertex 8.54152 5.99027 -2.67932
      vertex 6 10.3923 -3.25
      vertex 7.90153 7.09876 -1.64082
    endloop
  endfacet
  facet normal 0.866026 0.499999 -6.81992e-06
    outer loop
      vertex 10.64 2.35559 -0.280793
      vertex 8.84227 5.46934 -1.41883
      vertex 9.187 4.87226 -0.612974
    endloop
  endfacet
  facet normal 0.866024 0.500002 2.08425e-05
    outer loop
      vertex 10.64 2.35559 -0.280793
      vertex 9.187 4.87226 -0.612974
      vertex 10.0084 3.44952 0.375269
    endloop
  endfacet
  facet normal 0.866023 0.500003 8.10306e-06
    outer loop
      vertex 8.84227 5.46934 -1.41883
      vertex 10.64 2.35559 -0.280793
      vertex 8.54152 5.99027 -2.67932
    endloop
  endfacet
  facet normal 0.866025 0.5 -0
    outer loop
      vertex 12 0 -3.25
      vertex 10.64 2.35559 -0.280793
      vertex 12 0 -1.06493
    endloop
  endfacet
  facet normal 0.866025 0.5 -8.51265e-06
    outer loop
      vertex 8.54152 5.99027 -2.67932
      vertex 12 0 -3.25
      vertex 6 10.3923 -3.25
    endloop
  endfacet
  facet normal 0.866026 0.5 3.31661e-07
    outer loop
      vertex 10.64 2.35559 -0.280793
      vertex 12 0 -3.25
      vertex 8.54152 5.99027 -2.67932
    endloop
  endfacet
  facet normal -0.866092 0.499885 0
    outer loop
      vertex -6 10.3923 -3.25
      vertex -6.01593 10.3647 -2.39929
      vertex -6 10.3923 -2.27523
    endloop
  endfacet
  facet normal -0.866023 0.500004 5.11971e-06
    outer loop
      vertex -6 10.3923 -3.25
      vertex -6.7772 9.04615 -1.90453
      vertex -6.01593 10.3647 -2.39929
    endloop
  endfacet
  facet normal -0.866026 0.499999 -1.52219e-06
    outer loop
      vertex -10.6076 2.41168 -2.51068
      vertex -6.7772 9.04615 -1.90453
      vertex -6 10.3923 -3.25
    endloop
  endfacet
  facet normal -0.866027 0.499997 -6.64713e-06
    outer loop
      vertex -6.7772 9.04615 -1.90453
      vertex -10.0084 3.44952 -0.375269
      vertex -9.27048 4.72766 0.689899
    endloop
  endfacet
  facet normal -0.866005 0.500035 0.000179194
    outer loop
      vertex -6.7772 9.04615 -1.90453
      vertex -10.133 3.23382 -0.636054
      vertex -10.0084 3.44952 -0.375269
    endloop
  endfacet
  facet normal -0.866025 0.500001 -2.94212e-05
    outer loop
      vertex -6.7772 9.04615 -1.90453
      vertex -10.6076 2.41168 -2.51068
      vertex -10.133 3.23382 -0.636054
    endloop
  endfacet
  facet normal -0.864956 0.501835 0.00373407
    outer loop
      vertex -10.6076 2.41168 -2.51068
      vertex -10.64 2.35559 -2.47765
      vertex -10.6217 2.38721 -2.48818
    endloop
  endfacet
  facet normal -0.866025 0.5 1.78678e-05
    outer loop
      vertex -12 0 -3.25
      vertex -10.6076 2.41168 -2.51068
      vertex -6 10.3923 -3.25
    endloop
  endfacet
  facet normal -0.865986 0.500068 -0.000276798
    outer loop
      vertex -12 0 -3.25
      vertex -10.64 2.35559 -2.47765
      vertex -10.6076 2.41168 -2.51068
    endloop
  endfacet
  facet normal -0.866025 0.5 0
    outer loop
      vertex -10.64 2.35559 -2.47765
      vertex -12 0 -3.25
      vertex -12 0 -1.06493
    endloop
  endfacet
  facet normal -0.865965 0.500105 0
    outer loop
      vertex -6.07704 10.2589 0.125349
      vertex -6 10.3923 3.25
      vertex -6 10.3923 0.10836
    endloop
  endfacet
  facet normal -0.86603 0.499991 6.44318e-06
    outer loop
      vertex -6.7772 9.04615 0.853914
      vertex -6 10.3923 3.25
      vertex -6.07704 10.2589 0.125349
    endloop
  endfacet
  facet normal -0.866024 0.500002 -1.82755e-06
    outer loop
      vertex -7.88366 7.12972 1.573
      vertex -6 10.3923 3.25
      vertex -6.7772 9.04615 0.853914
    endloop
  endfacet
  facet normal -0.866025 0.5 3.69141e-06
    outer loop
      vertex -8.58759 5.91047 2.70916
      vertex -6 10.3923 3.25
      vertex -7.88366 7.12972 1.573
    endloop
  endfacet
  facet normal -0.866024 0.500002 -8.55437e-06
    outer loop
      vertex -10.64 2.35559 0.280793
      vertex -8.85633 5.445 1.61113
      vertex -9.27048 4.72766 0.689899
    endloop
  endfacet
  facet normal -0.866023 0.500004 -1.74602e-05
    outer loop
      vertex -10.64 2.35559 0.280793
      vertex -9.27048 4.72766 0.689899
      vertex -10.0084 3.44952 -0.375269
    endloop
  endfacet
  facet normal -0.866026 0.5 -1.6781e-07
    outer loop
      vertex -12 0 3.25
      vertex -8.85633 5.445 1.61113
      vertex -10.64 2.35559 0.280793
    endloop
  endfacet
  facet normal -0.866025 0.5 0
    outer loop
      vertex -12 0 3.25
      vertex -10.64 2.35559 0.280793
      vertex -12 0 1.06493
    endloop
  endfacet
  facet normal -0.866025 0.5 4.86235e-06
    outer loop
      vertex -8.58759 5.91047 2.70916
      vertex -12 0 3.25
      vertex -6 10.3923 3.25
    endloop
  endfacet
  facet normal -0.866025 0.5 6.71214e-07
    outer loop
      vertex -8.85633 5.445 1.61113
      vertex -12 0 3.25
      vertex -8.58759 5.91047 2.70916
    endloop
  endfacet
  facet normal 0 1 0
    outer loop
      vertex 6 10.3923 3.25
      vertex -2.37478 10.3923 2.53921
      vertex -6 10.3923 3.25
    endloop
  endfacet
  facet normal 0 1 0
    outer loop
      vertex 6 10.3923 3.25
      vertex -2.00983 10.3923 2.25918
      vertex -2.37478 10.3923 2.53921
    endloop
  endfacet
  facet normal 0 1 0
    outer loop
      vertex 5.32566 10.3923 1.04331
      vertex 6 10.3923 3.25
      vertex 6 10.3923 2.04924
    endloop
  endfacet
  facet normal 0 1 0
    outer loop
      vertex 3.46426 10.3923 -0.29343
      vertex 6 10.3923 3.25
      vertex 5.32566 10.3923 1.04331
    endloop
  endfacet
  facet normal 0 1 0
    outer loop
      vertex 4.85231 10.3923 0.30549
      vertex 5.32566 10.3923 1.04331
      vertex 4.97593 10.3923 0.415942
    endloop
  endfacet
  facet normal 0 1 0
    outer loop
      vertex 5.32566 10.3923 1.04331
      vertex 4.85231 10.3923 0.30549
      vertex 3.46426 10.3923 -0.29343
    endloop
  endfacet
  facet normal 0 1 0
    outer loop
      vertex 3.46426 10.3923 -0.29343
      vertex 4.85231 10.3923 0.30549
      vertex 5.32566 10.3923 0.0660873
    endloop
  endfacet
  facet normal 0 1 0
    outer loop
      vertex 6 10.3923 3.25
      vertex 3.46426 10.3923 -0.29343
      vertex -2.00983 10.3923 2.25918
    endloop
  endfacet
  facet normal 0 1 -0
    outer loop
      vertex 6 10.3923 -3.25
      vertex 5.32566 10.3923 0.0660873
      vertex 6 10.3923 -0.074624
    endloop
  endfacet
  facet normal 0 1 0
    outer loop
      vertex 5.32566 10.3923 0.0660873
      vertex 3.35655 10.3923 -0.433794
      vertex 3.46426 10.3923 -0.29343
    endloop
  endfacet
  facet normal 0 1 0
    outer loop
      vertex 5.32566 10.3923 0.0660873
      vertex 6 10.3923 -3.25
      vertex 3.35655 10.3923 -0.433794
    endloop
  endfacet
  facet normal 0 1 0
    outer loop
      vertex 3.35655 10.3923 -0.433794
      vertex 6 10.3923 -3.25
      vertex 2.37478 10.3923 -2.53921
    endloop
  endfacet
  facet normal 0 1 -0
    outer loop
      vertex -3.35655 10.3923 0.433794
      vertex -6 10.3923 3.25
      vertex -2.37478 10.3923 2.53921
    endloop
  endfacet
  facet normal 0 1 0
    outer loop
      vertex -4.856 10.3923 -0.240159
      vertex -3.35655 10.3923 0.433794
      vertex -3.46426 10.3923 0.29343
    endloop
  endfacet
  facet normal 0 1 0
    outer loop
      vertex -3.35655 10.3923 0.433794
      vertex -4.856 10.3923 -0.240159
      vertex -6 10.3923 3.25
    endloop
  endfacet
  facet normal 0 1 0
    outer loop
      vertex -6 10.3923 3.25
      vertex -4.856 10.3923 -0.240159
      vertex -6 10.3923 0.10836
    endloop
  endfacet
  facet normal 0 1 0
    outer loop
      vertex -3.46426 10.3923 0.29343
      vertex -4.85469 10.3923 -0.240486
      vertex -4.856 10.3923 -0.240159
    endloop
  endfacet
  facet normal 0 1 0
    outer loop
      vertex -3.46426 10.3923 0.29343
      vertex -4.85434 10.3923 -0.240667
      vertex -4.85469 10.3923 -0.240486
    endloop
  endfacet
  facet normal 0 1 0
    outer loop
      vertex -4.85469 10.3923 -0.241259
      vertex -4.85434 10.3923 -0.240667
      vertex -3.46426 10.3923 0.29343
    endloop
  endfacet
  facet normal 0 1 0
    outer loop
      vertex -4.85434 10.3923 -0.240667
      vertex -4.85469 10.3923 -0.241259
      vertex -4.85442 10.3923 -0.240746
    endloop
  endfacet
  facet normal 0 1 0
    outer loop
      vertex -3.46426 10.3923 0.29343
      vertex -5.92449 10.3923 -1.97635
      vertex -4.85469 10.3923 -0.241259
    endloop
  endfacet
  facet normal 0 1 0
    outer loop
      vertex -6 10.3923 -3.25
      vertex -3.46426 10.3923 0.29343
      vertex 2.00983 10.3923 -2.25918
    endloop
  endfacet
  facet normal 0 1 0
    outer loop
      vertex -3.46426 10.3923 0.29343
      vertex -6 10.3923 -3.25
      vertex -5.92449 10.3923 -1.97635
    endloop
  endfacet
  facet normal 0 1 0
    outer loop
      vertex -6 10.3923 -3.25
      vertex 2.00983 10.3923 -2.25918
      vertex 2.37478 10.3923 -2.53921
    endloop
  endfacet
  facet normal 0 1 0
    outer loop
      vertex -6 10.3923 -3.25
      vertex 2.37478 10.3923 -2.53921
      vertex 6 10.3923 -3.25
    endloop
  endfacet
  facet normal 0 1 0
    outer loop
      vertex -5.92449 10.3923 -1.97635
      vertex -6 10.3923 -3.25
      vertex -6 10.3923 -2.27523
    endloop
  endfacet
  facet normal 0 0 1
    outer loop
      vertex 6 10.3923 3.25
      vertex 10.32 0 3.25
      vertex 12 0 3.25
    endloop
  endfacet
  facet normal 0 0 1
    outer loop
      vertex 6 10.3923 3.25
      vertex 5.16 8.93738 3.25
      vertex 10.32 0 3.25
    endloop
  endfacet
  facet normal 0 0 1
    outer loop
      vertex 6 10.3923 3.25
      vertex -5.16 8.93738 3.25
      vertex 5.16 8.93738 3.25
    endloop
  endfacet
  facet normal -0 0 1
    outer loop
      vertex -6 10.3923 3.25
      vertex -5.16 8.93738 3.25
      vertex 6 10.3923 3.25
    endloop
  endfacet
  facet normal 0 0 1
    outer loop
      vertex -6 10.3923 3.25
      vertex -10.32 0 3.25
      vertex -5.16 8.93738 3.25
    endloop
  endfacet
  facet normal 0 -0 1
    outer loop
      vertex -10.32 0 3.25
      vertex -6 10.3923 3.25
      vertex -12 0 3.25
    endloop
  endfacet
  facet normal -0 0 1
    outer loop
      vertex 10.32 0 3.25
      vertex 6 -10.3923 3.25
      vertex 12 0 3.25
    endloop
  endfacet
  facet normal -0 0 1
    outer loop
      vertex 5.16 -8.93738 3.25
      vertex 6 -10.3923 3.25
      vertex 10.32 0 3.25
    endloop
  endfacet
  facet normal -0 0 1
    outer loop
      vertex -5.16 -8.93738 3.25
      vertex 6 -10.3923 3.25
      vertex 5.16 -8.93738 3.25
    endloop
  endfacet
  facet normal 0 0 1
    outer loop
      vertex -5.16 -8.93738 3.25
      vertex -6 -10.3923 3.25
      vertex 6 -10.3923 3.25
    endloop
  endfacet
  facet normal 0 0 1
    outer loop
      vertex -10.32 0 3.25
      vertex -6 -10.3923 3.25
      vertex -5.16 -8.93738 3.25
    endloop
  endfacet
  facet normal 0 0 1
    outer loop
      vertex -6 -10.3923 3.25
      vertex -10.32 0 3.25
      vertex -12 0 3.25
    endloop
  endfacet
  facet normal -0.866025 -0.5 0
    outer loop
      vertex -12 0 -3.25
      vertex -10.64 -2.35559 -0.280793
      vertex -12 0 -1.06493
    endloop
  endfacet
  facet normal -0.866025 -0.5 -2.74764e-07
    outer loop
      vertex -8.88236 -5.39991 -1.8058
      vertex -10.64 -2.35559 -0.280793
      vertex -12 0 -3.25
    endloop
  endfacet
  facet normal -0.866024 -0.500003 1.86449e-05
    outer loop
      vertex -10.64 -2.35559 -0.280793
      vertex -9.37528 -4.54615 -0.773571
      vertex -10.0084 -3.44952 0.375269
    endloop
  endfacet
  facet normal -0.866026 -0.5 -1.64129e-06
    outer loop
      vertex -10.64 -2.35559 -0.280793
      vertex -8.88236 -5.39991 -1.8058
      vertex -9.37528 -4.54615 -0.773571
    endloop
  endfacet
  facet normal -0.866026 -0.5 2.42935e-06
    outer loop
      vertex -12 0 -3.25
      vertex -8.64558 -5.81003 -2.74096
      vertex -8.88236 -5.39991 -1.8058
    endloop
  endfacet
  facet normal -0.866025 -0.500001 3.1842e-06
    outer loop
      vertex -6 -10.3923 -3.25
      vertex -7.8732 -7.14782 -1.51052
      vertex -8.64558 -5.81003 -2.74096
    endloop
  endfacet
  facet normal -0.866025 -0.5 -6.71755e-06
    outer loop
      vertex -6 -10.3923 -3.25
      vertex -8.64558 -5.81003 -2.74096
      vertex -12 0 -3.25
    endloop
  endfacet
  facet normal -0.866026 -0.499998 -3.69226e-06
    outer loop
      vertex -7.8732 -7.14782 -1.51052
      vertex -6 -10.3923 -3.25
      vertex -6.87539 -8.87609 -0.935213
    endloop
  endfacet
  facet normal -0.866029 -0.499993 -7.92466e-06
    outer loop
      vertex -6 -10.3923 -3.25
      vertex -6.16584 -10.1051 -0.198163
      vertex -6.87539 -8.87609 -0.935213
    endloop
  endfacet
  facet normal -0.865993 -0.500057 0
    outer loop
      vertex -6.16584 -10.1051 -0.198163
      vertex -6 -10.3923 -3.25
      vertex -6 -10.3923 -0.17006
    endloop
  endfacet
  facet normal -0.866025 -0.5 0
    outer loop
      vertex -10.64 -2.35559 2.47765
      vertex -12 0 3.25
      vertex -12 0 1.06493
    endloop
  endfacet
  facet normal -0.864956 -0.501835 -0.00373407
    outer loop
      vertex -10.6076 -2.41168 2.51068
      vertex -10.64 -2.35559 2.47765
      vertex -10.6217 -2.38721 2.48818
    endloop
  endfacet
  facet normal -0.865986 -0.500068 0.000276798
    outer loop
      vertex -10.64 -2.35559 2.47765
      vertex -10.6076 -2.41168 2.51068
      vertex -12 0 3.25
    endloop
  endfacet
  facet normal -0.866006 -0.500034 -0.000180654
    outer loop
      vertex -6.87539 -8.87609 1.82323
      vertex -10.133 -3.23382 0.636054
      vertex -10.0084 -3.44952 0.375269
    endloop
  endfacet
  facet normal -0.866028 -0.499996 9.16254e-06
    outer loop
      vertex -6.87539 -8.87609 1.82323
      vertex -10.0084 -3.44952 0.375269
      vertex -9.37528 -4.54615 -0.773571
    endloop
  endfacet
  facet normal -0.866025 -0.5 2.92451e-05
    outer loop
      vertex -10.133 -3.23382 0.636054
      vertex -6.87539 -8.87609 1.82323
      vertex -10.6076 -2.41168 2.51068
    endloop
  endfacet
  facet normal -0.866026 -0.499999 5.54648e-06
    outer loop
      vertex -6 -10.3923 3.25
      vertex -10.6076 -2.41168 2.51068
      vertex -6.87539 -8.87609 1.82323
    endloop
  endfacet
  facet normal -0.866024 -0.500002 -0
    outer loop
      vertex -6 -10.3923 3.25
      vertex -6.87539 -8.87609 1.82323
      vertex -6 -10.3923 2.32795
    endloop
  endfacet
  facet normal -0.866025 -0.5 -1.78678e-05
    outer loop
      vertex -10.6076 -2.41168 2.51068
      vertex -6 -10.3923 3.25
      vertex -12 0 3.25
    endloop
  endfacet
  facet normal 0 0 -1
    outer loop
      vertex 6 -10.3923 -3.25
      vertex 10.32 0 -3.25
      vertex 12 0 -3.25
    endloop
  endfacet
  facet normal 0 0 -1
    outer loop
      vertex 6 -10.3923 -3.25
      vertex 5.16 -8.93738 -3.25
      vertex 10.32 0 -3.25
    endloop
  endfacet
  facet normal 0 0 -1
    outer loop
      vertex 6 -10.3923 -3.25
      vertex -5.16 -8.93738 -3.25
      vertex 5.16 -8.93738 -3.25
    endloop
  endfacet
  facet normal 0 0 -1
    outer loop
      vertex -6 -10.3923 -3.25
      vertex -5.16 -8.93738 -3.25
      vertex 6 -10.3923 -3.25
    endloop
  endfacet
  facet normal 0 0 -1
    outer loop
      vertex -6 -10.3923 -3.25
      vertex -10.32 0 -3.25
      vertex -5.16 -8.93738 -3.25
    endloop
  endfacet
  facet normal -0 -0 -1
    outer loop
      vertex -10.32 0 -3.25
      vertex -6 -10.3923 -3.25
      vertex -12 0 -3.25
    endloop
  endfacet
  facet normal 0 0 -1
    outer loop
      vertex 10.32 0 -3.25
      vertex 6 10.3923 -3.25
      vertex 12 0 -3.25
    endloop
  endfacet
  facet normal 0 0 -1
    outer loop
      vertex 5.16 8.93738 -3.25
      vertex 6 10.3923 -3.25
      vertex 10.32 0 -3.25
    endloop
  endfacet
  facet normal 0 0 -1
    outer loop
      vertex -5.16 8.93738 -3.25
      vertex 6 10.3923 -3.25
      vertex 5.16 8.93738 -3.25
    endloop
  endfacet
  facet normal 0 0 -1
    outer loop
      vertex -5.16 8.93738 -3.25
      vertex -6 10.3923 -3.25
      vertex 6 10.3923 -3.25
    endloop
  endfacet
  facet normal 0 0 -1
    outer loop
      vertex -10.32 0 -3.25
      vertex -6 10.3923 -3.25
      vertex -5.16 8.93738 -3.25
    endloop
  endfacet
  facet normal 0 0 -1
    outer loop
      vertex -6 10.3923 -3.25
      vertex -10.32 0 -3.25
      vertex -12 0 -3.25
    endloop
  endfacet
  facet normal 0 -1 0
    outer loop
      vertex -6 -10.3923 3.25
      vertex 2.37478 -10.3923 2.53921
      vertex 6 -10.3923 3.25
    endloop
  endfacet
  facet normal 0 -1 0
    outer loop
      vertex -3.46426 -10.3923 -0.29343
      vertex -6 -10.3923 3.25
      vertex -5.92497 -10.3923 2.36693
    endloop
  endfacet
  facet normal -0 -1 0
    outer loop
      vertex -5.92497 -10.3923 2.36693
      vertex -6 -10.3923 3.25
      vertex -6 -10.3923 2.32795
    endloop
  endfacet
  facet normal 0 -1 0
    outer loop
      vertex 3.35655 -10.3923 0.433794
      vertex 6 -10.3923 3.25
      vertex 2.37478 -10.3923 2.53921
    endloop
  endfacet
  facet normal 0 -1 0
    outer loop
      vertex 4.84205 -10.3923 -0.176467
      vertex 3.35655 -10.3923 0.433794
      vertex 3.46426 -10.3923 0.29343
    endloop
  endfacet
  facet normal 0 -1 0
    outer loop
      vertex 3.35655 -10.3923 0.433794
      vertex 4.84205 -10.3923 -0.176467
      vertex 6 -10.3923 3.25
    endloop
  endfacet
  facet normal 0 -1 -0
    outer loop
      vertex 6 -10.3923 3.25
      vertex 4.84205 -10.3923 -0.176467
      vertex 6 -10.3923 0.17006
    endloop
  endfacet
  facet normal 0 -1 0
    outer loop
      vertex 3.46426 -10.3923 0.29343
      vertex 5.79705 -10.3923 -1.83788
      vertex 4.84205 -10.3923 -0.176467
    endloop
  endfacet
  facet normal 0 -1 0
    outer loop
      vertex 6 -10.3923 -3.25
      vertex 3.46426 -10.3923 0.29343
      vertex -2.00983 -10.3923 -2.25918
    endloop
  endfacet
  facet normal 0 -1 0
    outer loop
      vertex 3.46426 -10.3923 0.29343
      vertex 5.92497 -10.3923 -2.36693
      vertex 5.79705 -10.3923 -1.83788
    endloop
  endfacet
  facet normal 0 -1 0
    outer loop
      vertex 6 -10.3923 -3.25
      vertex -2.00983 -10.3923 -2.25918
      vertex -2.37478 -10.3923 -2.53921
    endloop
  endfacet
  facet normal 0 -1 0
    outer loop
      vertex -6 -10.3923 3.25
      vertex 2.00983 -10.3923 2.25918
      vertex 2.37478 -10.3923 2.53921
    endloop
  endfacet
  facet normal 0 -1 0
    outer loop
      vertex -3.46426 -10.3923 -0.29343
      vertex -5.92497 -10.3923 2.36693
      vertex -5.79705 -10.3923 1.83788
    endloop
  endfacet
  facet normal 0 -1 0
    outer loop
      vertex -3.46426 -10.3923 -0.29343
      vertex -5.79705 -10.3923 1.83788
      vertex -4.84205 -10.3923 0.176467
    endloop
  endfacet
  facet normal 0 -1 0
    outer loop
      vertex -6 -10.3923 3.25
      vertex -3.46426 -10.3923 -0.29343
      vertex 2.00983 -10.3923 2.25918
    endloop
  endfacet
  facet normal 0 -1 0
    outer loop
      vertex -6 -10.3923 -3.25
      vertex -4.84205 -10.3923 0.176467
      vertex -6 -10.3923 -0.17006
    endloop
  endfacet
  facet normal 0 -1 0
    outer loop
      vertex -4.84205 -10.3923 0.176467
      vertex -3.35655 -10.3923 -0.433794
      vertex -3.46426 -10.3923 -0.29343
    endloop
  endfacet
  facet normal 0 -1 -0
    outer loop
      vertex -4.84205 -10.3923 0.176467
      vertex -6 -10.3923 -3.25
      vertex -3.35655 -10.3923 -0.433794
    endloop
  endfacet
  facet normal 0 -1 -0
    outer loop
      vertex -3.35655 -10.3923 -0.433794
      vertex -6 -10.3923 -3.25
      vertex -2.37478 -10.3923 -2.53921
    endloop
  endfacet
  facet normal 0 -1 0
    outer loop
      vertex 6 -10.3923 -3.25
      vertex -2.37478 -10.3923 -2.53921
      vertex -6 -10.3923 -3.25
    endloop
  endfacet
  facet normal 0 -1 0
    outer loop
      vertex 5.92497 -10.3923 -2.36693
      vertex 6 -10.3923 -3.25
      vertex 6 -10.3923 -2.32795
    endloop
  endfacet
  facet normal 0 -1 0
    outer loop
      vertex 3.46426 -10.3923 0.29343
      vertex 6 -10.3923 -3.25
      vertex 5.92497 -10.3923 -2.36693
    endloop
  endfacet
  facet normal 0.866025 -0.5 0
    outer loop
      vertex 12 0 3.25
      vertex 10.64 -2.35559 0.280793
      vertex 12 0 1.06493
    endloop
  endfacet
  facet normal 0.866025 -0.5 2.74764e-07
    outer loop
      vertex 8.88236 -5.39991 1.8058
      vertex 10.64 -2.35559 0.280793
      vertex 12 0 3.25
    endloop
  endfacet
  facet normal 0.866024 -0.500003 -1.86449e-05
    outer loop
      vertex 10.64 -2.35559 0.280793
      vertex 9.37528 -4.54615 0.773571
      vertex 10.0084 -3.44952 -0.375269
    endloop
  endfacet
  facet normal 0.866026 -0.5 1.64129e-06
    outer loop
      vertex 10.64 -2.35559 0.280793
      vertex 8.88236 -5.39991 1.8058
      vertex 9.37528 -4.54615 0.773571
    endloop
  endfacet
  facet normal 0.866026 -0.5 -2.42935e-06
    outer loop
      vertex 12 0 3.25
      vertex 8.64558 -5.81003 2.74096
      vertex 8.88236 -5.39991 1.8058
    endloop
  endfacet
  facet normal 0.866025 -0.500001 -3.1842e-06
    outer loop
      vertex 6 -10.3923 3.25
      vertex 7.8732 -7.14782 1.51052
      vertex 8.64558 -5.81003 2.74096
    endloop
  endfacet
  facet normal 0.866025 -0.5 6.71755e-06
    outer loop
      vertex 6 -10.3923 3.25
      vertex 8.64558 -5.81003 2.74096
      vertex 12 0 3.25
    endloop
  endfacet
  facet normal 0.866026 -0.499998 3.69226e-06
    outer loop
      vertex 7.8732 -7.14782 1.51052
      vertex 6 -10.3923 3.25
      vertex 6.87539 -8.87609 0.935213
    endloop
  endfacet
  facet normal 0.866029 -0.499993 7.92466e-06
    outer loop
      vertex 6 -10.3923 3.25
      vertex 6.16584 -10.1051 0.198163
      vertex 6.87539 -8.87609 0.935213
    endloop
  endfacet
  facet normal 0.865993 -0.500057 0
    outer loop
      vertex 6.16584 -10.1051 0.198163
      vertex 6 -10.3923 3.25
      vertex 6 -10.3923 0.17006
    endloop
  endfacet
  facet normal 0.866025 -0.5 0
    outer loop
      vertex 10.64 -2.35559 -2.47765
      vertex 12 0 -3.25
      vertex 12 0 -1.06493
    endloop
  endfacet
  facet normal 0.864956 -0.501835 0.00373407
    outer loop
      vertex 10.6076 -2.41168 -2.51068
      vertex 10.64 -2.35559 -2.47765
      vertex 10.6217 -2.38721 -2.48818
    endloop
  endfacet
  facet normal 0.865986 -0.500068 -0.000276798
    outer loop
      vertex 10.64 -2.35559 -2.47765
      vertex 10.6076 -2.41168 -2.51068
      vertex 12 0 -3.25
    endloop
  endfacet
  facet normal 0.866006 -0.500034 0.000180654
    outer loop
      vertex 6.87539 -8.87609 -1.82323
      vertex 10.133 -3.23382 -0.636054
      vertex 10.0084 -3.44952 -0.375269
    endloop
  endfacet
  facet normal 0.866028 -0.499996 -9.16254e-06
    outer loop
      vertex 6.87539 -8.87609 -1.82323
      vertex 10.0084 -3.44952 -0.375269
      vertex 9.37528 -4.54615 0.773571
    endloop
  endfacet
  facet normal 0.866025 -0.5 -2.92451e-05
    outer loop
      vertex 10.133 -3.23382 -0.636054
      vertex 6.87539 -8.87609 -1.82323
      vertex 10.6076 -2.41168 -2.51068
    endloop
  endfacet
  facet normal 0.866026 -0.499999 -5.54648e-06
    outer loop
      vertex 6 -10.3923 -3.25
      vertex 10.6076 -2.41168 -2.51068
      vertex 6.87539 -8.87609 -1.82323
    endloop
  endfacet
  facet normal 0.866024 -0.500002 0
    outer loop
      vertex 6 -10.3923 -3.25
      vertex 6.87539 -8.87609 -1.82323
      vertex 6 -10.3923 -2.32795
    endloop
  endfacet
  facet normal 0.866025 -0.5 1.78678e-05
    outer loop
      vertex 10.6076 -2.41168 -2.51068
      vertex 6 -10.3923 -3.25
      vertex 12 0 -3.25
    endloop
  endfacet
  facet normal -0.866025 -0.5 0
    outer loop
      vertex 10.32 0 -3.25
      vertex 5.16 8.93738 3.25
      vertex 5.16 8.93738 -3.25
    endloop
  endfacet
  facet normal -0.866025 -0.5 0
    outer loop
      vertex 5.16 8.93738 3.25
      vertex 10.32 0 -3.25
      vertex 10.32 0 3.25
    endloop
  endfacet
  facet normal 0.866025 -0.5 0
    outer loop
      vertex -10.32 0 3.25
      vertex -5.16 8.93738 -3.25
      vertex -5.16 8.93738 3.25
    endloop
  endfacet
  facet normal 0.866025 -0.5 0
    outer loop
      vertex -5.16 8.93738 -3.25
      vertex -10.32 0 3.25
      vertex -10.32 0 -3.25
    endloop
  endfacet
  facet normal 0 -1 0
    outer loop
      vertex -5.16 8.93738 -3.25
      vertex 5.16 8.93738 3.25
      vertex -5.16 8.93738 3.25
    endloop
  endfacet
  facet normal 0 -1 -0
    outer loop
      vertex 5.16 8.93738 3.25
      vertex -5.16 8.93738 -3.25
      vertex 5.16 8.93738 -3.25
    endloop
  endfacet
  facet normal 0.866025 0.5 0
    outer loop
      vertex -5.16 -8.93738 3.25
      vertex -10.32 0 -3.25
      vertex -10.32 0 3.25
    endloop
  endfacet
  facet normal 0.866025 0.5 0
    outer loop
      vertex -10.32 0 -3.25
      vertex -5.16 -8.93738 3.25
      vertex -5.16 -8.93738 -3.25
    endloop
  endfacet
  facet normal 0 1 -0
    outer loop
      vertex 5.16 -8.93738 -3.25
      vertex -5.16 -8.93738 3.25
      vertex 5.16 -8.93738 3.25
    endloop
  endfacet
  facet normal 0 1 0
    outer loop
      vertex -5.16 -8.93738 3.25
      vertex 5.16 -8.93738 -3.25
      vertex -5.16 -8.93738 -3.25
    endloop
  endfacet
  facet normal -0.866025 0.5 0
    outer loop
      vertex 5.16 -8.93738 -3.25
      vertex 10.32 0 3.25
      vertex 10.32 0 -3.25
    endloop
  endfacet
  facet normal -0.866025 0.5 0
    outer loop
      vertex 10.32 0 3.25
      vertex 5.16 -8.93738 -3.25
      vertex 5.16 -8.93738 3.25
    endloop
  endfacet
  facet normal 1 -0 0
    outer loop
      vertex 17.64 -3.25 1.25
      vertex 17.64 3.25 -1.25
      vertex 17.64 3.25 1.25
    endloop
  endfacet
  facet normal 1 0 0
    outer loop
      vertex 17.64 3.25 -1.25
      vertex 17.64 -3.25 1.25
      vertex 17.64 -3.25 -1.25
    endloop
  endfacet
  facet normal -1 0 -0
    outer loop
      vertex 3.64 1.1315 3.29313
      vertex 3.64 1.1829 3.25
      vertex 3.64 1.09532 3.25
    endloop
  endfacet
  facet normal -1 -0 0
    outer loop
      vertex 3.64 -1.09532 -3.25
      vertex 3.64 -1.1315 -3.29313
      vertex 3.64 -1.1829 -3.25
    endloop
  endfacet
  facet normal -0.0988253 0.995105 0
    outer loop
      vertex 17.64 3.25 1.25
      vertex 17.64 3.25 -1.25
      vertex 14.14 2.90241 1.9238
    endloop
  endfacet
  facet normal 0.0988242 0.971517 0.21538
    outer loop
      vertex 17.64 3.25 -1.25
      vertex 14.14 3.44351 -0.516941
      vertex 14.14 2.90241 1.9238
    endloop
  endfacet
  facet normal -0.204997 -0 -0.978763
    outer loop
      vertex 17.64 3.25 -1.25
      vertex 17.64 -3.25 -1.25
      vertex 14.14 3.44351 -0.516941
    endloop
  endfacet
  facet normal 0.204998 0.211843 -0.955562
    outer loop
      vertex 14.14 3.44351 -0.516941
      vertex 17.64 -3.25 -1.25
      vertex 14.14 -2.90241 -1.9238
    endloop
  endfacet
  facet normal -0.0988253 -0.995105 0
    outer loop
      vertex 17.64 -3.25 -1.25
      vertex 17.64 -3.25 1.25
      vertex 14.14 -2.90241 -1.9238
    endloop
  endfacet
  facet normal 0.0988242 -0.971517 -0.21538
    outer loop
      vertex 14.14 -2.90241 -1.9238
      vertex 17.64 -3.25 1.25
      vertex 14.14 -3.44351 0.516941
    endloop
  endfacet
  facet normal -0.204997 0 0.978763
    outer loop
      vertex 17.64 -3.25 1.25
      vertex 17.64 3.25 1.25
      vertex 14.14 -3.44351 0.516941
    endloop
  endfacet
  facet normal 0.204998 -0.211843 0.955562
    outer loop
      vertex 17.64 3.25 1.25
      vertex 14.14 2.90241 1.9238
      vertex 14.14 -3.44351 0.516941
    endloop
  endfacet
  facet normal -0.0988235 0.971517 0.21538
    outer loop
      vertex 14.14 2.90241 1.9238
      vertex 14.14 3.44351 -0.516941
      vertex 10.64 2.41723 2.50639
    endloop
  endfacet
  facet normal 0.0988238 0.901872 0.420548
    outer loop
      vertex 14.14 3.44351 -0.516941
      vertex 10.64 3.47377 0.240624
      vertex 10.64 2.41723 2.50639
    endloop
  endfacet
  facet normal -0.204997 0.211843 -0.955562
    outer loop
      vertex 14.14 3.44351 -0.516941
      vertex 14.14 -2.90241 -1.9238
      vertex 10.64 3.47377 0.240624
    endloop
  endfacet
  facet normal 0.204993 0.413605 -0.887079
    outer loop
      vertex 10.64 -2.35559 -2.47765
      vertex 14.14 -2.90241 -1.9238
      vertex 10.64 -2.41723 -2.50639
    endloop
  endfacet
  facet normal 0.204996 0.413643 -0.88706
    outer loop
      vertex 14.14 -2.90241 -1.9238
      vertex 10.64 -2.35559 -2.47765
      vertex 12 0 -1.06493
    endloop
  endfacet
  facet normal 0.204999 0.413644 -0.887059
    outer loop
      vertex 10.64 3.47377 0.240624
      vertex 12 0 -1.06493
      vertex 10.64 2.35559 -0.280793
    endloop
  endfacet
  facet normal 0.204996 0.413643 -0.887061
    outer loop
      vertex 12 0 -1.06493
      vertex 10.64 3.47377 0.240624
      vertex 14.14 -2.90241 -1.9238
    endloop
  endfacet
  facet normal -0.0988235 -0.971517 -0.21538
    outer loop
      vertex 14.14 -2.90241 -1.9238
      vertex 14.14 -3.44351 0.516941
      vertex 10.64 -2.41723 -2.50639
    endloop
  endfacet
  facet normal 0.0988238 -0.901872 -0.420548
    outer loop
      vertex 10.64 -2.41723 -2.50639
      vertex 14.14 -3.44351 0.516941
      vertex 10.64 -3.47377 -0.240624
    endloop
  endfacet
  facet normal -0.204997 -0.211843 0.955562
    outer loop
      vertex 14.14 -3.44351 0.516941
      vertex 14.14 2.90241 1.9238
      vertex 10.64 -3.47377 -0.240624
    endloop
  endfacet
  facet normal 0.204993 -0.413605 0.887079
    outer loop
      vertex 10.64 2.35559 2.47765
      vertex 14.14 2.90241 1.9238
      vertex 10.64 2.41723 2.50639
    endloop
  endfacet
  facet normal 0.204996 -0.413643 0.88706
    outer loop
      vertex 14.14 2.90241 1.9238
      vertex 10.64 2.35559 2.47765
      vertex 12 0 1.06493
    endloop
  endfacet
  facet normal 0.204999 -0.413644 0.887059
    outer loop
      vertex 10.64 -3.47377 -0.240624
      vertex 12 0 1.06493
      vertex 10.64 -2.35559 0.280793
    endloop
  endfacet
  facet normal 0.204996 -0.413643 0.887061
    outer loop
      vertex 12 0 1.06493
      vertex 10.64 -3.47377 -0.240624
      vertex 14.14 2.90241 1.9238
    endloop
  endfacet
  facet normal -0.098805 0.901876 0.420543
    outer loop
      vertex 10.64 2.41723 2.50639
      vertex 10.133 3.23382 0.636054
      vertex 10.6076 2.41168 2.51068
    endloop
  endfacet
  facet normal -0.0988299 0.901871 0.420548
    outer loop
      vertex 10.133 3.23382 0.636054
      vertex 10.64 2.41723 2.50639
      vertex 10.64 3.47377 0.240624
    endloop
  endfacet
  facet normal 0.0988274 0.789477 0.605772
    outer loop
      vertex 10.133 3.23382 0.636054
      vertex 10.64 3.47377 0.240624
      vertex 10.0084 3.44952 0.375269
    endloop
  endfacet
  facet normal -0.204986 0.413645 -0.887062
    outer loop
      vertex 10.64 3.47377 0.240624
      vertex 10.64 2.35559 -0.280793
      vertex 10.0084 3.44952 0.375269
    endloop
  endfacet
  facet normal -0.204254 0.413671 -0.887219
    outer loop
      vertex 10.64 -2.35559 -2.47765
      vertex 10.64 -2.41723 -2.50639
      vertex 10.6217 -2.38721 -2.48818
    endloop
  endfacet
  facet normal 0.204888 0.595906 -0.776477
    outer loop
      vertex 10.6217 -2.38721 -2.48818
      vertex 10.64 -2.41723 -2.50639
      vertex 10.6076 -2.41168 -2.51068
    endloop
  endfacet
  facet normal -0.0988299 -0.901871 -0.420548
    outer loop
      vertex 10.133 -3.23382 -0.636054
      vertex 10.64 -2.41723 -2.50639
      vertex 10.64 -3.47377 -0.240624
    endloop
  endfacet
  facet normal -0.098805 -0.901876 -0.420543
    outer loop
      vertex 10.64 -2.41723 -2.50639
      vertex 10.133 -3.23382 -0.636054
      vertex 10.6076 -2.41168 -2.51068
    endloop
  endfacet
  facet normal 0.0988274 -0.789477 -0.605772
    outer loop
      vertex 10.133 -3.23382 -0.636054
      vertex 10.64 -3.47377 -0.240624
      vertex 10.0084 -3.44952 -0.375269
    endloop
  endfacet
  facet normal -0.204254 -0.413671 0.887219
    outer loop
      vertex 10.64 2.35559 2.47765
      vertex 10.64 2.41723 2.50639
      vertex 10.6217 2.38721 2.48818
    endloop
  endfacet
  facet normal -0.204986 -0.413645 0.887062
    outer loop
      vertex 10.64 -3.47377 -0.240624
      vertex 10.64 -2.35559 0.280793
      vertex 10.0084 -3.44952 -0.375269
    endloop
  endfacet
  facet normal 0.204888 -0.595906 0.776477
    outer loop
      vertex 10.6217 2.38721 2.48818
      vertex 10.64 2.41723 2.50639
      vertex 10.6076 2.41168 2.51068
    endloop
  endfacet
  facet normal -0.0988132 0.789445 0.605816
    outer loop
      vertex 4.10739 1.2231 3.25
      vertex 3.70545 1.17279 3.25
      vertex 3.64 1.1315 3.29313
    endloop
  endfacet
  facet normal 0.0988053 0.639645 0.762294
    outer loop
      vertex 3.70545 1.17279 3.25
      vertex 3.64 1.1829 3.25
      vertex 3.64 1.1315 3.29313
    endloop
  endfacet
  facet normal 0.205005 0.749863 -0.62903
    outer loop
      vertex 3.64 -1.09532 -3.25
      vertex 4.10739 -1.2231 -3.25
      vertex 3.64 -1.1315 -3.29313
    endloop
  endfacet
  facet normal -0.0988132 -0.789445 -0.605816
    outer loop
      vertex 4.10739 -1.2231 -3.25
      vertex 3.70545 -1.17279 -3.25
      vertex 3.64 -1.1315 -3.29313
    endloop
  endfacet
  facet normal 0.0988053 -0.639645 -0.762294
    outer loop
      vertex 3.64 -1.1315 -3.29313
      vertex 3.70545 -1.17279 -3.25
      vertex 3.64 -1.1829 -3.25
    endloop
  endfacet
  facet normal 0.205005 -0.749863 0.62903
    outer loop
      vertex 4.10739 1.2231 3.25
      vertex 3.64 1.1315 3.29313
      vertex 3.64 1.09532 3.25
    endloop
  endfacet
  facet normal -1 0 0
    outer loop
      vertex -17.64 -3.25 -1.25
      vertex -17.64 3.25 1.25
      vertex -17.64 3.25 -1.25
    endloop
  endfacet
  facet normal -1 -0 0
    outer loop
      vertex -17.64 3.25 1.25
      vertex -17.64 -3.25 -1.25
      vertex -17.64 -3.25 1.25
    endloop
  endfacet
  facet normal 1 0 0
    outer loop
      vertex -3.64 -1.09532 3.25
      vertex -3.64 -1.1315 3.29313
      vertex -3.64 -1.1829 3.25
    endloop
  endfacet
  facet normal 1 0 -0
    outer loop
      vertex -3.64 1.1315 -3.29313
      vertex -3.64 1.1829 -3.25
      vertex -3.64 1.09532 -3.25
    endloop
  endfacet
  facet normal 0.0988253 -0.995105 0
    outer loop
      vertex -14.14 -2.90241 1.9238
      vertex -17.64 -3.25 1.25
      vertex -17.64 -3.25 -1.25
    endloop
  endfacet
  facet normal -0.0988242 -0.971517 0.21538
    outer loop
      vertex -14.14 -3.44351 -0.516941
      vertex -14.14 -2.90241 1.9238
      vertex -17.64 -3.25 -1.25
    endloop
  endfacet
  facet normal 0.204997 0 -0.978763
    outer loop
      vertex -17.64 3.25 -1.25
      vertex -14.14 -3.44351 -0.516941
      vertex -17.64 -3.25 -1.25
    endloop
  endfacet
  facet normal -0.204998 -0.211843 -0.955562
    outer loop
      vertex -14.14 2.90241 -1.9238
      vertex -14.14 -3.44351 -0.516941
      vertex -17.64 3.25 -1.25
    endloop
  endfacet
  facet normal 0.0988253 0.995105 0
    outer loop
      vertex -17.64 3.25 1.25
      vertex -14.14 2.90241 -1.9238
      vertex -17.64 3.25 -1.25
    endloop
  endfacet
  facet normal -0.0988242 0.971517 -0.21538
    outer loop
      vertex -14.14 3.44351 0.516941
      vertex -14.14 2.90241 -1.9238
      vertex -17.64 3.25 1.25
    endloop
  endfacet
  facet normal 0.204997 0 0.978763
    outer loop
      vertex -14.14 3.44351 0.516941
      vertex -17.64 3.25 1.25
      vertex -17.64 -3.25 1.25
    endloop
  endfacet
  facet normal -0.204998 0.211843 0.955562
    outer loop
      vertex -14.14 -2.90241 1.9238
      vertex -14.14 3.44351 0.516941
      vertex -17.64 -3.25 1.25
    endloop
  endfacet
  facet normal 0.0988235 -0.971517 0.21538
    outer loop
      vertex -10.64 -2.41723 2.50639
      vertex -14.14 -2.90241 1.9238
      vertex -14.14 -3.44351 -0.516941
    endloop
  endfacet
  facet normal -0.0988238 -0.901872 0.420548
    outer loop
      vertex -10.64 -3.47377 0.240624
      vertex -10.64 -2.41723 2.50639
      vertex -14.14 -3.44351 -0.516941
    endloop
  endfacet
  facet normal 0.204997 -0.211843 -0.955562
    outer loop
      vertex -14.14 2.90241 -1.9238
      vertex -10.64 -3.47377 0.240624
      vertex -14.14 -3.44351 -0.516941
    endloop
  endfacet
  facet normal -0.204999 -0.413644 -0.887059
    outer loop
      vertex -10.64 -3.47377 0.240624
      vertex -12 0 -1.06493
      vertex -10.64 -2.35559 -0.280793
    endloop
  endfacet
  facet normal -0.204996 -0.413643 -0.887061
    outer loop
      vertex -12 0 -1.06493
      vertex -10.64 -3.47377 0.240624
      vertex -14.14 2.90241 -1.9238
    endloop
  endfacet
  facet normal -0.204996 -0.413643 -0.88706
    outer loop
      vertex -14.14 2.90241 -1.9238
      vertex -10.64 2.35559 -2.47765
      vertex -12 0 -1.06493
    endloop
  endfacet
  facet normal -0.204993 -0.413605 -0.887079
    outer loop
      vertex -10.64 2.35559 -2.47765
      vertex -14.14 2.90241 -1.9238
      vertex -10.64 2.41723 -2.50639
    endloop
  endfacet
  facet normal 0.0988235 0.971517 -0.21538
    outer loop
      vertex -14.14 3.44351 0.516941
      vertex -10.64 2.41723 -2.50639
      vertex -14.14 2.90241 -1.9238
    endloop
  endfacet
  facet normal -0.0988238 0.901872 -0.420548
    outer loop
      vertex -10.64 3.47377 -0.240624
      vertex -10.64 2.41723 -2.50639
      vertex -14.14 3.44351 0.516941
    endloop
  endfacet
  facet normal 0.204997 0.211843 0.955562
    outer loop
      vertex -10.64 3.47377 -0.240624
      vertex -14.14 3.44351 0.516941
      vertex -14.14 -2.90241 1.9238
    endloop
  endfacet
  facet normal -0.204999 0.413644 0.887059
    outer loop
      vertex -10.64 3.47377 -0.240624
      vertex -12 0 1.06493
      vertex -10.64 2.35559 0.280793
    endloop
  endfacet
  facet normal -0.204996 0.413643 0.887061
    outer loop
      vertex -12 0 1.06493
      vertex -10.64 3.47377 -0.240624
      vertex -14.14 -2.90241 1.9238
    endloop
  endfacet
  facet normal -0.204996 0.413643 0.88706
    outer loop
      vertex -14.14 -2.90241 1.9238
      vertex -10.64 -2.35559 2.47765
      vertex -12 0 1.06493
    endloop
  endfacet
  facet normal -0.204993 0.413605 0.887079
    outer loop
      vertex -10.64 -2.35559 2.47765
      vertex -14.14 -2.90241 1.9238
      vertex -10.64 -2.41723 2.50639
    endloop
  endfacet
  facet normal 0.098805 -0.901876 0.420543
    outer loop
      vertex -10.64 -2.41723 2.50639
      vertex -10.133 -3.23382 0.636054
      vertex -10.6076 -2.41168 2.51068
    endloop
  endfacet
  facet normal 0.0988299 -0.901871 0.420548
    outer loop
      vertex -10.133 -3.23382 0.636054
      vertex -10.64 -2.41723 2.50639
      vertex -10.64 -3.47377 0.240624
    endloop
  endfacet
  facet normal -0.0988274 -0.789477 0.605772
    outer loop
      vertex -10.0084 -3.44952 0.375269
      vertex -10.133 -3.23382 0.636054
      vertex -10.64 -3.47377 0.240624
    endloop
  endfacet
  facet normal 0.204986 -0.413645 -0.887062
    outer loop
      vertex -10.64 -2.35559 -0.280793
      vertex -10.0084 -3.44952 0.375269
      vertex -10.64 -3.47377 0.240624
    endloop
  endfacet
  facet normal 0.204254 -0.413671 -0.887219
    outer loop
      vertex -10.64 2.41723 -2.50639
      vertex -10.6217 2.38721 -2.48818
      vertex -10.64 2.35559 -2.47765
    endloop
  endfacet
  facet normal -0.204888 -0.595906 -0.776477
    outer loop
      vertex -10.6076 2.41168 -2.51068
      vertex -10.6217 2.38721 -2.48818
      vertex -10.64 2.41723 -2.50639
    endloop
  endfacet
  facet normal 0.0988299 0.901871 -0.420548
    outer loop
      vertex -10.133 3.23382 -0.636054
      vertex -10.64 2.41723 -2.50639
      vertex -10.64 3.47377 -0.240624
    endloop
  endfacet
  facet normal 0.098805 0.901876 -0.420543
    outer loop
      vertex -10.64 2.41723 -2.50639
      vertex -10.133 3.23382 -0.636054
      vertex -10.6076 2.41168 -2.51068
    endloop
  endfacet
  facet normal -0.0988274 0.789477 -0.605772
    outer loop
      vertex -10.0084 3.44952 -0.375269
      vertex -10.133 3.23382 -0.636054
      vertex -10.64 3.47377 -0.240624
    endloop
  endfacet
  facet normal 0.204254 0.413671 0.887219
    outer loop
      vertex -10.6217 -2.38721 2.48818
      vertex -10.64 -2.35559 2.47765
      vertex -10.64 -2.41723 2.50639
    endloop
  endfacet
  facet normal 0.204986 0.413645 0.887062
    outer loop
      vertex -10.0084 3.44952 -0.375269
      vertex -10.64 3.47377 -0.240624
      vertex -10.64 2.35559 0.280793
    endloop
  endfacet
  facet normal -0.204888 0.595906 0.776477
    outer loop
      vertex -10.6076 -2.41168 2.51068
      vertex -10.6217 -2.38721 2.48818
      vertex -10.64 -2.41723 2.50639
    endloop
  endfacet
  facet normal 0.0988132 -0.789445 0.605816
    outer loop
      vertex -3.70545 -1.17279 3.25
      vertex -3.64 -1.1315 3.29313
      vertex -4.10739 -1.2231 3.25
    endloop
  endfacet
  facet normal -0.0988053 -0.639645 0.762294
    outer loop
      vertex -3.64 -1.1829 3.25
      vertex -3.64 -1.1315 3.29313
      vertex -3.70545 -1.17279 3.25
    endloop
  endfacet
  facet normal -0.205005 -0.749863 -0.62903
    outer loop
      vertex -3.64 1.1315 -3.29313
      vertex -3.64 1.09532 -3.25
      vertex -4.10739 1.2231 -3.25
    endloop
  endfacet
  facet normal 0.0988132 0.789445 -0.605816
    outer loop
      vertex -3.70545 1.17279 -3.25
      vertex -3.64 1.1315 -3.29313
      vertex -4.10739 1.2231 -3.25
    endloop
  endfacet
  facet normal -0.0988053 0.639645 -0.762294
    outer loop
      vertex -3.64 1.1829 -3.25
      vertex -3.64 1.1315 -3.29313
      vertex -3.70545 1.17279 -3.25
    endloop
  endfacet
  facet normal -0.205005 0.749863 0.62903
    outer loop
      vertex -3.64 -1.1315 3.29313
      vertex -3.64 -1.09532 3.25
      vertex -4.10739 -1.2231 3.25
    endloop
  endfacet
  facet normal 0 1 -0
    outer loop
      vertex 3.25 17.64 -1.25
      vertex -3.25 17.64 1.25
      vertex 3.25 17.64 1.25
    endloop
  endfacet
  facet normal 0 1 0
    outer loop
      vertex -3.25 17.64 1.25
      vertex 3.25 17.64 -1.25
      vertex -3.25 17.64 -1.25
    endloop
  endfacet
  facet normal 0 -1 0
    outer loop
      vertex -1.09532 3.64 3.25
      vertex -1.1315 3.64 3.29313
      vertex -1.1829 3.64 3.25
    endloop
  endfacet
  facet normal 0 -1 0
    outer loop
      vertex 1.1315 3.64 -3.29313
      vertex 1.1829 3.64 -3.25
      vertex 1.09532 3.64 -3.25
    endloop
  endfacet
  facet normal -0.995105 -0.0988253 0
    outer loop
      vertex -2.90241 14.14 1.9238
      vertex -3.25 17.64 1.25
      vertex -3.25 17.64 -1.25
    endloop
  endfacet
  facet normal -0.971517 0.0988242 0.21538
    outer loop
      vertex -2.90241 14.14 1.9238
      vertex -3.25 17.64 -1.25
      vertex -3.44351 14.14 -0.516941
    endloop
  endfacet
  facet normal 0 -0.204997 -0.978763
    outer loop
      vertex -3.25 17.64 -1.25
      vertex 3.25 17.64 -1.25
      vertex -3.44351 14.14 -0.516941
    endloop
  endfacet
  facet normal -0.211843 0.204998 -0.955562
    outer loop
      vertex 3.25 17.64 -1.25
      vertex 2.90241 14.14 -1.9238
      vertex -3.44351 14.14 -0.516941
    endloop
  endfacet
  facet normal 0.995105 -0.0988253 0
    outer loop
      vertex 3.25 17.64 -1.25
      vertex 3.25 17.64 1.25
      vertex 2.90241 14.14 -1.9238
    endloop
  endfacet
  facet normal 0.971517 0.0988242 -0.21538
    outer loop
      vertex 3.25 17.64 1.25
      vertex 3.44351 14.14 0.516941
      vertex 2.90241 14.14 -1.9238
    endloop
  endfacet
  facet normal 0 -0.204997 0.978763
    outer loop
      vertex 3.44351 14.14 0.516941
      vertex 3.25 17.64 1.25
      vertex -3.25 17.64 1.25
    endloop
  endfacet
  facet normal 0.211843 0.204998 0.955562
    outer loop
      vertex -2.90241 14.14 1.9238
      vertex 3.44351 14.14 0.516941
      vertex -3.25 17.64 1.25
    endloop
  endfacet
  facet normal -0.971517 -0.0988235 0.21538
    outer loop
      vertex -2.41723 10.64 2.50639
      vertex -2.90241 14.14 1.9238
      vertex -3.44351 14.14 -0.516941
    endloop
  endfacet
  facet normal -0.901872 0.0988238 0.420548
    outer loop
      vertex -2.41723 10.64 2.50639
      vertex -3.44351 14.14 -0.516941
      vertex -3.47377 10.64 0.240624
    endloop
  endfacet
  facet normal -0.211843 -0.204997 -0.955562
    outer loop
      vertex -3.44351 14.14 -0.516941
      vertex 2.90241 14.14 -1.9238
      vertex -3.47377 10.64 0.240624
    endloop
  endfacet
  facet normal -0.413643 0.204995 -0.887061
    outer loop
      vertex 2.90241 14.14 -1.9238
      vertex 2.41723 10.64 -2.50639
      vertex -3.47377 10.64 0.240624
    endloop
  endfacet
  facet normal 0.971517 -0.0988235 -0.21538
    outer loop
      vertex 2.90241 14.14 -1.9238
      vertex 3.44351 14.14 0.516941
      vertex 2.41723 10.64 -2.50639
    endloop
  endfacet
  facet normal 0.901872 0.0988238 -0.420548
    outer loop
      vertex 3.44351 14.14 0.516941
      vertex 3.47377 10.64 -0.240624
      vertex 2.41723 10.64 -2.50639
    endloop
  endfacet
  facet normal 0.211843 -0.204997 0.955562
    outer loop
      vertex 3.47377 10.64 -0.240624
      vertex 3.44351 14.14 0.516941
      vertex -2.90241 14.14 1.9238
    endloop
  endfacet
  facet normal 0.413643 0.204995 0.887061
    outer loop
      vertex -2.41723 10.64 2.50639
      vertex 3.47377 10.64 -0.240624
      vertex -2.90241 14.14 1.9238
    endloop
  endfacet
  facet normal -0.901871 -0.0988297 0.420548
    outer loop
      vertex -3.35655 10.3923 0.433794
      vertex -2.41723 10.64 2.50639
      vertex -3.47377 10.64 0.240624
    endloop
  endfacet
  facet normal -0.90187 -0.0988373 0.420548
    outer loop
      vertex -2.41723 10.64 2.50639
      vertex -3.35655 10.3923 0.433794
      vertex -2.37478 10.3923 2.53921
    endloop
  endfacet
  facet normal -0.789455 0.0988375 0.605798
    outer loop
      vertex -3.46426 10.3923 0.29343
      vertex -3.35655 10.3923 0.433794
      vertex -3.47377 10.64 0.240624
    endloop
  endfacet
  facet normal -0.413644 -0.20499 -0.887062
    outer loop
      vertex -3.47377 10.64 0.240624
      vertex 2.00983 10.3923 -2.25918
      vertex -3.46426 10.3923 0.29343
    endloop
  endfacet
  facet normal -0.413644 -0.204976 -0.887064
    outer loop
      vertex 2.00983 10.3923 -2.25918
      vertex -3.47377 10.64 0.240624
      vertex 2.41723 10.64 -2.50639
    endloop
  endfacet
  facet normal -0.595825 0.204997 -0.776511
    outer loop
      vertex 2.41723 10.64 -2.50639
      vertex 2.37478 10.3923 -2.53921
      vertex 2.00983 10.3923 -2.25918
    endloop
  endfacet
  facet normal 0.901871 -0.0988297 -0.420548
    outer loop
      vertex 3.35655 10.3923 -0.433794
      vertex 2.41723 10.64 -2.50639
      vertex 3.47377 10.64 -0.240624
    endloop
  endfacet
  facet normal 0.90187 -0.0988373 -0.420548
    outer loop
      vertex 2.41723 10.64 -2.50639
      vertex 3.35655 10.3923 -0.433794
      vertex 2.37478 10.3923 -2.53921
    endloop
  endfacet
  facet normal 0.789455 0.0988375 -0.605798
    outer loop
      vertex 3.47377 10.64 -0.240624
      vertex 3.46426 10.3923 -0.29343
      vertex 3.35655 10.3923 -0.433794
    endloop
  endfacet
  facet normal 0.413644 -0.20499 0.887062
    outer loop
      vertex 3.47377 10.64 -0.240624
      vertex -2.00983 10.3923 2.25918
      vertex 3.46426 10.3923 -0.29343
    endloop
  endfacet
  facet normal 0.413644 -0.204976 0.887064
    outer loop
      vertex -2.00983 10.3923 2.25918
      vertex 3.47377 10.64 -0.240624
      vertex -2.41723 10.64 2.50639
    endloop
  endfacet
  facet normal 0.595825 0.204997 0.776511
    outer loop
      vertex -2.37478 10.3923 2.53921
      vertex -2.00983 10.3923 2.25918
      vertex -2.41723 10.64 2.50639
    endloop
  endfacet
  facet normal -0.789445 -0.0988132 0.605816
    outer loop
      vertex -1.17279 3.70545 3.25
      vertex -1.1315 3.64 3.29313
      vertex -1.2231 4.10739 3.25
    endloop
  endfacet
  facet normal -0.639645 0.0988053 0.762294
    outer loop
      vertex -1.1315 3.64 3.29313
      vertex -1.17279 3.70545 3.25
      vertex -1.1829 3.64 3.25
    endloop
  endfacet
  facet normal -0.749863 0.205005 -0.62903
    outer loop
      vertex 1.2231 4.10739 -3.25
      vertex 1.1315 3.64 -3.29313
      vertex 1.09532 3.64 -3.25
    endloop
  endfacet
  facet normal 0.789445 -0.0988132 -0.605816
    outer loop
      vertex 1.2231 4.10739 -3.25
      vertex 1.17279 3.70545 -3.25
      vertex 1.1315 3.64 -3.29313
    endloop
  endfacet
  facet normal 0.639645 0.0988053 -0.762294
    outer loop
      vertex 1.17279 3.70545 -3.25
      vertex 1.1829 3.64 -3.25
      vertex 1.1315 3.64 -3.29313
    endloop
  endfacet
  facet normal 0.749863 0.205005 0.62903
    outer loop
      vertex -1.1315 3.64 3.29313
      vertex -1.09532 3.64 3.25
      vertex -1.2231 4.10739 3.25
    endloop
  endfacet
  facet normal 0 -1 0
    outer loop
      vertex -3.25 -17.64 -1.25
      vertex 3.25 -17.64 1.25
      vertex -3.25 -17.64 1.25
    endloop
  endfacet
  facet normal 0 -1 -0
    outer loop
      vertex 3.25 -17.64 1.25
      vertex -3.25 -17.64 -1.25
      vertex 3.25 -17.64 -1.25
    endloop
  endfacet
  facet normal 0 1 0
    outer loop
      vertex 1.1315 -3.64 3.29313
      vertex 1.1829 -3.64 3.25
      vertex 1.09532 -3.64 3.25
    endloop
  endfacet
  facet normal 0 1 0
    outer loop
      vertex -1.09532 -3.64 -3.25
      vertex -1.1315 -3.64 -3.29313
      vertex -1.1829 -3.64 -3.25
    endloop
  endfacet
  facet normal 0.995105 0.0988253 0
    outer loop
      vertex 3.25 -17.64 1.25
      vertex 3.25 -17.64 -1.25
      vertex 2.90241 -14.14 1.9238
    endloop
  endfacet
  facet normal 0.971517 -0.0988242 0.21538
    outer loop
      vertex 3.25 -17.64 -1.25
      vertex 3.44351 -14.14 -0.516941
      vertex 2.90241 -14.14 1.9238
    endloop
  endfacet
  facet normal 0 0.204997 -0.978763
    outer loop
      vertex 3.44351 -14.14 -0.516941
      vertex 3.25 -17.64 -1.25
      vertex -3.25 -17.64 -1.25
    endloop
  endfacet
  facet normal 0.211843 -0.204998 -0.955562
    outer loop
      vertex -2.90241 -14.14 -1.9238
      vertex 3.44351 -14.14 -0.516941
      vertex -3.25 -17.64 -1.25
    endloop
  endfacet
  facet normal -0.995105 0.0988253 0
    outer loop
      vertex -3.25 -17.64 1.25
      vertex -2.90241 -14.14 -1.9238
      vertex -3.25 -17.64 -1.25
    endloop
  endfacet
  facet normal -0.971517 -0.0988242 -0.21538
    outer loop
      vertex -2.90241 -14.14 -1.9238
      vertex -3.25 -17.64 1.25
      vertex -3.44351 -14.14 0.516941
    endloop
  endfacet
  facet normal -0 0.204997 0.978763
    outer loop
      vertex -3.25 -17.64 1.25
      vertex 3.25 -17.64 1.25
      vertex -3.44351 -14.14 0.516941
    endloop
  endfacet
  facet normal -0.211843 -0.204998 0.955562
    outer loop
      vertex 3.25 -17.64 1.25
      vertex 2.90241 -14.14 1.9238
      vertex -3.44351 -14.14 0.516941
    endloop
  endfacet
  facet normal 0.971517 0.0988235 0.21538
    outer loop
      vertex 2.90241 -14.14 1.9238
      vertex 3.44351 -14.14 -0.516941
      vertex 2.41723 -10.64 2.50639
    endloop
  endfacet
  facet normal 0.901872 -0.0988238 0.420548
    outer loop
      vertex 3.44351 -14.14 -0.516941
      vertex 3.47377 -10.64 0.240624
      vertex 2.41723 -10.64 2.50639
    endloop
  endfacet
  facet normal 0.211843 0.204997 -0.955562
    outer loop
      vertex 3.47377 -10.64 0.240624
      vertex 3.44351 -14.14 -0.516941
      vertex -2.90241 -14.14 -1.9238
    endloop
  endfacet
  facet normal 0.413643 -0.204995 -0.887061
    outer loop
      vertex -2.41723 -10.64 -2.50639
      vertex 3.47377 -10.64 0.240624
      vertex -2.90241 -14.14 -1.9238
    endloop
  endfacet
  facet normal -0.971517 0.0988235 -0.21538
    outer loop
      vertex -2.41723 -10.64 -2.50639
      vertex -2.90241 -14.14 -1.9238
      vertex -3.44351 -14.14 0.516941
    endloop
  endfacet
  facet normal -0.901872 -0.0988238 -0.420548
    outer loop
      vertex -2.41723 -10.64 -2.50639
      vertex -3.44351 -14.14 0.516941
      vertex -3.47377 -10.64 -0.240624
    endloop
  endfacet
  facet normal -0.211843 0.204997 0.955562
    outer loop
      vertex -3.44351 -14.14 0.516941
      vertex 2.90241 -14.14 1.9238
      vertex -3.47377 -10.64 -0.240624
    endloop
  endfacet
  facet normal -0.413643 -0.204995 0.887061
    outer loop
      vertex 2.90241 -14.14 1.9238
      vertex 2.41723 -10.64 2.50639
      vertex -3.47377 -10.64 -0.240624
    endloop
  endfacet
  facet normal 0.90187 0.0988373 0.420548
    outer loop
      vertex 2.41723 -10.64 2.50639
      vertex 3.35655 -10.3923 0.433794
      vertex 2.37478 -10.3923 2.53921
    endloop
  endfacet
  facet normal 0.901871 0.0988297 0.420548
    outer loop
      vertex 3.35655 -10.3923 0.433794
      vertex 2.41723 -10.64 2.50639
      vertex 3.47377 -10.64 0.240624
    endloop
  endfacet
  facet normal 0.789455 -0.0988375 0.605798
    outer loop
      vertex 3.47377 -10.64 0.240624
      vertex 3.46426 -10.3923 0.29343
      vertex 3.35655 -10.3923 0.433794
    endloop
  endfacet
  facet normal 0.413644 0.20499 -0.887062
    outer loop
      vertex 3.47377 -10.64 0.240624
      vertex -2.00983 -10.3923 -2.25918
      vertex 3.46426 -10.3923 0.29343
    endloop
  endfacet
  facet normal 0.413644 0.204976 -0.887064
    outer loop
      vertex -2.00983 -10.3923 -2.25918
      vertex 3.47377 -10.64 0.240624
      vertex -2.41723 -10.64 -2.50639
    endloop
  endfacet
  facet normal 0.595825 -0.204997 -0.776511
    outer loop
      vertex -2.37478 -10.3923 -2.53921
      vertex -2.00983 -10.3923 -2.25918
      vertex -2.41723 -10.64 -2.50639
    endloop
  endfacet
  facet normal -0.90187 0.0988373 -0.420548
    outer loop
      vertex -2.41723 -10.64 -2.50639
      vertex -3.35655 -10.3923 -0.433794
      vertex -2.37478 -10.3923 -2.53921
    endloop
  endfacet
  facet normal -0.901871 0.0988297 -0.420548
    outer loop
      vertex -3.35655 -10.3923 -0.433794
      vertex -2.41723 -10.64 -2.50639
      vertex -3.47377 -10.64 -0.240624
    endloop
  endfacet
  facet normal -0.789455 -0.0988375 -0.605798
    outer loop
      vertex -3.46426 -10.3923 -0.29343
      vertex -3.35655 -10.3923 -0.433794
      vertex -3.47377 -10.64 -0.240624
    endloop
  endfacet
  facet normal -0.413644 0.20499 0.887062
    outer loop
      vertex -3.47377 -10.64 -0.240624
      vertex 2.00983 -10.3923 2.25918
      vertex -3.46426 -10.3923 -0.29343
    endloop
  endfacet
  facet normal -0.413644 0.204976 0.887064
    outer loop
      vertex 2.00983 -10.3923 2.25918
      vertex -3.47377 -10.64 -0.240624
      vertex 2.41723 -10.64 2.50639
    endloop
  endfacet
  facet normal -0.595825 -0.204997 0.776511
    outer loop
      vertex 2.41723 -10.64 2.50639
      vertex 2.37478 -10.3923 2.53921
      vertex 2.00983 -10.3923 2.25918
    endloop
  endfacet
  facet normal 0.789445 0.0988132 0.605816
    outer loop
      vertex 1.2231 -4.10739 3.25
      vertex 1.17279 -3.70545 3.25
      vertex 1.1315 -3.64 3.29313
    endloop
  endfacet
  facet normal 0.639645 -0.0988053 0.762294
    outer loop
      vertex 1.17279 -3.70545 3.25
      vertex 1.1829 -3.64 3.25
      vertex 1.1315 -3.64 3.29313
    endloop
  endfacet
  facet normal 0.749863 -0.205005 -0.62903
    outer loop
      vertex -1.1315 -3.64 -3.29313
      vertex -1.09532 -3.64 -3.25
      vertex -1.2231 -4.10739 -3.25
    endloop
  endfacet
  facet normal -0.789445 0.0988132 -0.605816
    outer loop
      vertex -1.17279 -3.70545 -3.25
      vertex -1.1315 -3.64 -3.29313
      vertex -1.2231 -4.10739 -3.25
    endloop
  endfacet
  facet normal -0.639645 -0.0988053 -0.762294
    outer loop
      vertex -1.1315 -3.64 -3.29313
      vertex -1.17279 -3.70545 -3.25
      vertex -1.1829 -3.64 -3.25
    endloop
  endfacet
  facet normal -0.749863 -0.205005 0.62903
    outer loop
      vertex 1.2231 -4.10739 3.25
      vertex 1.1315 -3.64 3.29313
      vertex 1.09532 -3.64 3.25
    endloop
  endfacet
  facet normal 0.642783 0.766049 -0
    outer loop
      vertex 14.6892 11.6733 -1.25
      vertex 9.70987 15.8514 1.25
      vertex 14.6892 11.6733 1.25
    endloop
  endfacet
  facet normal 0.642783 0.766049 0
    outer loop
      vertex 9.70987 15.8514 1.25
      vertex 14.6892 11.6733 -1.25
      vertex 9.70987 15.8514 -1.25
    endloop
  endfacet
  facet normal -0.642721 -0.7661 -8.64845e-06
    outer loop
      vertex 2.34506 3.75548 3.25
      vertex 2.3337 3.76501 3.29313
      vertex 2.29433 3.79804 3.25
    endloop
  endfacet
  facet normal -0.642621 -0.766184 0.000185133
    outer loop
      vertex 4.06727 2.31037 -3.29313
      vertex 4.05592 2.3199 -3.25
      vertex 4.03955 2.33363 -3.25
    endloop
  endfacet
  facet normal -0.642896 -0.765954 -8.71144e-05
    outer loop
      vertex 2.34506 3.75548 3.25
      vertex 2.36143 3.74174 3.25
      vertex 2.3337 3.76501 3.29313
    endloop
  endfacet
  facet normal -0.642884 -0.765964 6.72631e-05
    outer loop
      vertex 4.06727 2.31037 -3.29313
      vertex 4.10664 2.27733 -3.25
      vertex 4.05592 2.3199 -3.25
    endloop
  endfacet
  facet normal -0.825819 0.563935 0
    outer loop
      vertex 9.70987 15.8514 1.25
      vertex 9.70987 15.8514 -1.25
      vertex 7.72638 12.9468 1.9238
    endloop
  endfacet
  facet normal -0.680706 0.700179 0.215378
    outer loop
      vertex 7.72638 12.9468 1.9238
      vertex 9.70987 15.8514 -1.25
      vertex 7.31187 13.2946 -0.516941
    endloop
  endfacet
  facet normal -0.131768 -0.157037 -0.978763
    outer loop
      vertex 9.70987 15.8514 -1.25
      vertex 14.6892 11.6733 -1.25
      vertex 7.31187 13.2946 -0.516941
    endloop
  endfacet
  facet normal -0.0305138 0.293205 -0.955562
    outer loop
      vertex 14.6892 11.6733 -1.25
      vertex 12.1731 9.21552 -1.9238
      vertex 7.31187 13.2946 -0.516941
    endloop
  endfacet
  facet normal 0.698768 -0.715349 0
    outer loop
      vertex 14.6892 11.6733 -1.25
      vertex 14.6892 11.6733 1.25
      vertex 12.1731 9.21552 -1.9238
    endloop
  endfacet
  facet normal 0.807742 -0.548785 -0.215378
    outer loop
      vertex 14.6892 11.6733 1.25
      vertex 12.5876 8.86771 0.516941
      vertex 12.1731 9.21552 -1.9238
    endloop
  endfacet
  facet normal -0.131765 -0.157034 0.978764
    outer loop
      vertex 12.5876 8.86771 0.516941
      vertex 14.6892 11.6733 1.25
      vertex 9.70987 15.8514 1.25
    endloop
  endfacet
  facet normal 0.294053 0.0208659 0.955561
    outer loop
      vertex 12.5876 8.86771 0.516941
      vertex 9.70987 15.8514 1.25
      vertex 7.72638 12.9468 1.9238
    endloop
  endfacet
  facet normal -0.80775 0.548773 0.215379
    outer loop
      vertex 6.02298 10.3525 2.14555
      vertex 7.72638 12.9468 1.9238
      vertex 7.31187 13.2946 -0.516941
    endloop
  endfacet
  facet normal -0.807742 0.548771 0.215415
    outer loop
      vertex 7.72638 12.9468 1.9238
      vertex 6.02298 10.3525 2.14555
      vertex 6.05917 10.2898 2.44098
    endloop
  endfacet
  facet normal -0.627348 0.655416 0.420552
    outer loop
      vertex 7.31187 13.2946 -0.516941
      vertex 5.32566 10.3923 1.04331
      vertex 6 10.3923 2.04924
    endloop
  endfacet
  facet normal -0.627348 0.655416 0.420553
    outer loop
      vertex 5.32566 10.3923 1.04331
      vertex 7.31187 13.2946 -0.516941
      vertex 5.03893 10.6329 0.240624
    endloop
  endfacet
  facet normal -0.627363 0.655411 0.420539
    outer loop
      vertex 7.31187 13.2946 -0.516941
      vertex 6 10.3923 2.04924
      vertex 6.02298 10.3525 2.14555
    endloop
  endfacet
  facet normal -0.294052 -0.0208656 -0.955562
    outer loop
      vertex 7.31187 13.2946 -0.516941
      vertex 12.1731 9.21552 -1.9238
      vertex 5.03893 10.6329 0.240624
    endloop
  endfacet
  facet normal -0.1851 0.42292 -0.887061
    outer loop
      vertex 6.63367 9.29476 -0.730125
      vertex 12.1731 9.21552 -1.9238
      vertex 9.5517 6.84624 -2.50639
    endloop
  endfacet
  facet normal -0.1851 0.422924 -0.887059
    outer loop
      vertex 6 10.3923 -0.074624
      vertex 12.1731 9.21552 -1.9238
      vertex 6.63367 9.29476 -0.730125
    endloop
  endfacet
  facet normal -0.185126 0.422839 -0.887094
    outer loop
      vertex 6 10.3923 -0.074624
      vertex 5.03893 10.6329 0.240624
      vertex 12.1731 9.21552 -1.9238
    endloop
  endfacet
  facet normal -0.1851 0.422909 -0.887066
    outer loop
      vertex 5.03893 10.6329 0.240624
      vertex 6 10.3923 -0.074624
      vertex 5.32566 10.3923 0.0660873
    endloop
  endfacet
  facet normal 0.680705 -0.70018 -0.215378
    outer loop
      vertex 12.1731 9.21552 -1.9238
      vertex 12.5876 8.86771 0.516941
      vertex 9.5517 6.84624 -2.50639
    endloop
  endfacet
  facet normal 0.754403 -0.503988 -0.420561
    outer loop
      vertex 12.5876 8.86771 0.516941
      vertex 10.3611 6.1671 -0.240624
      vertex 9.5517 6.84624 -2.50639
    endloop
  endfacet
  facet normal 0.0305122 -0.293206 0.955562
    outer loop
      vertex 10.3611 6.1671 -0.240624
      vertex 12.5876 8.86771 0.516941
      vertex 7.72638 12.9468 1.9238
    endloop
  endfacet
  facet normal 0.448636 -0.108847 0.887062
    outer loop
      vertex 7.72638 12.9468 1.9238
      vertex 6.63367 9.29476 2.02832
      vertex 10.3611 6.1671 -0.240624
    endloop
  endfacet
  facet normal 0.448642 -0.108849 0.887058
    outer loop
      vertex 6.63367 9.29476 2.02832
      vertex 7.72638 12.9468 1.9238
      vertex 6.05917 10.2898 2.44098
    endloop
  endfacet
  facet normal -0.754412 0.503983 0.420552
    outer loop
      vertex 5.32566 10.3923 1.04331
      vertex 5.03893 10.6329 0.240624
      vertex 4.97593 10.3923 0.415942
    endloop
  endfacet
  facet normal -0.541259 0.583146 0.605788
    outer loop
      vertex 4.97593 10.3923 0.415942
      vertex 5.03893 10.6329 0.240624
      vertex 4.85231 10.3923 0.30549
    endloop
  endfacet
  facet normal -0.448642 0.108834 -0.88706
    outer loop
      vertex 5.03893 10.6329 0.240624
      vertex 5.32566 10.3923 0.0660873
      vertex 4.85231 10.3923 0.30549
    endloop
  endfacet
  facet normal -0.448637 0.10885 -0.887061
    outer loop
      vertex 9.5517 6.84624 -2.50639
      vertex 7.90153 7.09876 -1.64082
      vertex 6.63367 9.29476 -0.730125
    endloop
  endfacet
  facet normal -0.324664 0.540031 -0.776505
    outer loop
      vertex 9.5517 6.84624 -2.50639
      vertex 8.54152 5.99027 -2.67932
      vertex 7.90153 7.09876 -1.64082
    endloop
  endfacet
  facet normal 0.627344 -0.655415 -0.42056
    outer loop
      vertex 8.84227 5.46934 -1.41883
      vertex 9.5517 6.84624 -2.50639
      vertex 10.3611 6.1671 -0.240624
    endloop
  endfacet
  facet normal 0.627353 -0.655412 -0.420551
    outer loop
      vertex 9.5517 6.84624 -2.50639
      vertex 8.84227 5.46934 -1.41883
      vertex 8.54152 5.99027 -2.67932
    endloop
  endfacet
  facet normal 0.668283 -0.431765 -0.605785
    outer loop
      vertex 10.3611 6.1671 -0.240624
      vertex 9.187 4.87226 -0.612974
      vertex 8.84227 5.46934 -1.41883
    endloop
  endfacet
  facet normal 0.185096 -0.422923 0.88706
    outer loop
      vertex 9.187 4.87226 -0.612974
      vertex 10.3611 6.1671 -0.240624
      vertex 6.63367 9.29476 2.02832
    endloop
  endfacet
  facet normal -0.66838 0.431803 0.605652
    outer loop
      vertex 2.56396 4.18192 3.25
      vertex 2.34415 3.84168 3.25
      vertex 2.3337 3.76501 3.29313
    endloop
  endfacet
  facet normal -0.426518 0.486919 0.762229
    outer loop
      vertex 2.3337 3.76501 3.29313
      vertex 2.34415 3.84168 3.25
      vertex 2.29433 3.79804 3.25
    endloop
  endfacet
  facet normal -0.442617 0.639011 -0.629091
    outer loop
      vertex 4.43787 2.60953 -3.25
      vertex 4.06727 2.31037 -3.29313
      vertex 4.03955 2.33363 -3.25
    endloop
  endfacet
  facet normal 0.541287 -0.583225 -0.605688
    outer loop
      vertex 4.43787 2.60953 -3.25
      vertex 4.14096 2.33397 -3.25
      vertex 4.06727 2.31037 -3.29313
    endloop
  endfacet
  facet normal 0.55357 -0.335426 -0.762266
    outer loop
      vertex 4.14096 2.33397 -3.25
      vertex 4.10664 2.27733 -3.25
      vertex 4.06727 2.31037 -3.29313
    endloop
  endfacet
  facet normal 0.706065 -0.324866 0.629233
    outer loop
      vertex 2.36143 3.74174 3.25
      vertex 2.56396 4.18192 3.25
      vertex 2.3337 3.76501 3.29313
    endloop
  endfacet
  facet normal -0.57358 0.819149 0
    outer loop
      vertex -9.05279 15.9982 -1.25
      vertex -14.3773 12.2699 1.25
      vertex -9.05279 15.9982 1.25
    endloop
  endfacet
  facet normal -0.57358 0.819149 0
    outer loop
      vertex -14.3773 12.2699 1.25
      vertex -9.05279 15.9982 -1.25
      vertex -14.3773 12.2699 -1.25
    endloop
  endfacet
  facet normal 0.573584 -0.819147 1.30258e-05
    outer loop
      vertex -4.5997 2.02543 3.25
      vertex -4.61184 2.01693 3.29313
      vertex -4.65394 1.98745 3.25
    endloop
  endfacet
  facet normal 0.573776 -0.819012 9.37533e-05
    outer loop
      vertex -2.75809 3.31494 -3.29313
      vertex -2.77023 3.30644 -3.25
      vertex -2.78773 3.29418 -3.25
    endloop
  endfacet
  facet normal 0.573557 -0.819166 1.51857e-06
    outer loop
      vertex -4.5997 2.02543 3.25
      vertex -4.58219 2.03769 3.25
      vertex -4.61184 2.01693 3.29313
    endloop
  endfacet
  facet normal 0.573584 -0.819147 1.30258e-05
    outer loop
      vertex -2.75809 3.31494 -3.29313
      vertex -2.71599 3.34442 -3.25
      vertex -2.77023 3.30644 -3.25
    endloop
  endfacet
  facet normal -0.758446 -0.651736 0
    outer loop
      vertex -12.085 9.60228 1.9238
      vertex -14.3773 12.2699 1.25
      vertex -14.3773 12.2699 -1.25
    endloop
  endfacet
  facet normal -0.8525 -0.476284 0.215401
    outer loop
      vertex -12.5283 9.29191 -0.516941
      vertex -12.085 9.60228 1.9238
      vertex -14.3773 12.2699 -1.25
    endloop
  endfacet
  facet normal 0.117583 -0.167925 -0.978762
    outer loop
      vertex -9.05279 15.9982 -1.25
      vertex -12.5283 9.29191 -0.516941
      vertex -14.3773 12.2699 -1.25
    endloop
  endfacet
  facet normal -0.291113 0.0464165 -0.955562
    outer loop
      vertex -9.05279 15.9982 -1.25
      vertex -7.33 12.9318 -1.9238
      vertex -12.5283 9.29191 -0.516941
    endloop
  endfacet
  facet normal 0.871826 0.489816 0
    outer loop
      vertex -9.05279 15.9982 1.25
      vertex -7.33 12.9318 -1.9238
      vertex -9.05279 15.9982 -1.25
    endloop
  endfacet
  facet normal 0.739149 0.638182 -0.215364
    outer loop
      vertex -6.88676 13.2421 0.516941
      vertex -7.33 12.9318 -1.9238
      vertex -9.05279 15.9982 1.25
    endloop
  endfacet
  facet normal 0.117581 -0.167921 0.978763
    outer loop
      vertex -6.88676 13.2421 0.516941
      vertex -9.05279 15.9982 1.25
      vertex -14.3773 12.2699 1.25
    endloop
  endfacet
  facet normal 0.0559494 0.289438 0.95556
    outer loop
      vertex -12.085 9.60228 1.9238
      vertex -6.88676 13.2421 0.516941
      vertex -14.3773 12.2699 1.25
    endloop
  endfacet
  facet normal -0.739142 -0.638179 0.215399
    outer loop
      vertex -9.68008 7.01353 2.50639
      vertex -12.085 9.60228 1.9238
      vertex -12.5283 9.29191 -0.516941
    endloop
  endfacet
  facet normal -0.795449 -0.436362 0.420534
    outer loop
      vertex -10.5455 6.40753 0.240624
      vertex -9.68008 7.01353 2.50639
      vertex -12.5283 9.29191 -0.516941
    endloop
  endfacet
  facet normal -0.0559484 -0.289433 -0.955562
    outer loop
      vertex -7.33 12.9318 -1.9238
      vertex -10.5455 6.40753 0.240624
      vertex -12.5283 9.29191 -0.516941
    endloop
  endfacet
  facet normal -0.456423 -0.0693331 -0.887057
    outer loop
      vertex -6.7772 9.04615 -1.90453
      vertex -7.33 12.9318 -1.9238
      vertex -6.01593 10.3647 -2.39929
    endloop
  endfacet
  facet normal -0.456422 -0.0693329 -0.887058
    outer loop
      vertex -7.33 12.9318 -1.9238
      vertex -6.7772 9.04615 -1.90453
      vertex -10.5455 6.40753 0.240624
    endloop
  endfacet
  facet normal 0.852508 0.476285 -0.215368
    outer loop
      vertex -5.92449 10.3923 -1.97635
      vertex -7.33 12.9318 -1.9238
      vertex -6.88676 13.2421 0.516941
    endloop
  endfacet
  facet normal 0.852505 0.476284 -0.21538
    outer loop
      vertex -6 10.3923 -2.27523
      vertex -7.33 12.9318 -1.9238
      vertex -5.92449 10.3923 -1.97635
    endloop
  endfacet
  facet normal 0.852494 0.476284 -0.215425
    outer loop
      vertex -7.33 12.9318 -1.9238
      vertex -6 10.3923 -2.27523
      vertex -6.01593 10.3647 -2.39929
    endloop
  endfacet
  facet normal 0.670992 0.595858 -0.441275
    outer loop
      vertex -4.85469 10.3923 -0.241259
      vertex -6.88676 13.2421 0.516941
      vertex -4.85445 10.3925 -0.240624
    endloop
  endfacet
  facet normal 0.682081 0.598251 -0.420549
    outer loop
      vertex -6.88676 13.2421 0.516941
      vertex -4.85469 10.3923 -0.241259
      vertex -5.92449 10.3923 -1.97635
    endloop
  endfacet
  facet normal 0.29242 -0.045391 0.955212
    outer loop
      vertex -6.88676 13.2421 0.516941
      vertex -4.856 10.3923 -0.240159
      vertex -4.85445 10.3925 -0.240624
    endloop
  endfacet
  facet normal 0.291112 -0.0464168 0.955562
    outer loop
      vertex -4.856 10.3923 -0.240159
      vertex -6.88676 13.2421 0.516941
      vertex -6 10.3923 0.10836
    endloop
  endfacet
  facet normal 0.291102 -0.04642 0.955565
    outer loop
      vertex -6.88676 13.2421 0.516941
      vertex -6.07704 10.2589 0.125349
      vertex -6 10.3923 0.10836
    endloop
  endfacet
  facet normal 0.291115 -0.0464161 0.955561
    outer loop
      vertex -6.07704 10.2589 0.125349
      vertex -6.88676 13.2421 0.516941
      vertex -12.085 9.60228 1.9238
    endloop
  endfacet
  facet normal 0.221256 0.405169 0.887064
    outer loop
      vertex -12.085 9.60228 1.9238
      vertex -6.7772 9.04615 0.853914
      vertex -6.07704 10.2589 0.125349
    endloop
  endfacet
  facet normal 0.221256 0.405175 0.887062
    outer loop
      vertex -6.7772 9.04615 0.853914
      vertex -12.085 9.60228 1.9238
      vertex -9.68008 7.01353 2.50639
    endloop
  endfacet
  facet normal 0.22648 0.354265 0.907306
    outer loop
      vertex -4.85469 10.3923 -0.240486
      vertex -4.85445 10.3925 -0.240624
      vertex -4.856 10.3923 -0.240159
    endloop
  endfacet
  facet normal -0.682095 -0.598244 0.420535
    outer loop
      vertex -8.85633 5.445 1.61113
      vertex -9.68008 7.01353 2.50639
      vertex -10.5455 6.40753 0.240624
    endloop
  endfacet
  facet normal -0.682088 -0.598246 0.420544
    outer loop
      vertex -9.68008 7.01353 2.50639
      vertex -8.85633 5.445 1.61113
      vertex -8.58759 5.91047 2.70916
    endloop
  endfacet
  facet normal -0.70339 -0.37186 0.605775
    outer loop
      vertex -9.27048 4.72766 0.689899
      vertex -8.85633 5.445 1.61113
      vertex -10.5455 6.40753 0.240624
    endloop
  endfacet
  facet normal -0.22126 -0.405177 -0.88706
    outer loop
      vertex -6.7772 9.04615 -1.90453
      vertex -9.27048 4.72766 0.689899
      vertex -10.5455 6.40753 0.240624
    endloop
  endfacet
  facet normal 0.816796 0.384754 -0.429893
    outer loop
      vertex -4.85445 10.3925 -0.240624
      vertex -4.85442 10.3923 -0.240746
      vertex -4.85469 10.3923 -0.241259
    endloop
  endfacet
  facet normal 0.618407 0.474765 -0.626235
    outer loop
      vertex -4.85434 10.3923 -0.240667
      vertex -4.85442 10.3923 -0.240746
      vertex -4.85445 10.3925 -0.240624
    endloop
  endfacet
  facet normal 0.456418 0.0693293 0.88706
    outer loop
      vertex -7.88366 7.12972 1.573
      vertex -6.7772 9.04615 0.853914
      vertex -9.68008 7.01353 2.50639
    endloop
  endfacet
  facet normal 0.458483 0.0615532 0.886569
    outer loop
      vertex -4.85434 10.3923 -0.240667
      vertex -4.85445 10.3925 -0.240624
      vertex -4.85469 10.3923 -0.240486
    endloop
  endfacet
  facet normal 0.370493 0.509683 0.776504
    outer loop
      vertex -8.58759 5.91047 2.70916
      vertex -7.88366 7.12972 1.573
      vertex -9.68008 7.01353 2.50639
    endloop
  endfacet
  facet normal -0.590013 -0.533759 0.605794
    outer loop
      vertex -4.6832 2.04686 3.25
      vertex -4.61184 2.01693 3.29313
      vertex -4.95495 2.34725 3.25
    endloop
  endfacet
  facet normal -0.58066 -0.285981 0.762265
    outer loop
      vertex -4.65394 1.98745 3.25
      vertex -4.61184 2.01693 3.29313
      vertex -4.6832 2.04686 3.25
    endloop
  endfacet
  facet normal -0.731795 -0.26215 -0.62909
    outer loop
      vertex -2.75809 3.31494 -3.29313
      vertex -2.78773 3.29418 -3.25
      vertex -2.95114 3.75034 -3.25
    endloop
  endfacet
  facet normal 0.703398 0.371881 -0.605752
    outer loop
      vertex -2.76181 3.39223 -3.25
      vertex -2.75809 3.31494 -3.29313
      vertex -2.95114 3.75034 -3.25
    endloop
  endfacet
  facet normal 0.467308 0.447857 -0.762265
    outer loop
      vertex -2.71599 3.34442 -3.25
      vertex -2.75809 3.31494 -3.29313
      vertex -2.76181 3.39223 -3.25
    endloop
  endfacet
  facet normal 0.49657 0.59795 0.629185
    outer loop
      vertex -4.61184 2.01693 3.29313
      vertex -4.58219 2.03769 3.25
      vertex -4.95495 2.34725 3.25
    endloop
  endfacet
  facet normal 0.499999 -0.866026 0
    outer loop
      vertex 8.38542 -16.0872 -1.25
      vertex 14.0146 -12.8372 1.25
      vertex 8.38542 -16.0872 1.25
    endloop
  endfacet
  facet normal 0.499999 -0.866026 0
    outer loop
      vertex 14.0146 -12.8372 1.25
      vertex 8.38542 -16.0872 -1.25
      vertex 14.0146 -12.8372 -1.25
    endloop
  endfacet
  facet normal -0.499983 0.866035 6.6738e-05
    outer loop
      vertex 5.17991 -1.77207 3.29313
      vertex 5.22442 -1.74637 3.25
      vertex 5.14857 -1.79016 3.25
    endloop
  endfacet
  facet normal -0.499983 0.866035 6.6738e-05
    outer loop
      vertex 3.25143 -2.88548 -3.25
      vertex 3.22009 -2.90357 -3.29313
      vertex 3.17558 -2.92927 -3.25
    endloop
  endfacet
  facet normal 0.812379 0.58313 0
    outer loop
      vertex 14.0146 -12.8372 1.25
      vertex 14.0146 -12.8372 -1.25
      vertex 11.9636 -9.97988 1.9238
    endloop
  endfacet
  facet normal 0.890774 0.400169 0.215378
    outer loop
      vertex 14.0146 -12.8372 -1.25
      vertex 12.4322 -9.70933 -0.516941
      vertex 11.9636 -9.97988 1.9238
    endloop
  endfacet
  facet normal -0.102498 0.177532 -0.978763
    outer loop
      vertex 12.4322 -9.70933 -0.516941
      vertex 14.0146 -12.8372 -1.25
      vertex 8.38542 -16.0872 -1.25
    endloop
  endfacet
  facet normal 0.285959 -0.0716118 -0.955562
    outer loop
      vertex 12.4322 -9.70933 -0.516941
      vertex 8.38542 -16.0872 -1.25
      vertex 6.93644 -12.8823 -1.9238
    endloop
  endfacet
  facet normal -0.911199 -0.411966 0
    outer loop
      vertex 8.38542 -16.0872 -1.25
      vertex 8.38542 -16.0872 1.25
      vertex 6.93644 -12.8823 -1.9238
    endloop
  endfacet
  facet normal -0.791955 -0.571334 -0.215371
    outer loop
      vertex 6.93644 -12.8823 -1.9238
      vertex 8.38542 -16.0872 1.25
      vertex 6.46783 -13.1528 0.516941
    endloop
  endfacet
  facet normal -0.102497 0.17753 0.978763
    outer loop
      vertex 8.38542 -16.0872 1.25
      vertex 14.0146 -12.8372 1.25
      vertex 6.46783 -13.1528 0.516941
    endloop
  endfacet
  facet normal -0.0809652 -0.283453 0.955562
    outer loop
      vertex 14.0146 -12.8372 1.25
      vertex 11.9636 -9.97988 1.9238
      vertex 6.46783 -13.1528 0.516941
    endloop
  endfacet
  facet normal 0.79194 0.571351 0.215378
    outer loop
      vertex 11.9636 -9.97988 1.9238
      vertex 12.4322 -9.70933 -0.516941
      vertex 9.79338 -7.19139 2.50639
    endloop
  endfacet
  facet normal 0.830452 0.365349 0.420558
    outer loop
      vertex 12.4322 -9.70933 -0.516941
      vertex 10.7084 -6.66311 0.240624
      vertex 9.79338 -7.19139 2.50639
    endloop
  endfacet
  facet normal 0.0809624 0.283454 -0.955562
    outer loop
      vertex 10.7084 -6.66311 0.240624
      vertex 12.4322 -9.70933 -0.516941
      vertex 6.93644 -12.8823 -1.9238
    endloop
  endfacet
  facet normal 0.460721 0.0292892 -0.887062
    outer loop
      vertex 6.93644 -12.8823 -1.9238
      vertex 6.87539 -8.87609 -1.82323
      vertex 10.7084 -6.66311 0.240624
    endloop
  endfacet
  facet normal 0.46072 0.0292892 -0.887062
    outer loop
      vertex 6.93644 -12.8823 -1.9238
      vertex 6 -10.3923 -2.32795
      vertex 6.87539 -8.87609 -1.82323
    endloop
  endfacet
  facet normal 0.460823 0.029337 -0.887007
    outer loop
      vertex 6 -10.3923 -2.32795
      vertex 6.93644 -12.8823 -1.9238
      vertex 5.92497 -10.3923 -2.36693
    endloop
  endfacet
  facet normal -0.890771 -0.400173 -0.215381
    outer loop
      vertex 6.93644 -12.8823 -1.9238
      vertex 5.79705 -10.3923 -1.83788
      vertex 5.92497 -10.3923 -2.36693
    endloop
  endfacet
  facet normal -0.890772 -0.400174 -0.215374
    outer loop
      vertex 5.79705 -10.3923 -1.83788
      vertex 6.93644 -12.8823 -1.9238
      vertex 6.46783 -13.1528 0.516941
    endloop
  endfacet
  facet normal -0.731628 -0.536525 -0.420549
    outer loop
      vertex 5.79705 -10.3923 -1.83788
      vertex 6.46783 -13.1528 0.516941
      vertex 4.84205 -10.3923 -0.176467
    endloop
  endfacet
  facet normal -0.285959 0.0716132 0.955562
    outer loop
      vertex 6.16584 -10.1051 0.198163
      vertex 6.46783 -13.1528 0.516941
      vertex 11.9636 -9.97988 1.9238
    endloop
  endfacet
  facet normal -0.28595 0.0716144 0.955565
    outer loop
      vertex 6 -10.3923 0.17006
      vertex 6.46783 -13.1528 0.516941
      vertex 6.16584 -10.1051 0.198163
    endloop
  endfacet
  facet normal -0.28596 0.0716121 0.955562
    outer loop
      vertex 6.46783 -13.1528 0.516941
      vertex 6 -10.3923 0.17006
      vertex 4.84205 -10.3923 -0.176467
    endloop
  endfacet
  facet normal -0.255725 -0.384356 0.88706
    outer loop
      vertex 6.87539 -8.87609 0.935213
      vertex 11.9636 -9.97988 1.9238
      vertex 9.79338 -7.19139 2.50639
    endloop
  endfacet
  facet normal -0.255724 -0.384344 0.887065
    outer loop
      vertex 11.9636 -9.97988 1.9238
      vertex 6.87539 -8.87609 0.935213
      vertex 6.16584 -10.1051 0.198163
    endloop
  endfacet
  facet normal 0.731636 0.536519 0.420542
    outer loop
      vertex 9.79338 -7.19139 2.50639
      vertex 8.88236 -5.39991 1.8058
      vertex 8.64558 -5.81003 2.74096
    endloop
  endfacet
  facet normal 0.731626 0.53652 0.420558
    outer loop
      vertex 8.88236 -5.39991 1.8058
      vertex 9.79338 -7.19139 2.50639
      vertex 10.7084 -6.66311 0.240624
    endloop
  endfacet
  facet normal 0.733108 0.309156 0.605785
    outer loop
      vertex 10.7084 -6.66311 0.240624
      vertex 9.37528 -4.54615 0.773571
      vertex 8.88236 -5.39991 1.8058
    endloop
  endfacet
  facet normal 0.255724 0.384356 -0.88706
    outer loop
      vertex 9.37528 -4.54615 0.773571
      vertex 10.7084 -6.66311 0.240624
      vertex 6.87539 -8.87609 -1.82323
    endloop
  endfacet
  facet normal -0.460724 -0.0292877 0.88706
    outer loop
      vertex 9.79338 -7.19139 2.50639
      vertex 7.8732 -7.14782 1.51052
      vertex 6.87539 -8.87609 0.935213
    endloop
  endfacet
  facet normal -0.413509 -0.475451 0.776503
    outer loop
      vertex 9.79338 -7.19139 2.50639
      vertex 8.64558 -5.81003 2.74096
      vertex 7.8732 -7.14782 1.51052
    endloop
  endfacet
  facet normal 0.634306 0.480331 0.605754
    outer loop
      vertex 5.49293 -2.13104 3.25
      vertex 5.24839 -1.80811 3.25
      vertex 5.17991 -1.77207 3.29313
    endloop
  endfacet
  facet normal 0.603379 0.234256 0.762272
    outer loop
      vertex 5.24839 -1.80811 3.25
      vertex 5.22442 -1.74637 3.25
      vertex 5.17991 -1.77207 3.29313
    endloop
  endfacet
  facet normal 0.751852 0.197356 -0.629103
    outer loop
      vertex 3.25143 -2.88548 -3.25
      vertex 3.37445 -3.35414 -3.25
      vertex 3.22009 -2.90357 -3.29313
    endloop
  endfacet
  facet normal -0.733114 -0.309144 -0.605783
    outer loop
      vertex 3.22009 -2.90357 -3.29313
      vertex 3.37445 -3.35414 -3.25
      vertex 3.21706 -2.9809 -3.25
    endloop
  endfacet
  facet normal -0.504577 -0.405382 -0.762278
    outer loop
      vertex 3.22009 -2.90357 -3.29313
      vertex 3.21706 -2.9809 -3.25
      vertex 3.17558 -2.92927 -3.25
    endloop
  endfacet
  facet normal -0.546862 -0.552445 0.629084
    outer loop
      vertex 5.49293 -2.13104 3.25
      vertex 5.17991 -1.77207 3.29313
      vertex 5.14857 -1.79016 3.25
    endloop
  endfacet
  facet normal -0.499999 -0.866026 0
    outer loop
      vertex -14.0146 -12.8372 -1.25
      vertex -8.38542 -16.0872 1.25
      vertex -14.0146 -12.8372 1.25
    endloop
  endfacet
  facet normal -0.499999 -0.866026 -0
    outer loop
      vertex -8.38542 -16.0872 1.25
      vertex -14.0146 -12.8372 -1.25
      vertex -8.38542 -16.0872 -1.25
    endloop
  endfacet
  facet normal 0.499983 0.866035 -6.6738e-05
    outer loop
      vertex -3.22009 -2.90357 3.29313
      vertex -3.17558 -2.92927 3.25
      vertex -3.25143 -2.88548 3.25
    endloop
  endfacet
  facet normal 0.499983 0.866035 -6.6738e-05
    outer loop
      vertex -5.14857 -1.79016 -3.25
      vertex -5.17991 -1.77207 -3.29313
      vertex -5.22442 -1.74637 -3.25
    endloop
  endfacet
  facet normal 0.911199 -0.411966 0
    outer loop
      vertex -6.93644 -12.8823 1.9238
      vertex -8.38542 -16.0872 1.25
      vertex -8.38542 -16.0872 -1.25
    endloop
  endfacet
  facet normal 0.791955 -0.571334 0.215371
    outer loop
      vertex -6.46783 -13.1528 -0.516941
      vertex -6.93644 -12.8823 1.9238
      vertex -8.38542 -16.0872 -1.25
    endloop
  endfacet
  facet normal 0.102497 0.17753 -0.978763
    outer loop
      vertex -6.46783 -13.1528 -0.516941
      vertex -8.38542 -16.0872 -1.25
      vertex -14.0146 -12.8372 -1.25
    endloop
  endfacet
  facet normal 0.0809652 -0.283453 -0.955562
    outer loop
      vertex -11.9636 -9.97988 -1.9238
      vertex -6.46783 -13.1528 -0.516941
      vertex -14.0146 -12.8372 -1.25
    endloop
  endfacet
  facet normal -0.812379 0.58313 0
    outer loop
      vertex -14.0146 -12.8372 1.25
      vertex -11.9636 -9.97988 -1.9238
      vertex -14.0146 -12.8372 -1.25
    endloop
  endfacet
  facet normal -0.890774 0.400169 -0.215378
    outer loop
      vertex -12.4322 -9.70933 0.516941
      vertex -11.9636 -9.97988 -1.9238
      vertex -14.0146 -12.8372 1.25
    endloop
  endfacet
  facet normal 0.102498 0.177532 0.978763
    outer loop
      vertex -8.38542 -16.0872 1.25
      vertex -12.4322 -9.70933 0.516941
      vertex -14.0146 -12.8372 1.25
    endloop
  endfacet
  facet normal -0.285959 -0.0716118 0.955562
    outer loop
      vertex -8.38542 -16.0872 1.25
      vertex -6.93644 -12.8823 1.9238
      vertex -12.4322 -9.70933 0.516941
    endloop
  endfacet
  facet normal 0.890771 -0.400173 0.215381
    outer loop
      vertex -6.93644 -12.8823 1.9238
      vertex -5.79705 -10.3923 1.83788
      vertex -5.92497 -10.3923 2.36693
    endloop
  endfacet
  facet normal 0.890772 -0.400174 0.215374
    outer loop
      vertex -5.79705 -10.3923 1.83788
      vertex -6.93644 -12.8823 1.9238
      vertex -6.46783 -13.1528 -0.516941
    endloop
  endfacet
  facet normal 0.731628 -0.536525 0.420549
    outer loop
      vertex -4.84205 -10.3923 0.176467
      vertex -5.79705 -10.3923 1.83788
      vertex -6.46783 -13.1528 -0.516941
    endloop
  endfacet
  facet normal 0.28596 0.0716121 -0.955562
    outer loop
      vertex -6.46783 -13.1528 -0.516941
      vertex -6 -10.3923 -0.17006
      vertex -4.84205 -10.3923 0.176467
    endloop
  endfacet
  facet normal 0.28595 0.0716144 -0.955565
    outer loop
      vertex -6.46783 -13.1528 -0.516941
      vertex -6.16584 -10.1051 -0.198163
      vertex -6 -10.3923 -0.17006
    endloop
  endfacet
  facet normal 0.285959 0.0716132 -0.955562
    outer loop
      vertex -6.16584 -10.1051 -0.198163
      vertex -6.46783 -13.1528 -0.516941
      vertex -11.9636 -9.97988 -1.9238
    endloop
  endfacet
  facet normal 0.255724 -0.384344 -0.887065
    outer loop
      vertex -11.9636 -9.97988 -1.9238
      vertex -6.87539 -8.87609 -0.935213
      vertex -6.16584 -10.1051 -0.198163
    endloop
  endfacet
  facet normal 0.255725 -0.384356 -0.88706
    outer loop
      vertex -6.87539 -8.87609 -0.935213
      vertex -11.9636 -9.97988 -1.9238
      vertex -9.79338 -7.19139 -2.50639
    endloop
  endfacet
  facet normal -0.79194 0.571351 -0.215378
    outer loop
      vertex -9.79338 -7.19139 -2.50639
      vertex -11.9636 -9.97988 -1.9238
      vertex -12.4322 -9.70933 0.516941
    endloop
  endfacet
  facet normal -0.830452 0.365349 -0.420558
    outer loop
      vertex -10.7084 -6.66311 -0.240624
      vertex -9.79338 -7.19139 -2.50639
      vertex -12.4322 -9.70933 0.516941
    endloop
  endfacet
  facet normal -0.0809624 0.283454 0.955562
    outer loop
      vertex -6.93644 -12.8823 1.9238
      vertex -10.7084 -6.66311 -0.240624
      vertex -12.4322 -9.70933 0.516941
    endloop
  endfacet
  facet normal -0.460823 0.029337 0.887007
    outer loop
      vertex -6 -10.3923 2.32795
      vertex -6.93644 -12.8823 1.9238
      vertex -5.92497 -10.3923 2.36693
    endloop
  endfacet
  facet normal -0.46072 0.0292892 0.887062
    outer loop
      vertex -6.87539 -8.87609 1.82323
      vertex -6.93644 -12.8823 1.9238
      vertex -6 -10.3923 2.32795
    endloop
  endfacet
  facet normal -0.460721 0.0292892 0.887062
    outer loop
      vertex -6.93644 -12.8823 1.9238
      vertex -6.87539 -8.87609 1.82323
      vertex -10.7084 -6.66311 -0.240624
    endloop
  endfacet
  facet normal 0.460724 -0.0292877 -0.88706
    outer loop
      vertex -7.8732 -7.14782 -1.51052
      vertex -6.87539 -8.87609 -0.935213
      vertex -9.79338 -7.19139 -2.50639
    endloop
  endfacet
  facet normal 0.413509 -0.475451 -0.776503
    outer loop
      vertex -8.64558 -5.81003 -2.74096
      vertex -7.8732 -7.14782 -1.51052
      vertex -9.79338 -7.19139 -2.50639
    endloop
  endfacet
  facet normal -0.731636 0.536519 -0.420542
    outer loop
      vertex -9.79338 -7.19139 -2.50639
      vertex -8.88236 -5.39991 -1.8058
      vertex -8.64558 -5.81003 -2.74096
    endloop
  endfacet
  facet normal -0.731626 0.53652 -0.420558
    outer loop
      vertex -8.88236 -5.39991 -1.8058
      vertex -9.79338 -7.19139 -2.50639
      vertex -10.7084 -6.66311 -0.240624
    endloop
  endfacet
  facet normal -0.733108 0.309156 -0.605785
    outer loop
      vertex -9.37528 -4.54615 -0.773571
      vertex -8.88236 -5.39991 -1.8058
      vertex -10.7084 -6.66311 -0.240624
    endloop
  endfacet
  facet normal -0.255724 0.384356 0.88706
    outer loop
      vertex -6.87539 -8.87609 1.82323
      vertex -9.37528 -4.54615 -0.773571
      vertex -10.7084 -6.66311 -0.240624
    endloop
  endfacet
  facet normal 0.733114 -0.309144 0.605783
    outer loop
      vertex -3.21706 -2.9809 3.25
      vertex -3.22009 -2.90357 3.29313
      vertex -3.37445 -3.35414 3.25
    endloop
  endfacet
  facet normal 0.504577 -0.405382 0.762278
    outer loop
      vertex -3.21706 -2.9809 3.25
      vertex -3.17558 -2.92927 3.25
      vertex -3.22009 -2.90357 3.29313
    endloop
  endfacet
  facet normal 0.546862 -0.552445 -0.629084
    outer loop
      vertex -5.17991 -1.77207 -3.29313
      vertex -5.14857 -1.79016 -3.25
      vertex -5.49293 -2.13104 -3.25
    endloop
  endfacet
  facet normal -0.634306 0.480331 -0.605754
    outer loop
      vertex -5.24839 -1.80811 -3.25
      vertex -5.17991 -1.77207 -3.29313
      vertex -5.49293 -2.13104 -3.25
    endloop
  endfacet
  facet normal -0.603379 0.234256 -0.762272
    outer loop
      vertex -5.22442 -1.74637 -3.25
      vertex -5.17991 -1.77207 -3.29313
      vertex -5.24839 -1.80811 -3.25
    endloop
  endfacet
  facet normal -0.751852 0.197356 0.629103
    outer loop
      vertex -3.22009 -2.90357 3.29313
      vertex -3.25143 -2.88548 3.25
      vertex -3.37445 -3.35414 3.25
    endloop
  endfacet
  facet normal 0 0 -1
    outer loop
      vertex -4.6832 2.04686 3.25
      vertex -4.5997 2.02543 3.25
      vertex -4.65394 1.98745 3.25
    endloop
  endfacet
  facet normal 0 0 -1
    outer loop
      vertex -4.5997 2.02543 3.25
      vertex -4.6832 2.04686 3.25
      vertex -4.58219 2.03769 3.25
    endloop
  endfacet
  facet normal 0 0 -1
    outer loop
      vertex -4.58219 2.03769 3.25
      vertex -4.6832 2.04686 3.25
      vertex -4.95495 2.34725 3.25
    endloop
  endfacet
  facet normal 0 0 -1
    outer loop
      vertex -3.70545 -1.17279 3.25
      vertex -3.64 -1.09532 3.25
      vertex -3.64 -1.1829 3.25
    endloop
  endfacet
  facet normal 0 0 -1
    outer loop
      vertex -3.64 -1.09532 3.25
      vertex -3.70545 -1.17279 3.25
      vertex -4.10739 -1.2231 3.25
    endloop
  endfacet
  facet normal 0 0 -1
    outer loop
      vertex -3.21706 -2.9809 3.25
      vertex -3.25143 -2.88548 3.25
      vertex -3.17558 -2.92927 3.25
    endloop
  endfacet
  facet normal 0 -0 -1
    outer loop
      vertex -3.25143 -2.88548 3.25
      vertex -3.21706 -2.9809 3.25
      vertex -3.37445 -3.35414 3.25
    endloop
  endfacet
  facet normal 0 0 -1
    outer loop
      vertex -1.09532 3.64 3.25
      vertex -1.1829 3.64 3.25
      vertex -1.17279 3.70545 3.25
    endloop
  endfacet
  facet normal 0 0 -1
    outer loop
      vertex -1.09532 3.64 3.25
      vertex -1.17279 3.70545 3.25
      vertex -1.2231 4.10739 3.25
    endloop
  endfacet
  facet normal 0 0 -1
    outer loop
      vertex 1.2231 -4.10739 3.25
      vertex 1.09532 -3.64 3.25
      vertex 1.17279 -3.70545 3.25
    endloop
  endfacet
  facet normal -0 0 -1
    outer loop
      vertex 1.1829 -3.64 3.25
      vertex 1.17279 -3.70545 3.25
      vertex 1.09532 -3.64 3.25
    endloop
  endfacet
  facet normal 0 0 -1
    outer loop
      vertex 2.34415 3.84168 3.25
      vertex 2.36143 3.74174 3.25
      vertex 2.34506 3.75548 3.25
    endloop
  endfacet
  facet normal 0 0 -1
    outer loop
      vertex 2.36143 3.74174 3.25
      vertex 2.34415 3.84168 3.25
      vertex 2.56396 4.18192 3.25
    endloop
  endfacet
  facet normal 0 -0 -1
    outer loop
      vertex 2.34415 3.84168 3.25
      vertex 2.34506 3.75548 3.25
      vertex 2.29433 3.79804 3.25
    endloop
  endfacet
  facet normal 0 0 -1
    outer loop
      vertex 5.24839 -1.80811 3.25
      vertex 5.14857 -1.79016 3.25
      vertex 5.22442 -1.74637 3.25
    endloop
  endfacet
  facet normal 0 0 -1
    outer loop
      vertex 5.14857 -1.79016 3.25
      vertex 5.24839 -1.80811 3.25
      vertex 5.49293 -2.13104 3.25
    endloop
  endfacet
  facet normal 0 0 -1
    outer loop
      vertex 3.64 1.09532 3.25
      vertex 3.70545 1.17279 3.25
      vertex 4.10739 1.2231 3.25
    endloop
  endfacet
  facet normal -0 0 -1
    outer loop
      vertex 3.70545 1.17279 3.25
      vertex 3.64 1.09532 3.25
      vertex 3.64 1.1829 3.25
    endloop
  endfacet
  facet normal 0 0 1
    outer loop
      vertex -5.24839 -1.80811 -3.25
      vertex -5.14857 -1.79016 -3.25
      vertex -5.22442 -1.74637 -3.25
    endloop
  endfacet
  facet normal 0 0 1
    outer loop
      vertex -5.14857 -1.79016 -3.25
      vertex -5.24839 -1.80811 -3.25
      vertex -5.49293 -2.13104 -3.25
    endloop
  endfacet
  facet normal -0 0 1
    outer loop
      vertex -3.70545 1.17279 -3.25
      vertex -3.64 1.09532 -3.25
      vertex -3.64 1.1829 -3.25
    endloop
  endfacet
  facet normal 0 0 1
    outer loop
      vertex -3.64 1.09532 -3.25
      vertex -3.70545 1.17279 -3.25
      vertex -4.10739 1.2231 -3.25
    endloop
  endfacet
  facet normal 0 0 1
    outer loop
      vertex -2.76181 3.39223 -3.25
      vertex -2.77023 3.30644 -3.25
      vertex -2.71599 3.34442 -3.25
    endloop
  endfacet
  facet normal 0 0 1
    outer loop
      vertex -2.76181 3.39223 -3.25
      vertex -2.78773 3.29418 -3.25
      vertex -2.77023 3.30644 -3.25
    endloop
  endfacet
  facet normal 0 -0 1
    outer loop
      vertex -2.78773 3.29418 -3.25
      vertex -2.76181 3.39223 -3.25
      vertex -2.95114 3.75034 -3.25
    endloop
  endfacet
  facet normal 0 0 1
    outer loop
      vertex -1.09532 -3.64 -3.25
      vertex -1.1829 -3.64 -3.25
      vertex -1.17279 -3.70545 -3.25
    endloop
  endfacet
  facet normal 0 0 1
    outer loop
      vertex -1.09532 -3.64 -3.25
      vertex -1.17279 -3.70545 -3.25
      vertex -1.2231 -4.10739 -3.25
    endloop
  endfacet
  facet normal 0 0 1
    outer loop
      vertex 1.2231 4.10739 -3.25
      vertex 1.09532 3.64 -3.25
      vertex 1.17279 3.70545 -3.25
    endloop
  endfacet
  facet normal 0 0 1
    outer loop
      vertex 1.1829 3.64 -3.25
      vertex 1.17279 3.70545 -3.25
      vertex 1.09532 3.64 -3.25
    endloop
  endfacet
  facet normal 0 0 1
    outer loop
      vertex 4.14096 2.33397 -3.25
      vertex 4.05592 2.3199 -3.25
      vertex 4.10664 2.27733 -3.25
    endloop
  endfacet
  facet normal 0 0 1
    outer loop
      vertex 4.03955 2.33363 -3.25
      vertex 4.14096 2.33397 -3.25
      vertex 4.43787 2.60953 -3.25
    endloop
  endfacet
  facet normal 0 0 1
    outer loop
      vertex 4.14096 2.33397 -3.25
      vertex 4.03955 2.33363 -3.25
      vertex 4.05592 2.3199 -3.25
    endloop
  endfacet
  facet normal 0 0 1
    outer loop
      vertex 3.25143 -2.88548 -3.25
      vertex 3.21706 -2.9809 -3.25
      vertex 3.37445 -3.35414 -3.25
    endloop
  endfacet
  facet normal 0 -0 1
    outer loop
      vertex 3.21706 -2.9809 -3.25
      vertex 3.25143 -2.88548 -3.25
      vertex 3.17558 -2.92927 -3.25
    endloop
  endfacet
  facet normal 0 0 1
    outer loop
      vertex 3.64 -1.09532 -3.25
      vertex 3.70545 -1.17279 -3.25
      vertex 4.10739 -1.2231 -3.25
    endloop
  endfacet
  facet normal 0 0 1
    outer loop
      vertex 3.70545 -1.17279 -3.25
      vertex 3.64 -1.09532 -3.25
      vertex 3.64 -1.1829 -3.25
    endloop
  endfacet
endsolid OpenSCAD_Model
